<svg width="40" height="40" viewBox="0 0 40 40" fill="none" xmlns="http://www.w3.org/2000/svg">
<path d="M27.4483 3H11.8833C6.215 3 3 6.215 3 11.8833V27.45C3 33.1167 6.215 36.3333 11.8833 36.3333H27.4483C33.1167 36.3333 36.3333 33.1167 36.3333 27.45V11.8833C36.3167 6.215 33.1167 3 27.4483 3Z" fill="#9374FF"/>
<path d="M28.7998 28.1833C28.7148 28.9 28.1165 29.4333 27.4165 29.4333C26.6982 29.4333 26.0998 28.9 26.0332 28.1833V22.7167C25.9665 22.1817 26.2148 21.6833 26.6665 21.4C27.1332 21.1167 27.6998 21.1167 28.1482 21.4C28.5998 21.6833 28.8482 22.1817 28.7998 22.7167V28.1833Z" fill="#FFDC60"/>
<path d="M21.1316 28.1833C21.0649 28.8999 20.4666 29.4333 19.7482 29.4333C19.0482 29.4333 18.4499 28.8999 18.3649 28.1833V11.1999C18.3166 10.6833 18.5649 10.1649 19.0166 9.88328C19.4649 9.59994 20.0316 9.59994 20.4999 9.88328C20.9499 10.1649 21.1982 10.6833 21.1316 11.1999V28.1833Z" fill="#FFDC60"/>
<path d="M13.365 28.1833C13.2984 28.8999 12.7 29.4333 11.9817 29.4333C11.265 29.4333 10.665 28.8999 10.6 28.1833V16.6666C10.55 16.1483 10.7984 15.6333 11.25 15.35C11.6984 15.0666 12.2667 15.0666 12.7167 15.35C13.165 15.6333 13.4167 16.1483 13.365 16.6666V28.1833Z" fill="#FFDC60"/>
</svg>
