<svg width="350" height="321" viewBox="0 0 350 321" fill="none" xmlns="http://www.w3.org/2000/svg">
<rect width="103.944" height="103.944" transform="matrix(-1 0 0 1 149.886 2)" fill="#F4F1FF"/>
<rect x="120.105" y="242.59" width="40.959" height="40.8769" fill="#F4F1FF"/>
<rect x="82.7314" y="173.099" width="67.1549" height="67.1549" fill="#F4F1FF"/>
<rect x="45.9423" y="283.734" width="36.5945" height="36.5211" fill="#F4F1FF"/>
<rect x="298.211" y="0.832031" width="29.1978" height="29.1978" fill="#F4F1FF"/>
<rect x="196.241" y="196.344" width="39.2084" height="39.1298" fill="#F4F1FF"/>
<rect x="268.124" y="132.432" width="26.1389" height="26.0865" fill="#F4F1FF"/>
<rect x="196.019" y="2" width="78.4168" height="78.2595" fill="#F4F1FF"/>
<rect x="274.269" y="79.666" width="52.2779" height="52.173" fill="#F4F1FF"/>
<rect x="260.282" y="196.344" width="60.1196" height="59.999" fill="#F4F1FF"/>
<rect x="196.241" y="255.735" width="64.6503" height="64.5206" fill="#F4F1FF"/>
<g filter="url(#filter0_d_1_4245)">
<rect x="149.886" y="50.4683" width="150.076" height="128.47" rx="3.50373" fill="white"/>
</g>
<path d="M167.003 64.738C167.533 64.738 168.012 64.8501 168.442 65.0743C168.878 65.2986 169.224 65.6256 169.479 66.0554C169.734 66.4852 169.862 66.9928 169.862 67.5783V68.3071C169.862 68.8926 169.734 69.4003 169.479 69.8301C169.224 70.2598 168.878 70.5869 168.442 70.8111C168.012 71.0353 167.533 71.1475 167.003 71.1475H164.574V64.738H167.003ZM166.022 69.9982H167.003C167.402 69.9982 167.726 69.8705 167.975 69.6152C168.224 69.3536 168.349 68.986 168.349 68.5127V67.3728C168.349 66.8994 168.224 66.535 167.975 66.2796C167.726 66.018 167.402 65.8872 167.003 65.8872H166.022V69.9982ZM173.847 67.924C173.847 67.7122 173.779 67.541 173.642 67.4101C173.511 67.2793 173.296 67.2139 172.997 67.2139C172.823 67.2139 172.673 67.2451 172.549 67.3074C172.424 67.3634 172.328 67.4351 172.259 67.5223C172.197 67.6095 172.166 67.6904 172.166 67.7652V67.8399H170.848C170.836 67.7652 170.83 67.7091 170.83 67.6718C170.83 67.4039 170.917 67.1641 171.091 66.9523C171.272 66.7405 171.521 66.5755 171.839 66.4571C172.156 66.3388 172.521 66.2796 172.932 66.2796H173.128C173.801 66.2796 174.312 66.4135 174.66 66.6814C175.009 66.943 175.184 67.3043 175.184 67.7652V69.9702C175.184 70.0823 175.208 70.1664 175.258 70.2225C175.314 70.2785 175.38 70.3066 175.455 70.3066C175.517 70.3066 175.585 70.2941 175.66 70.2692C175.735 70.2443 175.794 70.2225 175.838 70.2038V71.0447C175.607 71.1755 175.333 71.2409 175.015 71.2409C174.673 71.2409 174.411 71.1724 174.231 71.0353C174.05 70.8921 173.944 70.6928 173.913 70.4374C173.477 70.9731 172.941 71.2409 172.306 71.2409C171.832 71.2409 171.443 71.1443 171.138 70.9513C170.833 70.7582 170.68 70.3907 170.68 69.8487C170.68 69.4065 170.805 69.0701 171.054 68.8397C171.309 68.603 171.661 68.4441 172.11 68.3632C172.558 68.2822 173.137 68.2417 173.847 68.2417V67.924ZM173.847 69.0078C173.256 69.0078 172.813 69.067 172.521 69.1854C172.234 69.2975 172.091 69.4844 172.091 69.746C172.091 69.9515 172.147 70.0979 172.259 70.1851C172.377 70.2661 172.555 70.3066 172.792 70.3066C172.954 70.3066 173.116 70.263 173.278 70.1758C173.439 70.0886 173.573 69.964 173.679 69.802C173.791 69.6401 173.847 69.4594 173.847 69.2601V69.0078ZM179.095 71.0634C178.971 71.1132 178.806 71.1537 178.6 71.1848C178.401 71.2222 178.223 71.2409 178.067 71.2409C177.588 71.2409 177.227 71.1381 176.984 70.9326C176.741 70.727 176.619 70.3844 176.619 69.9048V67.3074H176.096V66.373H176.666L177.142 64.8501H177.983V66.373H179.095V67.3074H177.983V69.6712C177.983 69.9204 178.03 70.0886 178.123 70.1758C178.223 70.263 178.354 70.3066 178.516 70.3066C178.591 70.3066 178.687 70.2941 178.806 70.2692C178.924 70.2443 179.02 70.2162 179.095 70.1851V71.0634ZM182.899 67.924C182.899 67.7122 182.83 67.541 182.693 67.4101C182.562 67.2793 182.348 67.2139 182.049 67.2139C181.874 67.2139 181.725 67.2451 181.6 67.3074C181.475 67.3634 181.379 67.4351 181.31 67.5223C181.248 67.6095 181.217 67.6904 181.217 67.7652V67.8399H179.9C179.887 67.7652 179.881 67.7091 179.881 67.6718C179.881 67.4039 179.968 67.1641 180.143 66.9523C180.323 66.7405 180.572 66.5755 180.89 66.4571C181.208 66.3388 181.572 66.2796 181.983 66.2796H182.179C182.852 66.2796 183.363 66.4135 183.712 66.6814C184.06 66.943 184.235 67.3043 184.235 67.7652V69.9702C184.235 70.0823 184.26 70.1664 184.31 70.2225C184.366 70.2785 184.431 70.3066 184.506 70.3066C184.568 70.3066 184.637 70.2941 184.711 70.2692C184.786 70.2443 184.845 70.2225 184.889 70.2038V71.0447C184.658 71.1755 184.384 71.2409 184.067 71.2409C183.724 71.2409 183.463 71.1724 183.282 71.0353C183.101 70.8921 182.995 70.6928 182.964 70.4374C182.528 70.9731 181.992 71.2409 181.357 71.2409C180.884 71.2409 180.494 71.1443 180.189 70.9513C179.884 70.7582 179.731 70.3907 179.731 69.8487C179.731 69.4065 179.856 69.0701 180.105 68.8397C180.361 68.603 180.712 68.4441 181.161 68.3632C181.609 68.2822 182.189 68.2417 182.899 68.2417V67.924ZM182.899 69.0078C182.307 69.0078 181.865 69.067 181.572 69.1854C181.286 69.2975 181.142 69.4844 181.142 69.746C181.142 69.9515 181.198 70.0979 181.31 70.1851C181.429 70.2661 181.606 70.3066 181.843 70.3066C182.005 70.3066 182.167 70.263 182.329 70.1758C182.491 70.0886 182.625 69.964 182.731 69.802C182.843 69.6401 182.899 69.4594 182.899 69.2601V69.0078ZM191.405 69.8861H188.854L188.406 71.1475H187.013L189.34 64.738H191.059L193.386 71.1475H191.872L191.405 69.8861ZM189.246 68.793H191.022C190.785 68.0891 190.498 67.2513 190.162 66.2796H190.115L189.246 68.793ZM195.185 67.0738C195.577 66.5443 196.085 66.2796 196.708 66.2796C197.193 66.2796 197.592 66.4104 197.903 66.672C198.221 66.9336 198.38 67.3136 198.38 67.8119V71.1475H197.016V68.1109C197.016 67.868 196.944 67.6686 196.801 67.5129C196.664 67.351 196.486 67.27 196.268 67.27C196.025 67.27 195.817 67.3634 195.642 67.5503C195.468 67.7309 195.381 67.9521 195.381 68.2137V71.1475H194.017V66.373H195.035L195.185 67.0738ZM202.516 67.924C202.516 67.7122 202.448 67.541 202.31 67.4101C202.18 67.2793 201.965 67.2139 201.666 67.2139C201.491 67.2139 201.342 67.2451 201.217 67.3074C201.093 67.3634 200.996 67.4351 200.928 67.5223C200.865 67.6095 200.834 67.6904 200.834 67.7652V67.8399H199.517C199.504 67.7652 199.498 67.7091 199.498 67.6718C199.498 67.4039 199.585 67.1641 199.76 66.9523C199.94 66.7405 200.19 66.5755 200.507 66.4571C200.825 66.3388 201.189 66.2796 201.6 66.2796H201.797C202.469 66.2796 202.98 66.4135 203.329 66.6814C203.678 66.943 203.852 67.3043 203.852 67.7652V69.9702C203.852 70.0823 203.877 70.1664 203.927 70.2225C203.983 70.2785 204.048 70.3066 204.123 70.3066C204.185 70.3066 204.254 70.2941 204.329 70.2692C204.403 70.2443 204.463 70.2225 204.506 70.2038V71.0447C204.276 71.1755 204.002 71.2409 203.684 71.2409C203.341 71.2409 203.08 71.1724 202.899 71.0353C202.718 70.8921 202.613 70.6928 202.581 70.4374C202.145 70.9731 201.61 71.2409 200.974 71.2409C200.501 71.2409 200.112 71.1443 199.806 70.9513C199.501 70.7582 199.349 70.3907 199.349 69.8487C199.349 69.4065 199.473 69.0701 199.722 68.8397C199.978 68.603 200.33 68.4441 200.778 68.3632C201.227 68.2822 201.806 68.2417 202.516 68.2417V67.924ZM202.516 69.0078C201.924 69.0078 201.482 69.067 201.189 69.1854C200.903 69.2975 200.76 69.4844 200.76 69.746C200.76 69.9515 200.816 70.0979 200.928 70.1851C201.046 70.2661 201.224 70.3066 201.46 70.3066C201.622 70.3066 201.784 70.263 201.946 70.1758C202.108 70.0886 202.242 69.964 202.348 69.802C202.46 69.6401 202.516 69.4594 202.516 69.2601V69.0078ZM205.176 71.1475V64.4203H206.54V71.1475H205.176ZM210.42 70.8858C210.19 71.5087 209.906 71.9977 209.57 72.3527C209.233 72.714 208.829 72.8947 208.355 72.8947C208.025 72.8947 207.757 72.8479 207.552 72.7545V71.7921C207.626 71.8233 207.723 71.8513 207.841 71.8762C207.96 71.9074 208.072 71.923 208.178 71.923C208.576 71.923 208.86 71.6333 209.028 71.054L207.225 66.373H208.673L209.729 69.3722H209.785L210.775 66.373H212.12L210.42 70.8858ZM215.383 71.0634C215.258 71.1132 215.093 71.1537 214.887 71.1848C214.688 71.2222 214.511 71.2409 214.355 71.2409C213.875 71.2409 213.514 71.1381 213.271 70.9326C213.028 70.727 212.907 70.3844 212.907 69.9048V67.3074H212.383V66.373H212.953L213.43 64.8501H214.271V66.373H215.383V67.3074H214.271V69.6712C214.271 69.9204 214.317 70.0886 214.411 70.1758C214.511 70.263 214.641 70.3066 214.803 70.3066C214.878 70.3066 214.975 70.2941 215.093 70.2692C215.211 70.2443 215.308 70.2162 215.383 70.1851V71.0634ZM216.252 64.4203H217.635V65.4948H216.252V64.4203ZM216.262 71.1475V66.373H217.626V71.1475H216.262ZM220.03 69.2134C220.03 69.5248 220.111 69.7865 220.273 69.9982C220.435 70.2038 220.653 70.3066 220.927 70.3066C221.214 70.3066 221.438 70.2194 221.6 70.045C221.768 69.8643 221.852 69.5996 221.852 69.2508H223.141C223.141 69.693 223.045 70.0636 222.852 70.3626C222.665 70.6616 222.416 70.8827 222.104 71.026C221.793 71.1693 221.45 71.2409 221.076 71.2409H220.927C220.229 71.2409 219.675 71.0353 219.264 70.6242C218.853 70.2069 218.647 69.6307 218.647 68.8957V68.6248C218.647 68.1389 218.744 67.7216 218.937 67.3728C219.136 67.0177 219.407 66.7468 219.75 66.5599C220.092 66.373 220.485 66.2796 220.927 66.2796H221.076C221.444 66.2796 221.783 66.3606 222.095 66.5225C222.413 66.6783 222.665 66.9087 222.852 67.2139C223.045 67.5129 223.141 67.868 223.141 68.2791H221.787C221.787 67.9552 221.715 67.6967 221.572 67.5036C221.428 67.3105 221.217 67.2139 220.936 67.2139C220.656 67.2139 220.435 67.3261 220.273 67.5503C220.111 67.7683 220.03 68.0455 220.03 68.3818V69.2134ZM225.023 69.6899C225.023 69.9079 225.119 70.0668 225.313 70.1664C225.506 70.2598 225.745 70.3066 226.032 70.3066C226.281 70.3066 226.502 70.2692 226.695 70.1944C226.895 70.1197 226.994 70.0014 226.994 69.8394C226.994 69.665 226.904 69.5404 226.723 69.4657C226.543 69.3909 226.262 69.3255 225.882 69.2695C225.484 69.2009 225.157 69.1262 224.901 69.0452C224.646 68.9642 224.425 68.8241 224.238 68.6248C224.057 68.4255 223.967 68.1483 223.967 67.7932C223.967 67.4693 224.061 67.1953 224.247 66.971C224.441 66.7405 224.693 66.5693 225.004 66.4571C225.322 66.3388 225.668 66.2796 226.041 66.2796H226.228C226.558 66.2796 226.87 66.3357 227.163 66.4478C227.462 66.5537 227.701 66.7063 227.882 66.9056C228.063 67.0987 228.153 67.3198 228.153 67.569C228.153 67.6188 228.15 67.6655 228.144 67.7091C228.137 67.7465 228.134 67.7683 228.134 67.7745H226.938C226.938 67.4008 226.652 67.2139 226.079 67.2139C225.817 67.2139 225.605 67.2513 225.443 67.3261C225.288 67.4008 225.21 67.5036 225.21 67.6344C225.21 67.7901 225.294 67.8991 225.462 67.9614C225.636 68.0237 225.907 68.0829 226.275 68.1389C226.692 68.2074 227.029 68.2822 227.284 68.3632C227.546 68.4379 227.773 68.5781 227.966 68.7836C228.159 68.9829 228.256 69.2663 228.256 69.6338C228.256 70.2007 228.056 70.6118 227.658 70.8672C227.259 71.1163 226.751 71.2409 226.135 71.2409H225.826C225.44 71.2409 225.095 71.1817 224.789 71.0634C224.484 70.945 224.244 70.7768 224.07 70.5588C223.902 70.3408 223.818 70.0917 223.818 69.8114L223.827 69.6245H225.023V69.6899Z" fill="#060C3C"/>
<rect x="163.901" y="163.755" width="14.0149" height="3.50373" rx="1.75187" fill="#B4B6C4"/>
<rect x="190.763" y="163.755" width="14.0149" height="3.50373" rx="1.75187" fill="#B4B6C4"/>
<rect x="217.625" y="163.755" width="14.0149" height="3.50373" rx="1.75187" fill="#B4B6C4"/>
<rect x="244.487" y="163.755" width="14.0149" height="3.50373" rx="1.75187" fill="#B4B6C4"/>
<rect x="271.349" y="163.755" width="14.0149" height="3.50373" rx="1.75187" fill="#B4B6C4"/>
<line opacity="0.2" x1="164.193" y1="137.77" x2="285.656" y2="137.77" stroke="#B4B6C4" stroke-width="0.583955" stroke-linecap="round"/>
<line opacity="0.2" x1="164.193" y1="121.419" x2="285.656" y2="121.419" stroke="#B4B6C4" stroke-width="0.583955" stroke-linecap="round"/>
<line opacity="0.2" x1="164.193" y1="105.068" x2="285.656" y2="105.068" stroke="#B4B6C4" stroke-width="0.583955" stroke-linecap="round"/>
<line opacity="0.2" x1="164.193" y1="88.7173" x2="285.656" y2="88.7173" stroke="#B4B6C4" stroke-width="0.583955" stroke-linecap="round"/>
<line opacity="0.2" x1="164.193" y1="154.12" x2="285.656" y2="154.12" stroke="#B4B6C4" stroke-width="0.583955" stroke-linecap="round"/>
<rect x="164.485" y="108.28" width="9.34328" height="45.5485" fill="#9374FF"/>
<rect x="239.231" y="97.1848" width="9.34328" height="56.6437" fill="#9374FF"/>
<rect x="201.858" y="121.711" width="9.34328" height="32.1175" fill="#9374FF"/>
<rect x="276.604" y="111.2" width="9.34328" height="42.6287" fill="#9374FF"/>
<rect x="220.545" y="114.703" width="9.34328" height="39.125" fill="#FFDC60"/>
<rect x="183.172" y="122.879" width="9.34328" height="30.9496" fill="#FFDC60"/>
<rect x="257.918" y="103.608" width="9.34328" height="50.2201" fill="#FFDC60"/>
<path d="M164.777 106.236C171.861 87.8888 178.583 122.879 187.551 122.879C195.35 122.879 198.051 109.184 205.07 109.184C209.749 109.184 212.965 115.048 218.209 114.995C223.453 114.943 221.129 105.36 230.18 114.119C238.868 122.527 236.495 87.27 243.904 87.27C249.753 87.27 247.413 102.012 256.382 102.012C263.401 102.012 264.571 91.2544 270.81 91.2544C278.219 91.2544 273.15 109.184 284.458 109.184" stroke="#6241D4" stroke-width="1.16791" stroke-linecap="round" stroke-linejoin="round"/>
<g filter="url(#filter1_d_1_4245)">
<rect x="22.584" y="197.625" width="226.575" height="87.5933" rx="3.50373" fill="white"/>
</g>
<circle cx="220.545" cy="254.852" r="14.5989" fill="#9374FF"/>
<circle cx="199.522" cy="254.852" r="14.5989" fill="#FFDC60"/>
<circle cx="178.5" cy="254.852" r="14.5989" fill="#9374FF"/>
<circle cx="157.478" cy="254.852" r="14.5989" fill="#FFDC60"/>
<path d="M41.1435 264.968C40.9084 264.717 40.4649 264.717 40.2297 264.968L37.8985 267.457C37.588 267.789 37.8615 268.283 38.3554 268.283L43.0178 268.283C43.5118 268.283 43.7852 267.789 43.4747 267.457L41.1435 264.968Z" fill="#38E7B2"/>
<path d="M51.3801 265.17C51.7343 265.17 52.0505 265.235 52.3284 265.366C52.6064 265.497 52.8217 265.679 52.9743 265.914C53.1269 266.143 53.2032 266.402 53.2032 266.69C53.2032 267.001 53.1242 267.257 52.9661 267.459C52.8135 267.655 52.5955 267.819 52.3121 267.949L52.3202 267.974C52.6309 268.072 52.8762 268.238 53.056 268.473C53.2413 268.702 53.334 268.996 53.334 269.356C53.334 269.661 53.2495 269.933 53.0806 270.173C52.9116 270.413 52.6772 270.601 52.3775 270.737C52.0777 270.873 51.7452 270.942 51.3801 270.942H51.282C50.6879 270.942 50.2137 270.794 49.8595 270.5C49.5106 270.2 49.3362 269.792 49.3362 269.274V269.208H50.1374V269.298C50.1374 269.598 50.2382 269.827 50.4399 269.985C50.6416 270.138 50.9304 270.214 51.3065 270.214C51.6935 270.214 51.9932 270.138 52.2058 269.985C52.4238 269.827 52.5328 269.59 52.5328 269.274C52.5328 268.674 52.1131 268.375 51.2738 268.375H50.6606V267.639H51.2901C51.6226 267.639 51.8897 267.562 52.0913 267.41C52.2984 267.257 52.402 267.039 52.402 266.756C52.402 266.478 52.3012 266.265 52.0995 266.118C51.9033 265.971 51.639 265.897 51.3065 265.897C50.9958 265.897 50.7451 265.974 50.5544 266.126C50.3636 266.279 50.2682 266.491 50.2682 266.764V266.838H49.467V266.69C49.467 266.391 49.5461 266.126 49.7041 265.897C49.8676 265.663 50.0884 265.483 50.3663 265.358C50.6497 265.232 50.9631 265.17 51.3065 265.17H51.3801ZM56.4752 265.17C56.8677 265.17 57.2001 265.249 57.4726 265.407C57.7452 265.565 57.9495 265.769 58.0858 266.02C58.2221 266.271 58.2902 266.535 58.2902 266.813C58.2902 267.205 58.2112 267.527 58.0531 267.778C57.895 268.028 57.6416 268.287 57.2928 268.554L55.7313 269.748C55.6059 269.835 55.5078 269.914 55.437 269.985C55.3716 270.051 55.3389 270.1 55.3389 270.132H58.3147V270.86H54.4641V270.664C54.4641 270.386 54.5295 270.121 54.6603 269.871C54.7966 269.614 54.9846 269.396 55.2244 269.217L56.8513 267.99C57.0802 267.805 57.2437 267.622 57.3418 267.443C57.4399 267.263 57.489 267.064 57.489 266.846C57.489 266.682 57.4481 266.53 57.3664 266.388C57.2846 266.241 57.1647 266.124 57.0066 266.036C56.8486 265.944 56.6578 265.897 56.4344 265.897C56.2055 265.897 56.0011 265.946 55.8212 266.045C55.6468 266.143 55.5106 266.273 55.4125 266.437C55.3143 266.6 55.2653 266.78 55.2653 266.977V267.091C55.2653 267.135 55.268 267.167 55.2735 267.189H54.4723L54.4641 267.107V267.042C54.4641 266.726 54.535 266.426 54.6767 266.143C54.8184 265.854 55.0391 265.619 55.3389 265.44C55.6386 265.26 56.0174 265.17 56.4752 265.17ZM63.7696 265.252L60.3686 270.86H59.7964L63.2137 265.252H63.7696ZM60.2133 265.26C60.5022 265.26 60.7393 265.355 60.9246 265.546C61.1099 265.731 61.2025 265.966 61.2025 266.249V267.124C61.2025 267.407 61.1072 267.644 60.9164 267.835C60.7311 268.02 60.4967 268.113 60.2133 268.113H60.1561C59.8727 268.113 59.6356 268.02 59.4448 267.835C59.2595 267.644 59.1669 267.407 59.1669 267.124V266.249C59.1669 265.966 59.2595 265.731 59.4448 265.546C59.6301 265.355 59.8672 265.26 60.1561 265.26H60.2133ZM60.1888 265.709C60.0362 265.709 59.9135 265.756 59.8209 265.848C59.7337 265.936 59.6901 266.05 59.6901 266.192V267.181C59.6901 267.323 59.7337 267.44 59.8209 267.532C59.9135 267.62 60.0362 267.663 60.1888 267.663C60.3414 267.663 60.4613 267.62 60.5485 267.532C60.6357 267.44 60.6793 267.323 60.6793 267.181V266.192C60.6793 266.05 60.6357 265.936 60.5485 265.848C60.4613 265.756 60.3414 265.709 60.1888 265.709ZM63.4017 268.015C63.6851 268.015 63.9195 268.11 64.1048 268.301C64.2955 268.486 64.3909 268.721 64.3909 269.004V269.879C64.3909 270.162 64.2983 270.399 64.113 270.59C63.9277 270.775 63.6906 270.868 63.4017 270.868H63.3445C63.0556 270.868 62.8185 270.775 62.6332 270.59C62.4479 270.399 62.3553 270.162 62.3553 269.879V269.004C62.3553 268.721 62.4479 268.486 62.6332 268.301C62.824 268.11 63.0611 268.015 63.3445 268.015H63.4017ZM63.3772 268.464C63.2246 268.464 63.1019 268.511 63.0093 268.603C62.9221 268.691 62.8785 268.805 62.8785 268.947V269.936C62.8785 270.078 62.9221 270.195 63.0093 270.288C63.1019 270.375 63.2246 270.418 63.3772 270.418C63.5298 270.418 63.6497 270.375 63.7369 270.288C63.8241 270.195 63.8677 270.078 63.8677 269.936V268.947C63.8677 268.805 63.8241 268.691 63.7369 268.603C63.6497 268.511 63.5298 268.464 63.3772 268.464ZM68.2118 266.682H69.1846V267.295H68.2118V269.789C68.2118 269.985 68.2499 270.127 68.3262 270.214C68.4025 270.301 68.5197 270.345 68.6778 270.345C68.8195 270.345 68.9884 270.304 69.1846 270.222V270.794C68.9884 270.893 68.735 270.942 68.4243 270.942C68.1028 270.942 67.8575 270.846 67.6885 270.655C67.525 270.465 67.4433 270.162 67.4433 269.748V267.295H66.9855V266.682H67.4678L67.7294 265.35H68.2118V266.682ZM70.9072 267.205C71.2506 266.802 71.6811 266.6 72.1989 266.6C72.6567 266.6 73.0165 266.723 73.2781 266.968C73.5397 267.214 73.6705 267.573 73.6705 268.048V270.86H72.902V268.187C72.902 267.538 72.6077 267.214 72.0191 267.214C71.8228 267.214 71.6403 267.265 71.4713 267.369C71.3024 267.473 71.1661 267.614 71.0625 267.794C70.959 267.969 70.9072 268.162 70.9072 268.375V270.86H70.1387V264.974H70.9072V267.205ZM75.7697 264.974V265.685H74.9685V264.974H75.7697ZM75.7534 266.682V270.86H74.9849V266.682H75.7534ZM78.7027 266.6C79.0134 266.6 79.2886 266.65 79.5285 266.748C79.7737 266.846 79.9618 266.982 80.0926 267.156C80.2288 267.331 80.2969 267.524 80.2969 267.737L80.2888 267.884H79.5285V267.81C79.5285 267.413 79.2205 267.214 78.6046 267.214C77.9942 267.214 77.689 267.396 77.689 267.761C77.689 267.93 77.7762 268.056 77.9506 268.137C78.125 268.214 78.3921 268.287 78.7518 268.358C79.0952 268.429 79.3759 268.503 79.5939 268.579C79.8173 268.655 80.0054 268.775 80.158 268.939C80.316 269.102 80.395 269.323 80.395 269.601C80.395 270.048 80.2424 270.383 79.9372 270.606C79.632 270.83 79.1933 270.942 78.621 270.942H78.4984C78.155 270.942 77.8552 270.89 77.5991 270.786C77.3429 270.677 77.144 270.533 77.0023 270.353C76.866 270.168 76.8006 269.961 76.8061 269.732V269.552H77.5664V269.634C77.5664 270.097 77.9561 270.328 78.7354 270.328C78.9644 270.328 79.1687 270.277 79.3486 270.173C79.5339 270.07 79.6266 269.928 79.6266 269.748C79.6266 269.595 79.5748 269.476 79.4712 269.388C79.3731 269.301 79.2505 269.236 79.1033 269.192C78.9562 269.148 78.7518 269.105 78.4902 269.061C78.1523 268.996 77.8798 268.93 77.6726 268.865C77.4655 268.794 77.2884 268.677 77.1413 268.514C76.9941 268.35 76.9205 268.127 76.9205 267.843C76.9205 267.456 77.0731 267.154 77.3783 266.936C77.6835 266.712 78.1005 266.6 78.6292 266.6H78.7027ZM87.8781 266.6C88.3087 266.6 88.6439 266.726 88.8837 266.977C89.1235 267.227 89.2434 267.584 89.2434 268.048V270.86H88.4749V268.187C88.4749 267.538 88.2242 267.214 87.7228 267.214C87.5484 267.214 87.3849 267.265 87.2323 267.369C87.0851 267.473 86.9652 267.614 86.8726 267.794C86.7854 267.969 86.7418 268.162 86.7418 268.375V270.86H85.9733V268.187C85.9733 267.538 85.7226 267.214 85.2211 267.214C85.0467 267.214 84.8832 267.265 84.7306 267.369C84.5835 267.473 84.4636 267.614 84.3709 267.794C84.2837 267.969 84.2401 268.162 84.2401 268.375V270.86H83.4716V266.682H84.0275L84.1338 267.295C84.4499 266.832 84.8887 266.6 85.45 266.6C86.0005 266.6 86.382 266.832 86.5946 267.295C86.7799 267.034 86.9788 266.854 87.1914 266.756C87.404 266.652 87.6329 266.6 87.8781 266.6ZM92.229 266.6C92.8121 266.6 93.2781 266.78 93.627 267.14C93.9758 267.5 94.1502 267.993 94.1502 268.62V268.922C94.1502 269.549 93.9785 270.042 93.6351 270.402C93.2918 270.762 92.823 270.942 92.229 270.942C91.6349 270.942 91.1662 270.762 90.8228 270.402C90.4794 270.042 90.3078 269.549 90.3078 268.922V268.62C90.3078 267.993 90.4822 267.5 90.831 267.14C91.1798 266.78 91.6458 266.6 92.229 266.6ZM92.229 267.214C91.8638 267.214 91.5804 267.339 91.3787 267.59C91.1771 267.84 91.0762 268.208 91.0762 268.693V268.849C91.0762 269.323 91.1743 269.688 91.3706 269.944C91.5722 270.2 91.8583 270.328 92.229 270.328C92.5887 270.328 92.8694 270.203 93.071 269.952C93.2781 269.696 93.3817 269.328 93.3817 268.849V268.693C93.3817 268.219 93.2809 267.854 93.0792 267.598C92.883 267.342 92.5996 267.214 92.229 267.214ZM97.3158 266.6C97.7737 266.6 98.1334 266.723 98.395 266.968C98.6566 267.214 98.7874 267.573 98.7874 268.048V270.86H98.0189V268.187C98.0189 267.538 97.7246 267.214 97.136 267.214C96.9398 267.214 96.7572 267.265 96.5882 267.369C96.4193 267.473 96.283 267.614 96.1795 267.794C96.0759 267.969 96.0241 268.162 96.0241 268.375V270.86H95.2556V266.682H95.8116L95.9178 267.295C96.2667 266.832 96.7327 266.6 97.3158 266.6ZM100.961 266.682H101.934V267.295H100.961V269.789C100.961 269.985 100.999 270.127 101.076 270.214C101.152 270.301 101.269 270.345 101.427 270.345C101.569 270.345 101.738 270.304 101.934 270.222V270.794C101.738 270.893 101.484 270.942 101.174 270.942C100.852 270.942 100.607 270.846 100.438 270.655C100.274 270.465 100.193 270.162 100.193 269.748V267.295H99.7349V266.682H100.217L100.479 265.35H100.961V266.682ZM103.657 267.205C104 266.802 104.431 266.6 104.948 266.6C105.406 266.6 105.766 266.723 106.027 266.968C106.289 267.214 106.42 267.573 106.42 268.048V270.86H105.651V268.187C105.651 267.538 105.357 267.214 104.768 267.214C104.572 267.214 104.39 267.265 104.221 267.369C104.052 267.473 103.915 267.614 103.812 267.794C103.708 267.969 103.657 268.162 103.657 268.375V270.86H102.888V264.974H103.657V267.205Z" fill="#38E7B2"/>
<path d="M39.1403 215.351C39.0717 215.252 38.9783 215.105 38.86 214.912C38.7416 214.713 38.6637 214.582 38.6264 214.52L38.589 214.548V218.304H37.2716V211.894H38.4956L40.5137 214.866L40.794 215.305C40.8937 215.479 40.9715 215.607 41.0276 215.688L41.0556 215.66V211.894H42.373V218.304H41.1491L39.1403 215.351ZM48.1043 216.519C48.1043 216.937 48.0046 217.289 47.8053 217.575C47.6059 217.855 47.3412 218.064 47.0111 218.201C46.6872 218.332 46.3321 218.397 45.946 218.397H45.7965C45.3542 218.397 44.9556 218.304 44.6005 218.117C44.2455 217.93 43.9652 217.662 43.7596 217.314C43.5603 216.959 43.4606 216.538 43.4606 216.052V215.781C43.4606 215.302 43.5634 214.884 43.769 214.529C43.9745 214.174 44.2517 213.903 44.6005 213.716C44.9556 213.53 45.3542 213.436 45.7965 213.436H45.946C46.3321 213.436 46.6903 213.517 47.0204 213.679C47.3506 213.835 47.6153 214.065 47.8146 214.37C48.0139 214.669 48.1136 215.024 48.1136 215.436V216.146H44.8434V216.37C44.8434 216.681 44.9338 216.943 45.1144 217.155C45.3013 217.36 45.5535 217.463 45.8712 217.463C46.1577 217.463 46.382 217.385 46.5439 217.229C46.7121 217.068 46.7962 216.831 46.7962 216.519H48.1043ZM45.8058 214.37C45.5317 214.37 45.3075 214.467 45.1331 214.66C44.9649 214.853 44.8684 215.099 44.8434 215.398H46.7308C46.7308 215.081 46.656 214.831 46.5066 214.651C46.3633 214.464 46.1297 214.37 45.8058 214.37ZM52.3179 215.641C51.9816 216.825 51.7262 217.712 51.5518 218.304H50.0288L48.5713 213.53H49.9821L50.8043 216.482H50.8604C51.0223 215.909 51.1469 215.479 51.2341 215.193L51.7106 213.53H53.0747L53.9063 216.482H53.9623C54.3361 215.174 54.6133 214.19 54.7939 213.53H56.1206L54.6631 218.304H53.1588L52.374 215.641H52.3179ZM62.2969 213.707C62.2969 213.47 62.2035 213.287 62.0166 213.156C61.8298 213.019 61.5713 212.95 61.2411 212.95C60.8985 212.95 60.6307 213.006 60.4376 213.118C60.2507 213.224 60.1573 213.368 60.1573 213.548C60.1573 213.704 60.2165 213.835 60.3348 213.941C60.4532 214.04 60.6027 214.121 60.7833 214.184C60.9702 214.246 61.2224 214.314 61.5401 214.389C62.0073 214.501 62.3904 214.616 62.6893 214.735C62.9946 214.853 63.2531 215.037 63.4648 215.286C63.6828 215.535 63.7918 215.868 63.7918 216.286C63.7918 217.015 63.5552 217.55 63.0818 217.893C62.6146 218.229 61.9699 218.397 61.1477 218.397C60.4002 218.397 59.7805 218.235 59.2884 217.912C58.8025 217.581 58.5596 217.083 58.5596 216.417L58.569 216.211H59.9331L59.9237 216.361C59.9237 216.635 60.0265 216.853 60.2321 217.015C60.4376 217.17 60.7273 217.248 61.101 217.248C61.537 217.248 61.8484 217.18 62.0353 217.043C62.2284 216.906 62.325 216.731 62.325 216.519C62.325 216.357 62.2658 216.227 62.1474 216.127C62.0353 216.021 61.8889 215.94 61.7083 215.884C61.5339 215.822 61.2878 215.753 60.9702 215.678C60.4968 215.56 60.1106 215.442 59.8116 215.323C59.5126 215.205 59.2541 215.015 59.0361 214.754C58.8181 214.492 58.7091 214.14 58.7091 213.698C58.7091 213.287 58.8212 212.938 59.0455 212.651C59.2697 212.365 59.5687 212.153 59.9424 212.016C60.3224 211.873 60.7459 211.801 61.2131 211.801C61.9294 211.801 62.5149 211.96 62.9696 212.278C63.4243 212.589 63.6517 213.056 63.6517 213.679V213.791H62.2969V213.707ZM69.1247 217.183C69.1247 217.276 69.1527 217.348 69.2088 217.398C69.2648 217.441 69.3271 217.463 69.3956 217.463C69.4579 217.463 69.5264 217.451 69.6012 217.426C69.6759 217.401 69.7351 217.379 69.7787 217.36V218.201C69.5482 218.332 69.2742 218.397 68.9565 218.397C68.3336 218.397 67.9723 218.17 67.8727 217.715C67.4803 218.17 67.0006 218.397 66.4338 218.397C65.948 218.397 65.5462 218.267 65.2285 218.005C64.9171 217.743 64.7614 217.363 64.7614 216.865V213.53H66.1255V216.566C66.1255 216.809 66.194 217.011 66.331 217.173C66.4743 217.329 66.6549 217.407 66.8729 217.407C67.1159 217.407 67.3245 217.317 67.4989 217.136C67.6733 216.949 67.7606 216.725 67.7606 216.463V213.53H69.1247V217.183ZM71.8651 214.081C72.0021 213.9 72.1828 213.748 72.407 213.623C72.6375 213.498 72.9022 213.436 73.2012 213.436C73.55 213.436 73.8614 213.526 74.1355 213.707C74.4158 213.888 74.6369 214.159 74.7989 214.52C74.9608 214.881 75.0418 215.32 75.0418 215.837V215.94C75.0418 216.482 74.9546 216.937 74.7802 217.304C74.6058 217.672 74.3691 217.946 74.0701 218.126C73.7711 218.307 73.4348 218.397 73.061 218.397C72.7185 218.397 72.4132 218.329 72.1454 218.192C71.8776 218.049 71.6533 217.843 71.4727 217.575L71.3138 217.818C71.2516 217.924 71.1924 218.017 71.1363 218.098C71.0803 218.173 71.0335 218.242 70.9962 218.304H70.501V211.577H71.8651V214.081ZM73.659 215.557C73.659 215.19 73.5749 214.909 73.4067 214.716C73.2386 214.523 73.0237 214.426 72.7621 214.426C72.5004 214.426 72.2855 214.523 72.1174 214.716C71.9492 214.909 71.8651 215.19 71.8651 215.557V216.333C71.8651 216.694 71.9492 216.974 72.1174 217.173C72.2855 217.367 72.5004 217.463 72.7621 217.463C73.0237 217.463 73.2386 217.367 73.4067 217.173C73.5749 216.974 73.659 216.694 73.659 216.333V215.557ZM76.9173 216.846C76.9173 217.064 77.0138 217.223 77.2069 217.323C77.4 217.416 77.6398 217.463 77.9263 217.463C78.1755 217.463 78.3966 217.426 78.5897 217.351C78.789 217.276 78.8887 217.158 78.8887 216.996C78.8887 216.821 78.7984 216.697 78.6177 216.622C78.4371 216.547 78.1568 216.482 77.7768 216.426C77.3782 216.357 77.0512 216.283 76.7958 216.202C76.5404 216.121 76.3193 215.981 76.1324 215.781C75.9518 215.582 75.8615 215.305 75.8615 214.95C75.8615 214.626 75.9549 214.352 76.1418 214.128C76.3349 213.897 76.5871 213.726 76.8986 213.614C77.2162 213.495 77.562 213.436 77.9357 213.436H78.1225C78.4527 213.436 78.7641 213.492 79.0569 213.604C79.3559 213.71 79.5957 213.863 79.7763 214.062C79.9569 214.255 80.0473 214.476 80.0473 214.725C80.0473 214.775 80.0441 214.822 80.0379 214.866C80.0317 214.903 80.0286 214.925 80.0286 214.931H78.8326C78.8326 214.557 78.5461 214.37 77.9731 214.37C77.7114 214.37 77.4997 214.408 77.3377 214.483C77.182 214.557 77.1041 214.66 77.1041 214.791C77.1041 214.947 77.1882 215.056 77.3564 215.118C77.5308 215.18 77.8018 215.239 78.1693 215.295C78.5866 215.364 78.923 215.439 79.1783 215.52C79.44 215.594 79.6673 215.735 79.8604 215.94C80.0535 216.139 80.15 216.423 80.15 216.79C80.15 217.357 79.9507 217.768 79.5521 218.024C79.1534 218.273 78.6458 218.397 78.0291 218.397H77.7208C77.3346 218.397 76.9889 218.338 76.6837 218.22C76.3785 218.102 76.1387 217.933 75.9642 217.715C75.7961 217.497 75.712 217.248 75.712 216.968L75.7213 216.781H76.9173V216.846ZM82.2622 216.37C82.2622 216.681 82.3432 216.943 82.5051 217.155C82.6671 217.36 82.8851 217.463 83.1592 217.463C83.4457 217.463 83.6699 217.376 83.8319 217.201C84.0001 217.021 84.0841 216.756 84.0841 216.407H85.3735C85.3735 216.85 85.277 217.22 85.0839 217.519C84.897 217.818 84.6479 218.039 84.3364 218.182C84.025 218.326 83.6824 218.397 83.3087 218.397H83.1592C82.4615 218.397 81.9072 218.192 81.4961 217.781C81.085 217.363 80.8794 216.787 80.8794 216.052V215.781C80.8794 215.295 80.9759 214.878 81.169 214.529C81.3684 214.174 81.6393 213.903 81.9819 213.716C82.3245 213.53 82.7169 213.436 83.1592 213.436H83.3087C83.6762 213.436 84.0156 213.517 84.3271 213.679C84.6447 213.835 84.897 214.065 85.0839 214.37C85.277 214.669 85.3735 215.024 85.3735 215.436H84.0187C84.0187 215.112 83.9471 214.853 83.8038 214.66C83.6606 214.467 83.4488 214.37 83.1685 214.37C82.8882 214.37 82.6671 214.483 82.5051 214.707C82.3432 214.925 82.2622 215.202 82.2622 215.538V216.37ZM89.077 215.165C89.077 214.972 89.0241 214.806 88.9182 214.669C88.8123 214.526 88.6441 214.455 88.4137 214.455C88.1957 214.455 88.0275 214.542 87.9091 214.716C87.797 214.884 87.7409 215.096 87.7409 215.351V218.304H86.3955V213.53H87.4046L87.5728 214.23C87.5977 214.162 87.66 214.065 87.7596 213.941C87.8655 213.816 88.015 213.701 88.2081 213.595C88.4074 213.489 88.641 213.436 88.9089 213.436C89.3386 213.436 89.6688 213.57 89.8992 213.838C90.1359 214.106 90.2543 214.461 90.2543 214.903C90.2543 214.996 90.2481 215.09 90.2356 215.183C90.2294 215.277 90.2231 215.342 90.2169 215.38H89.077V215.165ZM90.9574 211.577H92.3403V212.651H90.9574V211.577ZM90.9668 218.304V213.53H92.3309V218.304H90.9668ZM94.9313 214.081C95.0684 213.9 95.249 213.748 95.4732 213.623C95.7037 213.498 95.9684 213.436 96.2674 213.436C96.6162 213.436 96.9277 213.526 97.2018 213.707C97.4821 213.888 97.7032 214.159 97.8651 214.52C98.0271 214.881 98.1081 215.32 98.1081 215.837V215.94C98.1081 216.482 98.0208 216.937 97.8464 217.304C97.672 217.672 97.4353 217.946 97.1363 218.126C96.8374 218.307 96.501 218.397 96.1273 218.397C95.7847 218.397 95.4795 218.329 95.2116 218.192C94.9438 218.049 94.7196 217.843 94.5389 217.575L94.3801 217.818C94.3178 217.924 94.2586 218.017 94.2026 218.098C94.1465 218.173 94.0998 218.242 94.0624 218.304H93.5672V211.577H94.9313V214.081ZM96.7252 215.557C96.7252 215.19 96.6412 214.909 96.473 214.716C96.3048 214.523 96.0899 214.426 95.8283 214.426C95.5667 214.426 95.3518 214.523 95.1836 214.716C95.0154 214.909 94.9313 215.19 94.9313 215.557V216.333C94.9313 216.694 95.0154 216.974 95.1836 217.173C95.3518 217.367 95.5667 217.463 95.8283 217.463C96.0899 217.463 96.3048 217.367 96.473 217.173C96.6412 216.974 96.7252 216.694 96.7252 216.333V215.557ZM103.553 216.519C103.553 216.937 103.453 217.289 103.254 217.575C103.054 217.855 102.79 218.064 102.459 218.201C102.136 218.332 101.781 218.397 101.394 218.397H101.245C100.803 218.397 100.404 218.304 100.049 218.117C99.6939 217.93 99.4136 217.662 99.208 217.314C99.0087 216.959 98.909 216.538 98.909 216.052V215.781C98.909 215.302 99.0118 214.884 99.2173 214.529C99.4229 214.174 99.7001 213.903 100.049 213.716C100.404 213.53 100.803 213.436 101.245 213.436H101.394C101.781 213.436 102.139 213.517 102.469 213.679C102.799 213.835 103.064 214.065 103.263 214.37C103.462 214.669 103.562 215.024 103.562 215.436V216.146H100.292V216.37C100.292 216.681 100.382 216.943 100.563 217.155C100.75 217.36 101.002 217.463 101.32 217.463C101.606 217.463 101.83 217.385 101.992 217.229C102.16 217.068 102.245 216.831 102.245 216.519H103.553ZM101.254 214.37C100.98 214.37 100.756 214.467 100.581 214.66C100.413 214.853 100.317 215.099 100.292 215.398H102.179C102.179 215.081 102.104 214.831 101.955 214.651C101.812 214.464 101.578 214.37 101.254 214.37ZM107.262 215.165C107.262 214.972 107.209 214.806 107.103 214.669C106.997 214.526 106.829 214.455 106.598 214.455C106.38 214.455 106.212 214.542 106.094 214.716C105.982 214.884 105.926 215.096 105.926 215.351V218.304H104.58V213.53H105.589L105.757 214.23C105.782 214.162 105.845 214.065 105.944 213.941C106.05 213.816 106.2 213.701 106.393 213.595C106.592 213.489 106.826 213.436 107.094 213.436C107.523 213.436 107.854 213.57 108.084 213.838C108.321 214.106 108.439 214.461 108.439 214.903C108.439 214.996 108.433 215.09 108.42 215.183C108.414 215.277 108.408 215.342 108.402 215.38H107.262V215.165ZM110.011 216.846C110.011 217.064 110.108 217.223 110.301 217.323C110.494 217.416 110.734 217.463 111.02 217.463C111.269 217.463 111.49 217.426 111.684 217.351C111.883 217.276 111.983 217.158 111.983 216.996C111.983 216.821 111.892 216.697 111.712 216.622C111.531 216.547 111.251 216.482 110.871 216.426C110.472 216.357 110.145 216.283 109.89 216.202C109.634 216.121 109.413 215.981 109.226 215.781C109.046 215.582 108.955 215.305 108.955 214.95C108.955 214.626 109.049 214.352 109.236 214.128C109.429 213.897 109.681 213.726 109.992 213.614C110.31 213.495 110.656 213.436 111.03 213.436H111.216C111.547 213.436 111.858 213.492 112.151 213.604C112.45 213.71 112.69 213.863 112.87 214.062C113.051 214.255 113.141 214.476 113.141 214.725C113.141 214.775 113.138 214.822 113.132 214.866C113.126 214.903 113.122 214.925 113.122 214.931H111.926C111.926 214.557 111.64 214.37 111.067 214.37C110.805 214.37 110.593 214.408 110.432 214.483C110.276 214.557 110.198 214.66 110.198 214.791C110.198 214.947 110.282 215.056 110.45 215.118C110.625 215.18 110.896 215.239 111.263 215.295C111.68 215.364 112.017 215.439 112.272 215.52C112.534 215.594 112.761 215.735 112.954 215.94C113.147 216.139 113.244 216.423 113.244 216.79C113.244 217.357 113.045 217.768 112.646 218.024C112.247 218.273 111.74 218.397 111.123 218.397H110.815C110.428 218.397 110.083 218.338 109.778 218.22C109.472 218.102 109.232 217.933 109.058 217.715C108.89 217.497 108.806 217.248 108.806 216.968L108.815 216.781H110.011V216.846Z" fill="#060C3C"/>
<path d="M42.7654 247.602H46.3393V249.459H42.7654V252.998H40.926V249.459H37.3697V247.602H40.926V244.046H42.7654V247.602ZM52.972 245.5C53.2523 245.079 53.5151 244.565 53.7603 243.958C54.0173 243.351 54.2158 242.79 54.356 242.276H55.4771V248.128H57.0889V250.195H55.4771V252.998H52.972V250.195H47.6813V248.11C48.277 247.164 48.8843 245.99 49.5033 244.589C50.134 243.176 50.607 241.914 50.9223 240.805H53.3924C53.2172 241.599 52.9019 242.487 52.4464 243.468C51.9909 244.437 51.5004 245.348 50.9749 246.201C50.461 247.053 50.0172 247.695 49.6434 248.128H52.972V245.5ZM58.8461 252.472C58.8461 251.701 58.9745 251.094 59.2315 250.65C59.5001 250.195 59.8738 249.78 60.3527 249.406L63.7688 246.726C64.2126 246.387 64.5163 246.043 64.6798 245.693C64.855 245.33 64.9426 244.957 64.9426 244.571C64.9426 244.139 64.8024 243.765 64.5221 243.45C64.2418 243.123 63.8214 242.96 63.2608 242.96C62.8053 242.96 62.4257 243.065 62.1221 243.275C61.8301 243.473 61.614 243.713 61.4739 243.993C61.3337 244.274 61.2636 244.519 61.2636 244.729C61.2636 244.939 61.2695 245.097 61.2812 245.202H58.8811C58.8694 245.109 58.8636 244.998 58.8636 244.869C58.8636 244.238 59.0037 243.619 59.284 243.012C59.5643 242.393 60.0432 241.873 60.7206 241.453C61.398 241.021 62.2856 240.805 63.3834 240.805H63.6462C64.4871 240.805 65.2053 240.98 65.801 241.33C66.4083 241.681 66.8638 242.142 67.1674 242.714C67.4711 243.275 67.6229 243.876 67.6229 244.519C67.6229 245.208 67.4886 245.821 67.22 246.358C66.963 246.884 66.5134 247.415 65.871 247.952C65.1353 248.571 64.2477 249.272 63.2082 250.055C63.0914 250.148 62.9454 250.277 62.7702 250.44C62.5951 250.604 62.5075 250.709 62.5075 250.755H67.658V252.998H58.8461V252.472ZM78.3672 248.969C78.3672 249.751 78.1803 250.463 77.8066 251.106C77.4329 251.748 76.9248 252.256 76.2825 252.63C75.6401 252.992 74.9335 253.173 74.1627 253.173H73.6547C72.8838 253.173 72.1773 252.992 71.5349 252.63C70.8926 252.256 70.3845 251.748 70.0108 251.106C69.6487 250.463 69.4677 249.751 69.4677 248.969V245.027C69.4677 244.244 69.6487 243.532 70.0108 242.89C70.3845 242.247 70.8926 241.739 71.5349 241.365C72.1773 240.992 72.8838 240.805 73.6547 240.805H74.1627C74.9335 240.805 75.6401 240.992 76.2825 241.365C76.9248 241.739 77.4329 242.247 77.8066 242.89C78.1803 243.532 78.3672 244.244 78.3672 245.027V248.969ZM75.7744 244.729C75.7744 244.203 75.5934 243.76 75.2313 243.398C74.881 243.036 74.443 242.854 73.9174 242.854C73.3919 242.854 72.9481 243.036 72.586 243.398C72.2357 243.76 72.0605 244.203 72.0605 244.729V249.249C72.0605 249.774 72.2357 250.218 72.586 250.58C72.9481 250.942 73.3919 251.123 73.9174 251.123C74.443 251.123 74.881 250.942 75.2313 250.58C75.5934 250.218 75.7744 249.774 75.7744 249.249V244.729ZM80.685 250.878H83.5931V243.993H80.6675V242.434C81.3215 242.387 82.0631 242.224 82.8923 241.944C83.7216 241.652 84.5041 241.301 85.2398 240.892H86.1683V250.878H89.0239V252.998H80.685V250.878Z" fill="#060C3C"/>
<g filter="url(#filter2_d_1_4245)">
<g filter="url(#filter3_d_1_4245)">
<rect x="268.378" y="198.107" width="44.3806" height="44.3806" rx="3.50373" fill="white"/>
</g>
<path d="M337.311 204.021L308.86 229.738L299.009 213.395L266.64 234.944M337.311 204.021L326.679 204.021M337.311 204.021L336.44 213.996" stroke="#FFD43D" stroke-width="1.75187" stroke-linecap="round" stroke-linejoin="round"/>
</g>
<g filter="url(#filter4_d_1_4245)">
<rect x="22.584" y="73.8264" width="108.616" height="105.112" rx="3.50373" fill="white"/>
</g>
<path d="M61.5819 155.185C61.3467 154.934 60.9032 154.934 60.6681 155.185L58.3369 157.674C58.0264 158.006 58.2998 158.5 58.7938 158.5L63.4562 158.5C63.9501 158.5 64.2236 158.006 63.9131 157.674L61.5819 155.185Z" fill="#38E7B2"/>
<path d="M72.3825 159.181H73.8541V159.908H70.1098V159.181H71.5813V155.371H70.0934V154.848C70.742 154.782 71.4015 154.6 72.0719 154.3H72.3825V159.181ZM76.84 154.218C77.3741 154.218 77.802 154.36 78.1236 154.644C78.4506 154.927 78.6141 155.306 78.6141 155.78C78.6141 156.074 78.5514 156.314 78.426 156.499C78.3061 156.685 78.1154 156.856 77.8538 157.014V157.047C78.1644 157.189 78.3988 157.363 78.5569 157.57C78.7204 157.777 78.8021 158.053 78.8021 158.396C78.8021 158.897 78.6304 159.29 78.2871 159.573C77.9492 159.851 77.4668 159.99 76.84 159.99C76.2405 159.99 75.7636 159.851 75.4093 159.573C75.0551 159.29 74.8779 158.897 74.8779 158.396C74.8779 158.053 74.9597 157.775 75.1232 157.562C75.2867 157.344 75.5211 157.172 75.8263 157.047V157.014C75.5265 156.829 75.3249 156.646 75.2213 156.467C75.1177 156.287 75.066 156.074 75.066 155.829C75.066 155.306 75.2295 154.908 75.5565 154.635C75.8835 154.357 76.3114 154.218 76.84 154.218ZM76.84 154.946C76.5457 154.946 76.3086 155.028 76.1288 155.191C75.9544 155.355 75.8672 155.562 75.8672 155.813C75.8672 156.063 75.9544 156.27 76.1288 156.434C76.3086 156.597 76.5457 156.679 76.84 156.679C77.1343 156.679 77.3687 156.597 77.5431 156.434C77.723 156.27 77.8129 156.063 77.8129 155.813C77.8129 155.562 77.723 155.355 77.5431 155.191C77.3687 155.028 77.1343 154.946 76.84 154.946ZM76.84 157.407C76.3059 157.407 75.9489 157.581 75.7691 157.93C75.7091 158.061 75.6791 158.197 75.6791 158.339C75.6791 158.644 75.7881 158.876 76.0061 159.034C76.2241 159.186 76.5021 159.263 76.84 159.263C77.1834 159.263 77.4614 159.184 77.6739 159.026C77.8919 158.862 78.0009 158.633 78.0009 158.339C78.0009 158.05 77.8946 157.824 77.6821 157.66C77.475 157.491 77.1943 157.407 76.84 157.407ZM80.7498 159.001V159.696L80.4636 160.922H80.0385L80.2592 159.908H79.9241V159.001H80.7498ZM83.8914 154.218C84.2838 154.218 84.6163 154.297 84.8888 154.455C85.1613 154.614 85.3657 154.818 85.502 155.069C85.6382 155.319 85.7063 155.584 85.7063 155.862C85.7063 156.254 85.6273 156.576 85.4693 156.826C85.3112 157.077 85.0578 157.336 84.7089 157.603L83.1475 158.797C83.0221 158.884 82.924 158.963 82.8531 159.034C82.7877 159.099 82.755 159.148 82.755 159.181H85.7309V159.908H81.8803V159.712C81.8803 159.434 81.9457 159.17 82.0765 158.919C82.2127 158.663 82.4008 158.445 82.6406 158.265L84.2675 157.039C84.4964 156.854 84.6599 156.671 84.758 156.491C84.8561 156.311 84.9052 156.112 84.9052 155.894C84.9052 155.731 84.8643 155.578 84.7825 155.437C84.7008 155.289 84.5809 155.172 84.4228 155.085C84.2648 154.992 84.074 154.946 83.8505 154.946C83.6216 154.946 83.4172 154.995 83.2374 155.093C83.063 155.191 82.9267 155.322 82.8286 155.486C82.7305 155.649 82.6815 155.829 82.6815 156.025V156.14C82.6815 156.183 82.6842 156.216 82.6896 156.238H81.8884L81.8803 156.156V156.091C81.8803 155.774 81.9511 155.475 82.0928 155.191C82.2345 154.902 82.4553 154.668 82.755 154.488C83.0548 154.308 83.4336 154.218 83.8914 154.218ZM89.4199 159.181H90.8914V159.908H87.1471V159.181H88.6187V155.371H87.1308V154.848C87.7794 154.782 88.4388 154.6 89.1092 154.3H89.4199V159.181ZM96.2155 154.3L92.8146 159.908H92.2423L95.6596 154.3H96.2155ZM92.6592 154.308C92.9481 154.308 93.1852 154.404 93.3705 154.594C93.5558 154.78 93.6485 155.014 93.6485 155.298V156.172C93.6485 156.456 93.5531 156.693 93.3623 156.884C93.177 157.069 92.9427 157.162 92.6592 157.162H92.602C92.3186 157.162 92.0815 157.069 91.8908 156.884C91.7055 156.693 91.6128 156.456 91.6128 156.172V155.298C91.6128 155.014 91.7055 154.78 91.8908 154.594C92.0761 154.404 92.3132 154.308 92.602 154.308H92.6592ZM92.6347 154.758C92.4821 154.758 92.3595 154.804 92.2668 154.897C92.1796 154.984 92.136 155.099 92.136 155.24V156.23C92.136 156.371 92.1796 156.488 92.2668 156.581C92.3595 156.668 92.4821 156.712 92.6347 156.712C92.7873 156.712 92.9072 156.668 92.9944 156.581C93.0816 156.488 93.1252 156.371 93.1252 156.23V155.24C93.1252 155.099 93.0816 154.984 92.9944 154.897C92.9072 154.804 92.7873 154.758 92.6347 154.758ZM95.8476 157.063C96.1311 157.063 96.3654 157.159 96.5507 157.35C96.7415 157.535 96.8369 157.769 96.8369 158.053V158.927C96.8369 159.211 96.7442 159.448 96.5589 159.639C96.3736 159.824 96.1365 159.917 95.8476 159.917H95.7904C95.5015 159.917 95.2645 159.824 95.0792 159.639C94.8938 159.448 94.8012 159.211 94.8012 158.927V158.053C94.8012 157.769 94.8938 157.535 95.0792 157.35C95.2699 157.159 95.507 157.063 95.7904 157.063H95.8476ZM95.8231 157.513C95.6705 157.513 95.5479 157.559 95.4552 157.652C95.368 157.739 95.3244 157.854 95.3244 157.995V158.985C95.3244 159.126 95.368 159.244 95.4552 159.336C95.5479 159.423 95.6705 159.467 95.8231 159.467C95.9757 159.467 96.0956 159.423 96.1828 159.336C96.27 159.244 96.3136 159.126 96.3136 158.985V157.995C96.3136 157.854 96.27 157.739 96.1828 157.652C96.0956 157.559 95.9757 157.513 95.8231 157.513Z" fill="#38E7B2"/>
<path d="M54.186 130.389L54.0646 131.221H50.8972V133.108H53.7656V133.94H50.8972V135.967H54.1206L54.2514 136.799H49.9816V130.389H54.186ZM57.7904 131.931C58.3137 131.931 58.7248 132.071 59.0237 132.351C59.3227 132.631 59.4722 133.043 59.4722 133.584V136.799H58.594V133.743C58.594 133.002 58.2576 132.631 57.5849 132.631C57.3606 132.631 57.152 132.691 56.9589 132.809C56.7658 132.927 56.6101 133.089 56.4917 133.295C56.3734 133.494 56.3142 133.715 56.3142 133.958V136.799H55.4359V132.024H56.0713L56.1927 132.725C56.5914 132.195 57.1239 131.931 57.7904 131.931ZM65.347 131.165C65.347 131.482 65.2629 131.75 65.0948 131.968C64.9266 132.18 64.693 132.317 64.394 132.379L64.3753 132.407C64.6868 132.681 64.8425 133.024 64.8425 133.435C64.8425 133.883 64.6743 134.245 64.338 134.519C64.0016 134.793 63.5438 134.93 62.9645 134.93H62.3291C62.1423 134.93 61.9866 134.98 61.862 135.079C61.7374 135.173 61.6751 135.294 61.6751 135.444C61.6751 135.593 61.7343 135.712 61.8526 135.799C61.971 135.886 62.1298 135.93 62.3291 135.93H64.1324C64.4999 135.93 64.7927 136.045 65.0107 136.275C65.2349 136.506 65.347 136.799 65.347 137.154C65.347 137.577 65.1851 137.917 64.8612 138.172C64.5435 138.427 64.1137 138.555 63.5718 138.555H61.6938C61.482 138.555 61.2858 138.499 61.1052 138.387C60.9308 138.275 60.7906 138.132 60.6847 137.957C60.5851 137.789 60.5352 137.615 60.5352 137.434C60.5352 137.172 60.5975 136.945 60.7221 136.752C60.8529 136.559 61.0242 136.416 61.236 136.322C60.9495 136.148 60.8062 135.889 60.8062 135.547C60.8062 135.322 60.8716 135.129 61.0024 134.967C61.1332 134.805 61.317 134.684 61.5537 134.603C61.1363 134.372 60.9277 133.983 60.9277 133.435C60.9277 132.974 61.0958 132.61 61.4322 132.342C61.7748 132.068 62.2482 131.931 62.8524 131.931H62.8897C63.2386 131.931 63.5562 131.984 63.8428 132.09C64.285 131.872 64.5373 131.563 64.5996 131.165H65.347ZM62.8804 132.631C62.5503 132.631 62.2855 132.697 62.0862 132.828C61.8931 132.952 61.7966 133.155 61.7966 133.435C61.7966 133.715 61.8931 133.918 62.0862 134.042C62.2855 134.167 62.5503 134.229 62.8804 134.229C63.2105 134.229 63.4753 134.167 63.6746 134.042C63.8739 133.918 63.9736 133.715 63.9736 133.435C63.9736 133.155 63.8739 132.952 63.6746 132.828C63.4753 132.697 63.2105 132.631 62.8804 132.631ZM61.9461 136.771C61.7966 136.771 61.6689 136.823 61.563 136.929C61.4571 137.035 61.4042 137.163 61.4042 137.312C61.4042 137.462 61.4571 137.59 61.563 137.696C61.6689 137.801 61.7966 137.854 61.9461 137.854H63.7493C63.9487 137.854 64.1199 137.795 64.2632 137.677C64.4065 137.565 64.4781 137.434 64.4781 137.284C64.4781 137.129 64.4252 137.004 64.3193 136.911C64.2134 136.817 64.0639 136.771 63.8708 136.771H61.9461ZM68.1627 131.931C68.7918 131.931 69.259 132.055 69.5642 132.304C69.8757 132.554 70.0314 132.915 70.0314 133.388V135.864C70.0314 135.976 70.0563 136.06 70.1061 136.117C70.156 136.166 70.2182 136.191 70.293 136.191C70.4362 136.191 70.5795 136.148 70.7228 136.06V136.705C70.511 136.83 70.2712 136.892 70.0033 136.892C69.7355 136.892 69.5362 136.817 69.4054 136.668C69.2746 136.512 69.2029 136.3 69.1905 136.032C68.8043 136.605 68.2468 136.892 67.518 136.892C66.9948 136.892 66.6024 136.78 66.3408 136.556C66.0854 136.325 65.9577 135.964 65.9577 135.472C65.9577 135.086 66.0574 134.784 66.2567 134.566C66.456 134.341 66.7861 134.179 67.2471 134.08C67.708 133.98 68.3434 133.93 69.1531 133.93V133.491C69.1531 133.173 69.0597 132.952 68.8728 132.828C68.6859 132.697 68.415 132.631 68.0599 132.631C67.7236 132.631 67.462 132.697 67.2751 132.828C67.0882 132.958 66.9948 133.142 66.9948 133.379V133.491H66.1352C66.1228 133.404 66.1165 133.301 66.1165 133.183C66.1165 132.965 66.2037 132.759 66.3781 132.566C66.5526 132.373 66.7893 132.22 67.0882 132.108C67.3872 131.99 67.7174 131.931 68.0786 131.931H68.1627ZM69.1531 134.612C68.4991 134.612 68.0039 134.647 67.6675 134.715C67.3374 134.777 67.1163 134.874 67.0041 135.005C66.892 135.135 66.836 135.316 66.836 135.547C66.836 135.976 67.163 136.191 67.817 136.191C68.0475 136.191 68.2655 136.135 68.471 136.023C68.6766 135.905 68.8417 135.74 68.9662 135.528C69.0908 135.316 69.1531 135.073 69.1531 134.799V134.612ZM76.1228 131.165C76.1228 131.482 76.0387 131.75 75.8706 131.968C75.7024 132.18 75.4688 132.317 75.1698 132.379L75.1511 132.407C75.4626 132.681 75.6183 133.024 75.6183 133.435C75.6183 133.883 75.4501 134.245 75.1138 134.519C74.7774 134.793 74.3196 134.93 73.7403 134.93H73.1049C72.9181 134.93 72.7624 134.98 72.6378 135.079C72.5132 135.173 72.4509 135.294 72.4509 135.444C72.4509 135.593 72.5101 135.712 72.6284 135.799C72.7468 135.886 72.9056 135.93 73.1049 135.93H74.9082C75.2757 135.93 75.5685 136.045 75.7865 136.275C76.0107 136.506 76.1228 136.799 76.1228 137.154C76.1228 137.577 75.9609 137.917 75.637 138.172C75.3193 138.427 74.8895 138.555 74.3476 138.555H72.4696C72.2578 138.555 72.0616 138.499 71.881 138.387C71.7066 138.275 71.5664 138.132 71.4605 137.957C71.3609 137.789 71.311 137.615 71.311 137.434C71.311 137.172 71.3733 136.945 71.4979 136.752C71.6287 136.559 71.8 136.416 72.0118 136.322C71.7253 136.148 71.582 135.889 71.582 135.547C71.582 135.322 71.6474 135.129 71.7782 134.967C71.909 134.805 72.0928 134.684 72.3295 134.603C71.9121 134.372 71.7035 133.983 71.7035 133.435C71.7035 132.974 71.8716 132.61 72.208 132.342C72.5506 132.068 73.024 131.931 73.6282 131.931H73.6655C74.0144 131.931 74.332 131.984 74.6186 132.09C75.0608 131.872 75.3131 131.563 75.3754 131.165H76.1228ZM73.6562 132.631C73.3261 132.631 73.0613 132.697 72.862 132.828C72.6689 132.952 72.5724 133.155 72.5724 133.435C72.5724 133.715 72.6689 133.918 72.862 134.042C73.0613 134.167 73.3261 134.229 73.6562 134.229C73.9863 134.229 74.2511 134.167 74.4504 134.042C74.6497 133.918 74.7494 133.715 74.7494 133.435C74.7494 133.155 74.6497 132.952 74.4504 132.828C74.2511 132.697 73.9863 132.631 73.6562 132.631ZM72.7219 136.771C72.5724 136.771 72.4447 136.823 72.3388 136.929C72.2329 137.035 72.18 137.163 72.18 137.312C72.18 137.462 72.2329 137.59 72.3388 137.696C72.4447 137.801 72.5724 137.854 72.7219 137.854H74.5251C74.7245 137.854 74.8957 137.795 75.039 137.677C75.1823 137.565 75.2539 137.434 75.2539 137.284C75.2539 137.129 75.201 137.004 75.0951 136.911C74.9892 136.817 74.8397 136.771 74.6466 136.771H72.7219ZM78.9759 131.931C79.3683 131.931 79.714 132.015 80.013 132.183C80.3182 132.345 80.5549 132.579 80.7231 132.884C80.8913 133.189 80.9754 133.544 80.9754 133.949V134.612H77.6398C77.6523 135.117 77.7706 135.506 77.9948 135.78C78.2191 136.054 78.5523 136.191 78.9946 136.191C79.387 136.191 79.6766 136.076 79.8635 135.846C80.0504 135.615 80.1438 135.341 80.1438 135.023H80.9754C80.9754 135.397 80.8881 135.724 80.7137 136.004C80.5456 136.285 80.3089 136.503 80.0036 136.658C79.7047 136.814 79.3621 136.892 78.9759 136.892H78.9385C78.2658 136.892 77.7332 136.677 77.3408 136.247C76.9546 135.811 76.7615 135.232 76.7615 134.509V134.323C76.7615 133.849 76.8487 133.432 77.0231 133.071C77.1976 132.709 77.4467 132.429 77.7706 132.23C78.0945 132.03 78.4745 131.931 78.9105 131.931H78.9759ZM78.9292 132.631C78.5741 132.631 78.2845 132.74 78.0602 132.958C77.8422 133.177 77.7083 133.5 77.6585 133.93H80.1064V133.818C80.1064 133.463 79.9974 133.177 79.7794 132.958C79.5676 132.74 79.2842 132.631 78.9292 132.631ZM87.2883 131.931C87.7804 131.931 88.1634 132.074 88.4375 132.361C88.7116 132.647 88.8486 133.055 88.8486 133.584V136.799H87.9703V133.743C87.9703 133.002 87.6838 132.631 87.1108 132.631C86.9114 132.631 86.7246 132.691 86.5502 132.809C86.382 132.927 86.2449 133.089 86.1391 133.295C86.0394 133.494 85.9896 133.715 85.9896 133.958V136.799H85.1113V133.743C85.1113 133.002 84.8248 132.631 84.2517 132.631C84.0524 132.631 83.8655 132.691 83.6911 132.809C83.5229 132.927 83.3859 133.089 83.28 133.295C83.1803 133.494 83.1305 133.715 83.1305 133.958V136.799H82.2522V132.024H82.8876L83.0091 132.725C83.3703 132.195 83.8717 131.931 84.5133 131.931C85.1424 131.931 85.5785 132.195 85.8214 132.725C86.0332 132.426 86.2605 132.22 86.5034 132.108C86.7464 131.99 87.008 131.931 87.2883 131.931ZM92.27 131.931C92.6624 131.931 93.0081 132.015 93.3071 132.183C93.6123 132.345 93.849 132.579 94.0172 132.884C94.1854 133.189 94.2695 133.544 94.2695 133.949V134.612H90.9339C90.9464 135.117 91.0647 135.506 91.289 135.78C91.5132 136.054 91.8464 136.191 92.2887 136.191C92.6811 136.191 92.9707 136.076 93.1576 135.846C93.3445 135.615 93.4379 135.341 93.4379 135.023H94.2695C94.2695 135.397 94.1823 135.724 94.0078 136.004C93.8397 136.285 93.603 136.503 93.2978 136.658C92.9988 136.814 92.6562 136.892 92.27 136.892H92.2326C91.5599 136.892 91.0273 136.677 90.6349 136.247C90.2487 135.811 90.0556 135.232 90.0556 134.509V134.323C90.0556 133.849 90.1428 133.432 90.3173 133.071C90.4917 132.709 90.7408 132.429 91.0647 132.23C91.3886 132.03 91.7686 131.931 92.2046 131.931H92.27ZM92.2233 132.631C91.8682 132.631 91.5786 132.74 91.3544 132.958C91.1363 133.177 91.0024 133.5 90.9526 133.93H93.4005V133.818C93.4005 133.463 93.2915 133.177 93.0735 132.958C92.8617 132.74 92.5783 132.631 92.2233 132.631ZM97.9009 131.931C98.4241 131.931 98.8352 132.071 99.1342 132.351C99.4332 132.631 99.5827 133.043 99.5827 133.584V136.799H98.7044V133.743C98.7044 133.002 98.368 132.631 97.6953 132.631C97.4711 132.631 97.2624 132.691 97.0693 132.809C96.8762 132.927 96.7205 133.089 96.6021 133.295C96.4838 133.494 96.4246 133.715 96.4246 133.958V136.799H95.5464V132.024H96.1817L96.3032 132.725C96.7018 132.195 97.2344 131.931 97.9009 131.931ZM102.067 132.024H103.179V132.725H102.067V135.575C102.067 135.799 102.111 135.961 102.198 136.06C102.285 136.16 102.419 136.21 102.6 136.21C102.761 136.21 102.955 136.163 103.179 136.07V136.724C102.955 136.836 102.665 136.892 102.31 136.892C101.942 136.892 101.662 136.783 101.469 136.565C101.282 136.347 101.189 136.001 101.189 135.528V132.725H100.665V132.024H101.217L101.516 130.501H102.067V132.024Z" fill="#5D6180"/>
<path d="M54.0887 101.737C52.2559 104.084 50.7657 106.447 49.618 108.828C48.4703 111.209 47.8965 113.633 47.8965 116.1C47.8965 116.836 47.905 117.307 47.9222 117.513H43.6056C43.6056 115.029 44.1794 112.597 45.3271 110.216C46.4747 107.835 47.9307 105.514 49.6951 103.253H41.3445V99.8868H54.0887V101.737ZM63.2693 102.713C62.5157 102.713 61.8647 102.97 61.3166 103.484C60.7685 103.998 60.4944 104.632 60.4944 105.385V107.878C60.9569 107.381 61.505 107.004 62.1388 106.747C62.7726 106.49 63.4235 106.362 64.0916 106.362C65.1536 106.362 66.1128 106.584 66.9693 107.03C67.8429 107.458 68.5281 108.083 69.0248 108.905C69.5387 109.711 69.7956 110.653 69.7956 111.732C69.7956 112.948 69.513 114.01 68.9477 114.918C68.3996 115.826 67.6373 116.528 66.661 117.025C65.7017 117.522 64.6311 117.77 63.4492 117.77H63.0895C61.9247 117.77 60.8541 117.513 59.8777 116.999C58.9014 116.468 58.1305 115.731 57.5653 114.789C57 113.847 56.7174 112.777 56.7174 111.578V105.822C56.7174 104.674 57 103.63 57.5653 102.687C58.1305 101.745 58.8928 101 59.852 100.452C60.8113 99.904 61.8647 99.6299 63.0124 99.6299H63.3721C64.5027 99.6299 65.5304 99.8611 66.4554 100.324C67.3804 100.786 68.1084 101.463 68.6394 102.353C69.1704 103.227 69.4359 104.263 69.4359 105.462H65.8901C65.8901 104.709 65.6418 104.066 65.145 103.535C64.6654 102.987 64.0402 102.713 63.2693 102.713ZM66.07 111.655C66.07 110.884 65.7959 110.25 65.2478 109.753C64.7168 109.239 64.0487 108.983 63.2437 108.983C62.4728 108.983 61.8219 109.239 61.2909 109.753C60.7599 110.25 60.4944 110.884 60.4944 111.655V112.169C60.4944 112.939 60.7599 113.582 61.2909 114.096C61.839 114.592 62.5157 114.841 63.3207 114.841C64.0916 114.841 64.7425 114.592 65.2735 114.096C65.8045 113.582 66.07 112.939 66.07 112.169V111.655ZM72.784 113.736H76.5353V117.513H72.784V113.736ZM89.8536 108.571C90.7786 109.051 91.4724 109.608 91.9348 110.242C92.4145 110.858 92.6543 111.68 92.6543 112.708C92.6543 114.318 92.0719 115.569 90.9071 116.459C89.7423 117.333 88.1407 117.77 86.1023 117.77C84.1324 117.77 82.548 117.325 81.3489 116.434C80.1499 115.543 79.5503 114.301 79.5503 112.708C79.5503 111.68 79.7816 110.85 80.2441 110.216C80.7237 109.582 81.426 109.034 82.351 108.571V108.469C81.6144 107.972 81.0577 107.449 80.6809 106.901C80.3211 106.353 80.1413 105.608 80.1413 104.666C80.1413 103.621 80.3982 102.722 80.9121 101.968C81.426 101.197 82.1283 100.615 83.019 100.221C83.9269 99.8269 84.9546 99.6299 86.1023 99.6299C87.25 99.6299 88.2692 99.8269 89.1599 100.221C90.0677 100.615 90.7786 101.197 91.2925 101.968C91.8064 102.722 92.0633 103.621 92.0633 104.666C92.0633 105.608 91.8749 106.353 91.498 106.901C91.1383 107.449 90.5902 107.972 89.8536 108.469V108.571ZM83.6614 105C83.6614 105.634 83.8926 106.173 84.3551 106.619C84.8176 107.047 85.4 107.261 86.1023 107.261C86.8046 107.261 87.387 107.047 87.8495 106.619C88.312 106.173 88.5432 105.634 88.5432 105V104.717C88.5432 104.084 88.312 103.553 87.8495 103.124C87.387 102.679 86.8046 102.456 86.1023 102.456C85.4 102.456 84.8176 102.679 84.3551 103.124C83.8926 103.553 83.6614 104.084 83.6614 104.717V105ZM83.3787 112.58C83.3787 113.299 83.6357 113.873 84.1496 114.301C84.6634 114.729 85.3144 114.944 86.1023 114.944C86.8903 114.944 87.5412 114.729 88.055 114.301C88.5689 113.873 88.8259 113.299 88.8259 112.58V112.169C88.8259 111.449 88.5689 110.875 88.055 110.447C87.5412 110.019 86.8903 109.805 86.1023 109.805C85.3144 109.805 84.6634 110.019 84.1496 110.447C83.6357 110.875 83.3787 111.449 83.3787 112.169V112.58ZM99.1627 117.513H97.0301L107.796 99.8868H109.851L99.1627 117.513ZM101.758 105.745C101.758 106.619 101.458 107.364 100.859 107.98C100.259 108.58 99.5139 108.88 98.6231 108.88H98.2377C97.347 108.88 96.6019 108.58 96.0023 107.98C95.4028 107.364 95.103 106.619 95.103 105.745V103.047C95.103 102.174 95.4028 101.437 96.0023 100.838C96.6019 100.221 97.347 99.9125 98.2377 99.9125H98.6231C99.5139 99.9125 100.259 100.221 100.859 100.838C101.458 101.437 101.758 102.174 101.758 103.047V105.745ZM99.6766 102.79C99.6766 102.431 99.5567 102.131 99.3169 101.891C99.0942 101.651 98.803 101.531 98.4433 101.531C98.0836 101.531 97.7838 101.651 97.544 101.891C97.3042 102.131 97.1843 102.431 97.1843 102.79V105.976C97.1843 106.336 97.2956 106.636 97.5183 106.876C97.7581 107.115 98.0664 107.235 98.4433 107.235C98.803 107.235 99.0942 107.115 99.3169 106.876C99.5567 106.636 99.6766 106.336 99.6766 105.976V102.79ZM111.778 114.404C111.778 115.278 111.479 116.023 110.879 116.639C110.28 117.239 109.535 117.539 108.644 117.539H108.258C107.368 117.539 106.623 117.239 106.023 116.639C105.423 116.023 105.124 115.278 105.124 114.404V111.706C105.124 110.832 105.423 110.096 106.023 109.496C106.623 108.88 107.368 108.571 108.258 108.571H108.644C109.535 108.571 110.28 108.88 110.879 109.496C111.479 110.096 111.778 110.832 111.778 111.706V114.404ZM109.697 111.475C109.697 111.115 109.577 110.815 109.338 110.576C109.115 110.319 108.824 110.19 108.464 110.19C108.104 110.19 107.804 110.319 107.565 110.576C107.325 110.815 107.205 111.115 107.205 111.475V114.661C107.205 115.021 107.325 115.32 107.565 115.56C107.804 115.8 108.104 115.92 108.464 115.92C108.824 115.92 109.115 115.8 109.338 115.56C109.577 115.32 109.697 115.021 109.697 114.661V111.475Z" fill="#060C3C"/>
<g filter="url(#filter5_d_1_4245)">
<rect x="45.3583" y="23.6062" width="64.2351" height="31.5336" rx="3.50373" fill="white"/>
</g>
<path d="M71.8018 37.7822L68.3268 37.2772L66.7734 34.1279C66.731 34.0417 66.6612 33.9719 66.575 33.9294C66.3587 33.8227 66.096 33.9117 65.9878 34.1279L64.4344 37.2772L60.9594 37.7822C60.8636 37.7959 60.776 37.841 60.709 37.9095C60.6279 37.9928 60.5832 38.1049 60.5848 38.2212C60.5863 38.3374 60.6339 38.4483 60.7172 38.5295L63.2314 40.9807L62.6374 44.442C62.6235 44.5225 62.6324 44.6053 62.6631 44.681C62.6938 44.7568 62.7452 44.8223 62.8113 44.8704C62.8774 44.9184 62.9557 44.9469 63.0372 44.9527C63.1187 44.9585 63.2002 44.9414 63.2724 44.9032L66.3806 43.2691L69.4888 44.9032C69.5737 44.9484 69.6722 44.9635 69.7667 44.947C70.0048 44.906 70.1649 44.6802 70.1239 44.442L69.5299 40.9807L72.0441 38.5295C72.1125 38.4624 72.1577 38.3748 72.1714 38.279C72.2083 38.0395 72.0413 37.8178 71.8018 37.7822Z" fill="#FFD43D"/>
<path d="M80.0276 38.531C80.2332 38.2227 80.4259 37.8458 80.6057 37.4005C80.7942 36.9551 80.9398 36.544 81.0425 36.1672H81.8648V40.4581H83.0467V41.974H81.8648V44.0295H80.0276V41.974H76.1478V40.4452C76.5846 39.7515 77.03 38.8907 77.4839 37.863C77.9464 36.8266 78.2933 35.9017 78.5245 35.088H80.336C80.2075 35.6704 79.9762 36.3213 79.6422 37.0408C79.3082 37.7516 78.9485 38.4197 78.5631 39.0449C78.1862 39.6701 77.8608 40.1412 77.5867 40.4581H80.0276V38.531ZM84.8235 45.8795C84.9091 45.4684 85.0462 44.8518 85.2346 44.0295H84.4252V42.141H86.3009V43.7212L85.7613 45.8795H84.8235ZM92.9601 39.5588C93.4225 39.7986 93.7694 40.0769 94.0007 40.3938C94.2405 40.7022 94.3604 41.1133 94.3604 41.6271C94.3604 42.4322 94.0692 43.0575 93.4868 43.5028C92.9044 43.9396 92.1036 44.158 91.0844 44.158C90.0995 44.158 89.3072 43.9353 88.7077 43.49C88.1082 43.0446 87.8084 42.4237 87.8084 41.6271C87.8084 41.1133 87.924 40.6979 88.1553 40.381C88.3951 40.0641 88.7462 39.79 89.2087 39.5588V39.5074C88.8404 39.259 88.5621 38.9978 88.3737 38.7237C88.1938 38.4497 88.1039 38.0771 88.1039 37.606C88.1039 37.0836 88.2324 36.6339 88.4893 36.2571C88.7462 35.8717 89.0974 35.5805 89.5427 35.3835C89.9967 35.1865 90.5106 35.088 91.0844 35.088C91.6582 35.088 92.1678 35.1865 92.6132 35.3835C93.0671 35.5805 93.4225 35.8717 93.6795 36.2571C93.9364 36.6339 94.0649 37.0836 94.0649 37.606C94.0649 38.0771 93.9707 38.4497 93.7823 38.7237C93.6024 38.9978 93.3283 39.259 92.9601 39.5074V39.5588ZM89.8639 37.773C89.8639 38.0899 89.9795 38.3597 90.2108 38.5824C90.442 38.7965 90.7332 38.9036 91.0844 38.9036C91.4355 38.9036 91.7267 38.7965 91.958 38.5824C92.1892 38.3597 92.3049 38.0899 92.3049 37.773V37.6317C92.3049 37.3148 92.1892 37.0493 91.958 36.8352C91.7267 36.6125 91.4355 36.5012 91.0844 36.5012C90.7332 36.5012 90.442 36.6125 90.2108 36.8352C89.9795 37.0493 89.8639 37.3148 89.8639 37.6317V37.773ZM89.7226 41.5629C89.7226 41.9226 89.8511 42.2095 90.108 42.4237C90.365 42.6378 90.6904 42.7448 91.0844 42.7448C91.4784 42.7448 91.8038 42.6378 92.0608 42.4237C92.3177 42.2095 92.4462 41.9226 92.4462 41.5629V41.3574C92.4462 40.9976 92.3177 40.7107 92.0608 40.4966C91.8038 40.2825 91.4784 40.1754 91.0844 40.1754C90.6904 40.1754 90.365 40.2825 90.108 40.4966C89.8511 40.7107 89.7226 40.9976 89.7226 41.3574V41.5629Z" fill="#FFD43D"/>
<defs>
<filter id="filter0_d_1_4245" x="127.696" y="32.9496" width="194.457" height="172.851" filterUnits="userSpaceOnUse" color-interpolation-filters="sRGB">
<feFlood flood-opacity="0" result="BackgroundImageFix"/>
<feColorMatrix in="SourceAlpha" type="matrix" values="0 0 0 0 0 0 0 0 0 0 0 0 0 0 0 0 0 0 127 0" result="hardAlpha"/>
<feMorphology radius="1.16791" operator="erode" in="SourceAlpha" result="effect1_dropShadow_1_4245"/>
<feOffset dy="4.67164"/>
<feGaussianBlur stdDeviation="11.6791"/>
<feColorMatrix type="matrix" values="0 0 0 0 0.0235294 0 0 0 0 0.0470588 0 0 0 0 0.231373 0 0 0 0.08 0"/>
<feBlend mode="normal" in2="BackgroundImageFix" result="effect1_dropShadow_1_4245"/>
<feBlend mode="normal" in="SourceGraphic" in2="effect1_dropShadow_1_4245" result="shape"/>
</filter>
<filter id="filter1_d_1_4245" x="0.393685" y="180.106" width="270.955" height="131.974" filterUnits="userSpaceOnUse" color-interpolation-filters="sRGB">
<feFlood flood-opacity="0" result="BackgroundImageFix"/>
<feColorMatrix in="SourceAlpha" type="matrix" values="0 0 0 0 0 0 0 0 0 0 0 0 0 0 0 0 0 0 127 0" result="hardAlpha"/>
<feMorphology radius="1.16791" operator="erode" in="SourceAlpha" result="effect1_dropShadow_1_4245"/>
<feOffset dy="4.67164"/>
<feGaussianBlur stdDeviation="11.6791"/>
<feColorMatrix type="matrix" values="0 0 0 0 0.0235294 0 0 0 0 0.0470588 0 0 0 0 0.231373 0 0 0 0.08 0"/>
<feBlend mode="normal" in2="BackgroundImageFix" result="effect1_dropShadow_1_4245"/>
<feBlend mode="normal" in="SourceGraphic" in2="effect1_dropShadow_1_4245" result="shape"/>
</filter>
<filter id="filter2_d_1_4245" x="254.083" y="189.932" width="95.7855" height="67.7388" filterUnits="userSpaceOnUse" color-interpolation-filters="sRGB">
<feFlood flood-opacity="0" result="BackgroundImageFix"/>
<feColorMatrix in="SourceAlpha" type="matrix" values="0 0 0 0 0 0 0 0 0 0 0 0 0 0 0 0 0 0 127 0" result="hardAlpha"/>
<feOffset dy="3.50373"/>
<feGaussianBlur stdDeviation="5.83955"/>
<feColorMatrix type="matrix" values="0 0 0 0 0.11 0 0 0 0 0.14137 0 0 0 0 0.4125 0 0 0 0.05 0"/>
<feBlend mode="normal" in2="BackgroundImageFix" result="effect1_dropShadow_1_4245"/>
<feBlend mode="normal" in="SourceGraphic" in2="effect1_dropShadow_1_4245" result="shape"/>
</filter>
<filter id="filter3_d_1_4245" x="246.188" y="180.589" width="88.7612" height="88.7612" filterUnits="userSpaceOnUse" color-interpolation-filters="sRGB">
<feFlood flood-opacity="0" result="BackgroundImageFix"/>
<feColorMatrix in="SourceAlpha" type="matrix" values="0 0 0 0 0 0 0 0 0 0 0 0 0 0 0 0 0 0 127 0" result="hardAlpha"/>
<feMorphology radius="1.16791" operator="erode" in="SourceAlpha" result="effect1_dropShadow_1_4245"/>
<feOffset dy="4.67164"/>
<feGaussianBlur stdDeviation="11.6791"/>
<feColorMatrix type="matrix" values="0 0 0 0 0.0235294 0 0 0 0 0.0470588 0 0 0 0 0.231373 0 0 0 0.08 0"/>
<feBlend mode="normal" in2="BackgroundImageFix" result="effect1_dropShadow_1_4245"/>
<feBlend mode="normal" in="SourceGraphic" in2="effect1_dropShadow_1_4245" result="shape"/>
</filter>
<filter id="filter4_d_1_4245" x="0.393685" y="56.3078" width="152.996" height="149.493" filterUnits="userSpaceOnUse" color-interpolation-filters="sRGB">
<feFlood flood-opacity="0" result="BackgroundImageFix"/>
<feColorMatrix in="SourceAlpha" type="matrix" values="0 0 0 0 0 0 0 0 0 0 0 0 0 0 0 0 0 0 127 0" result="hardAlpha"/>
<feMorphology radius="1.16791" operator="erode" in="SourceAlpha" result="effect1_dropShadow_1_4245"/>
<feOffset dy="4.67164"/>
<feGaussianBlur stdDeviation="11.6791"/>
<feColorMatrix type="matrix" values="0 0 0 0 0.0235294 0 0 0 0 0.0470588 0 0 0 0 0.231373 0 0 0 0.08 0"/>
<feBlend mode="normal" in2="BackgroundImageFix" result="effect1_dropShadow_1_4245"/>
<feBlend mode="normal" in="SourceGraphic" in2="effect1_dropShadow_1_4245" result="shape"/>
</filter>
<filter id="filter5_d_1_4245" x="23.168" y="6.08754" width="108.616" height="75.9143" filterUnits="userSpaceOnUse" color-interpolation-filters="sRGB">
<feFlood flood-opacity="0" result="BackgroundImageFix"/>
<feColorMatrix in="SourceAlpha" type="matrix" values="0 0 0 0 0 0 0 0 0 0 0 0 0 0 0 0 0 0 127 0" result="hardAlpha"/>
<feMorphology radius="1.16791" operator="erode" in="SourceAlpha" result="effect1_dropShadow_1_4245"/>
<feOffset dy="4.67164"/>
<feGaussianBlur stdDeviation="11.6791"/>
<feColorMatrix type="matrix" values="0 0 0 0 0.0235294 0 0 0 0 0.0470588 0 0 0 0 0.231373 0 0 0 0.08 0"/>
<feBlend mode="normal" in2="BackgroundImageFix" result="effect1_dropShadow_1_4245"/>
<feBlend mode="normal" in="SourceGraphic" in2="effect1_dropShadow_1_4245" result="shape"/>
</filter>
</defs>
</svg>
