<svg width="575" height="545" viewBox="0 0 575 545" fill="none" xmlns="http://www.w3.org/2000/svg">
<g filter="url(#filter0_d_1_8038)">
<rect x="256" y="83.5" width="257" height="220" rx="6" fill="white"/>
</g>
<path d="M281.136 119.5V108.524H285.68C286.331 108.524 286.933 108.631 287.488 108.844C288.053 109.047 288.549 109.351 288.976 109.756C289.413 110.151 289.749 110.647 289.984 111.244C290.229 111.831 290.352 112.508 290.352 113.276V114.476C290.352 115.244 290.229 115.937 289.984 116.556C289.749 117.164 289.413 117.692 288.976 118.14C288.549 118.577 288.053 118.913 287.488 119.148C286.933 119.383 286.331 119.5 285.68 119.5H281.136ZM283.824 117.452H285.456C285.84 117.452 286.187 117.361 286.496 117.18C286.816 116.999 287.067 116.732 287.248 116.38C287.429 116.017 287.52 115.569 287.52 115.036V112.812C287.52 112.279 287.429 111.847 287.248 111.516C287.067 111.185 286.816 110.94 286.496 110.78C286.187 110.62 285.84 110.54 285.456 110.54H283.824V117.452ZM294.199 119.66C293.761 119.66 293.345 119.585 292.951 119.436C292.556 119.287 292.231 119.047 291.975 118.716C291.729 118.375 291.607 117.916 291.607 117.34C291.607 116.764 291.729 116.295 291.975 115.932C292.231 115.559 292.593 115.271 293.062 115.068C293.543 114.865 294.113 114.727 294.775 114.652C295.447 114.567 296.193 114.524 297.015 114.524V113.868C297.015 113.441 296.897 113.143 296.663 112.972C296.428 112.791 296.097 112.7 295.671 112.7C295.287 112.7 294.961 112.785 294.695 112.956C294.428 113.127 294.295 113.377 294.295 113.708V113.82H291.879C291.868 113.788 291.863 113.751 291.863 113.708C291.863 113.655 291.863 113.601 291.863 113.548C291.863 113.089 292.012 112.679 292.311 112.316C292.609 111.953 293.031 111.671 293.575 111.468C294.129 111.265 294.775 111.164 295.511 111.164H295.911C297.105 111.164 297.996 111.399 298.583 111.868C299.169 112.327 299.463 112.94 299.463 113.708V117.484C299.463 117.687 299.511 117.836 299.607 117.932C299.713 118.017 299.825 118.06 299.943 118.06C300.049 118.06 300.156 118.044 300.263 118.012C300.369 117.969 300.471 117.927 300.567 117.884V119.308C300.428 119.415 300.241 119.5 300.007 119.564C299.772 119.628 299.473 119.66 299.111 119.66C298.705 119.66 298.359 119.601 298.071 119.484C297.793 119.356 297.58 119.191 297.431 118.988C297.281 118.785 297.185 118.551 297.143 118.284C296.844 118.668 296.455 118.993 295.975 119.26C295.495 119.527 294.903 119.66 294.199 119.66ZM295.447 118.06C295.713 118.06 295.964 118.001 296.199 117.884C296.444 117.756 296.641 117.575 296.791 117.34C296.94 117.095 297.015 116.796 297.015 116.444V115.788C296.396 115.788 295.879 115.831 295.463 115.916C295.047 116.001 294.732 116.135 294.519 116.316C294.316 116.497 294.215 116.748 294.215 117.068C294.215 117.441 294.327 117.703 294.551 117.852C294.785 117.991 295.084 118.06 295.447 118.06ZM304.827 119.66C304.326 119.66 303.883 119.596 303.499 119.468C303.115 119.34 302.811 119.121 302.587 118.812C302.374 118.492 302.267 118.071 302.267 117.548V113.164H301.371V111.324H302.347L303.227 108.716H304.779V111.324H306.683V113.164H304.779V116.956C304.779 117.425 304.875 117.729 305.067 117.868C305.259 117.996 305.467 118.06 305.691 118.06C305.809 118.06 305.969 118.039 306.171 117.996C306.385 117.943 306.555 117.889 306.683 117.836V119.34C306.534 119.404 306.342 119.463 306.107 119.516C305.883 119.569 305.654 119.607 305.419 119.628C305.195 119.649 304.998 119.66 304.827 119.66ZM310.386 119.66C309.949 119.66 309.533 119.585 309.138 119.436C308.743 119.287 308.418 119.047 308.162 118.716C307.917 118.375 307.794 117.916 307.794 117.34C307.794 116.764 307.917 116.295 308.162 115.932C308.418 115.559 308.781 115.271 309.25 115.068C309.73 114.865 310.301 114.727 310.962 114.652C311.634 114.567 312.381 114.524 313.202 114.524V113.868C313.202 113.441 313.085 113.143 312.85 112.972C312.615 112.791 312.285 112.7 311.858 112.7C311.474 112.7 311.149 112.785 310.882 112.956C310.615 113.127 310.482 113.377 310.482 113.708V113.82H308.066C308.055 113.788 308.05 113.751 308.05 113.708C308.05 113.655 308.05 113.601 308.05 113.548C308.05 113.089 308.199 112.679 308.498 112.316C308.797 111.953 309.218 111.671 309.762 111.468C310.317 111.265 310.962 111.164 311.698 111.164H312.098C313.293 111.164 314.183 111.399 314.77 111.868C315.357 112.327 315.65 112.94 315.65 113.708V117.484C315.65 117.687 315.698 117.836 315.794 117.932C315.901 118.017 316.013 118.06 316.13 118.06C316.237 118.06 316.343 118.044 316.45 118.012C316.557 117.969 316.658 117.927 316.754 117.884V119.308C316.615 119.415 316.429 119.5 316.194 119.564C315.959 119.628 315.661 119.66 315.298 119.66C314.893 119.66 314.546 119.601 314.258 119.484C313.981 119.356 313.767 119.191 313.618 118.988C313.469 118.785 313.373 118.551 313.33 118.284C313.031 118.668 312.642 118.993 312.162 119.26C311.682 119.527 311.09 119.66 310.386 119.66ZM311.634 118.06C311.901 118.06 312.151 118.001 312.386 117.884C312.631 117.756 312.829 117.575 312.978 117.34C313.127 117.095 313.202 116.796 313.202 116.444V115.788C312.583 115.788 312.066 115.831 311.65 115.916C311.234 116.001 310.919 116.135 310.706 116.316C310.503 116.497 310.402 116.748 310.402 117.068C310.402 117.441 310.514 117.703 310.738 117.852C310.973 117.991 311.271 118.06 311.634 118.06ZM320.391 119.5L324.311 108.524H327.543L331.447 119.5H328.663L327.879 117.324H323.751L322.983 119.5H320.391ZM324.391 115.436H327.239L325.863 111.292H325.783L324.391 115.436ZM332.461 119.5V111.324H334.333L334.621 112.508C334.951 112.049 335.335 111.713 335.773 111.5C336.21 111.276 336.722 111.164 337.309 111.164C337.863 111.164 338.343 111.271 338.749 111.484C339.165 111.687 339.485 111.98 339.709 112.364C339.933 112.748 340.045 113.207 340.045 113.74V119.5H337.533V114.316C337.533 113.879 337.421 113.548 337.197 113.324C336.973 113.1 336.679 112.988 336.317 112.988C336.071 112.988 335.847 113.052 335.645 113.18C335.442 113.308 335.277 113.479 335.149 113.692C335.031 113.895 334.973 114.129 334.973 114.396V119.5H332.461ZM344.167 119.66C343.73 119.66 343.314 119.585 342.919 119.436C342.525 119.287 342.199 119.047 341.943 118.716C341.698 118.375 341.575 117.916 341.575 117.34C341.575 116.764 341.698 116.295 341.943 115.932C342.199 115.559 342.562 115.271 343.031 115.068C343.511 114.865 344.082 114.727 344.743 114.652C345.415 114.567 346.162 114.524 346.983 114.524V113.868C346.983 113.441 346.866 113.143 346.631 112.972C346.397 112.791 346.066 112.7 345.639 112.7C345.255 112.7 344.93 112.785 344.663 112.956C344.397 113.127 344.263 113.377 344.263 113.708V113.82H341.847C341.837 113.788 341.831 113.751 341.831 113.708C341.831 113.655 341.831 113.601 341.831 113.548C341.831 113.089 341.981 112.679 342.279 112.316C342.578 111.953 342.999 111.671 343.543 111.468C344.098 111.265 344.743 111.164 345.479 111.164H345.879C347.074 111.164 347.965 111.399 348.551 111.868C349.138 112.327 349.431 112.94 349.431 113.708V117.484C349.431 117.687 349.479 117.836 349.575 117.932C349.682 118.017 349.794 118.06 349.911 118.06C350.018 118.06 350.125 118.044 350.231 118.012C350.338 117.969 350.439 117.927 350.535 117.884V119.308C350.397 119.415 350.21 119.5 349.975 119.564C349.741 119.628 349.442 119.66 349.079 119.66C348.674 119.66 348.327 119.601 348.039 119.484C347.762 119.356 347.549 119.191 347.399 118.988C347.25 118.785 347.154 118.551 347.111 118.284C346.813 118.668 346.423 118.993 345.943 119.26C345.463 119.527 344.871 119.66 344.167 119.66ZM345.415 118.06C345.682 118.06 345.933 118.001 346.167 117.884C346.413 117.756 346.61 117.575 346.759 117.34C346.909 117.095 346.983 116.796 346.983 116.444V115.788C346.365 115.788 345.847 115.831 345.431 115.916C345.015 116.001 344.701 116.135 344.487 116.316C344.285 116.497 344.183 116.748 344.183 117.068C344.183 117.441 344.295 117.703 344.519 117.852C344.754 117.991 345.053 118.06 345.415 118.06ZM351.836 119.5V107.98H354.348V119.5H351.836ZM357.439 122.476C357.14 122.476 356.874 122.455 356.639 122.412C356.404 122.38 356.196 122.327 356.015 122.252V120.508C356.132 120.561 356.292 120.609 356.495 120.652C356.708 120.695 356.916 120.716 357.119 120.716C357.428 120.716 357.668 120.652 357.839 120.524C358.02 120.407 358.164 120.241 358.271 120.028C358.378 119.815 358.474 119.575 358.559 119.308L355.455 111.324H358.143L359.823 116.316H359.935L361.487 111.324H363.967L361.071 119.02C360.836 119.671 360.554 120.257 360.223 120.78C359.892 121.303 359.498 121.713 359.039 122.012C358.591 122.321 358.058 122.476 357.439 122.476ZM368.015 119.66C367.514 119.66 367.071 119.596 366.687 119.468C366.303 119.34 365.999 119.121 365.775 118.812C365.562 118.492 365.455 118.071 365.455 117.548V113.164H364.559V111.324H365.535L366.415 108.716H367.967V111.324H369.871V113.164H367.967V116.956C367.967 117.425 368.063 117.729 368.255 117.868C368.447 117.996 368.655 118.06 368.879 118.06C368.996 118.06 369.156 118.039 369.359 117.996C369.572 117.943 369.743 117.889 369.871 117.836V119.34C369.722 119.404 369.53 119.463 369.295 119.516C369.071 119.569 368.842 119.607 368.607 119.628C368.383 119.649 368.186 119.66 368.015 119.66ZM371.493 119.5V111.324H374.006V119.5H371.493ZM371.462 109.868V107.98H374.022V109.868H371.462ZM379.463 119.66C378.77 119.66 378.135 119.489 377.559 119.148C376.983 118.796 376.524 118.321 376.183 117.724C375.842 117.116 375.671 116.433 375.671 115.676V115.132C375.671 114.556 375.772 114.028 375.975 113.548C376.178 113.068 376.455 112.652 376.807 112.3C377.17 111.937 377.58 111.66 378.039 111.468C378.508 111.265 379.01 111.164 379.543 111.164H379.895C380.652 111.164 381.298 111.308 381.831 111.596C382.375 111.884 382.791 112.284 383.079 112.796C383.367 113.308 383.511 113.905 383.511 114.588H381.335C381.335 114.183 381.276 113.847 381.159 113.58C381.042 113.303 380.876 113.1 380.663 112.972C380.45 112.833 380.183 112.764 379.863 112.764C379.436 112.764 379.074 112.913 378.775 113.212C378.487 113.5 378.343 113.911 378.343 114.444V116.348C378.343 116.881 378.476 117.303 378.743 117.612C379.02 117.911 379.404 118.06 379.895 118.06C380.247 118.06 380.535 118.001 380.759 117.884C380.994 117.767 381.17 117.575 381.287 117.308C381.404 117.041 381.463 116.684 381.463 116.236H383.511C383.511 116.961 383.351 117.58 383.031 118.092C382.722 118.604 382.29 118.993 381.735 119.26C381.18 119.527 380.54 119.66 379.815 119.66H379.463ZM388.047 119.66C387.556 119.66 387.103 119.601 386.687 119.484C386.271 119.367 385.903 119.201 385.583 118.988C385.273 118.764 385.028 118.503 384.847 118.204C384.676 117.895 384.59 117.553 384.59 117.18C384.59 117.127 384.59 117.079 384.59 117.036C384.59 116.993 384.596 116.94 384.607 116.876H386.703C386.692 116.897 386.687 116.919 386.687 116.94C386.687 116.961 386.687 116.983 386.687 117.004C386.687 117.26 386.772 117.468 386.943 117.628C387.113 117.777 387.332 117.889 387.599 117.964C387.865 118.028 388.143 118.06 388.431 118.06C388.644 118.06 388.873 118.033 389.119 117.98C389.375 117.927 389.593 117.841 389.775 117.724C389.956 117.607 390.047 117.447 390.047 117.244C390.047 117.02 389.951 116.849 389.759 116.732C389.577 116.615 389.332 116.524 389.023 116.46C388.713 116.396 388.372 116.337 387.999 116.284C387.636 116.22 387.268 116.145 386.895 116.06C386.521 115.964 386.18 115.831 385.871 115.66C385.561 115.479 385.311 115.239 385.118 114.94C384.937 114.641 384.847 114.252 384.847 113.772C384.847 113.335 384.943 112.951 385.135 112.62C385.337 112.289 385.609 112.017 385.951 111.804C386.303 111.591 386.692 111.431 387.119 111.324C387.545 111.217 387.983 111.164 388.431 111.164H388.799C389.204 111.164 389.604 111.217 389.999 111.324C390.393 111.42 390.751 111.564 391.071 111.756C391.391 111.948 391.647 112.183 391.839 112.46C392.031 112.727 392.127 113.025 392.127 113.356C392.127 113.42 392.121 113.489 392.111 113.564C392.111 113.628 392.111 113.681 392.111 113.724H389.983V113.596C389.983 113.489 389.951 113.383 389.887 113.276C389.823 113.169 389.727 113.079 389.599 113.004C389.471 112.919 389.316 112.855 389.135 112.812C388.964 112.759 388.761 112.732 388.527 112.732C388.335 112.732 388.148 112.753 387.967 112.796C387.785 112.828 387.625 112.876 387.487 112.94C387.359 113.004 387.257 113.084 387.183 113.18C387.108 113.265 387.071 113.361 387.071 113.468C387.071 113.681 387.161 113.841 387.343 113.948C387.535 114.055 387.785 114.14 388.095 114.204C388.415 114.257 388.761 114.311 389.135 114.364C389.508 114.407 389.881 114.476 390.255 114.572C390.628 114.657 390.969 114.791 391.279 114.972C391.588 115.143 391.839 115.383 392.031 115.692C392.223 115.991 392.319 116.385 392.319 116.876C392.319 117.399 392.217 117.841 392.015 118.204C391.812 118.556 391.535 118.839 391.183 119.052C390.841 119.265 390.452 119.42 390.015 119.516C389.577 119.612 389.124 119.66 388.655 119.66H388.047Z" fill="#060C3C"/>
<rect x="280" y="277.5" width="24" height="6" rx="3" fill="#B4B6C4"/>
<rect x="326" y="277.5" width="24" height="6" rx="3" fill="#B4B6C4"/>
<rect x="372" y="277.5" width="24" height="6" rx="3" fill="#B4B6C4"/>
<rect x="418" y="277.5" width="24" height="6" rx="3" fill="#B4B6C4"/>
<rect x="464" y="277.5" width="24" height="6" rx="3" fill="#B4B6C4"/>
<line opacity="0.2" x1="280.5" y1="233" x2="488.5" y2="233" stroke="#B4B6C4" stroke-linecap="round"/>
<line opacity="0.2" x1="280.5" y1="205" x2="488.5" y2="205" stroke="#B4B6C4" stroke-linecap="round"/>
<line opacity="0.2" x1="280.5" y1="177" x2="488.5" y2="177" stroke="#B4B6C4" stroke-linecap="round"/>
<line opacity="0.2" x1="280.5" y1="149" x2="488.5" y2="149" stroke="#B4B6C4" stroke-linecap="round"/>
<line opacity="0.2" x1="280.5" y1="261" x2="488.5" y2="261" stroke="#B4B6C4" stroke-linecap="round"/>
<rect x="281" y="182.5" width="16" height="78" fill="#9374FF"/>
<rect x="409" y="163.5" width="16" height="97" fill="#9374FF"/>
<rect x="345" y="205.5" width="16" height="55" fill="#9374FF"/>
<rect x="473" y="187.5" width="16" height="73" fill="#9374FF"/>
<rect x="377" y="193.5" width="16" height="67" fill="#FFDC60"/>
<rect x="313" y="207.5" width="16" height="53" fill="#FFDC60"/>
<rect x="441" y="174.5" width="16" height="86" fill="#FFDC60"/>
<path d="M281.5 179C293.631 147.581 305.142 207.5 320.5 207.5C333.855 207.5 338.48 184.049 350.5 184.049C358.513 184.049 364.02 194.09 373 194C381.98 193.91 378 177.5 393.5 192.5C408.377 206.897 404.314 146.522 417.002 146.522C427.018 146.522 423.011 171.767 438.37 171.767C450.389 171.767 452.393 153.345 463.077 153.345C475.764 153.345 467.083 184.049 486.448 184.049" stroke="#6241D4" stroke-width="2" stroke-linecap="round" stroke-linejoin="round"/>
<g filter="url(#filter1_d_1_8038)">
<rect x="38" y="335.5" width="388" height="150" rx="6" fill="white"/>
</g>
<circle cx="377" cy="433.5" r="25" fill="#9374FF"/>
<circle cx="341" cy="433.5" r="25" fill="#FFDC60"/>
<circle cx="305" cy="433.5" r="25" fill="#9374FF"/>
<circle cx="269" cy="433.5" r="25" fill="#FFDC60"/>
<path d="M69.7824 450.823C69.3797 450.392 68.6202 450.392 68.2176 450.823L64.2255 455.086C63.6938 455.654 64.162 456.5 65.0079 456.5L72.9921 456.5C73.838 456.5 74.3062 455.654 73.7745 455.086L69.7824 450.823Z" fill="#38E7B2"/>
<path d="M87.088 460.64C86.416 460.64 85.8327 460.523 85.338 460.29C84.8527 460.057 84.4793 459.735 84.218 459.324C83.9567 458.913 83.826 458.447 83.826 457.924V457.672H85.156C85.156 458.316 85.3427 458.783 85.716 459.072C86.0893 459.361 86.5933 459.506 87.228 459.506C87.8347 459.506 88.334 459.361 88.726 459.072C89.118 458.783 89.314 458.353 89.314 457.784C89.314 457.392 89.2253 457.075 89.048 456.832C88.8707 456.58 88.628 456.398 88.32 456.286C88.0213 456.165 87.6947 456.104 87.34 456.104H86.136V455.082H87.214C87.55 455.082 87.8627 455.021 88.152 454.9C88.4413 454.779 88.67 454.597 88.838 454.354C89.0153 454.111 89.104 453.813 89.104 453.458C89.104 453.103 89.02 452.814 88.852 452.59C88.684 452.357 88.4553 452.184 88.166 452.072C87.886 451.96 87.5687 451.904 87.214 451.904C86.6353 451.904 86.178 452.049 85.842 452.338C85.506 452.627 85.338 453.047 85.338 453.598H84.064V453.36C84.064 452.828 84.204 452.371 84.484 451.988C84.7733 451.596 85.156 451.293 85.632 451.078C86.108 450.863 86.6447 450.756 87.242 450.756H87.438C88.0167 450.756 88.5393 450.859 89.006 451.064C89.4727 451.269 89.8413 451.568 90.112 451.96C90.3827 452.343 90.518 452.8 90.518 453.332C90.518 453.705 90.448 454.032 90.308 454.312C90.1773 454.583 90 454.816 89.776 455.012C89.552 455.199 89.3 455.357 89.02 455.488V455.558C89.5147 455.717 89.9253 455.987 90.252 456.37C90.5787 456.743 90.742 457.247 90.742 457.882C90.742 458.423 90.5927 458.899 90.294 459.31C89.9953 459.721 89.5847 460.047 89.062 460.29C88.5487 460.523 87.9653 460.64 87.312 460.64H87.088ZM92.5233 460.5V460.066C92.5233 459.478 92.6493 458.974 92.9013 458.554C93.1533 458.134 93.5173 457.756 93.9933 457.42L96.6673 455.572C96.9753 455.357 97.2366 455.096 97.4513 454.788C97.6659 454.48 97.7733 454.111 97.7733 453.682C97.7733 453.131 97.6099 452.702 97.2833 452.394C96.9659 452.086 96.4993 451.932 95.8833 451.932C95.5099 451.932 95.1739 452.016 94.8753 452.184C94.5859 452.352 94.3573 452.581 94.1893 452.87C94.0213 453.159 93.9373 453.486 93.9373 453.85C93.9373 453.915 93.9373 453.976 93.9373 454.032C93.9373 454.088 93.9419 454.144 93.9513 454.2H92.6213C92.6213 454.135 92.6213 454.088 92.6213 454.06C92.6213 454.023 92.6213 453.985 92.6213 453.948C92.6213 453.323 92.7613 452.772 93.0413 452.296C93.3306 451.811 93.7226 451.433 94.2173 451.162C94.7213 450.891 95.2953 450.756 95.9393 450.756H96.1073C96.7606 450.756 97.3159 450.877 97.7733 451.12C98.2399 451.363 98.5946 451.699 98.8373 452.128C99.0893 452.548 99.2153 453.047 99.2153 453.626C99.2153 454.111 99.1313 454.536 98.9633 454.9C98.8046 455.264 98.5853 455.581 98.3053 455.852C98.0346 456.123 97.7266 456.375 97.3813 456.608L94.8893 458.33C94.7493 458.423 94.6279 458.531 94.5253 458.652C94.4226 458.764 94.3433 458.876 94.2873 458.988C94.2406 459.091 94.2079 459.184 94.1893 459.268H99.2573V460.5H92.5233ZM101.753 460.5L107.591 450.896H108.585L102.761 460.5H101.753ZM102.355 455.796C102.028 455.796 101.739 455.721 101.487 455.572C101.235 455.413 101.034 455.203 100.885 454.942C100.745 454.681 100.675 454.396 100.675 454.088V452.59C100.675 452.282 100.745 452.002 100.885 451.75C101.034 451.489 101.235 451.283 101.487 451.134C101.739 450.975 102.028 450.896 102.355 450.896H102.481C102.826 450.896 103.12 450.975 103.363 451.134C103.615 451.283 103.811 451.489 103.951 451.75C104.1 452.002 104.175 452.282 104.175 452.59V454.088C104.175 454.396 104.1 454.681 103.951 454.942C103.811 455.203 103.615 455.413 103.363 455.572C103.12 455.721 102.831 455.796 102.495 455.796H102.355ZM102.425 455.026C102.695 455.026 102.901 454.947 103.041 454.788C103.181 454.629 103.251 454.429 103.251 454.186V452.492C103.251 452.259 103.181 452.063 103.041 451.904C102.901 451.745 102.695 451.666 102.425 451.666C102.173 451.666 101.972 451.745 101.823 451.904C101.673 452.063 101.599 452.259 101.599 452.492V454.186C101.599 454.429 101.673 454.629 101.823 454.788C101.972 454.947 102.173 455.026 102.425 455.026ZM107.815 460.514C107.488 460.514 107.199 460.439 106.947 460.29C106.695 460.131 106.494 459.921 106.345 459.66C106.205 459.399 106.135 459.114 106.135 458.806V457.308C106.135 457 106.205 456.72 106.345 456.468C106.494 456.207 106.695 456.001 106.947 455.852C107.199 455.693 107.488 455.614 107.815 455.614H107.941C108.286 455.614 108.58 455.693 108.823 455.852C109.075 456.001 109.271 456.207 109.411 456.468C109.56 456.72 109.635 457 109.635 457.308V458.806C109.635 459.114 109.56 459.399 109.411 459.66C109.271 459.921 109.075 460.131 108.823 460.29C108.58 460.439 108.291 460.514 107.955 460.514H107.815ZM107.885 459.744C108.155 459.744 108.361 459.665 108.501 459.506C108.641 459.338 108.711 459.137 108.711 458.904V457.21C108.711 456.977 108.641 456.781 108.501 456.622C108.361 456.463 108.155 456.384 107.885 456.384C107.633 456.384 107.432 456.463 107.283 456.622C107.133 456.781 107.059 456.977 107.059 457.21V458.904C107.059 459.137 107.133 459.338 107.283 459.506C107.432 459.665 107.633 459.744 107.885 459.744ZM116.448 460.64C116.103 460.64 115.79 460.584 115.51 460.472C115.239 460.36 115.025 460.183 114.866 459.94C114.717 459.688 114.642 459.357 114.642 458.946V454.438H113.858V453.346H114.684L115.174 451.064H116.042V453.346H117.708V454.438H116.042V458.694C116.042 459.105 116.126 459.366 116.294 459.478C116.462 459.59 116.644 459.646 116.84 459.646C116.943 459.646 117.083 459.623 117.26 459.576C117.447 459.529 117.596 459.483 117.708 459.436V460.374C117.605 460.43 117.479 460.477 117.33 460.514C117.19 460.561 117.041 460.593 116.882 460.612C116.733 460.631 116.588 460.64 116.448 460.64ZM119.544 460.5V450.42H120.944V454.298C121.196 453.934 121.518 453.663 121.91 453.486C122.311 453.299 122.722 453.206 123.142 453.206C123.627 453.206 124.056 453.299 124.43 453.486C124.803 453.673 125.097 453.953 125.312 454.326C125.536 454.69 125.648 455.147 125.648 455.698V460.5H124.248V455.936C124.248 455.348 124.108 454.928 123.828 454.676C123.557 454.415 123.174 454.284 122.68 454.284C122.362 454.284 122.068 454.363 121.798 454.522C121.536 454.681 121.326 454.895 121.168 455.166C121.018 455.427 120.944 455.731 120.944 456.076V460.5H119.544ZM127.995 460.5V453.346H129.395V460.5H127.995ZM127.953 451.596V450.42H129.437V451.596H127.953ZM134.203 460.64C133.708 460.64 133.279 460.579 132.915 460.458C132.551 460.337 132.248 460.178 132.005 459.982C131.762 459.777 131.58 459.553 131.459 459.31C131.338 459.058 131.277 458.811 131.277 458.568C131.277 458.512 131.277 458.465 131.277 458.428C131.277 458.381 131.282 458.325 131.291 458.26H132.523C132.514 458.288 132.509 458.316 132.509 458.344C132.509 458.363 132.509 458.386 132.509 458.414C132.509 458.685 132.593 458.913 132.761 459.1C132.938 459.277 133.172 459.413 133.461 459.506C133.76 459.599 134.096 459.646 134.469 459.646C134.786 459.646 135.076 459.604 135.337 459.52C135.608 459.436 135.818 459.315 135.967 459.156C136.126 458.988 136.205 458.792 136.205 458.568C136.205 458.307 136.121 458.106 135.953 457.966C135.785 457.817 135.561 457.705 135.281 457.63C135.001 457.546 134.693 457.476 134.357 457.42C134.03 457.355 133.694 457.285 133.349 457.21C133.013 457.126 132.705 457.014 132.425 456.874C132.145 456.734 131.921 456.543 131.753 456.3C131.585 456.048 131.501 455.717 131.501 455.306C131.501 454.989 131.571 454.699 131.711 454.438C131.851 454.177 132.052 453.957 132.313 453.78C132.574 453.593 132.882 453.453 133.237 453.36C133.601 453.257 133.998 453.206 134.427 453.206H134.609C135.02 453.206 135.393 453.262 135.729 453.374C136.065 453.477 136.354 453.621 136.597 453.808C136.84 453.985 137.022 454.191 137.143 454.424C137.274 454.648 137.339 454.886 137.339 455.138C137.339 455.185 137.334 455.236 137.325 455.292C137.325 455.339 137.325 455.371 137.325 455.39H136.093V455.236C136.093 455.143 136.07 455.04 136.023 454.928C135.986 454.807 135.902 454.695 135.771 454.592C135.65 454.48 135.477 454.387 135.253 454.312C135.038 454.237 134.758 454.2 134.413 454.2C134.086 454.2 133.816 454.233 133.601 454.298C133.386 454.363 133.218 454.447 133.097 454.55C132.985 454.653 132.906 454.76 132.859 454.872C132.812 454.984 132.789 455.087 132.789 455.18C132.789 455.404 132.873 455.586 133.041 455.726C133.209 455.857 133.433 455.959 133.713 456.034C133.993 456.109 134.301 456.174 134.637 456.23C134.982 456.286 135.323 456.356 135.659 456.44C135.995 456.515 136.303 456.627 136.583 456.776C136.863 456.916 137.087 457.112 137.255 457.364C137.423 457.616 137.507 457.943 137.507 458.344C137.507 458.764 137.428 459.123 137.269 459.422C137.11 459.711 136.891 459.945 136.611 460.122C136.331 460.299 136.009 460.43 135.645 460.514C135.281 460.598 134.894 460.64 134.483 460.64H134.203ZM142.485 460.5V453.346H143.521L143.731 454.396C143.964 454.023 144.254 453.733 144.599 453.528C144.944 453.313 145.341 453.206 145.789 453.206C146.256 453.206 146.671 453.299 147.035 453.486C147.399 453.673 147.684 453.971 147.889 454.382C148.094 454.037 148.379 453.757 148.743 453.542C149.116 453.318 149.555 453.206 150.059 453.206C150.516 453.206 150.922 453.299 151.277 453.486C151.632 453.673 151.907 453.953 152.103 454.326C152.308 454.69 152.411 455.147 152.411 455.698V460.5H151.025V456.006C151.025 455.409 150.904 454.975 150.661 454.704C150.428 454.433 150.092 454.298 149.653 454.298C149.364 454.298 149.102 454.373 148.869 454.522C148.645 454.671 148.468 454.881 148.337 455.152C148.216 455.423 148.155 455.726 148.155 456.062V460.5H146.755V456.006C146.755 455.409 146.634 454.975 146.391 454.704C146.158 454.433 145.817 454.298 145.369 454.298C145.08 454.298 144.823 454.373 144.599 454.522C144.375 454.671 144.198 454.881 144.067 455.152C143.946 455.423 143.885 455.726 143.885 456.062V460.5H142.485ZM157.593 460.64C156.977 460.64 156.421 460.495 155.927 460.206C155.441 459.917 155.059 459.501 154.779 458.96C154.499 458.419 154.359 457.779 154.359 457.042V456.804C154.359 456.048 154.499 455.404 154.779 454.872C155.059 454.331 155.441 453.92 155.927 453.64C156.421 453.351 156.977 453.206 157.593 453.206H157.775C158.4 453.206 158.955 453.351 159.441 453.64C159.926 453.929 160.309 454.345 160.589 454.886C160.869 455.418 161.009 456.057 161.009 456.804V457.042C161.009 457.779 160.869 458.419 160.589 458.96C160.309 459.501 159.921 459.917 159.427 460.206C158.941 460.495 158.391 460.64 157.775 460.64H157.593ZM157.677 459.646C158.031 459.646 158.349 459.562 158.629 459.394C158.909 459.226 159.133 458.974 159.301 458.638C159.469 458.302 159.553 457.887 159.553 457.392V456.454C159.553 455.95 159.469 455.535 159.301 455.208C159.133 454.872 158.909 454.62 158.629 454.452C158.349 454.284 158.031 454.2 157.677 454.2C157.331 454.2 157.019 454.284 156.739 454.452C156.459 454.62 156.235 454.872 156.067 455.208C155.899 455.535 155.815 455.95 155.815 456.454V457.392C155.815 457.887 155.899 458.302 156.067 458.638C156.235 458.974 156.459 459.226 156.739 459.394C157.019 459.562 157.331 459.646 157.677 459.646ZM162.911 460.5V453.346H163.919L164.115 454.396C164.376 454.004 164.712 453.71 165.123 453.514C165.543 453.309 165.995 453.206 166.481 453.206C166.975 453.206 167.409 453.299 167.783 453.486C168.165 453.673 168.464 453.953 168.679 454.326C168.893 454.69 169.001 455.147 169.001 455.698V460.5H167.601V455.936C167.601 455.348 167.465 454.928 167.195 454.676C166.924 454.415 166.541 454.284 166.047 454.284C165.729 454.284 165.435 454.363 165.165 454.522C164.903 454.681 164.693 454.895 164.535 455.166C164.385 455.427 164.311 455.731 164.311 456.076V460.5H162.911ZM173.268 460.64C172.923 460.64 172.61 460.584 172.33 460.472C172.06 460.36 171.845 460.183 171.686 459.94C171.537 459.688 171.462 459.357 171.462 458.946V454.438H170.678V453.346H171.504L171.994 451.064H172.862V453.346H174.528V454.438H172.862V458.694C172.862 459.105 172.946 459.366 173.114 459.478C173.282 459.59 173.464 459.646 173.66 459.646C173.763 459.646 173.903 459.623 174.08 459.576C174.267 459.529 174.416 459.483 174.528 459.436V460.374C174.426 460.43 174.3 460.477 174.15 460.514C174.01 460.561 173.861 460.593 173.702 460.612C173.553 460.631 173.408 460.64 173.268 460.64ZM176.364 460.5V450.42H177.764V454.298C178.016 453.934 178.338 453.663 178.73 453.486C179.131 453.299 179.542 453.206 179.962 453.206C180.447 453.206 180.876 453.299 181.25 453.486C181.623 453.673 181.917 453.953 182.132 454.326C182.356 454.69 182.468 455.147 182.468 455.698V460.5H181.068V455.936C181.068 455.348 180.928 454.928 180.648 454.676C180.377 454.415 179.994 454.284 179.5 454.284C179.182 454.284 178.888 454.363 178.618 454.522C178.356 454.681 178.146 454.895 177.988 455.166C177.838 455.427 177.764 455.731 177.764 456.076V460.5H176.364Z" fill="#38E7B2"/>
<path d="M63.136 371.5V360.524H65.376L68.928 365.772L69.488 366.748L69.552 366.716V360.524H72V371.5H69.696L66.032 366.076L65.648 365.356L65.584 365.372V371.5H63.136ZM77.7821 371.66C76.9821 371.66 76.2728 371.505 75.6541 371.196C75.0461 370.876 74.5661 370.417 74.2141 369.82C73.8728 369.212 73.7021 368.481 73.7021 367.628V367.196C73.7021 366.332 73.8781 365.601 74.2301 365.004C74.5928 364.396 75.0835 363.937 75.7021 363.628C76.3208 363.319 77.0301 363.164 77.8301 363.164H78.1341C78.9021 363.164 79.5635 363.313 80.1181 363.612C80.6728 363.911 81.0995 364.332 81.3981 364.876C81.6968 365.409 81.8461 366.028 81.8461 366.732V367.74H76.3741C76.3741 368.188 76.4221 368.588 76.5181 368.94C76.6248 369.292 76.7901 369.569 77.0141 369.772C77.2488 369.964 77.5528 370.06 77.9261 370.06C78.2568 370.06 78.5341 369.996 78.7581 369.868C78.9928 369.74 79.1741 369.559 79.3021 369.324C79.4301 369.079 79.4941 368.785 79.4941 368.444H81.8301C81.8301 369.063 81.6648 369.617 81.3341 370.108C81.0141 370.588 80.5661 370.967 79.9901 371.244C79.4141 371.521 78.7421 371.66 77.9741 371.66H77.7821ZM76.3741 366.524H79.3661C79.3661 365.916 79.2328 365.473 78.9661 365.196C78.6995 364.908 78.3475 364.764 77.9101 364.764C77.4728 364.764 77.1101 364.913 76.8221 365.212C76.5448 365.511 76.3955 365.948 76.3741 366.524ZM85.14 371.5L82.676 363.324H85.3L86.596 368.156H86.692L88.052 363.324H90.612L91.956 368.156H92.068L93.364 363.324H95.796L93.332 371.5H90.564L89.3 367.052H89.204L87.956 371.5H85.14ZM104.257 371.66C103.468 371.66 102.742 371.543 102.081 371.308C101.42 371.073 100.886 370.705 100.481 370.204C100.086 369.703 99.8889 369.047 99.8889 368.236C99.8889 368.183 99.8889 368.129 99.8889 368.076C99.8889 368.012 99.8942 367.948 99.9049 367.884H102.369C102.358 367.927 102.353 367.969 102.353 368.012C102.353 368.044 102.353 368.087 102.353 368.14C102.353 368.428 102.422 368.684 102.561 368.908C102.71 369.121 102.924 369.292 103.201 369.42C103.489 369.537 103.852 369.596 104.289 369.596C104.758 369.596 105.137 369.553 105.425 369.468C105.713 369.383 105.921 369.255 106.049 369.084C106.177 368.903 106.241 368.684 106.241 368.428C106.241 368.14 106.129 367.911 105.905 367.74C105.692 367.569 105.404 367.431 105.041 367.324C104.678 367.217 104.278 367.116 103.841 367.02C103.404 366.924 102.966 366.807 102.529 366.668C102.102 366.519 101.708 366.327 101.345 366.092C100.982 365.857 100.689 365.548 100.465 365.164C100.241 364.769 100.129 364.273 100.129 363.676C100.129 362.94 100.332 362.327 100.737 361.836C101.142 361.345 101.676 360.977 102.337 360.732C102.998 360.487 103.729 360.364 104.529 360.364C105.308 360.364 106.012 360.476 106.641 360.7C107.281 360.924 107.788 361.276 108.161 361.756C108.545 362.225 108.737 362.833 108.737 363.58V363.788H106.305V363.644C106.305 363.377 106.236 363.148 106.097 362.956C105.969 362.764 105.772 362.615 105.505 362.508C105.249 362.401 104.934 362.348 104.561 362.348C104.198 362.348 103.884 362.385 103.617 362.46C103.361 362.535 103.164 362.647 103.025 362.796C102.886 362.935 102.817 363.121 102.817 363.356C102.817 363.655 102.929 363.889 103.153 364.06C103.377 364.231 103.67 364.369 104.033 364.476C104.396 364.572 104.796 364.668 105.233 364.764C105.681 364.86 106.124 364.977 106.561 365.116C106.998 365.244 107.398 365.425 107.761 365.66C108.134 365.895 108.428 366.204 108.641 366.588C108.865 366.961 108.977 367.436 108.977 368.012C108.977 368.887 108.769 369.591 108.353 370.124C107.948 370.657 107.388 371.047 106.673 371.292C105.958 371.537 105.153 371.66 104.257 371.66ZM113.209 371.66C112.377 371.66 111.721 371.431 111.241 370.972C110.772 370.503 110.537 369.836 110.537 368.972V363.324H113.049V368.444C113.049 368.903 113.145 369.249 113.337 369.484C113.54 369.708 113.839 369.82 114.233 369.82C114.489 369.82 114.719 369.761 114.921 369.644C115.135 369.516 115.3 369.345 115.417 369.132C115.545 368.908 115.609 368.668 115.609 368.412V363.324H118.121V369.484C118.121 369.687 118.169 369.836 118.265 369.932C118.372 370.017 118.484 370.06 118.601 370.06C118.708 370.06 118.815 370.044 118.921 370.012C119.028 369.969 119.129 369.927 119.225 369.884V371.308C119.087 371.415 118.9 371.5 118.665 371.564C118.431 371.628 118.137 371.66 117.785 371.66C117.369 371.66 117.028 371.607 116.761 371.5C116.495 371.383 116.287 371.223 116.137 371.02C115.988 370.817 115.876 370.588 115.801 370.332C115.535 370.748 115.172 371.073 114.713 371.308C114.255 371.543 113.753 371.66 113.209 371.66ZM125.097 371.66C123.913 371.66 123.007 371.191 122.377 370.252L121.513 371.5H120.601V359.98H123.113V364.252C123.359 363.932 123.668 363.671 124.041 363.468C124.415 363.265 124.873 363.164 125.417 363.164C125.993 363.164 126.521 363.303 127.001 363.58C127.492 363.847 127.881 364.273 128.169 364.86C128.457 365.436 128.601 366.183 128.601 367.1V367.452C128.601 368.401 128.436 369.191 128.105 369.82C127.785 370.439 127.359 370.903 126.825 371.212C126.303 371.511 125.727 371.66 125.097 371.66ZM124.537 370.06C124.804 370.06 125.039 369.991 125.241 369.852C125.455 369.713 125.62 369.511 125.737 369.244C125.865 368.977 125.929 368.647 125.929 368.252V366.524C125.929 366.161 125.871 365.852 125.753 365.596C125.636 365.34 125.476 365.148 125.273 365.02C125.071 364.881 124.836 364.812 124.569 364.812C124.303 364.812 124.057 364.881 123.833 365.02C123.62 365.148 123.444 365.34 123.305 365.596C123.177 365.852 123.113 366.167 123.113 366.54V368.268C123.113 368.663 123.177 368.993 123.305 369.26C123.433 369.527 123.604 369.729 123.817 369.868C124.041 369.996 124.281 370.06 124.537 370.06ZM133.203 371.66C132.712 371.66 132.259 371.601 131.843 371.484C131.427 371.367 131.059 371.201 130.739 370.988C130.429 370.764 130.184 370.503 130.003 370.204C129.832 369.895 129.747 369.553 129.747 369.18C129.747 369.127 129.747 369.079 129.747 369.036C129.747 368.993 129.752 368.94 129.763 368.876H131.859C131.848 368.897 131.843 368.919 131.843 368.94C131.843 368.961 131.843 368.983 131.843 369.004C131.843 369.26 131.928 369.468 132.099 369.628C132.269 369.777 132.488 369.889 132.755 369.964C133.021 370.028 133.299 370.06 133.587 370.06C133.8 370.06 134.029 370.033 134.275 369.98C134.531 369.927 134.749 369.841 134.931 369.724C135.112 369.607 135.203 369.447 135.203 369.244C135.203 369.02 135.107 368.849 134.915 368.732C134.733 368.615 134.488 368.524 134.179 368.46C133.869 368.396 133.528 368.337 133.155 368.284C132.792 368.22 132.424 368.145 132.051 368.06C131.677 367.964 131.336 367.831 131.027 367.66C130.717 367.479 130.467 367.239 130.275 366.94C130.093 366.641 130.003 366.252 130.003 365.772C130.003 365.335 130.099 364.951 130.291 364.62C130.493 364.289 130.765 364.017 131.107 363.804C131.459 363.591 131.848 363.431 132.275 363.324C132.701 363.217 133.139 363.164 133.587 363.164H133.955C134.36 363.164 134.76 363.217 135.155 363.324C135.549 363.42 135.907 363.564 136.227 363.756C136.547 363.948 136.803 364.183 136.995 364.46C137.187 364.727 137.283 365.025 137.283 365.356C137.283 365.42 137.277 365.489 137.267 365.564C137.267 365.628 137.267 365.681 137.267 365.724H135.139V365.596C135.139 365.489 135.107 365.383 135.043 365.276C134.979 365.169 134.883 365.079 134.755 365.004C134.627 364.919 134.472 364.855 134.291 364.812C134.12 364.759 133.917 364.732 133.683 364.732C133.491 364.732 133.304 364.753 133.123 364.796C132.941 364.828 132.781 364.876 132.643 364.94C132.515 365.004 132.413 365.084 132.339 365.18C132.264 365.265 132.227 365.361 132.227 365.468C132.227 365.681 132.317 365.841 132.499 365.948C132.691 366.055 132.941 366.14 133.251 366.204C133.571 366.257 133.917 366.311 134.291 366.364C134.664 366.407 135.037 366.476 135.411 366.572C135.784 366.657 136.125 366.791 136.435 366.972C136.744 367.143 136.995 367.383 137.187 367.692C137.379 367.991 137.475 368.385 137.475 368.876C137.475 369.399 137.373 369.841 137.171 370.204C136.968 370.556 136.691 370.839 136.339 371.052C135.997 371.265 135.608 371.42 135.171 371.516C134.733 371.612 134.28 371.66 133.811 371.66H133.203ZM142.463 371.66C141.77 371.66 141.135 371.489 140.559 371.148C139.983 370.796 139.524 370.321 139.183 369.724C138.842 369.116 138.671 368.433 138.671 367.676V367.132C138.671 366.556 138.772 366.028 138.975 365.548C139.178 365.068 139.455 364.652 139.807 364.3C140.17 363.937 140.58 363.66 141.039 363.468C141.508 363.265 142.01 363.164 142.543 363.164H142.895C143.652 363.164 144.298 363.308 144.831 363.596C145.375 363.884 145.791 364.284 146.079 364.796C146.367 365.308 146.511 365.905 146.511 366.588H144.335C144.335 366.183 144.276 365.847 144.159 365.58C144.042 365.303 143.876 365.1 143.663 364.972C143.45 364.833 143.183 364.764 142.863 364.764C142.436 364.764 142.074 364.913 141.775 365.212C141.487 365.5 141.343 365.911 141.343 366.444V368.348C141.343 368.881 141.476 369.303 141.743 369.612C142.02 369.911 142.404 370.06 142.895 370.06C143.247 370.06 143.535 370.001 143.759 369.884C143.994 369.767 144.17 369.575 144.287 369.308C144.404 369.041 144.463 368.684 144.463 368.236H146.511C146.511 368.961 146.351 369.58 146.031 370.092C145.722 370.604 145.29 370.993 144.735 371.26C144.18 371.527 143.54 371.66 142.815 371.66H142.463ZM148.055 371.5V363.324H149.943L150.231 364.508C150.263 364.465 150.321 364.375 150.407 364.236C150.503 364.087 150.641 363.932 150.823 363.772C151.004 363.601 151.228 363.457 151.495 363.34C151.761 363.223 152.076 363.164 152.439 363.164C152.983 363.164 153.425 363.265 153.767 363.468C154.108 363.671 154.359 363.964 154.519 364.348C154.689 364.721 154.775 365.169 154.775 365.692C154.775 365.809 154.769 365.948 154.759 366.108C154.748 366.257 154.737 366.396 154.727 366.524H152.647V366.172C152.647 365.991 152.609 365.809 152.535 365.628C152.471 365.447 152.364 365.303 152.215 365.196C152.065 365.079 151.863 365.02 151.607 365.02C151.415 365.02 151.249 365.057 151.111 365.132C150.972 365.207 150.86 365.308 150.775 365.436C150.689 365.553 150.625 365.687 150.583 365.836C150.551 365.975 150.535 366.119 150.535 366.268V371.5H148.055ZM156.134 371.5V363.324H158.646V371.5H156.134ZM156.102 361.868V359.98H158.662V361.868H156.102ZM165.347 371.66C164.163 371.66 163.257 371.191 162.627 370.252L161.763 371.5H160.851V359.98H163.363V364.252C163.609 363.932 163.918 363.671 164.291 363.468C164.665 363.265 165.123 363.164 165.667 363.164C166.243 363.164 166.771 363.303 167.251 363.58C167.742 363.847 168.131 364.273 168.419 364.86C168.707 365.436 168.851 366.183 168.851 367.1V367.452C168.851 368.401 168.686 369.191 168.355 369.82C168.035 370.439 167.609 370.903 167.075 371.212C166.553 371.511 165.977 371.66 165.347 371.66ZM164.787 370.06C165.054 370.06 165.289 369.991 165.491 369.852C165.705 369.713 165.87 369.511 165.987 369.244C166.115 368.977 166.179 368.647 166.179 368.252V366.524C166.179 366.161 166.121 365.852 166.003 365.596C165.886 365.34 165.726 365.148 165.523 365.02C165.321 364.881 165.086 364.812 164.819 364.812C164.553 364.812 164.307 364.881 164.083 365.02C163.87 365.148 163.694 365.34 163.555 365.596C163.427 365.852 163.363 366.167 163.363 366.54V368.268C163.363 368.663 163.427 368.993 163.555 369.26C163.683 369.527 163.854 369.729 164.067 369.868C164.291 369.996 164.531 370.06 164.787 370.06ZM174.173 371.66C173.373 371.66 172.663 371.505 172.045 371.196C171.437 370.876 170.957 370.417 170.605 369.82C170.263 369.212 170.093 368.481 170.093 367.628V367.196C170.093 366.332 170.269 365.601 170.621 365.004C170.983 364.396 171.474 363.937 172.093 363.628C172.711 363.319 173.421 363.164 174.221 363.164H174.525C175.293 363.164 175.954 363.313 176.509 363.612C177.063 363.911 177.49 364.332 177.789 364.876C178.087 365.409 178.237 366.028 178.237 366.732V367.74H172.765C172.765 368.188 172.813 368.588 172.909 368.94C173.015 369.292 173.181 369.569 173.405 369.772C173.639 369.964 173.943 370.06 174.317 370.06C174.647 370.06 174.925 369.996 175.149 369.868C175.383 369.74 175.565 369.559 175.693 369.324C175.821 369.079 175.885 368.785 175.885 368.444H178.221C178.221 369.063 178.055 369.617 177.725 370.108C177.405 370.588 176.957 370.967 176.381 371.244C175.805 371.521 175.133 371.66 174.365 371.66H174.173ZM172.765 366.524H175.757C175.757 365.916 175.623 365.473 175.357 365.196C175.09 364.908 174.738 364.764 174.301 364.764C173.863 364.764 173.501 364.913 173.213 365.212C172.935 365.511 172.786 365.948 172.765 366.524ZM179.883 371.5V363.324H181.771L182.059 364.508C182.091 364.465 182.149 364.375 182.235 364.236C182.331 364.087 182.469 363.932 182.651 363.772C182.832 363.601 183.056 363.457 183.323 363.34C183.589 363.223 183.904 363.164 184.267 363.164C184.811 363.164 185.253 363.265 185.595 363.468C185.936 363.671 186.187 363.964 186.347 364.348C186.517 364.721 186.603 365.169 186.603 365.692C186.603 365.809 186.597 365.948 186.587 366.108C186.576 366.257 186.565 366.396 186.555 366.524H184.475V366.172C184.475 365.991 184.437 365.809 184.363 365.628C184.299 365.447 184.192 365.303 184.043 365.196C183.893 365.079 183.691 365.02 183.435 365.02C183.243 365.02 183.077 365.057 182.939 365.132C182.8 365.207 182.688 365.308 182.603 365.436C182.517 365.553 182.453 365.687 182.411 365.836C182.379 365.975 182.363 366.119 182.363 366.268V371.5H179.883ZM190.89 371.66C190.4 371.66 189.946 371.601 189.53 371.484C189.114 371.367 188.746 371.201 188.426 370.988C188.117 370.764 187.872 370.503 187.69 370.204C187.52 369.895 187.434 369.553 187.434 369.18C187.434 369.127 187.434 369.079 187.434 369.036C187.434 368.993 187.44 368.94 187.45 368.876H189.546C189.536 368.897 189.53 368.919 189.53 368.94C189.53 368.961 189.53 368.983 189.53 369.004C189.53 369.26 189.616 369.468 189.786 369.628C189.957 369.777 190.176 369.889 190.442 369.964C190.709 370.028 190.986 370.06 191.274 370.06C191.488 370.06 191.717 370.033 191.962 369.98C192.218 369.927 192.437 369.841 192.618 369.724C192.8 369.607 192.89 369.447 192.89 369.244C192.89 369.02 192.794 368.849 192.602 368.732C192.421 368.615 192.176 368.524 191.866 368.46C191.557 368.396 191.216 368.337 190.842 368.284C190.48 368.22 190.112 368.145 189.738 368.06C189.365 367.964 189.024 367.831 188.714 367.66C188.405 367.479 188.154 367.239 187.962 366.94C187.781 366.641 187.69 366.252 187.69 365.772C187.69 365.335 187.786 364.951 187.978 364.62C188.181 364.289 188.453 364.017 188.794 363.804C189.146 363.591 189.536 363.431 189.962 363.324C190.389 363.217 190.826 363.164 191.274 363.164H191.642C192.048 363.164 192.448 363.217 192.842 363.324C193.237 363.42 193.594 363.564 193.914 363.756C194.234 363.948 194.49 364.183 194.682 364.46C194.874 364.727 194.97 365.025 194.97 365.356C194.97 365.42 194.965 365.489 194.954 365.564C194.954 365.628 194.954 365.681 194.954 365.724H192.826V365.596C192.826 365.489 192.794 365.383 192.73 365.276C192.666 365.169 192.57 365.079 192.442 365.004C192.314 364.919 192.16 364.855 191.978 364.812C191.808 364.759 191.605 364.732 191.37 364.732C191.178 364.732 190.992 364.753 190.81 364.796C190.629 364.828 190.469 364.876 190.33 364.94C190.202 365.004 190.101 365.084 190.026 365.18C189.952 365.265 189.914 365.361 189.914 365.468C189.914 365.681 190.005 365.841 190.186 365.948C190.378 366.055 190.629 366.14 190.938 366.204C191.258 366.257 191.605 366.311 191.978 366.364C192.352 366.407 192.725 366.476 193.098 366.572C193.472 366.657 193.813 366.791 194.122 366.972C194.432 367.143 194.682 367.383 194.874 367.692C195.066 367.991 195.162 368.385 195.162 368.876C195.162 369.399 195.061 369.841 194.858 370.204C194.656 370.556 194.378 370.839 194.026 371.052C193.685 371.265 193.296 371.42 192.858 371.516C192.421 371.612 191.968 371.66 191.498 371.66H190.89Z" fill="#060C3C"/>
<path d="M69.59 429.5V423.44H63.56V420.2H69.59V414.14H72.86V420.2H78.92V423.44H72.86V429.5H69.59ZM90.4463 429.5V424.67H81.4763V421.04C81.7963 420.5 82.1463 419.85 82.5263 419.09C82.9263 418.31 83.3363 417.47 83.7563 416.57C84.1763 415.65 84.5863 414.71 84.9863 413.75C85.3863 412.79 85.7463 411.87 86.0663 410.99C86.3863 410.11 86.6463 409.32 86.8463 408.62H91.1363C90.9763 409.36 90.7163 410.19 90.3563 411.11C89.9963 412.01 89.5863 412.95 89.1263 413.93C88.6663 414.91 88.1763 415.86 87.6563 416.78C87.1363 417.68 86.6263 418.51 86.1263 419.27C85.6463 420.01 85.1963 420.61 84.7763 421.07H90.4463V416.72C90.6463 416.42 90.8763 416.03 91.1363 415.55C91.3963 415.05 91.6463 414.53 91.8863 413.99C92.1463 413.43 92.3763 412.89 92.5763 412.37C92.7763 411.85 92.9263 411.42 93.0263 411.08H94.9763V421.07H97.7963V424.67H94.9763V429.5H90.4463ZM100.383 429.5V428.45C100.383 427.25 100.603 426.21 101.043 425.33C101.483 424.43 102.183 423.63 103.143 422.93L108.933 418.67C109.553 418.21 110.033 417.69 110.373 417.11C110.713 416.51 110.883 415.86 110.883 415.16C110.883 414.3 110.633 413.63 110.133 413.15C109.633 412.65 108.873 412.4 107.853 412.4C107.253 412.4 106.723 412.53 106.263 412.79C105.803 413.03 105.433 413.38 105.153 413.84C104.893 414.28 104.763 414.78 104.763 415.34C104.763 415.48 104.763 415.62 104.763 415.76C104.763 415.88 104.773 416 104.793 416.12H100.503C100.503 416.02 100.503 415.93 100.503 415.85C100.503 415.75 100.503 415.66 100.503 415.58C100.503 414.24 100.803 413.05 101.403 412.01C102.023 410.97 102.883 410.15 103.983 409.55C105.103 408.93 106.423 408.62 107.943 408.62H108.633C110.093 408.62 111.343 408.89 112.383 409.43C113.443 409.97 114.253 410.72 114.813 411.68C115.393 412.64 115.683 413.76 115.683 415.04C115.683 416.06 115.503 416.96 115.143 417.74C114.803 418.52 114.303 419.23 113.643 419.87C113.003 420.51 112.253 421.13 111.393 421.73L107.643 424.37C107.503 424.47 107.353 424.58 107.193 424.7C107.053 424.82 106.923 424.95 106.803 425.09C106.703 425.21 106.613 425.33 106.533 425.45H115.743V429.5H100.383ZM126.13 429.8C124.79 429.8 123.57 429.48 122.47 428.84C121.37 428.2 120.49 427.33 119.83 426.23C119.19 425.13 118.87 423.9 118.87 422.54V415.88C118.87 414.5 119.19 413.26 119.83 412.16C120.49 411.06 121.37 410.2 122.47 409.58C123.57 408.94 124.79 408.62 126.13 408.62H127.15C128.51 408.62 129.73 408.94 130.81 409.58C131.91 410.2 132.78 411.06 133.42 412.16C134.06 413.26 134.38 414.5 134.38 415.88V422.54C134.38 423.9 134.06 425.13 133.42 426.23C132.78 427.33 131.91 428.2 130.81 428.84C129.73 429.48 128.51 429.8 127.15 429.8H126.13ZM126.61 426.26C127.19 426.26 127.7 426.12 128.14 425.84C128.6 425.56 128.96 425.19 129.22 424.73C129.5 424.25 129.64 423.72 129.64 423.14V415.25C129.64 414.67 129.5 414.15 129.22 413.69C128.96 413.21 128.6 412.83 128.14 412.55C127.7 412.27 127.2 412.13 126.64 412.13C126.06 412.13 125.54 412.27 125.08 412.55C124.64 412.83 124.28 413.21 124 413.69C123.74 414.15 123.61 414.67 123.61 415.25V423.14C123.61 423.72 123.74 424.25 124 424.73C124.28 425.19 124.64 425.56 125.08 425.84C125.54 426.12 126.05 426.26 126.61 426.26ZM138.257 429.5V425.78H143.177V414.08H138.257V411.32C139.057 411.26 139.917 411.1 140.837 410.84C141.777 410.58 142.707 410.26 143.627 409.88C144.567 409.48 145.437 409.06 146.237 408.62H147.857V425.78H152.657V429.5H138.257Z" fill="#060C3C"/>
<g filter="url(#filter2_d_1_8038)">
<g filter="url(#filter3_d_1_8038)">
<rect x="458.912" y="335.484" width="76" height="76" rx="6" fill="white"/>
</g>
<path d="M553.18 346.889L506.1 391.485L489.814 363.162L436.256 400.536M553.18 346.889L535.592 346.895M553.18 346.889L551.733 364.179" stroke="#FFD43D" stroke-width="3" stroke-linecap="round" stroke-linejoin="round"/>
</g>
<g filter="url(#filter4_d_1_8038)">
<rect x="38" y="123" width="186" height="180" rx="6" fill="white"/>
</g>
<path d="M104.782 262.323C104.38 261.892 103.62 261.892 103.218 262.323L99.2255 266.586C98.6938 267.154 99.162 268 100.008 268L107.992 268C108.838 268 109.306 267.154 108.774 266.586L104.782 262.323Z" fill="#38E7B2"/>
<path d="M119.246 270V268.838H121.78V262.02H119.246V261.166C119.554 261.138 119.895 261.087 120.268 261.012C120.641 260.928 121.033 260.825 121.444 260.704C121.864 260.573 122.275 260.424 122.676 260.256H123.194V268.838H125.7V270H119.246ZM130.869 270.14C130.216 270.14 129.637 270.037 129.133 269.832C128.629 269.627 128.237 269.323 127.957 268.922C127.677 268.511 127.537 268.007 127.537 267.41C127.537 266.794 127.687 266.304 127.985 265.94C128.284 265.567 128.671 265.282 129.147 265.086V265.03C128.774 264.843 128.466 264.587 128.223 264.26C127.981 263.924 127.859 263.476 127.859 262.916C127.859 262.347 127.995 261.866 128.265 261.474C128.536 261.082 128.905 260.783 129.371 260.578C129.847 260.363 130.379 260.256 130.967 260.256C131.565 260.256 132.087 260.363 132.535 260.578C132.993 260.783 133.347 261.082 133.599 261.474C133.851 261.866 133.977 262.347 133.977 262.916C133.977 263.289 133.921 263.611 133.809 263.882C133.697 264.153 133.543 264.381 133.347 264.568C133.161 264.755 132.941 264.909 132.689 265.03V265.086C133.175 265.319 133.567 265.609 133.865 265.954C134.164 266.29 134.313 266.775 134.313 267.41C134.313 267.97 134.173 268.455 133.893 268.866C133.623 269.277 133.231 269.594 132.717 269.818C132.213 270.033 131.597 270.14 130.869 270.14ZM130.925 269.076C131.588 269.076 132.078 268.917 132.395 268.6C132.722 268.283 132.885 267.853 132.885 267.312C132.885 266.761 132.713 266.332 132.367 266.024C132.022 265.716 131.541 265.562 130.925 265.562C130.309 265.562 129.829 265.721 129.483 266.038C129.147 266.355 128.979 266.78 128.979 267.312C128.979 267.853 129.138 268.283 129.455 268.6C129.773 268.917 130.263 269.076 130.925 269.076ZM130.911 264.61C131.406 264.61 131.817 264.47 132.143 264.19C132.479 263.901 132.647 263.49 132.647 262.958C132.647 262.426 132.489 262.02 132.171 261.74C131.863 261.451 131.443 261.306 130.911 261.306C130.379 261.306 129.959 261.451 129.651 261.74C129.343 262.029 129.189 262.435 129.189 262.958C129.189 263.49 129.353 263.901 129.679 264.19C130.015 264.47 130.426 264.61 130.911 264.61ZM136.277 271.932V271.764C136.519 271.484 136.701 271.199 136.823 270.91C136.944 270.621 137.005 270.317 137.005 270H136.333V268.194H137.859V269.748C137.859 270.149 137.793 270.537 137.663 270.91C137.541 271.283 137.345 271.624 137.075 271.932H136.277ZM139.705 270V269.566C139.705 268.978 139.831 268.474 140.083 268.054C140.335 267.634 140.699 267.256 141.175 266.92L143.849 265.072C144.157 264.857 144.418 264.596 144.633 264.288C144.848 263.98 144.955 263.611 144.955 263.182C144.955 262.631 144.792 262.202 144.465 261.894C144.148 261.586 143.681 261.432 143.065 261.432C142.692 261.432 142.356 261.516 142.057 261.684C141.768 261.852 141.539 262.081 141.371 262.37C141.203 262.659 141.119 262.986 141.119 263.35C141.119 263.415 141.119 263.476 141.119 263.532C141.119 263.588 141.124 263.644 141.133 263.7H139.803C139.803 263.635 139.803 263.588 139.803 263.56C139.803 263.523 139.803 263.485 139.803 263.448C139.803 262.823 139.943 262.272 140.223 261.796C140.512 261.311 140.904 260.933 141.399 260.662C141.903 260.391 142.477 260.256 143.121 260.256H143.289C143.942 260.256 144.498 260.377 144.955 260.62C145.422 260.863 145.776 261.199 146.019 261.628C146.271 262.048 146.397 262.547 146.397 263.126C146.397 263.611 146.313 264.036 146.145 264.4C145.986 264.764 145.767 265.081 145.487 265.352C145.216 265.623 144.908 265.875 144.563 266.108L142.071 267.83C141.931 267.923 141.81 268.031 141.707 268.152C141.604 268.264 141.525 268.376 141.469 268.488C141.422 268.591 141.39 268.684 141.371 268.768H146.439V270H139.705ZM148.654 270V268.838H151.188V262.02H148.654V261.166C148.962 261.138 149.303 261.087 149.676 261.012C150.05 260.928 150.442 260.825 150.852 260.704C151.272 260.573 151.683 260.424 152.084 260.256H152.602V268.838H155.108V270H148.654ZM157.547 270L163.385 260.396H164.379L158.555 270H157.547ZM158.149 265.296C157.823 265.296 157.533 265.221 157.281 265.072C157.029 264.913 156.829 264.703 156.679 264.442C156.539 264.181 156.469 263.896 156.469 263.588V262.09C156.469 261.782 156.539 261.502 156.679 261.25C156.829 260.989 157.029 260.783 157.281 260.634C157.533 260.475 157.823 260.396 158.149 260.396H158.275C158.621 260.396 158.915 260.475 159.157 260.634C159.409 260.783 159.605 260.989 159.745 261.25C159.895 261.502 159.969 261.782 159.969 262.09V263.588C159.969 263.896 159.895 264.181 159.745 264.442C159.605 264.703 159.409 264.913 159.157 265.072C158.915 265.221 158.625 265.296 158.289 265.296H158.149ZM158.219 264.526C158.49 264.526 158.695 264.447 158.835 264.288C158.975 264.129 159.045 263.929 159.045 263.686V261.992C159.045 261.759 158.975 261.563 158.835 261.404C158.695 261.245 158.49 261.166 158.219 261.166C157.967 261.166 157.767 261.245 157.617 261.404C157.468 261.563 157.393 261.759 157.393 261.992V263.686C157.393 263.929 157.468 264.129 157.617 264.288C157.767 264.447 157.967 264.526 158.219 264.526ZM163.609 270.014C163.283 270.014 162.993 269.939 162.741 269.79C162.489 269.631 162.289 269.421 162.139 269.16C161.999 268.899 161.929 268.614 161.929 268.306V266.808C161.929 266.5 161.999 266.22 162.139 265.968C162.289 265.707 162.489 265.501 162.741 265.352C162.993 265.193 163.283 265.114 163.609 265.114H163.735C164.081 265.114 164.375 265.193 164.617 265.352C164.869 265.501 165.065 265.707 165.205 265.968C165.355 266.22 165.429 266.5 165.429 266.808V268.306C165.429 268.614 165.355 268.899 165.205 269.16C165.065 269.421 164.869 269.631 164.617 269.79C164.375 269.939 164.085 270.014 163.749 270.014H163.609ZM163.679 269.244C163.95 269.244 164.155 269.165 164.295 269.006C164.435 268.838 164.505 268.637 164.505 268.404V266.71C164.505 266.477 164.435 266.281 164.295 266.122C164.155 265.963 163.95 265.884 163.679 265.884C163.427 265.884 163.227 265.963 163.077 266.122C162.928 266.281 162.853 266.477 162.853 266.71V268.404C162.853 268.637 162.928 268.838 163.077 269.006C163.227 269.165 163.427 269.244 163.679 269.244Z" fill="#38E7B2"/>
<path d="M84.6513 231V220.024H91.9153L91.7073 221.368H86.3473V224.728H91.1953V226.072H86.3473V229.656H91.8033L92.0273 231H84.6513ZM93.9749 231V222.824H95.1269L95.3509 224.024C95.6496 223.576 96.0336 223.24 96.5029 223.016C96.9829 222.781 97.5003 222.664 98.0549 222.664C98.6203 222.664 99.1163 222.771 99.5429 222.984C99.9803 223.197 100.322 223.517 100.567 223.944C100.812 224.36 100.935 224.883 100.935 225.512V231H99.3349V225.784C99.3349 225.112 99.1803 224.632 98.8709 224.344C98.5616 224.045 98.1243 223.896 97.5589 223.896C97.1963 223.896 96.8603 223.987 96.5509 224.168C96.2523 224.349 96.0123 224.595 95.8309 224.904C95.6603 225.203 95.5749 225.549 95.5749 225.944V231H93.9749ZM104.867 234.008C104.493 234.008 104.152 233.917 103.843 233.736C103.544 233.555 103.304 233.309 103.123 233C102.941 232.701 102.851 232.376 102.851 232.024C102.851 231.64 102.957 231.277 103.171 230.936C103.384 230.595 103.677 230.344 104.051 230.184C103.816 230.035 103.629 229.843 103.491 229.608C103.363 229.373 103.299 229.123 103.299 228.856C103.299 228.461 103.421 228.131 103.667 227.864C103.912 227.587 104.232 227.379 104.627 227.24C104.296 227.016 104.029 226.755 103.827 226.456C103.624 226.147 103.523 225.784 103.523 225.368C103.523 224.909 103.64 224.477 103.875 224.072C104.12 223.656 104.488 223.32 104.979 223.064C105.469 222.797 106.083 222.664 106.819 222.664C107.16 222.664 107.469 222.685 107.747 222.728C108.035 222.771 108.291 222.84 108.515 222.936C108.92 222.765 109.235 222.541 109.459 222.264C109.683 221.987 109.811 221.683 109.843 221.352H111.155C111.155 221.693 111.085 222.008 110.947 222.296C110.819 222.584 110.632 222.824 110.387 223.016C110.141 223.208 109.848 223.341 109.507 223.416L109.491 223.464C109.736 223.677 109.928 223.928 110.067 224.216C110.216 224.504 110.291 224.824 110.291 225.176C110.291 225.645 110.168 226.083 109.923 226.488C109.677 226.883 109.32 227.203 108.851 227.448C108.392 227.683 107.821 227.8 107.139 227.8H105.891C105.56 227.8 105.293 227.88 105.091 228.04C104.888 228.2 104.787 228.413 104.787 228.68C104.787 228.936 104.883 229.144 105.075 229.304C105.277 229.464 105.549 229.544 105.891 229.544H108.979C109.651 229.544 110.179 229.752 110.563 230.168C110.957 230.573 111.155 231.075 111.155 231.672C111.155 232.099 111.048 232.488 110.835 232.84C110.632 233.203 110.344 233.485 109.971 233.688C109.608 233.901 109.181 234.008 108.691 234.008H104.867ZM105.379 232.92H108.451C108.771 232.92 109.048 232.808 109.283 232.584C109.528 232.36 109.651 232.088 109.651 231.768C109.651 231.501 109.549 231.267 109.347 231.064C109.155 230.861 108.92 230.76 108.643 230.76H105.379C105.069 230.76 104.808 230.867 104.595 231.08C104.381 231.293 104.275 231.549 104.275 231.848C104.275 232.136 104.381 232.387 104.595 232.6C104.808 232.813 105.069 232.92 105.379 232.92ZM106.899 226.808C107.485 226.808 107.944 226.653 108.275 226.344C108.605 226.035 108.771 225.667 108.771 225.24C108.771 224.813 108.605 224.445 108.275 224.136C107.944 223.816 107.485 223.656 106.899 223.656C106.312 223.656 105.853 223.816 105.523 224.136C105.203 224.445 105.043 224.813 105.043 225.24C105.043 225.667 105.203 226.035 105.523 226.344C105.853 226.653 106.312 226.808 106.899 226.808ZM114.805 231.16C114.368 231.16 113.947 231.091 113.541 230.952C113.147 230.813 112.821 230.579 112.565 230.248C112.32 229.907 112.197 229.448 112.197 228.872C112.197 228.285 112.325 227.816 112.581 227.464C112.848 227.101 113.221 226.824 113.701 226.632C114.192 226.44 114.773 226.312 115.445 226.248C116.128 226.184 116.875 226.152 117.685 226.152V225.32C117.685 224.744 117.541 224.344 117.253 224.12C116.976 223.885 116.533 223.768 115.925 223.768C115.413 223.768 114.971 223.88 114.597 224.104C114.224 224.317 114.037 224.659 114.037 225.128V225.32H112.485C112.475 225.267 112.469 225.213 112.469 225.16C112.469 225.096 112.469 225.032 112.469 224.968C112.469 224.499 112.613 224.093 112.901 223.752C113.2 223.4 113.6 223.133 114.101 222.952C114.613 222.76 115.195 222.664 115.845 222.664H116.069C117.147 222.664 117.947 222.877 118.469 223.304C119.003 223.731 119.269 224.344 119.269 225.144V229.48C119.269 229.672 119.312 229.811 119.397 229.896C119.483 229.981 119.584 230.024 119.701 230.024C119.819 230.024 119.941 230.003 120.069 229.96C120.208 229.917 120.331 229.864 120.437 229.8V230.824C120.299 230.931 120.128 231.011 119.925 231.064C119.723 231.128 119.483 231.16 119.205 231.16C118.864 231.16 118.587 231.096 118.373 230.968C118.171 230.829 118.021 230.648 117.925 230.424C117.829 230.2 117.771 229.949 117.749 229.672C117.44 230.152 117.035 230.52 116.533 230.776C116.043 231.032 115.467 231.16 114.805 231.16ZM115.445 230.024C115.819 230.024 116.176 229.944 116.517 229.784C116.859 229.613 117.136 229.357 117.349 229.016C117.573 228.675 117.685 228.248 117.685 227.736V227.128C116.885 227.128 116.197 227.171 115.621 227.256C115.045 227.331 114.603 227.48 114.293 227.704C113.995 227.928 113.845 228.275 113.845 228.744C113.845 229.192 113.979 229.517 114.245 229.72C114.512 229.923 114.912 230.024 115.445 230.024ZM123.648 234.008C123.274 234.008 122.933 233.917 122.624 233.736C122.325 233.555 122.085 233.309 121.904 233C121.722 232.701 121.632 232.376 121.632 232.024C121.632 231.64 121.738 231.277 121.952 230.936C122.165 230.595 122.458 230.344 122.832 230.184C122.597 230.035 122.41 229.843 122.272 229.608C122.144 229.373 122.08 229.123 122.08 228.856C122.08 228.461 122.202 228.131 122.448 227.864C122.693 227.587 123.013 227.379 123.408 227.24C123.077 227.016 122.81 226.755 122.608 226.456C122.405 226.147 122.304 225.784 122.304 225.368C122.304 224.909 122.421 224.477 122.656 224.072C122.901 223.656 123.269 223.32 123.76 223.064C124.25 222.797 124.864 222.664 125.6 222.664C125.941 222.664 126.25 222.685 126.528 222.728C126.816 222.771 127.072 222.84 127.296 222.936C127.701 222.765 128.016 222.541 128.24 222.264C128.464 221.987 128.592 221.683 128.624 221.352H129.936C129.936 221.693 129.866 222.008 129.728 222.296C129.6 222.584 129.413 222.824 129.168 223.016C128.922 223.208 128.629 223.341 128.288 223.416L128.272 223.464C128.517 223.677 128.709 223.928 128.848 224.216C128.997 224.504 129.072 224.824 129.072 225.176C129.072 225.645 128.949 226.083 128.704 226.488C128.458 226.883 128.101 227.203 127.632 227.448C127.173 227.683 126.602 227.8 125.92 227.8H124.672C124.341 227.8 124.074 227.88 123.872 228.04C123.669 228.2 123.568 228.413 123.568 228.68C123.568 228.936 123.664 229.144 123.856 229.304C124.058 229.464 124.33 229.544 124.672 229.544H127.76C128.432 229.544 128.96 229.752 129.344 230.168C129.738 230.573 129.936 231.075 129.936 231.672C129.936 232.099 129.829 232.488 129.616 232.84C129.413 233.203 129.125 233.485 128.752 233.688C128.389 233.901 127.962 234.008 127.472 234.008H123.648ZM124.16 232.92H127.232C127.552 232.92 127.829 232.808 128.064 232.584C128.309 232.36 128.432 232.088 128.432 231.768C128.432 231.501 128.33 231.267 128.128 231.064C127.936 230.861 127.701 230.76 127.424 230.76H124.16C123.85 230.76 123.589 230.867 123.376 231.08C123.162 231.293 123.056 231.549 123.056 231.848C123.056 232.136 123.162 232.387 123.376 232.6C123.589 232.813 123.85 232.92 124.16 232.92ZM125.68 226.808C126.266 226.808 126.725 226.653 127.056 226.344C127.386 226.035 127.552 225.667 127.552 225.24C127.552 224.813 127.386 224.445 127.056 224.136C126.725 223.816 126.266 223.656 125.68 223.656C125.093 223.656 124.634 223.816 124.304 224.136C123.984 224.445 123.824 224.813 123.824 225.24C123.824 225.667 123.984 226.035 124.304 226.344C124.634 226.653 125.093 226.808 125.68 226.808ZM134.787 231.16C134.061 231.16 133.421 231.005 132.867 230.696C132.323 230.376 131.896 229.912 131.587 229.304C131.277 228.685 131.123 227.944 131.123 227.08V226.744C131.123 225.869 131.283 225.128 131.603 224.52C131.933 223.912 132.381 223.453 132.947 223.144C133.512 222.824 134.157 222.664 134.883 222.664H135.059C135.72 222.664 136.307 222.803 136.819 223.08C137.331 223.357 137.725 223.752 138.003 224.264C138.291 224.776 138.435 225.384 138.435 226.088V227.112H132.787C132.787 227.72 132.867 228.243 133.027 228.68C133.197 229.117 133.437 229.453 133.747 229.688C134.067 229.912 134.456 230.024 134.915 230.024C135.299 230.024 135.64 229.949 135.939 229.8C136.237 229.651 136.477 229.421 136.659 229.112C136.84 228.803 136.931 228.419 136.931 227.96H138.435C138.435 228.611 138.28 229.176 137.971 229.656C137.661 230.136 137.24 230.509 136.707 230.776C136.184 231.032 135.592 231.16 134.931 231.16H134.787ZM132.803 226.152H136.867C136.867 225.352 136.691 224.76 136.339 224.376C135.997 223.992 135.517 223.8 134.899 223.8C134.333 223.8 133.848 223.997 133.443 224.392C133.048 224.787 132.835 225.373 132.803 226.152ZM140.631 231V222.824H141.815L142.055 224.024C142.322 223.597 142.653 223.267 143.047 223.032C143.442 222.787 143.895 222.664 144.407 222.664C144.941 222.664 145.415 222.771 145.831 222.984C146.247 223.197 146.573 223.539 146.807 224.008C147.042 223.613 147.367 223.293 147.783 223.048C148.21 222.792 148.711 222.664 149.287 222.664C149.81 222.664 150.274 222.771 150.679 222.984C151.085 223.197 151.399 223.517 151.623 223.944C151.858 224.36 151.975 224.883 151.975 225.512V231H150.391V225.864C150.391 225.181 150.253 224.685 149.975 224.376C149.709 224.067 149.325 223.912 148.823 223.912C148.493 223.912 148.194 223.997 147.927 224.168C147.671 224.339 147.469 224.579 147.319 224.888C147.181 225.197 147.111 225.544 147.111 225.928V231H145.511V225.864C145.511 225.181 145.373 224.685 145.095 224.376C144.829 224.067 144.439 223.912 143.927 223.912C143.597 223.912 143.303 223.997 143.047 224.168C142.791 224.339 142.589 224.579 142.439 224.888C142.301 225.197 142.231 225.544 142.231 225.928V231H140.631ZM157.849 231.16C157.124 231.16 156.484 231.005 155.929 230.696C155.385 230.376 154.958 229.912 154.649 229.304C154.34 228.685 154.185 227.944 154.185 227.08V226.744C154.185 225.869 154.345 225.128 154.665 224.52C154.996 223.912 155.444 223.453 156.009 223.144C156.574 222.824 157.22 222.664 157.945 222.664H158.121C158.782 222.664 159.369 222.803 159.881 223.08C160.393 223.357 160.788 223.752 161.065 224.264C161.353 224.776 161.497 225.384 161.497 226.088V227.112H155.849C155.849 227.72 155.929 228.243 156.089 228.68C156.26 229.117 156.5 229.453 156.809 229.688C157.129 229.912 157.518 230.024 157.977 230.024C158.361 230.024 158.702 229.949 159.001 229.8C159.3 229.651 159.54 229.421 159.721 229.112C159.902 228.803 159.993 228.419 159.993 227.96H161.497C161.497 228.611 161.342 229.176 161.033 229.656C160.724 230.136 160.302 230.509 159.769 230.776C159.246 231.032 158.654 231.16 157.993 231.16H157.849ZM155.865 226.152H159.929C159.929 225.352 159.753 224.76 159.401 224.376C159.06 223.992 158.58 223.8 157.961 223.8C157.396 223.8 156.91 223.997 156.505 224.392C156.11 224.787 155.897 225.373 155.865 226.152ZM163.694 231V222.824H164.846L165.07 224.024C165.368 223.576 165.752 223.24 166.222 223.016C166.702 222.781 167.219 222.664 167.774 222.664C168.339 222.664 168.835 222.771 169.262 222.984C169.699 223.197 170.04 223.517 170.286 223.944C170.531 224.36 170.654 224.883 170.654 225.512V231H169.054V225.784C169.054 225.112 168.899 224.632 168.59 224.344C168.28 224.045 167.843 223.896 167.278 223.896C166.915 223.896 166.579 223.987 166.27 224.168C165.971 224.349 165.731 224.595 165.55 224.904C165.379 225.203 165.294 225.549 165.294 225.944V231H163.694ZM175.531 231.16C175.136 231.16 174.779 231.096 174.459 230.968C174.149 230.84 173.904 230.637 173.723 230.36C173.552 230.072 173.467 229.693 173.467 229.224V224.072H172.571V222.824H173.515L174.075 220.216H175.067V222.824H176.971V224.072H175.067V228.936C175.067 229.405 175.163 229.704 175.355 229.832C175.547 229.96 175.755 230.024 175.979 230.024C176.096 230.024 176.256 229.997 176.459 229.944C176.672 229.891 176.843 229.837 176.971 229.784V230.856C176.853 230.92 176.709 230.973 176.539 231.016C176.379 231.069 176.208 231.107 176.027 231.128C175.856 231.149 175.691 231.16 175.531 231.16Z" fill="#5D6180"/>
<path d="M74.9038 197C74.9038 194.653 75.1971 192.38 75.7838 190.18C76.3704 187.98 77.1624 185.868 78.1598 183.844C79.1571 181.791 80.2571 179.84 81.4598 177.992C82.6918 176.144 83.9238 174.413 85.1558 172.8H71.1198V166.816H93.0758V170.072C91.2278 172.477 89.6291 174.765 88.2798 176.936C86.9598 179.107 85.8744 181.248 85.0238 183.36C84.2024 185.472 83.5864 187.643 83.1758 189.872C82.7944 192.101 82.6331 194.477 82.6918 197H74.9038ZM108.574 197.44C106.521 197.44 104.673 196.985 103.03 196.076C101.417 195.137 100.126 193.876 99.1581 192.292C98.2194 190.679 97.7501 188.845 97.7501 186.792V177.024C97.7501 174.941 98.2341 173.108 99.2021 171.524C100.17 169.911 101.475 168.649 103.118 167.74C104.761 166.831 106.594 166.376 108.618 166.376H109.542C111.449 166.376 113.165 166.772 114.69 167.564C116.245 168.327 117.477 169.456 118.386 170.952C119.325 172.419 119.794 174.223 119.794 176.364H113.502C113.502 174.897 113.091 173.753 112.27 172.932C111.449 172.111 110.422 171.7 109.19 171.7C108.339 171.7 107.562 171.905 106.858 172.316C106.183 172.697 105.641 173.225 105.23 173.9C104.849 174.545 104.658 175.293 104.658 176.144V180.588C105.45 179.708 106.418 179.033 107.562 178.564C108.735 178.095 109.909 177.86 111.082 177.86C112.871 177.86 114.47 178.212 115.878 178.916C117.315 179.62 118.445 180.647 119.266 181.996C120.087 183.345 120.498 185.017 120.498 187.012C120.498 189.065 119.999 190.884 119.002 192.468C118.034 194.023 116.714 195.24 115.042 196.12C113.37 197 111.522 197.44 109.498 197.44H108.574ZM109.19 192.38C110.187 192.38 111.009 192.175 111.654 191.764C112.329 191.324 112.827 190.723 113.15 189.96C113.502 189.168 113.678 188.259 113.678 187.232C113.678 186.176 113.502 185.267 113.15 184.504C112.798 183.741 112.285 183.155 111.61 182.744C110.935 182.333 110.129 182.128 109.19 182.128C108.222 182.128 107.401 182.333 106.726 182.744C106.051 183.155 105.538 183.741 105.186 184.504C104.834 185.267 104.658 186.161 104.658 187.188C104.658 188.273 104.834 189.212 105.186 190.004C105.538 190.767 106.051 191.353 106.726 191.764C107.43 192.175 108.251 192.38 109.19 192.38ZM124.996 197V190.312H131.86V197H124.996ZM147.763 197.44C145.563 197.44 143.627 197.117 141.955 196.472C140.283 195.797 138.977 194.815 138.039 193.524C137.129 192.233 136.675 190.635 136.675 188.728C136.675 186.88 137.1 185.399 137.951 184.284C138.831 183.14 139.975 182.26 141.383 181.644V181.468C140.327 180.793 139.447 179.972 138.743 179.004C138.039 178.036 137.687 176.701 137.687 175C137.687 173.123 138.156 171.553 139.095 170.292C140.033 169.001 141.295 168.033 142.879 167.388C144.463 166.713 146.223 166.376 148.159 166.376C150.095 166.376 151.825 166.713 153.351 167.388C154.905 168.033 156.123 169.001 157.003 170.292C157.912 171.553 158.367 173.123 158.367 175C158.367 176.144 158.191 177.127 157.839 177.948C157.516 178.74 157.076 179.415 156.519 179.972C155.991 180.529 155.375 181.028 154.671 181.468V181.644C156.079 182.289 157.208 183.169 158.059 184.284C158.939 185.369 159.379 186.851 159.379 188.728C159.379 190.576 158.895 192.16 157.927 193.48C156.959 194.771 155.609 195.753 153.879 196.428C152.148 197.103 150.109 197.44 147.763 197.44ZM148.027 192.644C149.523 192.644 150.623 192.233 151.327 191.412C152.031 190.591 152.383 189.476 152.383 188.068C152.383 186.66 152.001 185.575 151.239 184.812C150.476 184.02 149.405 183.624 148.027 183.624C146.619 183.624 145.533 184.035 144.771 184.856C144.037 185.648 143.671 186.733 143.671 188.112C143.671 189.549 144.037 190.664 144.771 191.456C145.504 192.248 146.589 192.644 148.027 192.644ZM148.027 179.576C149.229 179.576 150.197 179.209 150.931 178.476C151.693 177.713 152.075 176.657 152.075 175.308C152.075 173.959 151.708 172.917 150.975 172.184C150.241 171.451 149.244 171.084 147.983 171.084C146.721 171.084 145.724 171.465 144.991 172.228C144.287 172.961 143.935 173.988 143.935 175.308C143.935 176.687 144.316 177.743 145.079 178.476C145.841 179.209 146.824 179.576 148.027 179.576ZM166.121 197L184.513 166.816H188.209L169.861 197H166.121ZM168.189 182.172C167.192 182.172 166.282 181.937 165.461 181.468C164.64 180.969 163.994 180.309 163.525 179.488C163.056 178.667 162.821 177.772 162.821 176.804V172.228C162.821 171.231 163.056 170.321 163.525 169.5C163.994 168.679 164.64 168.033 165.461 167.564C166.282 167.065 167.192 166.816 168.189 166.816H168.937C169.964 166.816 170.873 167.065 171.665 167.564C172.486 168.033 173.132 168.679 173.601 169.5C174.07 170.321 174.305 171.231 174.305 172.228V176.804C174.305 177.772 174.07 178.667 173.601 179.488C173.132 180.309 172.486 180.969 171.665 181.468C170.873 181.937 169.964 182.172 168.937 182.172H168.189ZM168.585 179.312C169.201 179.312 169.685 179.121 170.037 178.74C170.418 178.329 170.609 177.831 170.609 177.244V171.744C170.609 171.157 170.418 170.673 170.037 170.292C169.685 169.881 169.201 169.676 168.585 169.676C167.998 169.676 167.5 169.881 167.089 170.292C166.708 170.673 166.517 171.157 166.517 171.744V177.244C166.517 177.831 166.708 178.329 167.089 178.74C167.5 179.121 167.998 179.312 168.585 179.312ZM185.349 197.044C184.352 197.044 183.442 196.795 182.621 196.296C181.8 195.797 181.154 195.137 180.685 194.316C180.216 193.495 179.981 192.6 179.981 191.632V187.056C179.981 186.059 180.216 185.149 180.685 184.328C181.154 183.507 181.8 182.861 182.621 182.392C183.442 181.893 184.352 181.644 185.349 181.644H186.097C187.124 181.644 188.033 181.893 188.825 182.392C189.646 182.861 190.292 183.507 190.761 184.328C191.23 185.149 191.465 186.059 191.465 187.056V191.632C191.465 192.6 191.23 193.495 190.761 194.316C190.292 195.137 189.646 195.797 188.825 196.296C188.033 196.795 187.124 197.044 186.097 197.044H185.349ZM185.745 194.184C186.361 194.184 186.845 193.979 187.197 193.568C187.578 193.157 187.769 192.659 187.769 192.072V186.616C187.769 186 187.578 185.501 187.197 185.12C186.845 184.709 186.361 184.504 185.745 184.504C185.158 184.504 184.66 184.709 184.249 185.12C183.868 185.501 183.677 186 183.677 186.616V192.072C183.677 192.659 183.868 193.157 184.249 193.568C184.66 193.979 185.158 194.184 185.745 194.184Z" fill="#060C3C"/>
<g filter="url(#filter5_d_1_8038)">
<rect x="77" y="37.5" width="110" height="54" rx="6" fill="white"/>
</g>
<path d="M122.284 61.7757L116.333 60.9109L113.673 55.5179C113.6 55.3702 113.48 55.2507 113.333 55.1781C112.962 54.9952 112.512 55.1476 112.327 55.5179L109.667 60.9109L103.716 61.7757C103.552 61.7992 103.402 61.8765 103.287 61.9937C103.149 62.1364 103.072 62.3284 103.075 62.5275C103.077 62.7265 103.159 62.9164 103.302 63.0554L107.607 67.2531L106.59 73.1804C106.566 73.3183 106.581 73.4601 106.634 73.5897C106.686 73.7194 106.774 73.8317 106.888 73.9139C107.001 73.9962 107.135 74.045 107.274 74.055C107.414 74.0649 107.554 74.0356 107.677 73.9702L113 71.1718L118.323 73.9702C118.468 74.0476 118.637 74.0734 118.798 74.0452C119.206 73.9749 119.48 73.5882 119.41 73.1804L118.393 67.2531L122.698 63.0554C122.816 62.9406 122.893 62.7906 122.916 62.6265C122.98 62.2163 122.694 61.8367 122.284 61.7757Z" fill="#FFD43D"/>
<path d="M136.304 72.5V68.958H129.726V66.296C129.961 65.9 130.217 65.4233 130.496 64.866C130.789 64.294 131.09 63.678 131.398 63.018C131.706 62.3433 132.007 61.654 132.3 60.95C132.593 60.246 132.857 59.5713 133.092 58.926C133.327 58.2807 133.517 57.7013 133.664 57.188H136.81C136.693 57.7307 136.502 58.3393 136.238 59.014C135.974 59.674 135.673 60.3633 135.336 61.082C134.999 61.8007 134.639 62.4973 134.258 63.172C133.877 63.832 133.503 64.4407 133.136 64.998C132.784 65.5407 132.454 65.9807 132.146 66.318H136.304V63.128C136.451 62.908 136.619 62.622 136.81 62.27C137.001 61.9033 137.184 61.522 137.36 61.126C137.551 60.7153 137.719 60.3193 137.866 59.938C138.013 59.5567 138.123 59.2413 138.196 58.992H139.626V66.318H141.694V68.958H139.626V72.5H136.304ZM143.899 76.284V75.866C144.412 75.3233 144.794 74.7733 145.043 74.216C145.292 73.6587 145.417 73.0793 145.417 72.478H143.899V68.782H147.287V71.906C147.287 72.742 147.148 73.5267 146.869 74.26C146.605 75.008 146.202 75.6827 145.659 76.284H143.899ZM155.216 72.72C154.116 72.72 153.148 72.5587 152.312 72.236C151.476 71.8987 150.824 71.4073 150.354 70.762C149.9 70.1167 149.672 69.3173 149.672 68.364C149.672 67.44 149.885 66.6993 150.31 66.142C150.75 65.57 151.322 65.13 152.026 64.822V64.734C151.498 64.3967 151.058 63.986 150.706 63.502C150.354 63.018 150.178 62.3507 150.178 61.5C150.178 60.5613 150.413 59.7767 150.882 59.146C151.352 58.5007 151.982 58.0167 152.774 57.694C153.566 57.3567 154.446 57.188 155.414 57.188C156.382 57.188 157.248 57.3567 158.01 57.694C158.788 58.0167 159.396 58.5007 159.836 59.146C160.291 59.7767 160.518 60.5613 160.518 61.5C160.518 62.072 160.43 62.5633 160.254 62.974C160.093 63.37 159.873 63.7073 159.594 63.986C159.33 64.2647 159.022 64.514 158.67 64.734V64.822C159.374 65.1447 159.939 65.5847 160.364 66.142C160.804 66.6847 161.024 67.4253 161.024 68.364C161.024 69.288 160.782 70.08 160.298 70.74C159.814 71.3853 159.14 71.8767 158.274 72.214C157.409 72.5513 156.39 72.72 155.216 72.72ZM155.348 70.322C156.096 70.322 156.646 70.1167 156.998 69.706C157.35 69.2953 157.526 68.738 157.526 68.034C157.526 67.33 157.336 66.7873 156.954 66.406C156.573 66.01 156.038 65.812 155.348 65.812C154.644 65.812 154.102 66.0173 153.72 66.428C153.354 66.824 153.17 67.3667 153.17 68.056C153.17 68.7747 153.354 69.332 153.72 69.728C154.087 70.124 154.63 70.322 155.348 70.322ZM155.348 63.788C155.95 63.788 156.434 63.6047 156.8 63.238C157.182 62.8567 157.372 62.3287 157.372 61.654C157.372 60.9793 157.189 60.4587 156.822 60.092C156.456 59.7253 155.957 59.542 155.326 59.542C154.696 59.542 154.197 59.7327 153.83 60.114C153.478 60.4807 153.302 60.994 153.302 61.654C153.302 62.3433 153.493 62.8713 153.874 63.238C154.256 63.6047 154.747 63.788 155.348 63.788Z" fill="#FFD43D"/>
<defs>
<filter id="filter0_d_1_8038" x="218" y="53.5" width="333" height="296" filterUnits="userSpaceOnUse" color-interpolation-filters="sRGB">
<feFlood flood-opacity="0" result="BackgroundImageFix"/>
<feColorMatrix in="SourceAlpha" type="matrix" values="0 0 0 0 0 0 0 0 0 0 0 0 0 0 0 0 0 0 127 0" result="hardAlpha"/>
<feMorphology radius="2" operator="erode" in="SourceAlpha" result="effect1_dropShadow_1_8038"/>
<feOffset dy="8"/>
<feGaussianBlur stdDeviation="20"/>
<feColorMatrix type="matrix" values="0 0 0 0 0.0235294 0 0 0 0 0.0470588 0 0 0 0 0.231373 0 0 0 0.08 0"/>
<feBlend mode="normal" in2="BackgroundImageFix" result="effect1_dropShadow_1_8038"/>
<feBlend mode="normal" in="SourceGraphic" in2="effect1_dropShadow_1_8038" result="shape"/>
</filter>
<filter id="filter1_d_1_8038" x="0" y="305.5" width="464" height="226" filterUnits="userSpaceOnUse" color-interpolation-filters="sRGB">
<feFlood flood-opacity="0" result="BackgroundImageFix"/>
<feColorMatrix in="SourceAlpha" type="matrix" values="0 0 0 0 0 0 0 0 0 0 0 0 0 0 0 0 0 0 127 0" result="hardAlpha"/>
<feMorphology radius="2" operator="erode" in="SourceAlpha" result="effect1_dropShadow_1_8038"/>
<feOffset dy="8"/>
<feGaussianBlur stdDeviation="20"/>
<feColorMatrix type="matrix" values="0 0 0 0 0.0235294 0 0 0 0 0.0470588 0 0 0 0 0.231373 0 0 0 0.08 0"/>
<feBlend mode="normal" in2="BackgroundImageFix" result="effect1_dropShadow_1_8038"/>
<feBlend mode="normal" in="SourceGraphic" in2="effect1_dropShadow_1_8038" result="shape"/>
</filter>
<filter id="filter2_d_1_8038" x="414.756" y="314.5" width="162.244" height="128.651" filterUnits="userSpaceOnUse" color-interpolation-filters="sRGB">
<feFlood flood-opacity="0" result="BackgroundImageFix"/>
<feColorMatrix in="SourceAlpha" type="matrix" values="0 0 0 0 0 0 0 0 0 0 0 0 0 0 0 0 0 0 127 0" result="hardAlpha"/>
<feOffset dy="6"/>
<feGaussianBlur stdDeviation="10"/>
<feColorMatrix type="matrix" values="0 0 0 0 0.11 0 0 0 0 0.14137 0 0 0 0 0.4125 0 0 0 0.05 0"/>
<feBlend mode="normal" in2="BackgroundImageFix" result="effect1_dropShadow_1_8038"/>
<feBlend mode="normal" in="SourceGraphic" in2="effect1_dropShadow_1_8038" result="shape"/>
</filter>
<filter id="filter3_d_1_8038" x="420.912" y="305.484" width="152" height="152" filterUnits="userSpaceOnUse" color-interpolation-filters="sRGB">
<feFlood flood-opacity="0" result="BackgroundImageFix"/>
<feColorMatrix in="SourceAlpha" type="matrix" values="0 0 0 0 0 0 0 0 0 0 0 0 0 0 0 0 0 0 127 0" result="hardAlpha"/>
<feMorphology radius="2" operator="erode" in="SourceAlpha" result="effect1_dropShadow_1_8038"/>
<feOffset dy="8"/>
<feGaussianBlur stdDeviation="20"/>
<feColorMatrix type="matrix" values="0 0 0 0 0.0235294 0 0 0 0 0.0470588 0 0 0 0 0.231373 0 0 0 0.08 0"/>
<feBlend mode="normal" in2="BackgroundImageFix" result="effect1_dropShadow_1_8038"/>
<feBlend mode="normal" in="SourceGraphic" in2="effect1_dropShadow_1_8038" result="shape"/>
</filter>
<filter id="filter4_d_1_8038" x="0" y="93" width="262" height="256" filterUnits="userSpaceOnUse" color-interpolation-filters="sRGB">
<feFlood flood-opacity="0" result="BackgroundImageFix"/>
<feColorMatrix in="SourceAlpha" type="matrix" values="0 0 0 0 0 0 0 0 0 0 0 0 0 0 0 0 0 0 127 0" result="hardAlpha"/>
<feMorphology radius="2" operator="erode" in="SourceAlpha" result="effect1_dropShadow_1_8038"/>
<feOffset dy="8"/>
<feGaussianBlur stdDeviation="20"/>
<feColorMatrix type="matrix" values="0 0 0 0 0.0235294 0 0 0 0 0.0470588 0 0 0 0 0.231373 0 0 0 0.08 0"/>
<feBlend mode="normal" in2="BackgroundImageFix" result="effect1_dropShadow_1_8038"/>
<feBlend mode="normal" in="SourceGraphic" in2="effect1_dropShadow_1_8038" result="shape"/>
</filter>
<filter id="filter5_d_1_8038" x="39" y="7.5" width="186" height="130" filterUnits="userSpaceOnUse" color-interpolation-filters="sRGB">
<feFlood flood-opacity="0" result="BackgroundImageFix"/>
<feColorMatrix in="SourceAlpha" type="matrix" values="0 0 0 0 0 0 0 0 0 0 0 0 0 0 0 0 0 0 127 0" result="hardAlpha"/>
<feMorphology radius="2" operator="erode" in="SourceAlpha" result="effect1_dropShadow_1_8038"/>
<feOffset dy="8"/>
<feGaussianBlur stdDeviation="20"/>
<feColorMatrix type="matrix" values="0 0 0 0 0.0235294 0 0 0 0 0.0470588 0 0 0 0 0.231373 0 0 0 0.08 0"/>
<feBlend mode="normal" in2="BackgroundImageFix" result="effect1_dropShadow_1_8038"/>
<feBlend mode="normal" in="SourceGraphic" in2="effect1_dropShadow_1_8038" result="shape"/>
</filter>
</defs>
</svg>
