<svg width="253" height="229" viewBox="0 0 253 229" fill="none" xmlns="http://www.w3.org/2000/svg">
<g filter="url(#filter0_d_1_8084)">
<rect x="38" y="55" width="170" height="128" rx="6" fill="white"/>
</g>
<path d="M59.44 92V89.768H62.392V82.748H59.44V81.092C59.92 81.056 60.436 80.96 60.988 80.804C61.552 80.648 62.11 80.456 62.662 80.228C63.226 79.988 63.748 79.736 64.228 79.472H65.2V89.768H68.08V92H59.44ZM69.9382 92V91.37C69.9382 90.65 70.0702 90.026 70.3342 89.498C70.5982 88.958 71.0182 88.478 71.5942 88.058L75.0682 85.502C75.4402 85.226 75.7282 84.914 75.9322 84.566C76.1362 84.206 76.2382 83.816 76.2382 83.396C76.2382 82.88 76.0882 82.478 75.7882 82.19C75.4882 81.89 75.0322 81.74 74.4202 81.74C74.0602 81.74 73.7422 81.818 73.4662 81.974C73.1902 82.118 72.9682 82.328 72.8002 82.604C72.6442 82.868 72.5662 83.168 72.5662 83.504C72.5662 83.588 72.5662 83.672 72.5662 83.756C72.5662 83.828 72.5722 83.9 72.5842 83.972H70.0102C70.0102 83.912 70.0102 83.858 70.0102 83.81C70.0102 83.75 70.0102 83.696 70.0102 83.648C70.0102 82.844 70.1902 82.13 70.5502 81.506C70.9222 80.882 71.4382 80.39 72.0982 80.03C72.7702 79.658 73.5622 79.472 74.4742 79.472H74.8882C75.7642 79.472 76.5142 79.634 77.1382 79.958C77.7742 80.282 78.2602 80.732 78.5962 81.308C78.9442 81.884 79.1182 82.556 79.1182 83.324C79.1182 83.936 79.0102 84.476 78.7942 84.944C78.5902 85.412 78.2902 85.838 77.8942 86.222C77.5102 86.606 77.0602 86.978 76.5442 87.338L74.2942 88.922C74.2102 88.982 74.1202 89.048 74.0242 89.12C73.9402 89.192 73.8622 89.27 73.7902 89.354C73.7302 89.426 73.6762 89.498 73.6282 89.57H79.1542V92H69.9382ZM81.2644 95.096V94.754C81.6844 94.31 81.9964 93.86 82.2004 93.404C82.4044 92.948 82.5064 92.474 82.5064 91.982H81.2644V88.958H84.0364V91.514C84.0364 92.198 83.9224 92.84 83.6944 93.44C83.4784 94.052 83.1484 94.604 82.7044 95.096H81.2644ZM90.5059 92.18C89.6659 92.18 88.9099 91.994 88.2379 91.622C87.5779 91.238 87.0499 90.722 86.6539 90.074C86.2699 89.414 86.0779 88.664 86.0779 87.824V83.828C86.0779 82.976 86.2759 82.226 86.6719 81.578C87.0679 80.918 87.6019 80.402 88.2739 80.03C88.9459 79.658 89.6959 79.472 90.5239 79.472H90.9019C91.6819 79.472 92.3839 79.634 93.0079 79.958C93.6439 80.27 94.1479 80.732 94.5199 81.344C94.9039 81.944 95.0959 82.682 95.0959 83.558H92.5219C92.5219 82.958 92.3539 82.49 92.0179 82.154C91.6819 81.818 91.2619 81.65 90.7579 81.65C90.4099 81.65 90.0919 81.734 89.8039 81.902C89.5279 82.058 89.3059 82.274 89.1379 82.55C88.9819 82.814 88.9039 83.12 88.9039 83.468V85.286C89.2279 84.926 89.6239 84.65 90.0919 84.458C90.5719 84.266 91.0519 84.17 91.5319 84.17C92.2639 84.17 92.9179 84.314 93.4939 84.602C94.0819 84.89 94.5439 85.31 94.8799 85.862C95.2159 86.414 95.3839 87.098 95.3839 87.914C95.3839 88.754 95.1799 89.498 94.7719 90.146C94.3759 90.782 93.8359 91.28 93.1519 91.64C92.4679 92 91.7119 92.18 90.8839 92.18H90.5059ZM90.7579 90.11C91.1659 90.11 91.5019 90.026 91.7659 89.858C92.0419 89.678 92.2459 89.432 92.3779 89.12C92.5219 88.796 92.5939 88.424 92.5939 88.004C92.5939 87.572 92.5219 87.2 92.3779 86.888C92.2339 86.576 92.0239 86.336 91.7479 86.168C91.4719 86 91.1419 85.916 90.7579 85.916C90.3619 85.916 90.0259 86 89.7499 86.168C89.4739 86.336 89.2639 86.576 89.1199 86.888C88.9759 87.2 88.9039 87.566 88.9039 87.986C88.9039 88.43 88.9759 88.814 89.1199 89.138C89.2639 89.45 89.4739 89.69 89.7499 89.858C90.0379 90.026 90.3739 90.11 90.7579 90.11ZM97.0261 92V91.37C97.0261 90.65 97.1581 90.026 97.4221 89.498C97.6861 88.958 98.1061 88.478 98.6821 88.058L102.156 85.502C102.528 85.226 102.816 84.914 103.02 84.566C103.224 84.206 103.326 83.816 103.326 83.396C103.326 82.88 103.176 82.478 102.876 82.19C102.576 81.89 102.12 81.74 101.508 81.74C101.148 81.74 100.83 81.818 100.554 81.974C100.278 82.118 100.056 82.328 99.8881 82.604C99.7321 82.868 99.6541 83.168 99.6541 83.504C99.6541 83.588 99.6541 83.672 99.6541 83.756C99.6541 83.828 99.6601 83.9 99.6721 83.972H97.0981C97.0981 83.912 97.0981 83.858 97.0981 83.81C97.0981 83.75 97.0981 83.696 97.0981 83.648C97.0981 82.844 97.2781 82.13 97.6381 81.506C98.0101 80.882 98.5261 80.39 99.1861 80.03C99.8581 79.658 100.65 79.472 101.562 79.472H101.976C102.852 79.472 103.602 79.634 104.226 79.958C104.862 80.282 105.348 80.732 105.684 81.308C106.032 81.884 106.206 82.556 106.206 83.324C106.206 83.936 106.098 84.476 105.882 84.944C105.678 85.412 105.378 85.838 104.982 86.222C104.598 86.606 104.148 86.978 103.632 87.338L101.382 88.922C101.298 88.982 101.208 89.048 101.112 89.12C101.028 89.192 100.95 89.27 100.878 89.354C100.818 89.426 100.764 89.498 100.716 89.57H106.242V92H97.0261Z" fill="#060C3C"/>
<rect x="58" y="143" width="130" height="20" rx="6" fill="#9374FF"/>
<rect x="58" y="110" width="65" height="6" rx="3" fill="#B4B6C4"/>
<rect x="58" y="124" width="65" height="6" rx="3" fill="#B4B6C4"/>
<g filter="url(#filter1_d_1_8084)">
<rect x="109" y="14" width="50" height="50" rx="6" fill="white"/>
</g>
<path d="M143.037 31.0065C143.019 30.8752 142.905 30.8023 142.81 30.7944C142.716 30.7865 140.87 30.7583 140.87 30.7583C140.87 30.7583 139.327 29.2551 139.174 29.1022C139.022 28.9492 138.724 28.9954 138.608 29.03C138.607 29.0308 138.319 29.1202 137.833 29.271C137.752 29.007 137.632 28.6824 137.462 28.3563C136.913 27.3046 136.108 26.7485 135.135 26.747C135.134 26.747 135.133 26.747 135.132 26.747C135.064 26.747 134.997 26.7535 134.93 26.7593C134.901 26.7247 134.872 26.6908 134.842 26.6576C134.418 26.2032 133.875 25.9817 133.224 26.0012C131.969 26.0372 130.718 26.9468 129.704 28.5626C128.99 29.6994 128.447 31.1277 128.293 32.2335C126.851 32.6814 125.843 32.9944 125.821 33.0017C125.093 33.231 125.07 33.2534 124.975 33.9416C124.904 34.4616 123 49.2316 123 49.2316L138.96 52L145.878 50.2753C145.878 50.2753 143.055 31.1378 143.037 31.0065ZM137.034 29.5191C136.667 29.6331 136.249 29.7629 135.796 29.9036C135.786 29.2659 135.711 28.3787 135.414 27.6119C136.367 27.793 136.836 28.8742 137.034 29.5191ZM134.961 30.1632C134.124 30.4229 133.211 30.7064 132.296 30.9906C132.553 30.0017 133.042 29.0171 133.642 28.3715C133.865 28.1313 134.177 27.8636 134.546 27.7107C134.894 28.4378 134.969 29.4672 134.961 30.1632ZM133.25 26.8394C133.544 26.8329 133.793 26.8978 134.005 27.0377C133.665 27.2145 133.337 27.4684 133.03 27.7995C132.232 28.6578 131.621 29.9901 131.377 31.2755C130.617 31.5114 129.873 31.743 129.188 31.955C129.62 29.9317 131.311 26.8956 133.25 26.8394Z" fill="#95BF47"/>
<path d="M142.811 30.7951C142.717 30.7872 140.871 30.759 140.871 30.759C140.871 30.759 139.328 29.2558 139.175 29.1029C139.118 29.0459 139.041 29.0163 138.961 29.004L138.962 51.9993L145.878 50.2753C145.878 50.2753 143.056 31.1385 143.038 31.0072C143.02 30.8759 142.905 30.803 142.811 30.7951Z" fill="#5E8E3E"/>
<path d="M135.127 34.3621L134.323 37.3765C134.323 37.3765 133.427 36.9675 132.365 37.0346C130.807 37.1334 130.791 38.1187 130.806 38.3661C130.891 39.7143 134.428 40.0086 134.626 43.1666C134.782 45.6508 133.312 47.3503 131.194 47.4844C128.652 47.6453 127.252 46.1413 127.252 46.1413L127.791 43.8432C127.791 43.8432 129.2 44.9093 130.327 44.8379C131.064 44.791 131.327 44.1901 131.301 43.7653C131.19 42.0067 128.31 42.1105 128.128 39.2209C127.975 36.7893 129.567 34.3253 133.081 34.1031C134.434 34.0158 135.127 34.3621 135.127 34.3621Z" fill="white"/>
<g filter="url(#filter2_d_1_8084)">
<rect x="123" y="74" width="36" height="36" rx="6" fill="white"/>
</g>
<g clip-path="url(#clip0_1_8084)">
<rect width="14" height="14" transform="translate(134 85)" fill="white"/>
<path d="M134 85H140.631V91.6527H134V85Z" fill="#F25022"/>
<path d="M141.323 85H147.954V91.6527H141.323V85Z" fill="#7FBA00"/>
<path d="M134 92.3473H140.631V99H134V92.3473Z" fill="#00A4EF"/>
<path d="M141.323 92.3473H147.954V99H141.323V92.3473Z" fill="#FFB900"/>
</g>
<g filter="url(#filter3_d_1_8084)">
<rect x="169" y="30" width="35" height="35" rx="6" fill="white"/>
</g>
<g clip-path="url(#clip1_1_8084)">
<path d="M184.632 48.4883C183.588 48.4883 182.741 49.335 182.741 50.379V55.1085C182.741 56.1525 183.588 56.9993 184.632 56.9993C185.676 56.9993 186.523 56.1525 186.523 55.1085V50.379C186.522 49.335 185.675 48.4883 184.632 48.4883Z" fill="#E91E63"/>
<path d="M178.014 50.3789C178.014 51.4237 178.862 52.2712 179.907 52.2712C180.951 52.2712 181.799 51.4237 181.799 50.3789V48.4867H179.908C179.907 48.4867 179.907 48.4867 179.907 48.4867C178.862 48.4867 178.014 49.3342 178.014 50.3789Z" fill="#E91E63"/>
<path d="M184.635 38.9993C184.634 38.9993 184.633 38.9993 184.632 38.9993C183.588 38.9993 182.74 39.8468 182.74 40.8915C182.74 41.9363 183.588 42.7838 184.632 42.7838H186.523V40.8915C186.523 40.8908 186.523 40.8893 186.523 40.8878C186.522 39.8445 185.677 38.9993 184.635 38.9993Z" fill="#36C5F0"/>
<path d="M179.894 47.5274H184.632C185.677 47.5274 186.525 46.6799 186.525 45.6352C186.525 44.5904 185.677 43.7429 184.632 43.7429H179.894C178.849 43.7429 178.002 44.5904 178.002 45.6352C178.002 46.6799 178.849 47.5274 179.894 47.5274Z" fill="#36C5F0"/>
<path d="M194.093 43.7423C193.05 43.7423 192.204 44.5876 192.204 45.6308V45.6346V47.5268H194.095C195.14 47.5268 195.987 46.6793 195.987 45.6346C195.987 44.5898 195.14 43.7423 194.095 43.7423C194.094 43.7423 194.094 43.7423 194.093 43.7423Z" fill="#4CAF50"/>
<path d="M187.481 40.8915V45.6352C187.481 46.6792 188.327 47.526 189.371 47.526C190.415 47.526 191.262 46.6792 191.262 45.6352V40.8915C191.262 39.8475 190.415 39.0007 189.371 39.0007C188.327 39.0007 187.481 39.8475 187.481 40.8915Z" fill="#4CAF50"/>
<path d="M191.261 55.1069C191.261 54.0629 190.415 53.2162 189.371 53.2162H187.48V55.1084C187.481 56.1517 188.327 56.9977 189.371 56.9977C190.415 56.9977 191.261 56.1509 191.261 55.1069Z" fill="#FF9800"/>
<path d="M194.109 48.4867H189.371C188.326 48.4867 187.479 49.3342 187.479 50.3789C187.479 51.4237 188.326 52.2712 189.371 52.2712H194.109C195.154 52.2712 196.002 51.4237 196.002 50.3789C196.002 49.3342 195.154 48.4867 194.109 48.4867Z" fill="#FF9800"/>
</g>
<g filter="url(#filter4_d_1_8084)">
<rect x="171" y="77" width="50" height="50" rx="6" fill="white"/>
</g>
<path d="M197.508 90.0159L197.499 95.3197L197.49 100.624L197.053 99.3923L197.053 99.39L196.489 111.198C197.043 112.763 197.34 113.599 197.343 113.603C197.348 113.607 197.664 113.626 198.046 113.645C199.202 113.702 200.636 113.825 201.723 113.961C201.975 113.992 202.192 114.008 202.205 113.996C202.218 113.984 202.225 108.584 202.22 101.995L202.212 90.0159H197.508Z" fill="#B1060F"/>
<path d="M189 90V101.992C189 108.587 189.006 113.99 189.014 113.998C189.022 114.006 189.431 113.967 189.922 113.912C190.413 113.857 191.092 113.789 191.431 113.76C191.95 113.716 193.501 113.616 193.68 113.615C193.733 113.615 193.736 113.346 193.743 108.536L193.751 103.457L194.127 104.519L194.259 104.894L194.823 93.089L194.629 92.5415C194.34 91.7232 194.05 90.905 193.761 90.0868L193.73 90H189Z" fill="#B1060F"/>
<path d="M189 90V96.7313L193.742 109.31C193.742 109.021 193.743 108.866 193.743 108.536L193.751 103.457L194.127 104.519C196.215 110.428 197.337 113.596 197.343 113.603C197.348 113.607 197.664 113.626 198.045 113.645C199.202 113.702 200.636 113.825 201.723 113.961C201.975 113.992 202.192 114.008 202.205 113.996C202.214 113.988 202.219 111.34 202.221 107.605L197.501 94.0357L197.499 95.3197L197.49 100.624L197.053 99.3924C196.627 98.1894 196.342 97.3848 194.629 92.5415C194.34 91.7232 194.05 90.905 193.761 90.0868L193.73 90H189Z" fill="url(#paint0_radial_1_8084)"/>
<path d="M189 90L193.752 103.463V103.457L194.127 104.519C196.215 110.428 197.337 113.596 197.344 113.603C197.348 113.607 197.664 113.626 198.046 113.645C199.203 113.702 200.636 113.825 201.723 113.961C201.974 113.992 202.189 114.008 202.205 113.996L197.49 100.621V100.624L197.054 99.3924C196.627 98.1894 196.342 97.3848 194.63 92.5415C194.169 91.2391 193.778 90.1347 193.761 90.0868L193.73 90H189Z" fill="#E50914"/>
<path d="M197.508 90.0159L197.499 95.3197L197.49 100.624L197.053 99.3923L197.053 99.39L196.489 111.198C197.043 112.763 197.34 113.599 197.343 113.603C197.348 113.607 197.664 113.626 198.046 113.645C199.202 113.702 200.636 113.825 201.723 113.961C201.975 113.992 202.192 114.008 202.205 113.996C202.218 113.984 202.225 108.584 202.22 101.995L202.212 90.0159H197.508Z" fill="#B1060F"/>
<path d="M189 90V101.992C189 108.587 189.006 113.99 189.014 113.998C189.022 114.006 189.431 113.967 189.922 113.912C190.413 113.857 191.092 113.789 191.431 113.76C191.95 113.716 193.501 113.616 193.68 113.615C193.733 113.615 193.736 113.346 193.743 108.536L193.751 103.457L194.127 104.519L194.259 104.894L194.823 93.089L194.629 92.5415C194.34 91.7232 194.05 90.905 193.761 90.0868L193.73 90H189Z" fill="#B1060F"/>
<path d="M189 90V96.7313L193.742 109.31C193.742 109.021 193.743 108.866 193.743 108.536L193.751 103.457L194.127 104.519C196.215 110.428 197.337 113.596 197.343 113.603C197.348 113.607 197.664 113.626 198.045 113.645C199.202 113.702 200.636 113.825 201.723 113.961C201.975 113.992 202.192 114.008 202.205 113.996C202.214 113.988 202.219 111.34 202.221 107.605L197.501 94.0357L197.499 95.3197L197.49 100.624L197.053 99.3924C196.627 98.1894 196.342 97.3848 194.629 92.5415C194.34 91.7232 194.05 90.905 193.761 90.0868L193.73 90H189Z" fill="url(#paint1_radial_1_8084)"/>
<path d="M189 90L193.752 103.463V103.457L194.127 104.519C196.215 110.428 197.337 113.596 197.344 113.603C197.348 113.607 197.664 113.626 198.046 113.645C199.203 113.702 200.636 113.825 201.723 113.961C201.974 113.992 202.189 114.008 202.205 113.996L197.49 100.621V100.624L197.054 99.3924C196.627 98.1894 196.342 97.3848 194.63 92.5415C194.169 91.2391 193.778 90.1347 193.761 90.0868L193.73 90H189Z" fill="#E50914"/>
<defs>
<filter id="filter0_d_1_8084" x="0" y="25" width="246" height="204" filterUnits="userSpaceOnUse" color-interpolation-filters="sRGB">
<feFlood flood-opacity="0" result="BackgroundImageFix"/>
<feColorMatrix in="SourceAlpha" type="matrix" values="0 0 0 0 0 0 0 0 0 0 0 0 0 0 0 0 0 0 127 0" result="hardAlpha"/>
<feMorphology radius="2" operator="erode" in="SourceAlpha" result="effect1_dropShadow_1_8084"/>
<feOffset dy="8"/>
<feGaussianBlur stdDeviation="20"/>
<feColorMatrix type="matrix" values="0 0 0 0 0.0235294 0 0 0 0 0.0470588 0 0 0 0 0.231373 0 0 0 0.08 0"/>
<feBlend mode="normal" in2="BackgroundImageFix" result="effect1_dropShadow_1_8084"/>
<feBlend mode="normal" in="SourceGraphic" in2="effect1_dropShadow_1_8084" result="shape"/>
</filter>
<filter id="filter1_d_1_8084" x="89" y="0" width="90" height="90" filterUnits="userSpaceOnUse" color-interpolation-filters="sRGB">
<feFlood flood-opacity="0" result="BackgroundImageFix"/>
<feColorMatrix in="SourceAlpha" type="matrix" values="0 0 0 0 0 0 0 0 0 0 0 0 0 0 0 0 0 0 127 0" result="hardAlpha"/>
<feOffset dy="6"/>
<feGaussianBlur stdDeviation="10"/>
<feColorMatrix type="matrix" values="0 0 0 0 0.11 0 0 0 0 0.14137 0 0 0 0 0.4125 0 0 0 0.05 0"/>
<feBlend mode="normal" in2="BackgroundImageFix" result="effect1_dropShadow_1_8084"/>
<feBlend mode="normal" in="SourceGraphic" in2="effect1_dropShadow_1_8084" result="shape"/>
</filter>
<filter id="filter2_d_1_8084" x="103" y="60" width="76" height="76" filterUnits="userSpaceOnUse" color-interpolation-filters="sRGB">
<feFlood flood-opacity="0" result="BackgroundImageFix"/>
<feColorMatrix in="SourceAlpha" type="matrix" values="0 0 0 0 0 0 0 0 0 0 0 0 0 0 0 0 0 0 127 0" result="hardAlpha"/>
<feOffset dy="6"/>
<feGaussianBlur stdDeviation="10"/>
<feColorMatrix type="matrix" values="0 0 0 0 0.11 0 0 0 0 0.14137 0 0 0 0 0.4125 0 0 0 0.05 0"/>
<feBlend mode="normal" in2="BackgroundImageFix" result="effect1_dropShadow_1_8084"/>
<feBlend mode="normal" in="SourceGraphic" in2="effect1_dropShadow_1_8084" result="shape"/>
</filter>
<filter id="filter3_d_1_8084" x="149" y="16" width="75" height="75" filterUnits="userSpaceOnUse" color-interpolation-filters="sRGB">
<feFlood flood-opacity="0" result="BackgroundImageFix"/>
<feColorMatrix in="SourceAlpha" type="matrix" values="0 0 0 0 0 0 0 0 0 0 0 0 0 0 0 0 0 0 127 0" result="hardAlpha"/>
<feOffset dy="6"/>
<feGaussianBlur stdDeviation="10"/>
<feColorMatrix type="matrix" values="0 0 0 0 0.11 0 0 0 0 0.14137 0 0 0 0 0.4125 0 0 0 0.05 0"/>
<feBlend mode="normal" in2="BackgroundImageFix" result="effect1_dropShadow_1_8084"/>
<feBlend mode="normal" in="SourceGraphic" in2="effect1_dropShadow_1_8084" result="shape"/>
</filter>
<filter id="filter4_d_1_8084" x="151" y="63" width="90" height="90" filterUnits="userSpaceOnUse" color-interpolation-filters="sRGB">
<feFlood flood-opacity="0" result="BackgroundImageFix"/>
<feColorMatrix in="SourceAlpha" type="matrix" values="0 0 0 0 0 0 0 0 0 0 0 0 0 0 0 0 0 0 127 0" result="hardAlpha"/>
<feOffset dy="6"/>
<feGaussianBlur stdDeviation="10"/>
<feColorMatrix type="matrix" values="0 0 0 0 0.11 0 0 0 0 0.14137 0 0 0 0 0.4125 0 0 0 0.05 0"/>
<feBlend mode="normal" in2="BackgroundImageFix" result="effect1_dropShadow_1_8084"/>
<feBlend mode="normal" in="SourceGraphic" in2="effect1_dropShadow_1_8084" result="shape"/>
</filter>
<radialGradient id="paint0_radial_1_8084" cx="0" cy="0" r="1" gradientUnits="userSpaceOnUse" gradientTransform="translate(195.391 94.0086) scale(9.31259 9.31268)">
<stop/>
<stop offset="1" stop-opacity="0"/>
</radialGradient>
<radialGradient id="paint1_radial_1_8084" cx="0" cy="0" r="1" gradientUnits="userSpaceOnUse" gradientTransform="translate(195.391 94.0086) scale(9.31259 9.31268)">
<stop/>
<stop offset="1" stop-opacity="0"/>
</radialGradient>
<clipPath id="clip0_1_8084">
<rect width="14" height="14" fill="white" transform="translate(134 85)"/>
</clipPath>
<clipPath id="clip1_1_8084">
<rect width="18" height="18" fill="white" transform="translate(178 39)"/>
</clipPath>
</defs>
</svg>
