<svg width="40" height="40" viewBox="0 0 40 40" fill="none" xmlns="http://www.w3.org/2000/svg">
<path d="M26.7925 3.33337H32.4358C34.7729 3.33337 36.6667 5.24313 36.6667 7.59998V13.2909C36.6667 15.6478 34.7729 17.5575 32.4358 17.5575H26.7925C24.4554 17.5575 22.5616 15.6478 22.5616 13.2909V7.59998C22.5616 5.24313 24.4554 3.33337 26.7925 3.33337Z" fill="#FFDC60"/>
<path d="M7.56425 22.4425H13.2075C15.5446 22.4425 17.4384 24.3523 17.4384 26.7091V32.4C17.4384 34.7553 15.5446 36.6667 13.2075 36.6667H7.56425C5.22713 36.6667 3.33337 34.7553 3.33337 32.4V26.7091C3.33337 24.3523 5.22713 22.4425 7.56425 22.4425Z" fill="#FFDC60"/>
<path fill-rule="evenodd" clip-rule="evenodd" d="M13.2075 3.33337H7.56425C5.22713 3.33337 3.33337 5.24313 3.33337 7.59998V13.2909C3.33337 15.6478 5.22713 17.5575 7.56425 17.5575H13.2075C15.5446 17.5575 17.4384 15.6478 17.4384 13.2909V7.59998C17.4384 5.24313 15.5446 3.33337 13.2075 3.33337ZM32.4358 22.4426H26.7926C24.4554 22.4426 22.5617 24.3523 22.5617 26.7092V32.4001C22.5617 34.7554 24.4554 36.6667 26.7926 36.6667H32.4358C34.773 36.6667 36.6667 34.7554 36.6667 32.4001V26.7092C36.6667 24.3523 34.773 22.4426 32.4358 22.4426Z" fill="#9374FF"/>
</svg>
