<svg width="364" height="359" viewBox="0 0 364 359" fill="none" xmlns="http://www.w3.org/2000/svg">
<path d="M64.8563 109.272L64.8563 22.0315L152.097 22.0315L152.097 109.272L64.8563 109.272Z" fill="#F4F1FF"/>
<path d="M201.835 303.015L201.835 194.134L310.716 194.134L310.716 303.015L201.835 303.015Z" fill="#F4F1FF"/>
<path d="M64.8563 232.769L64.8563 190.622L107.004 190.622L107.004 232.769L64.8563 232.769Z" fill="#F4F1FF"/>
<path d="M107.004 303.015L107.004 232.769L177.25 232.769L177.25 303.015L107.004 303.015Z" fill="#F4F1FF"/>
<path d="M142.127 190.621L142.127 155.498L177.249 155.498L177.249 190.621L142.127 190.621Z" fill="#F4F1FF"/>
<rect width="16.859" height="16.859" transform="matrix(-1 0 0 1 250.305 126.698)" fill="#F4F1FF"/>
<rect x="275.332" y="22.0315" width="35.1229" height="35.1229" fill="#F4F1FF"/>
<rect x="275.594" y="143.557" width="35.1229" height="35.1229" fill="#F4F1FF"/>
<rect x="233.446" y="57.1543" width="42.1474" height="42.1474" fill="#F4F1FF"/>
<path d="M266.181 28.7427H235.677V88.53" stroke="#6241D4" stroke-width="1.22015" stroke-linecap="round" stroke-linejoin="round" stroke-dasharray="2.44 3.05"/>
<path d="M110.612 45.2146H150.578V66.1619H214.325V94.0206" stroke="#6241D4" stroke-width="1.22015" stroke-linecap="round" stroke-linejoin="round" stroke-dasharray="2.44 3.05"/>
<g filter="url(#filter0_d_1_4146)">
<rect x="83.7687" y="84.2593" width="256.231" height="162.28" rx="3.66045" fill="white"/>
</g>
<rect x="83.7687" y="110.492" width="256.231" height="124.455" rx="3.66045" fill="#FFFAEC"/>
<g filter="url(#filter1_d_1_4146)">
<rect x="235.067" y="122.694" width="85.4104" height="56.1269" rx="3.66045" fill="white"/>
</g>
<line opacity="0.3" x1="278.077" y1="157.468" x2="278.077" y2="172.11" stroke="#B4B6C4" stroke-width="0.610075"/>
<path d="M278.697 130.818C276.869 130.43 274.966 130.63 273.259 131.39C271.553 132.149 270.13 133.43 269.196 135.048C268.262 136.666 267.864 138.538 268.06 140.396C268.255 142.253 269.033 144.002 270.283 145.39C271.533 146.778 273.191 147.735 275.018 148.124C276.845 148.512 278.749 148.312 280.455 147.552C282.162 146.792 283.584 145.512 284.518 143.894C285.452 142.276 285.85 140.404 285.655 138.546L276.857 139.471L278.697 130.818Z" fill="#9374FF"/>
<path d="M280.195 129.035C282.141 129.482 283.896 130.534 285.208 132.039C286.519 133.545 287.321 135.428 287.497 137.417L278.077 138.251L280.195 129.035Z" fill="#AAF9E1"/>
<path d="M250.827 156.693C251.208 156.693 251.547 156.773 251.843 156.932C252.145 157.091 252.378 157.316 252.543 157.607C252.714 157.891 252.8 158.222 252.8 158.598H251.963C251.963 158.245 251.86 157.965 251.655 157.761C251.45 157.556 251.174 157.453 250.827 157.453C250.622 157.453 250.431 157.504 250.254 157.607C250.084 157.709 249.947 157.849 249.844 158.025C249.742 158.196 249.691 158.384 249.691 158.589V159.511C250.044 159.136 250.485 158.948 251.015 158.948C251.356 158.948 251.669 159.027 251.954 159.187C252.244 159.346 252.472 159.566 252.637 159.845C252.808 160.118 252.894 160.42 252.894 160.75C252.894 161.137 252.808 161.482 252.637 161.783C252.467 162.079 252.227 162.31 251.92 162.475C251.612 162.64 251.265 162.723 250.878 162.723C250.491 162.723 250.143 162.64 249.836 162.475C249.528 162.304 249.286 162.068 249.11 161.766C248.939 161.459 248.854 161.114 248.854 160.733V158.666C248.854 158.313 248.942 157.985 249.118 157.684C249.295 157.376 249.534 157.134 249.836 156.958C250.143 156.781 250.474 156.693 250.827 156.693ZM250.878 159.708C250.542 159.708 250.26 159.816 250.032 160.032C249.805 160.243 249.691 160.511 249.691 160.835C249.691 161.16 249.805 161.43 250.032 161.647C250.26 161.857 250.542 161.963 250.878 161.963C251.214 161.963 251.493 161.86 251.715 161.655C251.943 161.445 252.057 161.171 252.057 160.835C252.057 160.499 251.943 160.229 251.715 160.024C251.493 159.813 251.214 159.708 250.878 159.708ZM256.133 156.693C256.543 156.693 256.89 156.775 257.175 156.941C257.459 157.106 257.673 157.319 257.815 157.581C257.958 157.843 258.029 158.119 258.029 158.41C258.029 158.82 257.946 159.156 257.781 159.417C257.616 159.679 257.351 159.95 256.987 160.229L255.355 161.476C255.224 161.567 255.122 161.65 255.048 161.724C254.98 161.792 254.945 161.843 254.945 161.877H258.054V162.637H254.032V162.432C254.032 162.142 254.1 161.866 254.237 161.604C254.379 161.336 254.575 161.109 254.826 160.921L256.526 159.64C256.765 159.446 256.936 159.255 257.038 159.067C257.14 158.879 257.192 158.672 257.192 158.444C257.192 158.273 257.149 158.114 257.064 157.965C256.978 157.812 256.853 157.689 256.688 157.598C256.523 157.501 256.323 157.453 256.09 157.453C255.851 157.453 255.637 157.504 255.449 157.607C255.267 157.709 255.125 157.846 255.022 158.017C254.92 158.188 254.869 158.375 254.869 158.58V158.7C254.869 158.746 254.871 158.78 254.877 158.803H254.04L254.032 158.717V158.649C254.032 158.319 254.106 158.005 254.254 157.709C254.402 157.407 254.632 157.163 254.945 156.975C255.259 156.787 255.654 156.693 256.133 156.693ZM263.753 156.778L260.2 162.637H259.602L263.172 156.778H263.753ZM260.038 156.787C260.34 156.787 260.587 156.886 260.781 157.086C260.975 157.279 261.071 157.524 261.071 157.82V158.734C261.071 159.03 260.972 159.278 260.772 159.477C260.579 159.671 260.334 159.768 260.038 159.768H259.978C259.682 159.768 259.434 159.671 259.235 159.477C259.041 159.278 258.945 159.03 258.945 158.734V157.82C258.945 157.524 259.041 157.279 259.235 157.086C259.429 156.886 259.676 156.787 259.978 156.787H260.038ZM260.012 157.257C259.853 157.257 259.725 157.305 259.628 157.402C259.537 157.493 259.491 157.612 259.491 157.761V158.794C259.491 158.942 259.537 159.064 259.628 159.161C259.725 159.252 259.853 159.298 260.012 159.298C260.172 159.298 260.297 159.252 260.388 159.161C260.479 159.064 260.525 158.942 260.525 158.794V157.761C260.525 157.612 260.479 157.493 260.388 157.402C260.297 157.305 260.172 157.257 260.012 157.257ZM263.369 159.665C263.665 159.665 263.91 159.765 264.103 159.964C264.303 160.158 264.402 160.403 264.402 160.699V161.613C264.402 161.909 264.306 162.156 264.112 162.356C263.918 162.549 263.671 162.646 263.369 162.646H263.309C263.007 162.646 262.76 162.549 262.566 162.356C262.372 162.156 262.276 161.909 262.276 161.613V160.699C262.276 160.403 262.372 160.158 262.566 159.964C262.765 159.765 263.013 159.665 263.309 159.665H263.369ZM263.343 160.135C263.184 160.135 263.056 160.183 262.959 160.28C262.868 160.371 262.822 160.491 262.822 160.639V161.672C262.822 161.82 262.868 161.943 262.959 162.04C263.056 162.131 263.184 162.176 263.343 162.176C263.503 162.176 263.628 162.131 263.719 162.04C263.81 161.943 263.856 161.82 263.856 161.672V160.639C263.856 160.491 263.81 160.371 263.719 160.28C263.628 160.183 263.503 160.135 263.343 160.135Z" fill="#060C3C"/>
<path d="M255.126 167.824V172.009H254.528V168.526H254.491L253.045 172.009H252.539L251.099 168.526H251.069V172.009H250.526V167.824H251.465L252.814 171.118H252.838L254.192 167.824H255.126ZM257.423 168.831C257.833 168.831 258.138 168.912 258.338 169.075C258.541 169.237 258.643 169.473 258.643 169.782V171.399C258.643 171.472 258.659 171.527 258.692 171.564C258.724 171.596 258.765 171.612 258.814 171.612C258.907 171.612 259.001 171.584 259.094 171.527V171.948C258.956 172.029 258.799 172.07 258.624 172.07C258.45 172.07 258.319 172.021 258.234 171.924C258.149 171.822 258.102 171.684 258.094 171.509C257.842 171.883 257.477 172.07 257.002 172.07C256.66 172.07 256.404 171.997 256.233 171.85C256.066 171.7 255.983 171.464 255.983 171.143C255.983 170.891 256.048 170.693 256.178 170.551C256.308 170.405 256.524 170.299 256.825 170.234C257.126 170.169 257.541 170.136 258.069 170.136V169.849C258.069 169.642 258.008 169.498 257.886 169.416C257.764 169.331 257.587 169.288 257.355 169.288C257.136 169.288 256.965 169.331 256.843 169.416C256.721 169.502 256.66 169.622 256.66 169.776V169.849H256.099C256.091 169.792 256.087 169.725 256.087 169.648C256.087 169.506 256.143 169.371 256.257 169.245C256.371 169.119 256.526 169.02 256.721 168.946C256.916 168.869 257.132 168.831 257.368 168.831H257.423ZM258.069 170.581C257.642 170.581 257.319 170.604 257.099 170.649C256.884 170.689 256.739 170.752 256.666 170.838C256.593 170.923 256.556 171.041 256.556 171.192C256.556 171.472 256.77 171.612 257.197 171.612C257.347 171.612 257.49 171.576 257.624 171.503C257.758 171.425 257.866 171.318 257.947 171.179C258.029 171.041 258.069 170.882 258.069 170.703V170.581ZM261.302 168.831C261.644 168.831 261.913 168.922 262.108 169.105C262.303 169.288 262.401 169.557 262.401 169.91V172.009H261.827V170.014C261.827 169.53 261.607 169.288 261.168 169.288C261.022 169.288 260.886 169.327 260.759 169.404C260.633 169.481 260.532 169.587 260.454 169.721C260.377 169.851 260.339 169.996 260.339 170.154V172.009H259.765V168.892H260.18L260.259 169.349C260.519 169.003 260.867 168.831 261.302 168.831Z" fill="#5D6180"/>
<path d="M294.125 156.693C294.495 156.693 294.825 156.761 295.116 156.898C295.406 157.035 295.631 157.226 295.791 157.47C295.95 157.71 296.03 157.98 296.03 158.282C296.03 158.606 295.947 158.874 295.782 159.085C295.623 159.29 295.395 159.46 295.099 159.597L295.107 159.623C295.432 159.725 295.688 159.899 295.876 160.144C296.07 160.383 296.166 160.69 296.166 161.066C296.166 161.385 296.078 161.67 295.902 161.92C295.725 162.171 295.48 162.367 295.167 162.51C294.854 162.652 294.507 162.723 294.125 162.723H294.023C293.402 162.723 292.906 162.569 292.536 162.262C292.172 161.949 291.99 161.522 291.99 160.981V160.912H292.827V161.006C292.827 161.32 292.932 161.559 293.143 161.724C293.353 161.883 293.655 161.963 294.048 161.963C294.452 161.963 294.766 161.883 294.988 161.724C295.215 161.559 295.329 161.311 295.329 160.981C295.329 160.354 294.891 160.041 294.014 160.041H293.373V159.273H294.031C294.378 159.273 294.657 159.193 294.868 159.033C295.084 158.874 295.193 158.646 295.193 158.35C295.193 158.06 295.087 157.838 294.877 157.684C294.672 157.53 294.395 157.453 294.048 157.453C293.724 157.453 293.462 157.533 293.262 157.692C293.063 157.852 292.963 158.074 292.963 158.359V158.436H292.126V158.282C292.126 157.969 292.209 157.692 292.374 157.453C292.545 157.208 292.776 157.021 293.066 156.89C293.362 156.759 293.689 156.693 294.048 156.693H294.125ZM299.371 156.693C299.929 156.693 300.376 156.841 300.712 157.137C301.054 157.433 301.225 157.829 301.225 158.324C301.225 158.632 301.159 158.882 301.028 159.076C300.903 159.27 300.704 159.449 300.43 159.614V159.648C300.755 159.796 301 159.979 301.165 160.195C301.336 160.411 301.421 160.699 301.421 161.058C301.421 161.581 301.242 161.991 300.883 162.288C300.53 162.578 300.026 162.723 299.371 162.723C298.745 162.723 298.247 162.578 297.877 162.288C297.506 161.991 297.321 161.581 297.321 161.058C297.321 160.699 297.407 160.408 297.578 160.186C297.748 159.959 297.993 159.779 298.312 159.648V159.614C297.999 159.421 297.788 159.23 297.68 159.042C297.572 158.854 297.518 158.632 297.518 158.376C297.518 157.829 297.689 157.413 298.03 157.129C298.372 156.838 298.819 156.693 299.371 156.693ZM299.371 157.453C299.064 157.453 298.816 157.539 298.628 157.71C298.446 157.88 298.355 158.097 298.355 158.359C298.355 158.621 298.446 158.837 298.628 159.008C298.816 159.179 299.064 159.264 299.371 159.264C299.679 159.264 299.924 159.179 300.106 159.008C300.294 158.837 300.388 158.621 300.388 158.359C300.388 158.097 300.294 157.88 300.106 157.71C299.924 157.539 299.679 157.453 299.371 157.453ZM299.371 160.024C298.813 160.024 298.44 160.206 298.252 160.571C298.19 160.707 298.158 160.85 298.158 160.998C298.158 161.317 298.272 161.559 298.5 161.724C298.728 161.883 299.018 161.963 299.371 161.963C299.73 161.963 300.02 161.88 300.242 161.715C300.47 161.544 300.584 161.305 300.584 160.998C300.584 160.696 300.473 160.46 300.251 160.289C300.035 160.112 299.741 160.024 299.371 160.024ZM307.069 156.779L303.516 162.638H302.918L306.488 156.779H307.069ZM303.353 156.787C303.655 156.787 303.903 156.887 304.096 157.086C304.29 157.28 304.387 157.524 304.387 157.821V158.734C304.387 159.031 304.287 159.278 304.088 159.478C303.894 159.671 303.649 159.768 303.353 159.768H303.294C302.997 159.768 302.75 159.671 302.55 159.478C302.357 159.278 302.26 159.031 302.26 158.734V157.821C302.26 157.524 302.357 157.28 302.55 157.086C302.744 156.887 302.992 156.787 303.294 156.787H303.353ZM303.328 157.257C303.168 157.257 303.04 157.305 302.943 157.402C302.852 157.493 302.807 157.613 302.807 157.761V158.794C302.807 158.942 302.852 159.065 302.943 159.161C303.04 159.253 303.168 159.298 303.328 159.298C303.487 159.298 303.612 159.253 303.704 159.161C303.795 159.065 303.84 158.942 303.84 158.794V157.761C303.84 157.613 303.795 157.493 303.704 157.402C303.612 157.305 303.487 157.257 303.328 157.257ZM306.684 159.665C306.98 159.665 307.225 159.765 307.419 159.964C307.618 160.158 307.718 160.403 307.718 160.699V161.613C307.718 161.909 307.621 162.157 307.427 162.356C307.234 162.549 306.986 162.646 306.684 162.646H306.625C306.323 162.646 306.075 162.549 305.881 162.356C305.688 162.157 305.591 161.909 305.591 161.613V160.699C305.591 160.403 305.688 160.158 305.881 159.964C306.081 159.765 306.328 159.665 306.625 159.665H306.684ZM306.659 160.135C306.499 160.135 306.371 160.184 306.274 160.28C306.183 160.371 306.138 160.491 306.138 160.639V161.673C306.138 161.821 306.183 161.943 306.274 162.04C306.371 162.131 306.499 162.176 306.659 162.176C306.818 162.176 306.943 162.131 307.035 162.04C307.126 161.943 307.171 161.821 307.171 161.673V160.639C307.171 160.491 307.126 160.371 307.035 160.28C306.943 160.184 306.818 160.135 306.659 160.135Z" fill="#060C3C"/>
<path d="M294.932 167.824L293.706 172.009H293.096L292.242 168.983H292.199L291.315 172.009H290.705L289.509 167.824H290.149L291.034 170.978H291.071L291.961 167.824H292.541L293.425 170.978H293.462L294.353 167.824H294.932ZM296.608 168.831C297.043 168.831 297.391 168.965 297.651 169.233C297.911 169.502 298.041 169.87 298.041 170.337V170.563C298.041 171.031 297.913 171.399 297.657 171.667C297.401 171.936 297.051 172.07 296.608 172.07C296.164 172.07 295.815 171.936 295.558 171.667C295.302 171.399 295.174 171.031 295.174 170.563V170.337C295.174 169.87 295.304 169.502 295.565 169.233C295.825 168.965 296.173 168.831 296.608 168.831ZM296.608 169.288C296.335 169.288 296.124 169.382 295.973 169.569C295.823 169.756 295.748 170.03 295.748 170.392V170.508C295.748 170.862 295.821 171.135 295.967 171.326C296.118 171.517 296.331 171.612 296.608 171.612C296.876 171.612 297.086 171.519 297.236 171.332C297.391 171.141 297.468 170.866 297.468 170.508V170.392C297.468 170.038 297.393 169.766 297.242 169.575C297.096 169.384 296.884 169.288 296.608 169.288ZM302.155 168.831C302.476 168.831 302.726 168.924 302.905 169.111C303.084 169.298 303.173 169.565 303.173 169.91V172.009H302.6V170.014C302.6 169.53 302.413 169.288 302.039 169.288C301.909 169.288 301.787 169.327 301.673 169.404C301.563 169.481 301.473 169.587 301.404 169.721C301.339 169.851 301.307 169.996 301.307 170.154V172.009H300.733V170.014C300.733 169.53 300.546 169.288 300.172 169.288C300.042 169.288 299.92 169.327 299.806 169.404C299.696 169.481 299.607 169.587 299.537 169.721C299.472 169.851 299.44 169.996 299.44 170.154V172.009H298.866V168.892H299.281L299.361 169.349C299.596 169.003 299.924 168.831 300.343 168.831C300.754 168.831 301.038 169.003 301.197 169.349C301.335 169.154 301.484 169.02 301.642 168.946C301.801 168.869 301.972 168.831 302.155 168.831ZM305.407 168.831C305.664 168.831 305.889 168.885 306.085 168.995C306.284 169.101 306.439 169.254 306.548 169.453C306.658 169.652 306.713 169.884 306.713 170.148V170.581H304.535C304.543 170.911 304.62 171.165 304.767 171.344C304.913 171.523 305.131 171.612 305.42 171.612C305.676 171.612 305.865 171.537 305.987 171.387C306.109 171.236 306.17 171.057 306.17 170.85H306.713C306.713 171.094 306.656 171.307 306.542 171.49C306.432 171.673 306.278 171.816 306.079 171.918C305.883 172.019 305.66 172.07 305.407 172.07H305.383C304.944 172.07 304.596 171.93 304.34 171.649C304.088 171.364 303.962 170.986 303.962 170.514V170.392C303.962 170.083 304.019 169.811 304.132 169.575C304.246 169.339 304.409 169.156 304.62 169.026C304.832 168.896 305.08 168.831 305.365 168.831H305.407ZM305.377 169.288C305.145 169.288 304.956 169.359 304.81 169.502C304.667 169.644 304.58 169.855 304.547 170.136H306.146V170.063C306.146 169.831 306.075 169.644 305.932 169.502C305.794 169.359 305.609 169.288 305.377 169.288ZM309.084 168.831C309.426 168.831 309.694 168.922 309.889 169.105C310.085 169.288 310.182 169.557 310.182 169.91V172.009H309.609V170.014C309.609 169.53 309.389 169.288 308.95 169.288C308.804 169.288 308.667 169.327 308.541 169.404C308.415 169.481 308.313 169.587 308.236 169.721C308.159 169.851 308.12 169.996 308.12 170.154V172.009H307.547V168.892H307.962L308.041 169.349C308.301 169.003 308.649 168.831 309.084 168.831Z" fill="#5D6180"/>
<g filter="url(#filter2_d_1_4146)">
<rect x="235.067" y="191.632" width="85.4104" height="28.0634" rx="3.66045" fill="white"/>
</g>
<rect x="241.168" y="199.563" width="73.209" height="3.66045" rx="1.83022" fill="#B4B6C4"/>
<rect x="241.168" y="208.104" width="73.209" height="3.66045" rx="1.83022" fill="#B4B6C4"/>
<rect x="124.034" y="206.884" width="98.8321" height="3.66045" rx="1.83022" fill="#B4B6C4"/>
<rect x="103.291" y="206.884" width="14.6418" height="3.66045" rx="1.83022" fill="#B4B6C4"/>
<rect x="124.034" y="215.425" width="98.8321" height="3.66045" rx="1.83022" fill="#B4B6C4"/>
<rect x="103.291" y="215.425" width="14.6418" height="3.66045" rx="1.83022" fill="#B4B6C4"/>
<g filter="url(#filter3_d_1_4146)">
<rect x="103.291" y="122.694" width="119.575" height="68.9384" rx="3.66045" fill="white"/>
</g>
<line opacity="0.3" x1="112.747" y1="181.566" x2="212.189" y2="181.566" stroke="#B4B6C4" stroke-width="0.610075" stroke-linecap="round"/>
<line opacity="0.2" x1="112.747" y1="169.212" x2="212.189" y2="169.212" stroke="#B4B6C4" stroke-width="0.610075" stroke-linecap="round"/>
<line opacity="0.2" x1="112.747" y1="156.858" x2="212.189" y2="156.858" stroke="#B4B6C4" stroke-width="0.610075" stroke-linecap="round"/>
<line opacity="0.2" x1="112.747" y1="144.504" x2="212.189" y2="144.504" stroke="#B4B6C4" stroke-width="0.610075" stroke-linecap="round"/>
<line opacity="0.2" x1="112.747" y1="132.15" x2="212.189" y2="132.15" stroke="#B4B6C4" stroke-width="0.610075" stroke-linecap="round"/>
<path opacity="0.4" d="M126.303 171.249C122.396 171.249 116.139 171.694 113.052 181.871H212.494V132.455C208.747 132.455 201.876 144.39 197.897 144.39C194.231 144.39 191.302 149.473 189.799 149.473C188.44 149.473 185.906 145.274 184.886 145.274C183.867 145.274 184.108 156.47 182.069 156.47C180.71 156.47 179.11 149.473 176.902 149.473C174.693 149.473 173.067 157.88 171.21 157.88C166.284 157.88 166.708 167.554 163.481 167.554C160.762 167.554 162.49 152.314 159.432 152.314C155.524 152.314 156.345 142.18 153.797 142.18C150.569 142.18 154.024 157.88 148.757 157.88C144.51 157.88 143.496 163.369 141.211 163.398C138.926 163.427 135.789 157.88 133.75 157.88C130.692 157.88 129.701 171.249 126.303 171.249Z" fill="url(#paint0_linear_1_4146)"/>
<path d="M113.662 181.871C116.748 171.694 123.006 171.249 126.913 171.249C130.311 171.249 131.302 157.88 134.36 157.88C136.399 157.88 139.536 163.427 141.821 163.398C144.106 163.369 145.12 157.88 149.367 157.88C154.634 157.88 151.179 142.18 154.407 142.18C156.955 142.18 156.134 152.314 160.042 152.314C163.1 152.314 161.372 167.554 164.091 167.554C167.318 167.554 166.894 157.88 171.82 157.88C173.677 157.88 175.303 149.473 177.512 149.473C179.72 149.473 181.32 156.47 182.679 156.47C184.718 156.47 184.477 145.274 185.496 145.274C186.516 145.274 189.05 149.473 190.409 149.473C191.912 149.473 194.841 144.39 198.507 144.39C202.486 144.39 208.747 132.455 212.494 132.455" stroke="#6241D4" stroke-width="1.22015" stroke-linecap="round" stroke-linejoin="round"/>
<circle cx="144.776" cy="161.129" r="2.4403" fill="#6241D4"/>
<path d="M145.167 155.923C144.94 156.111 144.612 156.111 144.385 155.923L140.044 152.305C139.167 151.574 139.684 150.147 140.825 150.147L148.727 150.147C149.868 150.147 150.385 151.574 149.508 152.305L145.167 155.923Z" fill="#9374FF"/>
<rect x="123.423" y="133.065" width="42.7052" height="20.7425" rx="2.4403" fill="#9374FF"/>
<rect opacity="0.4" x="128.304" y="147.707" width="17.0821" height="1.83022" rx="0.915112" fill="white"/>
<path d="M131.447 137.781C131.288 138.35 131.009 139.022 130.61 139.796C130.212 140.565 129.85 141.14 129.525 141.522H131.49V139.822C131.683 139.441 131.837 139.051 131.951 138.652H132.327V141.522H133.07V142.282H132.327V143.725H131.49V142.282H128.731V141.513C129.506 140.352 130.112 139.107 130.55 137.781H131.447ZM136.232 137.781C136.591 137.781 136.918 137.866 137.214 138.037C137.516 138.208 137.755 138.444 137.932 138.746C138.108 139.048 138.197 139.386 138.197 139.762V141.838C138.197 142.208 138.111 142.544 137.94 142.846C137.77 143.142 137.533 143.378 137.231 143.555C136.935 143.725 136.602 143.811 136.232 143.811H136.121C135.745 143.811 135.407 143.725 135.105 143.555C134.809 143.378 134.578 143.139 134.413 142.837C134.248 142.535 134.165 142.202 134.165 141.838V139.762C134.165 139.381 134.251 139.039 134.421 138.737C134.598 138.436 134.834 138.202 135.13 138.037C135.426 137.866 135.757 137.781 136.121 137.781H136.232ZM136.181 138.541C135.851 138.541 135.572 138.652 135.344 138.874C135.116 139.09 135.002 139.364 135.002 139.694V141.898C135.002 142.228 135.116 142.504 135.344 142.726C135.572 142.942 135.851 143.051 136.181 143.051C136.523 143.051 136.804 142.94 137.026 142.717C137.249 142.495 137.36 142.222 137.36 141.898V139.694C137.36 139.369 137.249 139.096 137.026 138.874C136.804 138.652 136.523 138.541 136.181 138.541ZM143.878 137.866L140.325 143.725H139.727L143.298 137.866H143.878ZM140.163 137.875C140.465 137.875 140.713 137.974 140.906 138.174C141.1 138.367 141.197 138.612 141.197 138.908V139.822C141.197 140.118 141.097 140.366 140.898 140.565C140.704 140.759 140.459 140.856 140.163 140.856H140.103C139.807 140.856 139.559 140.759 139.36 140.565C139.167 140.366 139.07 140.118 139.07 139.822V138.908C139.07 138.612 139.167 138.367 139.36 138.174C139.554 137.974 139.801 137.875 140.103 137.875H140.163ZM140.137 138.344C139.978 138.344 139.85 138.393 139.753 138.49C139.662 138.581 139.616 138.7 139.616 138.848V139.882C139.616 140.03 139.662 140.152 139.753 140.249C139.85 140.34 139.978 140.386 140.137 140.386C140.297 140.386 140.422 140.34 140.513 140.249C140.604 140.152 140.65 140.03 140.65 139.882V138.848C140.65 138.7 140.604 138.581 140.513 138.49C140.422 138.393 140.297 138.344 140.137 138.344ZM143.494 140.753C143.79 140.753 144.035 140.853 144.229 141.052C144.428 141.246 144.528 141.49 144.528 141.787V142.7C144.528 142.997 144.431 143.244 144.237 143.443C144.044 143.637 143.796 143.734 143.494 143.734H143.434C143.132 143.734 142.885 143.637 142.691 143.443C142.498 143.244 142.401 142.997 142.401 142.7V141.787C142.401 141.49 142.498 141.246 142.691 141.052C142.89 140.853 143.138 140.753 143.434 140.753H143.494ZM143.468 141.223C143.309 141.223 143.181 141.271 143.084 141.368C142.993 141.459 142.947 141.579 142.947 141.727V142.76C142.947 142.908 142.993 143.031 143.084 143.127C143.181 143.219 143.309 143.264 143.468 143.264C143.628 143.264 143.753 143.219 143.844 143.127C143.935 143.031 143.981 142.908 143.981 142.76V141.727C143.981 141.579 143.935 141.459 143.844 141.368C143.753 141.271 143.628 141.223 143.468 141.223Z" fill="white"/>
<circle cx="156.978" cy="142.826" r="4.27052" fill="white"/>
<path d="M157.291 141.754C157.13 141.582 156.825 141.582 156.664 141.754L155.066 143.461C154.853 143.689 155.041 144.027 155.379 144.027L158.576 144.027C158.914 144.027 159.102 143.689 158.889 143.461L157.291 141.754Z" fill="#38E7B2"/>
<circle cx="99.0206" cy="97.6805" r="3.05037" fill="#D280FF"/>
<circle cx="112.442" cy="97.6805" r="3.05037" fill="#FFDC60"/>
<circle cx="125.864" cy="97.6805" r="3.05037" fill="#38E7B2"/>
<g filter="url(#filter4_d_1_4146)">
<rect x="72.2349" y="28.0662" width="36.6045" height="36.6045" rx="3.66045" fill="white"/>
</g>
<g clip-path="url(#clip0_1_4146)">
<path d="M96.4199 38.5247H84.6542C83.5724 38.5247 82.6932 39.4038 82.6932 40.4856V52.2513C82.6932 53.3325 83.5724 54.2123 84.6542 54.2123H96.4199C97.5011 54.2123 98.3809 53.3325 98.3809 52.2513V40.4856C98.3809 39.4038 97.5011 38.5247 96.4199 38.5247Z" fill="#3B5999"/>
<path d="M93.4784 46.3684V44.4075C93.4784 43.8663 93.9177 43.9173 94.4589 43.9173H95.4394V41.4661H93.4784C91.8535 41.4661 90.537 42.7825 90.537 44.4075V46.3684H88.576V48.8196H90.537V54.2123H93.4784V48.8196H94.9492L95.9296 46.3684H93.4784Z" fill="white"/>
</g>
<g filter="url(#filter5_d_1_4146)">
<rect x="266.181" y="8.60986" width="42.7052" height="42.7052" rx="3.66045" fill="white"/>
</g>
<g clip-path="url(#clip1_1_4146)">
<path d="M296.032 26.1805C296.032 25.9874 296.024 25.7997 296.016 25.6147C296.884 24.9981 297.614 24.2285 298.21 23.3424V23.3415C297.415 23.6894 296.57 23.9207 295.687 24.0328C296.595 23.491 297.288 22.6395 297.613 21.6137C296.767 22.1182 295.833 22.474 294.838 22.6733C294.034 21.8175 292.889 21.2881 291.64 21.2881C289.217 21.2881 287.265 23.2552 287.265 25.6663C287.265 26.0132 287.295 26.3469 287.367 26.6645C283.728 26.4866 280.507 24.7428 278.344 22.0852C277.966 22.741 277.744 23.491 277.744 24.2979C277.744 25.8139 278.524 27.1574 279.689 27.9359C278.985 27.9225 278.296 27.7179 277.711 27.3967V27.4448C277.711 29.572 279.228 31.3389 281.218 31.7464C280.549 31.9297 279.725 31.9226 279.242 31.8158C279.809 33.5489 281.419 34.8239 283.332 34.8657C281.843 36.0303 279.951 36.7323 277.904 36.7323C277.546 36.7323 277.201 36.7162 276.857 36.6726C278.796 37.9227 281.094 38.6371 283.572 38.6371C291.628 38.6371 296.032 31.9644 296.032 26.1805Z" fill="#55ACEE"/>
</g>
<path d="M43.1721 160.87H84.0867" stroke="#6241D4" stroke-width="0.915112" stroke-linecap="round" stroke-linejoin="round" stroke-dasharray="2.44 3.05"/>
<g filter="url(#filter6_d_1_4146)">
<rect x="224.086" y="281.923" width="61.0075" height="61.0075" rx="3.66045" fill="white"/>
</g>
<g clip-path="url(#clip2_1_4146)">
<path d="M249.908 313.393C247.844 313.393 246.17 315.067 246.17 317.131V326.481C246.17 328.546 247.844 330.22 249.908 330.22C251.972 330.22 253.646 328.546 253.646 326.481V317.131C253.645 315.067 251.971 313.393 249.908 313.393Z" fill="#E91E63"/>
<path d="M236.824 317.13C236.824 319.196 238.499 320.871 240.565 320.871C242.63 320.871 244.306 319.196 244.306 317.13V313.389H240.568C240.566 313.389 240.566 313.389 240.565 313.389C238.499 313.389 236.824 315.065 236.824 317.13Z" fill="#E91E63"/>
<path d="M249.913 294.632C249.911 294.632 249.91 294.632 249.908 294.632C247.843 294.632 246.167 296.307 246.167 298.373C246.167 300.438 247.843 302.114 249.908 302.114H253.646V298.373C253.646 298.371 253.646 298.368 253.646 298.365C253.645 296.303 251.974 294.632 249.913 294.632Z" fill="#36C5F0"/>
<path d="M240.54 311.493H249.908C251.974 311.493 253.649 309.817 253.649 307.752C253.649 305.686 251.974 304.01 249.908 304.01H240.54C238.474 304.01 236.799 305.686 236.799 307.752C236.799 309.817 238.474 311.493 240.54 311.493Z" fill="#36C5F0"/>
<path d="M268.612 304.009C266.55 304.009 264.879 305.68 264.879 307.743V307.75V311.491H268.617C270.682 311.491 272.358 309.816 272.358 307.75C272.358 305.684 270.682 304.009 268.617 304.009C268.615 304.009 268.614 304.009 268.612 304.009Z" fill="#4CAF50"/>
<path d="M255.54 298.373V307.752C255.54 309.816 257.214 311.49 259.278 311.49C261.342 311.49 263.016 309.816 263.016 307.752V298.373C263.016 296.309 261.342 294.635 259.278 294.635C257.214 294.635 255.54 296.309 255.54 298.373Z" fill="#4CAF50"/>
<path d="M263.015 326.478C263.015 324.414 261.341 322.74 259.277 322.74H255.539V326.481C255.54 328.543 257.213 330.216 259.277 330.216C261.341 330.216 263.015 328.542 263.015 326.478Z" fill="#FF9800"/>
<path d="M268.645 313.389H259.277C257.211 313.389 255.535 315.065 255.535 317.13C255.535 319.196 257.211 320.871 259.277 320.871H268.645C270.711 320.871 272.386 319.196 272.386 317.13C272.386 315.065 270.711 313.389 268.645 313.389Z" fill="#FF9800"/>
</g>
<g filter="url(#filter7_d_1_4146)">
<rect x="13" y="259.96" width="52.4664" height="52.4664" rx="3.66045" fill="white"/>
</g>
<g clip-path="url(#clip3_1_4146)">
<path d="M27.7551 274.862C25.6936 277.003 26.1155 279.278 26.1155 286.188C26.1155 291.927 25.1142 297.679 30.3543 299.034C31.9906 299.454 46.4888 299.454 48.123 299.031C50.3047 298.468 52.0798 296.699 52.3225 293.613C52.3563 293.182 52.3563 279.201 52.3214 278.762C52.0634 275.475 50.0402 273.581 47.3742 273.197C46.7632 273.109 46.6408 273.082 43.5059 273.077C32.3863 273.082 29.9488 272.587 27.7551 274.862Z" fill="url(#paint1_linear_1_4146)"/>
<path d="M39.2312 276.509C35.2623 276.509 31.4934 276.156 30.0539 279.85C29.4593 281.376 29.5456 283.358 29.5456 286.195C29.5456 288.685 29.4658 291.025 30.0539 292.539C31.4902 296.236 35.2896 295.882 39.229 295.882C43.0295 295.882 46.9481 296.278 48.4051 292.539C49.0008 290.998 48.9134 289.046 48.9134 286.195C48.9134 282.411 49.1222 279.968 47.2869 278.134C45.4287 276.276 42.9158 276.509 39.2268 276.509H39.2312ZM38.3633 278.254C46.642 278.241 47.6957 277.321 47.1142 290.106C46.9076 294.628 43.4645 294.132 39.2322 294.132C31.5153 294.132 31.2934 293.911 31.2934 286.191C31.2934 278.381 31.9055 278.259 38.3633 278.252V278.254ZM44.4013 279.862C43.7597 279.862 43.2394 280.382 43.2394 281.024C43.2394 281.666 43.7597 282.186 44.4013 282.186C45.0429 282.186 45.5632 281.666 45.5632 281.024C45.5632 280.382 45.0429 279.862 44.4013 279.862ZM39.2312 281.221C36.4843 281.221 34.2578 283.448 34.2578 286.195C34.2578 288.942 36.4843 291.169 39.2312 291.169C41.978 291.169 44.2034 288.942 44.2034 286.195C44.2034 283.448 41.978 281.221 39.2312 281.221ZM39.2312 282.966C43.4995 282.966 43.505 289.424 39.2312 289.424C34.9639 289.424 34.9573 282.966 39.2312 282.966Z" fill="white"/>
</g>
<g filter="url(#filter8_d_1_4146)">
<rect x="13" y="139.776" width="42.7052" height="42.7052" rx="3.66045" fill="white"/>
</g>
<g clip-path="url(#clip4_1_4146)">
<path d="M42.3558 169.136V169.135H42.3598V163.262C42.3598 160.388 41.7412 158.175 38.3822 158.175C36.7674 158.175 35.6838 159.061 35.2414 159.901H35.1946V158.443H32.0098V169.135H35.3261V163.841C35.3261 162.447 35.5903 161.099 37.3166 161.099C39.0174 161.099 39.0428 162.69 39.0428 163.93V169.136H42.3558Z" fill="#0077B5"/>
<path d="M26.6095 158.444H29.9298V169.136H26.6095V158.444Z" fill="#0077B5"/>
<path d="M28.2684 153.121C27.2068 153.121 26.3453 153.983 26.3453 155.044C26.3453 156.106 27.2068 156.985 28.2684 156.985C29.33 156.985 30.1915 156.106 30.1915 155.044C30.1908 153.983 29.3294 153.121 28.2684 153.121V153.121Z" fill="#0077B5"/>
</g>
<path d="M62.7211 286.274H126.779V269.722H171.619V247.454" stroke="#6241D4" stroke-width="1.22015" stroke-linecap="round" stroke-linejoin="round" stroke-dasharray="2.44 3.05"/>
<path d="M256.42 247.759L256.42 281.923" stroke="#6241D4" stroke-width="1.22015" stroke-dasharray="2.44 3.05"/>
<defs>
<filter id="filter0_d_1_4146" x="60.5858" y="65.957" width="302.597" height="208.645" filterUnits="userSpaceOnUse" color-interpolation-filters="sRGB">
<feFlood flood-opacity="0" result="BackgroundImageFix"/>
<feColorMatrix in="SourceAlpha" type="matrix" values="0 0 0 0 0 0 0 0 0 0 0 0 0 0 0 0 0 0 127 0" result="hardAlpha"/>
<feMorphology radius="1.22015" operator="erode" in="SourceAlpha" result="effect1_dropShadow_1_4146"/>
<feOffset dy="4.8806"/>
<feGaussianBlur stdDeviation="12.2015"/>
<feColorMatrix type="matrix" values="0 0 0 0 0.0235294 0 0 0 0 0.0470588 0 0 0 0 0.231373 0 0 0 0.08 0"/>
<feBlend mode="normal" in2="BackgroundImageFix" result="effect1_dropShadow_1_4146"/>
<feBlend mode="normal" in="SourceGraphic" in2="effect1_dropShadow_1_4146" result="shape"/>
</filter>
<filter id="filter1_d_1_4146" x="222.866" y="114.153" width="109.813" height="80.5299" filterUnits="userSpaceOnUse" color-interpolation-filters="sRGB">
<feFlood flood-opacity="0" result="BackgroundImageFix"/>
<feColorMatrix in="SourceAlpha" type="matrix" values="0 0 0 0 0 0 0 0 0 0 0 0 0 0 0 0 0 0 127 0" result="hardAlpha"/>
<feOffset dy="3.66045"/>
<feGaussianBlur stdDeviation="6.10075"/>
<feColorMatrix type="matrix" values="0 0 0 0 0.11 0 0 0 0 0.14137 0 0 0 0 0.4125 0 0 0 0.05 0"/>
<feBlend mode="normal" in2="BackgroundImageFix" result="effect1_dropShadow_1_4146"/>
<feBlend mode="normal" in="SourceGraphic" in2="effect1_dropShadow_1_4146" result="shape"/>
</filter>
<filter id="filter2_d_1_4146" x="222.866" y="183.091" width="109.813" height="52.4665" filterUnits="userSpaceOnUse" color-interpolation-filters="sRGB">
<feFlood flood-opacity="0" result="BackgroundImageFix"/>
<feColorMatrix in="SourceAlpha" type="matrix" values="0 0 0 0 0 0 0 0 0 0 0 0 0 0 0 0 0 0 127 0" result="hardAlpha"/>
<feOffset dy="3.66045"/>
<feGaussianBlur stdDeviation="6.10075"/>
<feColorMatrix type="matrix" values="0 0 0 0 0.11 0 0 0 0 0.14137 0 0 0 0 0.4125 0 0 0 0.05 0"/>
<feBlend mode="normal" in2="BackgroundImageFix" result="effect1_dropShadow_1_4146"/>
<feBlend mode="normal" in="SourceGraphic" in2="effect1_dropShadow_1_4146" result="shape"/>
</filter>
<filter id="filter3_d_1_4146" x="91.0895" y="114.153" width="143.978" height="93.3415" filterUnits="userSpaceOnUse" color-interpolation-filters="sRGB">
<feFlood flood-opacity="0" result="BackgroundImageFix"/>
<feColorMatrix in="SourceAlpha" type="matrix" values="0 0 0 0 0 0 0 0 0 0 0 0 0 0 0 0 0 0 127 0" result="hardAlpha"/>
<feOffset dy="3.66045"/>
<feGaussianBlur stdDeviation="6.10075"/>
<feColorMatrix type="matrix" values="0 0 0 0 0.11 0 0 0 0 0.14137 0 0 0 0 0.4125 0 0 0 0.05 0"/>
<feBlend mode="normal" in2="BackgroundImageFix" result="effect1_dropShadow_1_4146"/>
<feBlend mode="normal" in="SourceGraphic" in2="effect1_dropShadow_1_4146" result="shape"/>
</filter>
<filter id="filter4_d_1_4146" x="60.0334" y="19.5251" width="61.0075" height="61.0075" filterUnits="userSpaceOnUse" color-interpolation-filters="sRGB">
<feFlood flood-opacity="0" result="BackgroundImageFix"/>
<feColorMatrix in="SourceAlpha" type="matrix" values="0 0 0 0 0 0 0 0 0 0 0 0 0 0 0 0 0 0 127 0" result="hardAlpha"/>
<feOffset dy="3.66045"/>
<feGaussianBlur stdDeviation="6.10075"/>
<feColorMatrix type="matrix" values="0 0 0 0 0.11 0 0 0 0 0.14137 0 0 0 0 0.4125 0 0 0 0.05 0"/>
<feBlend mode="normal" in2="BackgroundImageFix" result="effect1_dropShadow_1_4146"/>
<feBlend mode="normal" in="SourceGraphic" in2="effect1_dropShadow_1_4146" result="shape"/>
</filter>
<filter id="filter5_d_1_4146" x="253.979" y="0.0688188" width="67.1083" height="67.1083" filterUnits="userSpaceOnUse" color-interpolation-filters="sRGB">
<feFlood flood-opacity="0" result="BackgroundImageFix"/>
<feColorMatrix in="SourceAlpha" type="matrix" values="0 0 0 0 0 0 0 0 0 0 0 0 0 0 0 0 0 0 127 0" result="hardAlpha"/>
<feOffset dy="3.66045"/>
<feGaussianBlur stdDeviation="6.10075"/>
<feColorMatrix type="matrix" values="0 0 0 0 0.11 0 0 0 0 0.14137 0 0 0 0 0.4125 0 0 0 0.05 0"/>
<feBlend mode="normal" in2="BackgroundImageFix" result="effect1_dropShadow_1_4146"/>
<feBlend mode="normal" in="SourceGraphic" in2="effect1_dropShadow_1_4146" result="shape"/>
</filter>
<filter id="filter6_d_1_4146" x="211.884" y="273.382" width="85.4104" height="85.4106" filterUnits="userSpaceOnUse" color-interpolation-filters="sRGB">
<feFlood flood-opacity="0" result="BackgroundImageFix"/>
<feColorMatrix in="SourceAlpha" type="matrix" values="0 0 0 0 0 0 0 0 0 0 0 0 0 0 0 0 0 0 127 0" result="hardAlpha"/>
<feOffset dy="3.66045"/>
<feGaussianBlur stdDeviation="6.10075"/>
<feColorMatrix type="matrix" values="0 0 0 0 0.11 0 0 0 0 0.14137 0 0 0 0 0.4125 0 0 0 0.05 0"/>
<feBlend mode="normal" in2="BackgroundImageFix" result="effect1_dropShadow_1_4146"/>
<feBlend mode="normal" in="SourceGraphic" in2="effect1_dropShadow_1_4146" result="shape"/>
</filter>
<filter id="filter7_d_1_4146" x="0.798508" y="251.419" width="76.8694" height="76.8693" filterUnits="userSpaceOnUse" color-interpolation-filters="sRGB">
<feFlood flood-opacity="0" result="BackgroundImageFix"/>
<feColorMatrix in="SourceAlpha" type="matrix" values="0 0 0 0 0 0 0 0 0 0 0 0 0 0 0 0 0 0 127 0" result="hardAlpha"/>
<feOffset dy="3.66045"/>
<feGaussianBlur stdDeviation="6.10075"/>
<feColorMatrix type="matrix" values="0 0 0 0 0.11 0 0 0 0 0.14137 0 0 0 0 0.4125 0 0 0 0.05 0"/>
<feBlend mode="normal" in2="BackgroundImageFix" result="effect1_dropShadow_1_4146"/>
<feBlend mode="normal" in="SourceGraphic" in2="effect1_dropShadow_1_4146" result="shape"/>
</filter>
<filter id="filter8_d_1_4146" x="0.798508" y="131.235" width="67.1082" height="67.1083" filterUnits="userSpaceOnUse" color-interpolation-filters="sRGB">
<feFlood flood-opacity="0" result="BackgroundImageFix"/>
<feColorMatrix in="SourceAlpha" type="matrix" values="0 0 0 0 0 0 0 0 0 0 0 0 0 0 0 0 0 0 127 0" result="hardAlpha"/>
<feOffset dy="3.66045"/>
<feGaussianBlur stdDeviation="6.10075"/>
<feColorMatrix type="matrix" values="0 0 0 0 0.11 0 0 0 0 0.14137 0 0 0 0 0.4125 0 0 0 0.05 0"/>
<feBlend mode="normal" in2="BackgroundImageFix" result="effect1_dropShadow_1_4146"/>
<feBlend mode="normal" in="SourceGraphic" in2="effect1_dropShadow_1_4146" result="shape"/>
</filter>
<linearGradient id="paint0_linear_1_4146" x1="162.773" y1="117.865" x2="162.773" y2="181.871" gradientUnits="userSpaceOnUse">
<stop stop-color="#9374FF"/>
<stop offset="1" stop-color="#9374FF" stop-opacity="0"/>
</linearGradient>
<linearGradient id="paint1_linear_1_4146" x1="27.8054" y1="297.635" x2="52.1863" y2="276.533" gradientUnits="userSpaceOnUse">
<stop stop-color="#FFDD55"/>
<stop offset="0.5" stop-color="#FF543E"/>
<stop offset="1" stop-color="#C837AB"/>
</linearGradient>
<clipPath id="clip0_1_4146">
<rect width="15.6876" height="15.6876" fill="white" transform="translate(82.6932 38.5247)"/>
</clipPath>
<clipPath id="clip1_1_4146">
<rect width="21.3526" height="21.3526" fill="white" transform="translate(276.857 19.2861)"/>
</clipPath>
<clipPath id="clip2_1_4146">
<rect width="35.5877" height="35.5877" fill="white" transform="translate(236.796 294.633)"/>
</clipPath>
<clipPath id="clip3_1_4146">
<rect width="26.2332" height="26.2332" fill="white" transform="translate(26.1167 273.077)"/>
</clipPath>
<clipPath id="clip4_1_4146">
<rect width="16.0145" height="16.0145" fill="white" transform="translate(26.3453 153.121)"/>
</clipPath>
</defs>
</svg>
