<svg width="594" height="588" viewBox="0 0 594 588" fill="none" xmlns="http://www.w3.org/2000/svg">
<g filter="url(#filter0_d_1_7972)">
<rect x="136" y="138.5" width="420" height="266" rx="6" fill="white"/>
</g>
<rect x="136" y="181.5" width="420" height="204" rx="6" fill="#FFFAEC"/>
<g filter="url(#filter1_d_1_7972)">
<rect x="384" y="201.5" width="140" height="92" rx="6" fill="white"/>
</g>
<line opacity="0.3" x1="454.5" y1="258.5" x2="454.5" y2="282.5" stroke="#B4B6C4"/>
<path d="M455.515 214.817C452.52 214.18 449.4 214.508 446.602 215.754C443.805 216.999 441.474 219.098 439.943 221.75C438.412 224.402 437.759 227.47 438.079 230.516C438.4 233.561 439.675 236.427 441.724 238.702C443.773 240.978 446.49 242.546 449.485 243.183C452.48 243.82 455.6 243.492 458.398 242.246C461.195 241.001 463.526 238.902 465.057 236.25C466.588 233.598 467.241 230.53 466.921 227.484L452.5 229L455.515 214.817Z" fill="#9374FF"/>
<path d="M457.971 211.894C461.161 212.627 464.037 214.351 466.187 216.819C468.337 219.287 469.651 222.372 469.94 225.633L454.5 227L457.971 211.894Z" fill="#FFDC60"/>
<path d="M409.728 267.64C409.112 267.64 408.561 267.505 408.076 267.234C407.591 266.954 407.208 266.571 406.928 266.086C406.657 265.601 406.522 265.041 406.522 264.406V260.99C406.522 260.346 406.662 259.781 406.942 259.296C407.222 258.811 407.605 258.433 408.09 258.162C408.575 257.891 409.126 257.756 409.742 257.756H409.91C410.498 257.756 411.025 257.882 411.492 258.134C411.959 258.377 412.327 258.731 412.598 259.198C412.869 259.665 413.004 260.229 413.004 260.892H411.688C411.688 260.248 411.511 259.758 411.156 259.422C410.811 259.077 410.372 258.904 409.84 258.904C409.476 258.904 409.149 258.988 408.86 259.156C408.571 259.315 408.342 259.539 408.174 259.828C408.015 260.117 407.936 260.444 407.936 260.808V262.516C408.207 262.171 408.543 261.909 408.944 261.732C409.345 261.545 409.751 261.452 410.162 261.452C410.731 261.452 411.245 261.578 411.702 261.83C412.159 262.073 412.523 262.418 412.794 262.866C413.065 263.314 413.2 263.846 413.2 264.462C413.2 265.097 413.051 265.652 412.752 266.128C412.463 266.604 412.066 266.977 411.562 267.248C411.058 267.509 410.498 267.64 409.882 267.64H409.728ZM409.868 266.534C410.269 266.534 410.61 266.45 410.89 266.282C411.17 266.105 411.389 265.862 411.548 265.554C411.707 265.246 411.786 264.891 411.786 264.49C411.786 264.07 411.702 263.711 411.534 263.412C411.375 263.104 411.151 262.866 410.862 262.698C410.582 262.53 410.251 262.446 409.868 262.446C409.485 262.446 409.149 262.535 408.86 262.712C408.571 262.88 408.342 263.118 408.174 263.426C408.015 263.725 407.936 264.075 407.936 264.476C407.936 264.896 408.015 265.26 408.174 265.568C408.342 265.876 408.571 266.114 408.86 266.282C409.159 266.45 409.495 266.534 409.868 266.534ZM414.981 267.5V267.066C414.981 266.478 415.107 265.974 415.359 265.554C415.611 265.134 415.975 264.756 416.451 264.42L419.125 262.572C419.433 262.357 419.695 262.096 419.909 261.788C420.124 261.48 420.231 261.111 420.231 260.682C420.231 260.131 420.068 259.702 419.741 259.394C419.424 259.086 418.957 258.932 418.341 258.932C417.968 258.932 417.632 259.016 417.333 259.184C417.044 259.352 416.815 259.581 416.647 259.87C416.479 260.159 416.395 260.486 416.395 260.85C416.395 260.915 416.395 260.976 416.395 261.032C416.395 261.088 416.4 261.144 416.409 261.2H415.079C415.079 261.135 415.079 261.088 415.079 261.06C415.079 261.023 415.079 260.985 415.079 260.948C415.079 260.323 415.219 259.772 415.499 259.296C415.789 258.811 416.181 258.433 416.675 258.162C417.179 257.891 417.753 257.756 418.397 257.756H418.565C419.219 257.756 419.774 257.877 420.231 258.12C420.698 258.363 421.053 258.699 421.295 259.128C421.547 259.548 421.673 260.047 421.673 260.626C421.673 261.111 421.589 261.536 421.421 261.9C421.263 262.264 421.043 262.581 420.763 262.852C420.493 263.123 420.185 263.375 419.839 263.608L417.347 265.33C417.207 265.423 417.086 265.531 416.983 265.652C416.881 265.764 416.801 265.876 416.745 265.988C416.699 266.091 416.666 266.184 416.647 266.268H421.715V267.5H414.981ZM424.211 267.5L430.049 257.896H431.043L425.219 267.5H424.211ZM424.813 262.796C424.486 262.796 424.197 262.721 423.945 262.572C423.693 262.413 423.492 262.203 423.343 261.942C423.203 261.681 423.133 261.396 423.133 261.088V259.59C423.133 259.282 423.203 259.002 423.343 258.75C423.492 258.489 423.693 258.283 423.945 258.134C424.197 257.975 424.486 257.896 424.813 257.896H424.939C425.284 257.896 425.578 257.975 425.821 258.134C426.073 258.283 426.269 258.489 426.409 258.75C426.558 259.002 426.633 259.282 426.633 259.59V261.088C426.633 261.396 426.558 261.681 426.409 261.942C426.269 262.203 426.073 262.413 425.821 262.572C425.578 262.721 425.289 262.796 424.953 262.796H424.813ZM424.883 262.026C425.153 262.026 425.359 261.947 425.499 261.788C425.639 261.629 425.709 261.429 425.709 261.186V259.492C425.709 259.259 425.639 259.063 425.499 258.904C425.359 258.745 425.153 258.666 424.883 258.666C424.631 258.666 424.43 258.745 424.281 258.904C424.131 259.063 424.057 259.259 424.057 259.492V261.186C424.057 261.429 424.131 261.629 424.281 261.788C424.43 261.947 424.631 262.026 424.883 262.026ZM430.273 267.514C429.946 267.514 429.657 267.439 429.405 267.29C429.153 267.131 428.952 266.921 428.803 266.66C428.663 266.399 428.593 266.114 428.593 265.806V264.308C428.593 264 428.663 263.72 428.803 263.468C428.952 263.207 429.153 263.001 429.405 262.852C429.657 262.693 429.946 262.614 430.273 262.614H430.399C430.744 262.614 431.038 262.693 431.281 262.852C431.533 263.001 431.729 263.207 431.869 263.468C432.018 263.72 432.093 264 432.093 264.308V265.806C432.093 266.114 432.018 266.399 431.869 266.66C431.729 266.921 431.533 267.131 431.281 267.29C431.038 267.439 430.749 267.514 430.413 267.514H430.273ZM430.343 266.744C430.613 266.744 430.819 266.665 430.959 266.506C431.099 266.338 431.169 266.137 431.169 265.904V264.21C431.169 263.977 431.099 263.781 430.959 263.622C430.819 263.463 430.613 263.384 430.343 263.384C430.091 263.384 429.89 263.463 429.741 263.622C429.591 263.781 429.517 263.977 429.517 264.21V265.904C429.517 266.137 429.591 266.338 429.741 266.506C429.89 266.665 430.091 266.744 430.343 266.744Z" fill="#060C3C"/>
<path d="M409.212 281.5V274.64H410.922L413.042 279.97H413.062L415.192 274.64H416.912V281.5H415.852V275.86H415.802L413.572 281.5H412.432L410.212 275.86H410.162V281.5H409.212ZM419.874 281.6C419.601 281.6 419.338 281.557 419.084 281.47C418.838 281.383 418.634 281.237 418.474 281.03C418.321 280.817 418.244 280.53 418.244 280.17C418.244 279.803 418.324 279.51 418.484 279.29C418.651 279.063 418.884 278.89 419.184 278.77C419.491 278.65 419.854 278.57 420.274 278.53C420.701 278.49 421.168 278.47 421.674 278.47V277.95C421.674 277.59 421.584 277.34 421.404 277.2C421.231 277.053 420.954 276.98 420.574 276.98C420.254 276.98 419.978 277.05 419.744 277.19C419.511 277.323 419.394 277.537 419.394 277.83V277.95H418.424C418.418 277.917 418.414 277.883 418.414 277.85C418.414 277.81 418.414 277.77 418.414 277.73C418.414 277.437 418.504 277.183 418.684 276.97C418.871 276.75 419.121 276.583 419.434 276.47C419.754 276.35 420.118 276.29 420.524 276.29H420.664C421.338 276.29 421.838 276.423 422.164 276.69C422.498 276.957 422.664 277.34 422.664 277.84V280.55C422.664 280.67 422.691 280.757 422.744 280.81C422.798 280.863 422.861 280.89 422.934 280.89C423.008 280.89 423.084 280.877 423.164 280.85C423.251 280.823 423.328 280.79 423.394 280.75V281.39C423.308 281.457 423.201 281.507 423.074 281.54C422.948 281.58 422.798 281.6 422.624 281.6C422.411 281.6 422.238 281.56 422.104 281.48C421.978 281.393 421.884 281.28 421.824 281.14C421.764 281 421.728 280.843 421.714 280.67C421.521 280.97 421.268 281.2 420.954 281.36C420.648 281.52 420.288 281.6 419.874 281.6ZM420.274 280.89C420.508 280.89 420.731 280.84 420.944 280.74C421.158 280.633 421.331 280.473 421.464 280.26C421.604 280.047 421.674 279.78 421.674 279.46V279.08C421.174 279.08 420.744 279.107 420.384 279.16C420.024 279.207 419.748 279.3 419.554 279.44C419.368 279.58 419.274 279.797 419.274 280.09C419.274 280.37 419.358 280.573 419.524 280.7C419.691 280.827 419.941 280.89 420.274 280.89ZM424.541 281.5V276.39H425.261L425.401 277.14C425.588 276.86 425.828 276.65 426.121 276.51C426.421 276.363 426.744 276.29 427.091 276.29C427.444 276.29 427.754 276.357 428.021 276.49C428.294 276.623 428.508 276.823 428.661 277.09C428.814 277.35 428.891 277.677 428.891 278.07V281.5H427.891V278.24C427.891 277.82 427.794 277.52 427.601 277.34C427.408 277.153 427.134 277.06 426.781 277.06C426.554 277.06 426.344 277.117 426.151 277.23C425.964 277.343 425.814 277.497 425.701 277.69C425.594 277.877 425.541 278.093 425.541 278.34V281.5H424.541Z" fill="#5D6180"/>
<path d="M480.546 267.64C479.874 267.64 479.291 267.523 478.796 267.29C478.311 267.057 477.937 266.735 477.676 266.324C477.415 265.913 477.284 265.447 477.284 264.924V264.672H478.614C478.614 265.316 478.801 265.783 479.174 266.072C479.547 266.361 480.051 266.506 480.686 266.506C481.293 266.506 481.792 266.361 482.184 266.072C482.576 265.783 482.772 265.353 482.772 264.784C482.772 264.392 482.683 264.075 482.506 263.832C482.329 263.58 482.086 263.398 481.778 263.286C481.479 263.165 481.153 263.104 480.798 263.104H479.594V262.082H480.672C481.008 262.082 481.321 262.021 481.61 261.9C481.899 261.779 482.128 261.597 482.296 261.354C482.473 261.111 482.562 260.813 482.562 260.458C482.562 260.103 482.478 259.814 482.31 259.59C482.142 259.357 481.913 259.184 481.624 259.072C481.344 258.96 481.027 258.904 480.672 258.904C480.093 258.904 479.636 259.049 479.3 259.338C478.964 259.627 478.796 260.047 478.796 260.598H477.522V260.36C477.522 259.828 477.662 259.371 477.942 258.988C478.231 258.596 478.614 258.293 479.09 258.078C479.566 257.863 480.103 257.756 480.7 257.756H480.896C481.475 257.756 481.997 257.859 482.464 258.064C482.931 258.269 483.299 258.568 483.57 258.96C483.841 259.343 483.976 259.8 483.976 260.332C483.976 260.705 483.906 261.032 483.766 261.312C483.635 261.583 483.458 261.816 483.234 262.012C483.01 262.199 482.758 262.357 482.478 262.488V262.558C482.973 262.717 483.383 262.987 483.71 263.37C484.037 263.743 484.2 264.247 484.2 264.882C484.2 265.423 484.051 265.899 483.752 266.31C483.453 266.721 483.043 267.047 482.52 267.29C482.007 267.523 481.423 267.64 480.77 267.64H480.546ZM489.327 267.64C488.674 267.64 488.095 267.537 487.591 267.332C487.087 267.127 486.695 266.823 486.415 266.422C486.135 266.011 485.995 265.507 485.995 264.91C485.995 264.294 486.145 263.804 486.443 263.44C486.742 263.067 487.129 262.782 487.605 262.586V262.53C487.232 262.343 486.924 262.087 486.681 261.76C486.439 261.424 486.317 260.976 486.317 260.416C486.317 259.847 486.453 259.366 486.723 258.974C486.994 258.582 487.363 258.283 487.829 258.078C488.305 257.863 488.837 257.756 489.425 257.756C490.023 257.756 490.545 257.863 490.993 258.078C491.451 258.283 491.805 258.582 492.057 258.974C492.309 259.366 492.435 259.847 492.435 260.416C492.435 260.789 492.379 261.111 492.267 261.382C492.155 261.653 492.001 261.881 491.805 262.068C491.619 262.255 491.399 262.409 491.147 262.53V262.586C491.633 262.819 492.025 263.109 492.323 263.454C492.622 263.79 492.771 264.275 492.771 264.91C492.771 265.47 492.631 265.955 492.351 266.366C492.081 266.777 491.689 267.094 491.175 267.318C490.671 267.533 490.055 267.64 489.327 267.64ZM489.383 266.576C490.046 266.576 490.536 266.417 490.853 266.1C491.18 265.783 491.343 265.353 491.343 264.812C491.343 264.261 491.171 263.832 490.825 263.524C490.48 263.216 489.999 263.062 489.383 263.062C488.767 263.062 488.287 263.221 487.941 263.538C487.605 263.855 487.437 264.28 487.437 264.812C487.437 265.353 487.596 265.783 487.913 266.1C488.231 266.417 488.721 266.576 489.383 266.576ZM489.369 262.11C489.864 262.11 490.275 261.97 490.601 261.69C490.937 261.401 491.105 260.99 491.105 260.458C491.105 259.926 490.947 259.52 490.629 259.24C490.321 258.951 489.901 258.806 489.369 258.806C488.837 258.806 488.417 258.951 488.109 259.24C487.801 259.529 487.647 259.935 487.647 260.458C487.647 260.99 487.811 261.401 488.137 261.69C488.473 261.97 488.884 262.11 489.369 262.11ZM495.211 267.5L501.049 257.896H502.043L496.219 267.5H495.211ZM495.813 262.796C495.486 262.796 495.197 262.721 494.945 262.572C494.693 262.413 494.492 262.203 494.343 261.942C494.203 261.681 494.133 261.396 494.133 261.088V259.59C494.133 259.282 494.203 259.002 494.343 258.75C494.492 258.489 494.693 258.283 494.945 258.134C495.197 257.975 495.486 257.896 495.813 257.896H495.939C496.284 257.896 496.578 257.975 496.821 258.134C497.073 258.283 497.269 258.489 497.409 258.75C497.558 259.002 497.633 259.282 497.633 259.59V261.088C497.633 261.396 497.558 261.681 497.409 261.942C497.269 262.203 497.073 262.413 496.821 262.572C496.578 262.721 496.289 262.796 495.953 262.796H495.813ZM495.883 262.026C496.153 262.026 496.359 261.947 496.499 261.788C496.639 261.629 496.709 261.429 496.709 261.186V259.492C496.709 259.259 496.639 259.063 496.499 258.904C496.359 258.745 496.153 258.666 495.883 258.666C495.631 258.666 495.43 258.745 495.281 258.904C495.131 259.063 495.057 259.259 495.057 259.492V261.186C495.057 261.429 495.131 261.629 495.281 261.788C495.43 261.947 495.631 262.026 495.883 262.026ZM501.273 267.514C500.946 267.514 500.657 267.439 500.405 267.29C500.153 267.131 499.952 266.921 499.803 266.66C499.663 266.399 499.593 266.114 499.593 265.806V264.308C499.593 264 499.663 263.72 499.803 263.468C499.952 263.207 500.153 263.001 500.405 262.852C500.657 262.693 500.946 262.614 501.273 262.614H501.399C501.744 262.614 502.038 262.693 502.281 262.852C502.533 263.001 502.729 263.207 502.869 263.468C503.018 263.72 503.093 264 503.093 264.308V265.806C503.093 266.114 503.018 266.399 502.869 266.66C502.729 266.921 502.533 267.131 502.281 267.29C502.038 267.439 501.749 267.514 501.413 267.514H501.273ZM501.343 266.744C501.613 266.744 501.819 266.665 501.959 266.506C502.099 266.338 502.169 266.137 502.169 265.904V264.21C502.169 263.977 502.099 263.781 501.959 263.622C501.819 263.463 501.613 263.384 501.343 263.384C501.091 263.384 500.89 263.463 500.741 263.622C500.591 263.781 500.517 263.977 500.517 264.21V265.904C500.517 266.137 500.591 266.338 500.741 266.506C500.89 266.665 501.091 266.744 501.343 266.744Z" fill="#060C3C"/>
<path d="M474.422 281.5L472.472 274.64H473.582L475.012 279.77H475.052L476.502 274.64H477.542L478.982 279.77H479.022L480.452 274.64H481.452L479.492 281.5H478.392L476.992 276.53H476.942L475.542 281.5H474.422ZM484.428 281.6C483.988 281.6 483.591 281.497 483.238 281.29C482.891 281.083 482.618 280.787 482.418 280.4C482.218 280.013 482.118 279.557 482.118 279.03V278.86C482.118 278.32 482.218 277.86 482.418 277.48C482.618 277.093 482.891 276.8 483.238 276.6C483.591 276.393 483.988 276.29 484.428 276.29H484.558C485.005 276.29 485.401 276.393 485.748 276.6C486.095 276.807 486.368 277.103 486.568 277.49C486.768 277.87 486.868 278.327 486.868 278.86V279.03C486.868 279.557 486.768 280.013 486.568 280.4C486.368 280.787 486.091 281.083 485.738 281.29C485.391 281.497 484.998 281.6 484.558 281.6H484.428ZM484.488 280.89C484.741 280.89 484.968 280.83 485.168 280.71C485.368 280.59 485.528 280.41 485.648 280.17C485.768 279.93 485.828 279.633 485.828 279.28V278.61C485.828 278.25 485.768 277.953 485.648 277.72C485.528 277.48 485.368 277.3 485.168 277.18C484.968 277.06 484.741 277 484.488 277C484.241 277 484.018 277.06 483.818 277.18C483.618 277.3 483.458 277.48 483.338 277.72C483.218 277.953 483.158 278.25 483.158 278.61V279.28C483.158 279.633 483.218 279.93 483.338 280.17C483.458 280.41 483.618 280.59 483.818 280.71C484.018 280.83 484.241 280.89 484.488 280.89ZM488.227 281.5V276.39H488.967L489.117 277.14C489.283 276.873 489.49 276.667 489.737 276.52C489.983 276.367 490.267 276.29 490.587 276.29C490.92 276.29 491.217 276.357 491.477 276.49C491.737 276.623 491.94 276.837 492.087 277.13C492.233 276.883 492.437 276.683 492.697 276.53C492.963 276.37 493.277 276.29 493.637 276.29C493.963 276.29 494.253 276.357 494.507 276.49C494.76 276.623 494.957 276.823 495.097 277.09C495.243 277.35 495.317 277.677 495.317 278.07V281.5H494.327V278.29C494.327 277.863 494.24 277.553 494.067 277.36C493.9 277.167 493.66 277.07 493.347 277.07C493.14 277.07 492.953 277.123 492.787 277.23C492.627 277.337 492.5 277.487 492.407 277.68C492.32 277.873 492.277 278.09 492.277 278.33V281.5H491.277V278.29C491.277 277.863 491.19 277.553 491.017 277.36C490.85 277.167 490.607 277.07 490.287 277.07C490.08 277.07 489.897 277.123 489.737 277.23C489.577 277.337 489.45 277.487 489.357 277.68C489.27 277.873 489.227 278.09 489.227 278.33V281.5H488.227ZM498.988 281.6C498.534 281.6 498.134 281.503 497.788 281.31C497.448 281.11 497.181 280.82 496.988 280.44C496.794 280.053 496.698 279.59 496.698 279.05V278.84C496.698 278.293 496.798 277.83 496.998 277.45C497.204 277.07 497.484 276.783 497.838 276.59C498.191 276.39 498.594 276.29 499.048 276.29H499.158C499.571 276.29 499.938 276.377 500.258 276.55C500.578 276.723 500.824 276.97 500.998 277.29C501.178 277.61 501.268 277.99 501.268 278.43V279.07H497.738C497.738 279.45 497.788 279.777 497.888 280.05C497.994 280.323 498.144 280.533 498.338 280.68C498.538 280.82 498.781 280.89 499.068 280.89C499.308 280.89 499.521 280.843 499.708 280.75C499.894 280.657 500.044 280.513 500.158 280.32C500.271 280.127 500.328 279.887 500.328 279.6H501.268C501.268 280.007 501.171 280.36 500.978 280.66C500.784 280.96 500.521 281.193 500.188 281.36C499.861 281.52 499.491 281.6 499.078 281.6H498.988ZM497.748 278.47H500.288C500.288 277.97 500.178 277.6 499.958 277.36C499.744 277.12 499.444 277 499.058 277C498.704 277 498.401 277.123 498.148 277.37C497.901 277.617 497.768 277.983 497.748 278.47ZM502.641 281.5V276.39H503.361L503.501 277.14C503.687 276.86 503.927 276.65 504.221 276.51C504.521 276.363 504.844 276.29 505.191 276.29C505.544 276.29 505.854 276.357 506.121 276.49C506.394 276.623 506.607 276.823 506.761 277.09C506.914 277.35 506.991 277.677 506.991 278.07V281.5H505.991V278.24C505.991 277.82 505.894 277.52 505.701 277.34C505.507 277.153 505.234 277.06 504.881 277.06C504.654 277.06 504.444 277.117 504.251 277.23C504.064 277.343 503.914 277.497 503.801 277.69C503.694 277.877 503.641 278.093 503.641 278.34V281.5H502.641Z" fill="#5D6180"/>
<g filter="url(#filter2_d_1_7972)">
<rect x="384" y="314.5" width="140" height="46" rx="6" fill="white"/>
</g>
<rect x="394" y="327.5" width="120" height="6" rx="3" fill="#B4B6C4"/>
<rect x="394" y="341.5" width="120" height="6" rx="3" fill="#B4B6C4"/>
<rect x="202" y="339.5" width="162" height="6" rx="3" fill="#B4B6C4"/>
<rect x="168" y="339.5" width="24" height="6" rx="3" fill="#B4B6C4"/>
<rect x="202" y="353.5" width="162" height="6" rx="3" fill="#B4B6C4"/>
<rect x="168" y="353.5" width="24" height="6" rx="3" fill="#B4B6C4"/>
<g filter="url(#filter3_d_1_7972)">
<rect x="168" y="201.5" width="196" height="113" rx="6" fill="white"/>
</g>
<line opacity="0.3" x1="183.5" y1="298" x2="346.5" y2="298" stroke="#B4B6C4" stroke-linecap="round"/>
<line opacity="0.2" x1="183.5" y1="277.75" x2="346.5" y2="277.75" stroke="#B4B6C4" stroke-linecap="round"/>
<line opacity="0.2" x1="183.5" y1="257.5" x2="346.5" y2="257.5" stroke="#B4B6C4" stroke-linecap="round"/>
<line opacity="0.2" x1="183.5" y1="237.25" x2="346.5" y2="237.25" stroke="#B4B6C4" stroke-linecap="round"/>
<line opacity="0.2" x1="183.5" y1="217" x2="346.5" y2="217" stroke="#B4B6C4" stroke-linecap="round"/>
<path opacity="0.4" d="M205.721 281.089C199.316 281.089 189.059 281.818 184 298.5H347V217.5C340.857 217.5 329.595 237.063 323.073 237.063C317.064 237.063 312.262 245.395 309.799 245.395C307.571 245.395 303.417 238.512 301.746 238.512C300.076 238.512 300.47 256.864 297.128 256.864C294.901 256.864 292.278 245.395 288.658 245.395C285.038 245.395 282.373 259.175 279.33 259.175C271.254 259.175 271.95 275.033 266.659 275.033C262.204 275.033 265.035 250.051 260.022 250.051C253.618 250.051 254.963 233.44 250.786 233.44C245.495 233.44 251.159 259.175 242.525 259.175C235.563 259.175 233.901 268.172 230.156 268.22C226.411 268.267 221.269 259.175 217.927 259.175C212.914 259.175 211.29 281.089 205.721 281.089Z" fill="url(#paint0_linear_1_7972)"/>
<path d="M185 298.5C190.059 281.818 200.316 281.089 206.721 281.089C212.29 281.089 213.914 259.175 218.927 259.175C222.269 259.175 227.411 268.267 231.156 268.22C234.901 268.172 236.563 259.175 243.525 259.175C252.159 259.175 246.495 233.44 251.786 233.44C255.963 233.44 254.618 250.051 261.022 250.051C266.035 250.051 263.204 275.033 267.659 275.033C272.95 275.033 272.254 259.175 280.33 259.175C283.373 259.175 286.038 245.395 289.658 245.395C293.278 245.395 295.901 256.864 298.128 256.864C301.47 256.864 301.076 238.512 302.746 238.512C304.417 238.512 308.571 245.395 310.799 245.395C313.262 245.395 318.064 237.063 324.073 237.063C330.595 237.063 340.857 217.5 347 217.5" stroke="#6241D4" stroke-width="2" stroke-linecap="round" stroke-linejoin="round"/>
<circle cx="236" cy="264.5" r="4" fill="#6241D4"/>
<path d="M236.64 255.967C236.269 256.276 235.731 256.276 235.36 255.967L228.244 250.036C226.807 248.839 227.654 246.5 229.524 246.5L242.476 246.5C244.346 246.5 245.193 248.839 243.756 250.036L236.64 255.967Z" fill="#9374FF"/>
<rect x="201" y="218.5" width="70" height="34" rx="4" fill="#9374FF"/>
<rect opacity="0.4" x="209" y="242.5" width="28" height="3" rx="1.5" fill="white"/>
<path d="M214.222 236.5V234.05H209.686V232.902C209.807 232.715 209.966 232.449 210.162 232.104C210.358 231.759 210.568 231.362 210.792 230.914C211.025 230.466 211.254 229.999 211.478 229.514C211.702 229.019 211.912 228.534 212.108 228.058C212.313 227.582 212.481 227.148 212.612 226.756H213.956C213.844 227.176 213.69 227.629 213.494 228.114C213.298 228.59 213.083 229.071 212.85 229.556C212.626 230.032 212.388 230.489 212.136 230.928C211.893 231.367 211.66 231.759 211.436 232.104C211.212 232.44 211.007 232.711 210.82 232.916H214.222V230.046C214.287 229.943 214.357 229.813 214.432 229.654C214.516 229.486 214.595 229.318 214.67 229.15C214.754 228.973 214.829 228.805 214.894 228.646C214.969 228.478 215.02 228.333 215.048 228.212H215.622V232.916H216.84V234.05H215.622V236.5H214.222ZM221.785 236.64C221.188 236.64 220.647 236.505 220.161 236.234C219.676 235.954 219.289 235.571 218.999 235.086C218.719 234.601 218.579 234.041 218.579 233.406V229.99C218.579 229.355 218.719 228.795 218.999 228.31C219.289 227.825 219.676 227.447 220.161 227.176C220.647 226.896 221.188 226.756 221.785 226.756H222.051C222.658 226.756 223.199 226.896 223.675 227.176C224.161 227.447 224.543 227.825 224.823 228.31C225.103 228.795 225.243 229.355 225.243 229.99V233.406C225.243 234.041 225.103 234.601 224.823 235.086C224.543 235.571 224.161 235.954 223.675 236.234C223.199 236.505 222.658 236.64 222.051 236.64H221.785ZM221.911 235.52C222.275 235.52 222.602 235.436 222.891 235.268C223.181 235.091 223.405 234.857 223.563 234.568C223.731 234.279 223.815 233.952 223.815 233.588V229.808C223.815 229.435 223.731 229.103 223.563 228.814C223.405 228.525 223.181 228.296 222.891 228.128C222.602 227.96 222.275 227.876 221.911 227.876C221.547 227.876 221.221 227.96 220.931 228.128C220.651 228.296 220.427 228.525 220.259 228.814C220.091 229.103 220.007 229.435 220.007 229.808V233.588C220.007 233.952 220.091 234.279 220.259 234.568C220.427 234.857 220.651 235.091 220.931 235.268C221.221 235.436 221.547 235.52 221.911 235.52ZM227.753 236.5L233.591 226.896H234.585L228.761 236.5H227.753ZM228.355 231.796C228.028 231.796 227.739 231.721 227.487 231.572C227.235 231.413 227.034 231.203 226.885 230.942C226.745 230.681 226.675 230.396 226.675 230.088V228.59C226.675 228.282 226.745 228.002 226.885 227.75C227.034 227.489 227.235 227.283 227.487 227.134C227.739 226.975 228.028 226.896 228.355 226.896H228.481C228.826 226.896 229.12 226.975 229.363 227.134C229.615 227.283 229.811 227.489 229.951 227.75C230.1 228.002 230.175 228.282 230.175 228.59V230.088C230.175 230.396 230.1 230.681 229.951 230.942C229.811 231.203 229.615 231.413 229.363 231.572C229.12 231.721 228.831 231.796 228.495 231.796H228.355ZM228.425 231.026C228.695 231.026 228.901 230.947 229.041 230.788C229.181 230.629 229.251 230.429 229.251 230.186V228.492C229.251 228.259 229.181 228.063 229.041 227.904C228.901 227.745 228.695 227.666 228.425 227.666C228.173 227.666 227.972 227.745 227.823 227.904C227.673 228.063 227.599 228.259 227.599 228.492V230.186C227.599 230.429 227.673 230.629 227.823 230.788C227.972 230.947 228.173 231.026 228.425 231.026ZM233.815 236.514C233.488 236.514 233.199 236.439 232.947 236.29C232.695 236.131 232.494 235.921 232.345 235.66C232.205 235.399 232.135 235.114 232.135 234.806V233.308C232.135 233 232.205 232.72 232.345 232.468C232.494 232.207 232.695 232.001 232.947 231.852C233.199 231.693 233.488 231.614 233.815 231.614H233.941C234.286 231.614 234.58 231.693 234.823 231.852C235.075 232.001 235.271 232.207 235.411 232.468C235.56 232.72 235.635 233 235.635 233.308V234.806C235.635 235.114 235.56 235.399 235.411 235.66C235.271 235.921 235.075 236.131 234.823 236.29C234.58 236.439 234.291 236.514 233.955 236.514H233.815ZM233.885 235.744C234.155 235.744 234.361 235.665 234.501 235.506C234.641 235.338 234.711 235.137 234.711 234.904V233.21C234.711 232.977 234.641 232.781 234.501 232.622C234.361 232.463 234.155 232.384 233.885 232.384C233.633 232.384 233.432 232.463 233.283 232.622C233.133 232.781 233.059 232.977 233.059 233.21V234.904C233.059 235.137 233.133 235.338 233.283 235.506C233.432 235.665 233.633 235.744 233.885 235.744Z" fill="white"/>
<circle cx="256" cy="234.5" r="7" fill="white"/>
<path d="M256.513 232.743C256.249 232.461 255.751 232.461 255.487 232.743L252.867 235.541C252.518 235.913 252.825 236.469 253.38 236.469L258.62 236.469C259.175 236.469 259.482 235.913 259.133 235.541L256.513 232.743Z" fill="#38E7B2"/>
<circle cx="161" cy="160.5" r="5" fill="#D280FF"/>
<circle cx="183" cy="160.5" r="5" fill="#FFDC60"/>
<circle cx="205" cy="160.5" r="5" fill="#38E7B2"/>
<g filter="url(#filter4_d_1_7972)">
<rect x="117" y="46" width="60" height="60" rx="6" fill="white"/>
</g>
<g clip-path="url(#clip0_1_7972)">
<path d="M156.643 63.1426H137.357C135.584 63.1426 134.143 64.5836 134.143 66.3569V85.6426C134.143 87.4147 135.584 88.8569 137.357 88.8569H156.643C158.415 88.8569 159.857 87.4147 159.857 85.6426V66.3569C159.857 64.5836 158.415 63.1426 156.643 63.1426Z" fill="#3B5999"/>
<path d="M151.821 75.9998V72.7855C151.821 71.8984 152.541 71.982 153.429 71.982H155.036V67.9641H151.821C149.158 67.9641 147 70.122 147 72.7855V75.9998H143.786V80.0177H147V88.857H151.821V80.0177H154.232L155.839 75.9998H151.821Z" fill="white"/>
</g>
<g filter="url(#filter5_d_1_7972)">
<rect x="435" y="14" width="70" height="70" rx="6" fill="white"/>
</g>
<g clip-path="url(#clip1_1_7972)">
<path d="M483.93 42.8006C483.93 42.4842 483.918 42.1765 483.904 41.8731C485.327 40.8625 486.524 39.601 487.5 38.1485V38.1471C486.197 38.7173 484.812 39.0965 483.365 39.2802C484.853 38.3921 485.989 36.9965 486.523 35.315C485.136 36.1419 483.605 36.7252 481.973 37.0519C480.656 35.649 478.779 34.7812 476.731 34.7812C472.759 34.7812 469.561 38.0056 469.561 41.9577C469.561 42.5265 469.609 43.0733 469.727 43.594C463.762 43.3023 458.483 40.444 454.937 36.0879C454.318 37.1627 453.954 38.3921 453.954 39.7148C453.954 42.1998 455.233 44.4019 457.142 45.6779C455.988 45.656 454.858 45.3206 453.9 44.7942V44.8729C453.9 48.3598 456.386 51.256 459.649 51.924C458.552 52.2244 457.201 52.2127 456.41 52.0377C457.339 54.8785 459.978 56.9683 463.114 57.0369C460.672 58.9458 457.572 60.0965 454.216 60.0965C453.629 60.0965 453.064 60.0702 452.5 59.9987C455.679 62.0477 459.444 63.2187 463.507 63.2187C476.711 63.2187 483.93 52.2812 483.93 42.8006Z" fill="#55ACEE"/>
</g>
<g filter="url(#filter6_d_1_7972)">
<rect x="366" y="462" width="100" height="100" rx="6" fill="white"/>
</g>
<g clip-path="url(#clip2_1_7972)">
<path d="M408.326 513.583C404.943 513.583 402.199 516.327 402.199 519.71V535.037C402.199 538.42 404.943 541.164 408.326 541.164C411.71 541.164 414.454 538.42 414.454 535.037V519.71C414.451 516.327 411.707 513.583 408.326 513.583Z" fill="#E91E63"/>
<path d="M386.879 519.709C386.879 523.095 389.626 525.842 393.012 525.842C396.397 525.842 399.144 523.095 399.144 519.709V513.577H393.017C393.014 513.577 393.014 513.577 393.012 513.577C389.626 513.577 386.879 516.324 386.879 519.709Z" fill="#E91E63"/>
<path d="M408.334 482.831C408.331 482.831 408.329 482.831 408.327 482.831C404.941 482.831 402.194 485.577 402.194 488.963C402.194 492.349 404.941 495.095 408.327 495.095H414.454V488.963C414.454 488.961 414.454 488.956 414.454 488.951C414.452 485.57 411.712 482.831 408.334 482.831Z" fill="#36C5F0"/>
<path d="M392.971 510.469H408.327C411.713 510.469 414.459 507.722 414.459 504.336C414.459 500.951 411.713 498.204 408.327 498.204H392.971C389.585 498.204 386.838 500.951 386.838 504.336C386.838 507.722 389.585 510.469 392.971 510.469Z" fill="#36C5F0"/>
<path d="M438.986 498.202C435.605 498.202 432.865 500.941 432.865 504.322V504.334V510.466H438.993C442.379 510.466 445.125 507.72 445.125 504.334C445.125 500.948 442.379 498.202 438.993 498.202C438.99 498.202 438.988 498.202 438.986 498.202Z" fill="#4CAF50"/>
<path d="M417.558 488.963V504.337C417.558 507.72 420.302 510.464 423.685 510.464C427.069 510.464 429.813 507.72 429.813 504.337V488.963C429.813 485.58 427.069 482.836 423.685 482.836C420.302 482.836 417.558 485.58 417.558 488.963Z" fill="#4CAF50"/>
<path d="M429.811 535.032C429.811 531.648 427.066 528.904 423.683 528.904H417.556V535.037C417.558 538.417 420.3 541.159 423.683 541.159C427.066 541.159 429.811 538.415 429.811 535.032Z" fill="#FF9800"/>
<path d="M439.039 513.577H423.683C420.297 513.577 417.551 516.324 417.551 519.709C417.551 523.095 420.297 525.842 423.683 525.842H439.039C442.425 525.842 445.172 523.095 445.172 519.709C445.172 516.324 442.425 513.577 439.039 513.577Z" fill="#FF9800"/>
</g>
<g filter="url(#filter7_d_1_7972)">
<rect x="20" y="426" width="86" height="86" rx="6" fill="white"/>
</g>
<g clip-path="url(#clip3_1_7972)">
<path d="M44.1869 450.426C40.8078 453.936 41.4994 457.664 41.4994 468.991C41.4994 478.397 39.8583 487.827 48.4475 490.047C51.1296 490.736 74.8943 490.736 77.5728 490.043C81.149 489.12 84.0587 486.22 84.4564 481.162C84.512 480.456 84.512 457.539 84.4546 456.818C84.0318 451.431 80.7154 448.326 76.3455 447.697C75.344 447.552 75.1433 447.509 70.0048 447.5C51.7782 447.509 47.7828 446.697 44.1869 450.426Z" fill="url(#paint1_linear_1_7972)"/>
<path d="M62.9967 453.124C56.4911 453.124 50.3134 452.546 47.9538 458.602C46.9792 461.103 47.1207 464.351 47.1207 469.002C47.1207 473.084 46.9899 476.92 47.9538 479.401C50.3081 485.46 56.5359 484.88 62.9931 484.88C69.2227 484.88 75.6458 485.529 78.0341 479.401C79.0106 476.875 78.8672 473.675 78.8672 469.002C78.8672 462.799 79.2094 458.795 76.2012 455.789C73.1554 452.743 69.0364 453.124 62.9895 453.124H62.9967ZM61.5741 455.986C75.1441 455.964 76.8713 454.456 75.9181 475.413C75.5795 482.825 69.9358 482.011 62.9984 482.011C50.3493 482.011 49.9856 481.65 49.9856 468.995C49.9856 456.194 50.9889 455.993 61.5741 455.982V455.986ZM71.4712 458.621C70.4195 458.621 69.5667 459.474 69.5667 460.526C69.5667 461.578 70.4195 462.43 71.4712 462.43C72.5229 462.43 73.3758 461.578 73.3758 460.526C73.3758 459.474 72.5229 458.621 71.4712 458.621ZM62.9967 460.848C58.4942 460.848 54.8446 464.5 54.8446 469.002C54.8446 473.505 58.4942 477.154 62.9967 477.154C67.4991 477.154 71.1469 473.505 71.1469 469.002C71.1469 464.5 67.4991 460.848 62.9967 460.848ZM62.9967 463.71C69.9931 463.71 70.0021 474.295 62.9967 474.295C56.002 474.295 55.9912 463.71 62.9967 463.71Z" fill="white"/>
</g>
<g filter="url(#filter8_d_1_7972)">
<rect x="20" y="229" width="70" height="70" rx="6" fill="white"/>
</g>
<g clip-path="url(#clip4_1_7972)">
<path d="M68.1185 277.125V277.124H68.1251V267.497C68.1251 262.787 67.1112 259.159 61.6052 259.159C58.9584 259.159 57.1821 260.612 56.4569 261.989H56.3804V259.599H51.1599V277.124H56.5959V268.446C56.5959 266.161 57.029 263.952 59.8585 263.952C62.6465 263.952 62.688 266.559 62.688 268.593V277.125H68.1185Z" fill="#0077B5"/>
<path d="M42.308 259.6H47.7505V277.125H42.308V259.6Z" fill="#0077B5"/>
<path d="M45.0272 250.875C43.287 250.875 41.875 252.287 41.875 254.027C41.875 255.767 43.287 257.209 45.0272 257.209C46.7673 257.209 48.1794 255.767 48.1794 254.027C48.1783 252.287 46.7663 250.875 45.0272 250.875V250.875Z" fill="#0077B5"/>
</g>
<path d="M69.4565 263.576H136.522" stroke="#6241D4" stroke-width="1.5" stroke-linecap="round" stroke-linejoin="round" stroke-dasharray="4 5"/>
<path d="M101.5 469.131H206.5V442H280V405.5" stroke="#6241D4" stroke-width="2" stroke-linecap="round" stroke-linejoin="round" stroke-dasharray="4 5"/>
<path d="M419 406L419 462" stroke="#6241D4" stroke-width="2" stroke-dasharray="4 5"/>
<path d="M435 47H385V145" stroke="#6241D4" stroke-width="2" stroke-linecap="round" stroke-linejoin="round" stroke-dasharray="4 5"/>
<path d="M180 74H245.51V108.336H350V154" stroke="#6241D4" stroke-width="2" stroke-linecap="round" stroke-linejoin="round" stroke-dasharray="4 5"/>
<defs>
<filter id="filter0_d_1_7972" x="98" y="108.5" width="496" height="342" filterUnits="userSpaceOnUse" color-interpolation-filters="sRGB">
<feFlood flood-opacity="0" result="BackgroundImageFix"/>
<feColorMatrix in="SourceAlpha" type="matrix" values="0 0 0 0 0 0 0 0 0 0 0 0 0 0 0 0 0 0 127 0" result="hardAlpha"/>
<feMorphology radius="2" operator="erode" in="SourceAlpha" result="effect1_dropShadow_1_7972"/>
<feOffset dy="8"/>
<feGaussianBlur stdDeviation="20"/>
<feColorMatrix type="matrix" values="0 0 0 0 0.0235294 0 0 0 0 0.0470588 0 0 0 0 0.231373 0 0 0 0.08 0"/>
<feBlend mode="normal" in2="BackgroundImageFix" result="effect1_dropShadow_1_7972"/>
<feBlend mode="normal" in="SourceGraphic" in2="effect1_dropShadow_1_7972" result="shape"/>
</filter>
<filter id="filter1_d_1_7972" x="364" y="187.5" width="180" height="132" filterUnits="userSpaceOnUse" color-interpolation-filters="sRGB">
<feFlood flood-opacity="0" result="BackgroundImageFix"/>
<feColorMatrix in="SourceAlpha" type="matrix" values="0 0 0 0 0 0 0 0 0 0 0 0 0 0 0 0 0 0 127 0" result="hardAlpha"/>
<feOffset dy="6"/>
<feGaussianBlur stdDeviation="10"/>
<feColorMatrix type="matrix" values="0 0 0 0 0.11 0 0 0 0 0.14137 0 0 0 0 0.4125 0 0 0 0.05 0"/>
<feBlend mode="normal" in2="BackgroundImageFix" result="effect1_dropShadow_1_7972"/>
<feBlend mode="normal" in="SourceGraphic" in2="effect1_dropShadow_1_7972" result="shape"/>
</filter>
<filter id="filter2_d_1_7972" x="364" y="300.5" width="180" height="86" filterUnits="userSpaceOnUse" color-interpolation-filters="sRGB">
<feFlood flood-opacity="0" result="BackgroundImageFix"/>
<feColorMatrix in="SourceAlpha" type="matrix" values="0 0 0 0 0 0 0 0 0 0 0 0 0 0 0 0 0 0 127 0" result="hardAlpha"/>
<feOffset dy="6"/>
<feGaussianBlur stdDeviation="10"/>
<feColorMatrix type="matrix" values="0 0 0 0 0.11 0 0 0 0 0.14137 0 0 0 0 0.4125 0 0 0 0.05 0"/>
<feBlend mode="normal" in2="BackgroundImageFix" result="effect1_dropShadow_1_7972"/>
<feBlend mode="normal" in="SourceGraphic" in2="effect1_dropShadow_1_7972" result="shape"/>
</filter>
<filter id="filter3_d_1_7972" x="148" y="187.5" width="236" height="153" filterUnits="userSpaceOnUse" color-interpolation-filters="sRGB">
<feFlood flood-opacity="0" result="BackgroundImageFix"/>
<feColorMatrix in="SourceAlpha" type="matrix" values="0 0 0 0 0 0 0 0 0 0 0 0 0 0 0 0 0 0 127 0" result="hardAlpha"/>
<feOffset dy="6"/>
<feGaussianBlur stdDeviation="10"/>
<feColorMatrix type="matrix" values="0 0 0 0 0.11 0 0 0 0 0.14137 0 0 0 0 0.4125 0 0 0 0.05 0"/>
<feBlend mode="normal" in2="BackgroundImageFix" result="effect1_dropShadow_1_7972"/>
<feBlend mode="normal" in="SourceGraphic" in2="effect1_dropShadow_1_7972" result="shape"/>
</filter>
<filter id="filter4_d_1_7972" x="97" y="32" width="100" height="100" filterUnits="userSpaceOnUse" color-interpolation-filters="sRGB">
<feFlood flood-opacity="0" result="BackgroundImageFix"/>
<feColorMatrix in="SourceAlpha" type="matrix" values="0 0 0 0 0 0 0 0 0 0 0 0 0 0 0 0 0 0 127 0" result="hardAlpha"/>
<feOffset dy="6"/>
<feGaussianBlur stdDeviation="10"/>
<feColorMatrix type="matrix" values="0 0 0 0 0.11 0 0 0 0 0.14137 0 0 0 0 0.4125 0 0 0 0.05 0"/>
<feBlend mode="normal" in2="BackgroundImageFix" result="effect1_dropShadow_1_7972"/>
<feBlend mode="normal" in="SourceGraphic" in2="effect1_dropShadow_1_7972" result="shape"/>
</filter>
<filter id="filter5_d_1_7972" x="415" y="0" width="110" height="110" filterUnits="userSpaceOnUse" color-interpolation-filters="sRGB">
<feFlood flood-opacity="0" result="BackgroundImageFix"/>
<feColorMatrix in="SourceAlpha" type="matrix" values="0 0 0 0 0 0 0 0 0 0 0 0 0 0 0 0 0 0 127 0" result="hardAlpha"/>
<feOffset dy="6"/>
<feGaussianBlur stdDeviation="10"/>
<feColorMatrix type="matrix" values="0 0 0 0 0.11 0 0 0 0 0.14137 0 0 0 0 0.4125 0 0 0 0.05 0"/>
<feBlend mode="normal" in2="BackgroundImageFix" result="effect1_dropShadow_1_7972"/>
<feBlend mode="normal" in="SourceGraphic" in2="effect1_dropShadow_1_7972" result="shape"/>
</filter>
<filter id="filter6_d_1_7972" x="346" y="448" width="140" height="140" filterUnits="userSpaceOnUse" color-interpolation-filters="sRGB">
<feFlood flood-opacity="0" result="BackgroundImageFix"/>
<feColorMatrix in="SourceAlpha" type="matrix" values="0 0 0 0 0 0 0 0 0 0 0 0 0 0 0 0 0 0 127 0" result="hardAlpha"/>
<feOffset dy="6"/>
<feGaussianBlur stdDeviation="10"/>
<feColorMatrix type="matrix" values="0 0 0 0 0.11 0 0 0 0 0.14137 0 0 0 0 0.4125 0 0 0 0.05 0"/>
<feBlend mode="normal" in2="BackgroundImageFix" result="effect1_dropShadow_1_7972"/>
<feBlend mode="normal" in="SourceGraphic" in2="effect1_dropShadow_1_7972" result="shape"/>
</filter>
<filter id="filter7_d_1_7972" x="0" y="412" width="126" height="126" filterUnits="userSpaceOnUse" color-interpolation-filters="sRGB">
<feFlood flood-opacity="0" result="BackgroundImageFix"/>
<feColorMatrix in="SourceAlpha" type="matrix" values="0 0 0 0 0 0 0 0 0 0 0 0 0 0 0 0 0 0 127 0" result="hardAlpha"/>
<feOffset dy="6"/>
<feGaussianBlur stdDeviation="10"/>
<feColorMatrix type="matrix" values="0 0 0 0 0.11 0 0 0 0 0.14137 0 0 0 0 0.4125 0 0 0 0.05 0"/>
<feBlend mode="normal" in2="BackgroundImageFix" result="effect1_dropShadow_1_7972"/>
<feBlend mode="normal" in="SourceGraphic" in2="effect1_dropShadow_1_7972" result="shape"/>
</filter>
<filter id="filter8_d_1_7972" x="0" y="215" width="110" height="110" filterUnits="userSpaceOnUse" color-interpolation-filters="sRGB">
<feFlood flood-opacity="0" result="BackgroundImageFix"/>
<feColorMatrix in="SourceAlpha" type="matrix" values="0 0 0 0 0 0 0 0 0 0 0 0 0 0 0 0 0 0 127 0" result="hardAlpha"/>
<feOffset dy="6"/>
<feGaussianBlur stdDeviation="10"/>
<feColorMatrix type="matrix" values="0 0 0 0 0.11 0 0 0 0 0.14137 0 0 0 0 0.4125 0 0 0 0.05 0"/>
<feBlend mode="normal" in2="BackgroundImageFix" result="effect1_dropShadow_1_7972"/>
<feBlend mode="normal" in="SourceGraphic" in2="effect1_dropShadow_1_7972" result="shape"/>
</filter>
<linearGradient id="paint0_linear_1_7972" x1="265.5" y1="193.586" x2="265.5" y2="298.5" gradientUnits="userSpaceOnUse">
<stop stop-color="#9374FF"/>
<stop offset="1" stop-color="#9374FF" stop-opacity="0"/>
</linearGradient>
<linearGradient id="paint1_linear_1_7972" x1="44.2694" y1="487.753" x2="84.2333" y2="453.165" gradientUnits="userSpaceOnUse">
<stop stop-color="#FFDD55"/>
<stop offset="0.5" stop-color="#FF543E"/>
<stop offset="1" stop-color="#C837AB"/>
</linearGradient>
<clipPath id="clip0_1_7972">
<rect width="25.7143" height="25.7143" fill="white" transform="translate(134.143 63.1426)"/>
</clipPath>
<clipPath id="clip1_1_7972">
<rect width="35" height="35" fill="white" transform="translate(452.5 31.5)"/>
</clipPath>
<clipPath id="clip2_1_7972">
<rect width="58.3333" height="58.3333" fill="white" transform="translate(386.833 482.833)"/>
</clipPath>
<clipPath id="clip3_1_7972">
<rect width="43" height="43" fill="white" transform="translate(41.5002 447.5)"/>
</clipPath>
<clipPath id="clip4_1_7972">
<rect width="26.25" height="26.25" fill="white" transform="translate(41.875 250.875)"/>
</clipPath>
</defs>
</svg>
