<svg width="258" height="216" viewBox="0 0 258 216" fill="none" xmlns="http://www.w3.org/2000/svg">
<g filter="url(#filter0_d_1_8052)">
<rect x="50" y="42" width="170" height="128" rx="6" fill="white"/>
</g>
<rect x="111" y="151" width="16" height="6" rx="3" fill="#B4B6C4"/>
<rect x="143" y="151" width="16" height="6" rx="3" fill="#B4B6C4"/>
<rect x="175" y="151" width="16" height="6" rx="3" fill="#B4B6C4"/>
<rect x="79" y="151" width="16" height="6" rx="3" fill="#B4B6C4"/>
<rect x="79" y="105" width="16" height="36" fill="#9374FF"/>
<rect x="143" y="101" width="16" height="40" fill="#9374FF"/>
<rect x="175" y="81" width="16" height="60" fill="#FFDC60"/>
<rect x="111" y="88" width="16" height="53" fill="#FFDC60"/>
<path d="M183.64 85.4665C183.269 85.7756 182.731 85.7756 182.36 85.4665L175.244 79.5364C173.807 78.3389 174.654 76 176.524 76L189.476 76C191.346 76 192.193 78.3389 190.756 79.5364L183.64 85.4665Z" fill="#9374FF"/>
<rect x="148" y="48" width="70" height="34" rx="4" fill="#9374FF"/>
<rect opacity="0.4" x="156" y="72" width="28" height="3" rx="1.5" fill="white"/>
<path d="M161.152 56.256C160.891 57.1893 160.433 58.2907 159.78 59.56C159.127 60.82 158.534 61.7627 158.002 62.388H161.222V59.602C161.539 58.9767 161.791 58.3373 161.978 57.684H162.594V62.388H163.812V63.634H162.594V66H161.222V63.634H156.7V62.374C157.969 60.47 158.963 58.4307 159.682 56.256H161.152ZM168.995 56.256C169.583 56.256 170.12 56.396 170.605 56.676C171.1 56.956 171.492 57.3433 171.781 57.838C172.071 58.3327 172.215 58.888 172.215 59.504V62.906C172.215 63.5127 172.075 64.0633 171.795 64.558C171.515 65.0433 171.128 65.4307 170.633 65.72C170.148 66 169.602 66.14 168.995 66.14H168.813C168.197 66.14 167.642 66 167.147 65.72C166.662 65.4307 166.284 65.0387 166.013 64.544C165.743 64.0493 165.607 63.5033 165.607 62.906V59.504C165.607 58.8787 165.747 58.3187 166.027 57.824C166.317 57.3293 166.704 56.9467 167.189 56.676C167.675 56.396 168.216 56.256 168.813 56.256H168.995ZM168.911 57.502C168.37 57.502 167.913 57.684 167.539 58.048C167.166 58.4027 166.979 58.8507 166.979 59.392V63.004C166.979 63.5453 167.166 63.998 167.539 64.362C167.913 64.7167 168.37 64.894 168.911 64.894C169.471 64.894 169.933 64.712 170.297 64.348C170.661 63.984 170.843 63.536 170.843 63.004V59.392C170.843 58.86 170.661 58.412 170.297 58.048C169.933 57.684 169.471 57.502 168.911 57.502ZM181.529 56.396L175.705 66H174.725L180.577 56.396H181.529ZM175.439 56.41C175.933 56.41 176.339 56.5733 176.657 56.9C176.974 57.2173 177.133 57.6187 177.133 58.104V59.602C177.133 60.0873 176.969 60.4933 176.643 60.82C176.325 61.1373 175.924 61.296 175.439 61.296H175.341C174.855 61.296 174.449 61.1373 174.123 60.82C173.805 60.4933 173.647 60.0873 173.647 59.602V58.104C173.647 57.6187 173.805 57.2173 174.123 56.9C174.44 56.5733 174.846 56.41 175.341 56.41H175.439ZM175.397 57.18C175.135 57.18 174.925 57.2593 174.767 57.418C174.617 57.5673 174.543 57.7633 174.543 58.006V59.7C174.543 59.9427 174.617 60.1433 174.767 60.302C174.925 60.4513 175.135 60.526 175.397 60.526C175.658 60.526 175.863 60.4513 176.013 60.302C176.162 60.1433 176.237 59.9427 176.237 59.7V58.006C176.237 57.7633 176.162 57.5673 176.013 57.418C175.863 57.2593 175.658 57.18 175.397 57.18ZM180.899 61.128C181.384 61.128 181.785 61.2913 182.103 61.618C182.429 61.9353 182.593 62.3367 182.593 62.822V64.32C182.593 64.8053 182.434 65.2113 182.117 65.538C181.799 65.8553 181.393 66.014 180.899 66.014H180.801C180.306 66.014 179.9 65.8553 179.583 65.538C179.265 65.2113 179.107 64.8053 179.107 64.32V62.822C179.107 62.3367 179.265 61.9353 179.583 61.618C179.909 61.2913 180.315 61.128 180.801 61.128H180.899ZM180.857 61.898C180.595 61.898 180.385 61.9773 180.227 62.136C180.077 62.2853 180.003 62.4813 180.003 62.724V64.418C180.003 64.6607 180.077 64.8613 180.227 65.02C180.385 65.1693 180.595 65.244 180.857 65.244C181.118 65.244 181.323 65.1693 181.473 65.02C181.622 64.8613 181.697 64.6607 181.697 64.418V62.724C181.697 62.4813 181.622 62.2853 181.473 62.136C181.323 61.9773 181.118 61.898 180.857 61.898Z" fill="white"/>
<circle cx="203" cy="64" r="7" fill="white"/>
<path d="M203.513 62.2429C203.249 61.9607 202.751 61.9607 202.487 62.2429L199.867 65.0406C199.518 65.4133 199.825 65.9688 200.38 65.9688L205.62 65.9687C206.175 65.9687 206.482 65.4133 206.133 65.0406L203.513 62.2429Z" fill="#38E7B2"/>
<g filter="url(#filter1_d_1_8052)">
<rect x="34" y="14" width="58" height="58" rx="6" fill="white"/>
<path d="M28 56.5C28 56.5 35.3167 45.0142 43 43.5C50.6833 41.9857 50.1875 53 54.5 50.5C58.8125 48 60.8115 34.707 66 32C71.75 29 74.0777 43.9192 80.5 39C88.3333 33 100.5 34 100.5 34" stroke="#FFD43D" stroke-width="2" stroke-linecap="round" stroke-linejoin="round"/>
<rect x="41" y="21" width="12" height="12" rx="2" fill="#9374FF"/>
<rect opacity="0.4" x="68" y="58" width="16" height="6" rx="3" fill="#B4B6C4"/>
</g>
<g filter="url(#filter2_d_1_8052)">
<rect x="50" y="42" width="170" height="128" rx="6" fill="white"/>
</g>
<rect x="111" y="151" width="16" height="6" rx="3" fill="#B4B6C4"/>
<rect x="143" y="151" width="16" height="6" rx="3" fill="#B4B6C4"/>
<rect x="175" y="151" width="16" height="6" rx="3" fill="#B4B6C4"/>
<rect x="79" y="151" width="16" height="6" rx="3" fill="#B4B6C4"/>
<rect x="79" y="105" width="16" height="36" fill="#9374FF"/>
<rect x="143" y="101" width="16" height="40" fill="#9374FF"/>
<rect x="175" y="81" width="16" height="60" fill="#FFDC60"/>
<rect x="111" y="88" width="16" height="53" fill="#FFDC60"/>
<path d="M183.64 85.4665C183.269 85.7756 182.731 85.7756 182.36 85.4665L175.244 79.5364C173.807 78.3389 174.654 76 176.524 76L189.476 76C191.346 76 192.193 78.3389 190.756 79.5364L183.64 85.4665Z" fill="#9374FF"/>
<rect x="148" y="48" width="70" height="34" rx="4" fill="#9374FF"/>
<rect opacity="0.4" x="156" y="72" width="28" height="3" rx="1.5" fill="white"/>
<path d="M161.222 66V63.55H156.686V62.402C156.807 62.2153 156.966 61.9493 157.162 61.604C157.358 61.2587 157.568 60.862 157.792 60.414C158.025 59.966 158.254 59.4993 158.478 59.014C158.702 58.5193 158.912 58.034 159.108 57.558C159.313 57.082 159.481 56.648 159.612 56.256H160.956C160.844 56.676 160.69 57.1287 160.494 57.614C160.298 58.09 160.083 58.5707 159.85 59.056C159.626 59.532 159.388 59.9893 159.136 60.428C158.893 60.8667 158.66 61.2587 158.436 61.604C158.212 61.94 158.007 62.2107 157.82 62.416H161.222V59.546C161.287 59.4433 161.357 59.3127 161.432 59.154C161.516 58.986 161.595 58.818 161.67 58.65C161.754 58.4727 161.829 58.3047 161.894 58.146C161.969 57.978 162.02 57.8333 162.048 57.712H162.622V62.416H163.84V63.55H162.622V66H161.222ZM168.785 66.14C168.188 66.14 167.647 66.0047 167.161 65.734C166.676 65.454 166.289 65.0713 165.999 64.586C165.719 64.1007 165.579 63.5407 165.579 62.906V59.49C165.579 58.8553 165.719 58.2953 165.999 57.81C166.289 57.3247 166.676 56.9467 167.161 56.676C167.647 56.396 168.188 56.256 168.785 56.256H169.051C169.658 56.256 170.199 56.396 170.675 56.676C171.161 56.9467 171.543 57.3247 171.823 57.81C172.103 58.2953 172.243 58.8553 172.243 59.49V62.906C172.243 63.5407 172.103 64.1007 171.823 64.586C171.543 65.0713 171.161 65.454 170.675 65.734C170.199 66.0047 169.658 66.14 169.051 66.14H168.785ZM168.911 65.02C169.275 65.02 169.602 64.936 169.891 64.768C170.181 64.5907 170.405 64.3573 170.563 64.068C170.731 63.7787 170.815 63.452 170.815 63.088V59.308C170.815 58.9347 170.731 58.6033 170.563 58.314C170.405 58.0247 170.181 57.796 169.891 57.628C169.602 57.46 169.275 57.376 168.911 57.376C168.547 57.376 168.221 57.46 167.931 57.628C167.651 57.796 167.427 58.0247 167.259 58.314C167.091 58.6033 167.007 58.9347 167.007 59.308V63.088C167.007 63.452 167.091 63.7787 167.259 64.068C167.427 64.3573 167.651 64.5907 167.931 64.768C168.221 64.936 168.547 65.02 168.911 65.02ZM174.753 66L180.591 56.396H181.585L175.761 66H174.753ZM175.355 61.296C175.028 61.296 174.739 61.2213 174.487 61.072C174.235 60.9133 174.034 60.7033 173.885 60.442C173.745 60.1807 173.675 59.896 173.675 59.588V58.09C173.675 57.782 173.745 57.502 173.885 57.25C174.034 56.9887 174.235 56.7833 174.487 56.634C174.739 56.4753 175.028 56.396 175.355 56.396H175.481C175.826 56.396 176.12 56.4753 176.363 56.634C176.615 56.7833 176.811 56.9887 176.951 57.25C177.1 57.502 177.175 57.782 177.175 58.09V59.588C177.175 59.896 177.1 60.1807 176.951 60.442C176.811 60.7033 176.615 60.9133 176.363 61.072C176.12 61.2213 175.831 61.296 175.495 61.296H175.355ZM175.425 60.526C175.695 60.526 175.901 60.4467 176.041 60.288C176.181 60.1293 176.251 59.9287 176.251 59.686V57.992C176.251 57.7587 176.181 57.5627 176.041 57.404C175.901 57.2453 175.695 57.166 175.425 57.166C175.173 57.166 174.972 57.2453 174.823 57.404C174.673 57.5627 174.599 57.7587 174.599 57.992V59.686C174.599 59.9287 174.673 60.1293 174.823 60.288C174.972 60.4467 175.173 60.526 175.425 60.526ZM180.815 66.014C180.488 66.014 180.199 65.9393 179.947 65.79C179.695 65.6313 179.494 65.4213 179.345 65.16C179.205 64.8987 179.135 64.614 179.135 64.306V62.808C179.135 62.5 179.205 62.22 179.345 61.968C179.494 61.7067 179.695 61.5013 179.947 61.352C180.199 61.1933 180.488 61.114 180.815 61.114H180.941C181.286 61.114 181.58 61.1933 181.823 61.352C182.075 61.5013 182.271 61.7067 182.411 61.968C182.56 62.22 182.635 62.5 182.635 62.808V64.306C182.635 64.614 182.56 64.8987 182.411 65.16C182.271 65.4213 182.075 65.6313 181.823 65.79C181.58 65.9393 181.291 66.014 180.955 66.014H180.815ZM180.885 65.244C181.155 65.244 181.361 65.1647 181.501 65.006C181.641 64.838 181.711 64.6373 181.711 64.404V62.71C181.711 62.4767 181.641 62.2807 181.501 62.122C181.361 61.9633 181.155 61.884 180.885 61.884C180.633 61.884 180.432 61.9633 180.283 62.122C180.133 62.2807 180.059 62.4767 180.059 62.71V64.404C180.059 64.6373 180.133 64.838 180.283 65.006C180.432 65.1647 180.633 65.244 180.885 65.244Z" fill="white"/>
<circle cx="203" cy="64" r="7" fill="white"/>
<path d="M203.513 62.2429C203.249 61.9607 202.751 61.9607 202.487 62.2429L199.867 65.0406C199.518 65.4133 199.825 65.9688 200.38 65.9688L205.62 65.9687C206.175 65.9687 206.482 65.4133 206.133 65.0406L203.513 62.2429Z" fill="#38E7B2"/>
<g filter="url(#filter3_d_1_8052)">
<rect x="34" y="14" width="58" height="58" rx="6" fill="white"/>
<path d="M28 55.5975C28 55.5975 35.2663 44.528 42.8966 43.0686C50.5268 41.6093 50.0345 52.2243 54.3172 49.8149C58.6 47.4055 60.5852 34.5943 65.7379 31.9854C71.4483 29.0941 73.7599 43.4726 80.1379 38.7317C87.9172 32.9491 100 33.9129 100 33.9129" stroke="#FFD43D" stroke-width="2" stroke-linecap="round" stroke-linejoin="round"/>
<rect x="41" y="21" width="12" height="12" rx="2" fill="#9374FF"/>
<rect opacity="0.4" x="68" y="58" width="16" height="6" rx="3" fill="#B4B6C4"/>
</g>
<defs>
<filter id="filter0_d_1_8052" x="12" y="12" width="246" height="204" filterUnits="userSpaceOnUse" color-interpolation-filters="sRGB">
<feFlood flood-opacity="0" result="BackgroundImageFix"/>
<feColorMatrix in="SourceAlpha" type="matrix" values="0 0 0 0 0 0 0 0 0 0 0 0 0 0 0 0 0 0 127 0" result="hardAlpha"/>
<feMorphology radius="2" operator="erode" in="SourceAlpha" result="effect1_dropShadow_1_8052"/>
<feOffset dy="8"/>
<feGaussianBlur stdDeviation="20"/>
<feColorMatrix type="matrix" values="0 0 0 0 0.0235294 0 0 0 0 0.0470588 0 0 0 0 0.231373 0 0 0 0.08 0"/>
<feBlend mode="normal" in2="BackgroundImageFix" result="effect1_dropShadow_1_8052"/>
<feBlend mode="normal" in="SourceGraphic" in2="effect1_dropShadow_1_8052" result="shape"/>
</filter>
<filter id="filter1_d_1_8052" x="6.99988" y="0" width="114.5" height="98" filterUnits="userSpaceOnUse" color-interpolation-filters="sRGB">
<feFlood flood-opacity="0" result="BackgroundImageFix"/>
<feColorMatrix in="SourceAlpha" type="matrix" values="0 0 0 0 0 0 0 0 0 0 0 0 0 0 0 0 0 0 127 0" result="hardAlpha"/>
<feOffset dy="6"/>
<feGaussianBlur stdDeviation="10"/>
<feColorMatrix type="matrix" values="0 0 0 0 0.11 0 0 0 0 0.14137 0 0 0 0 0.4125 0 0 0 0.05 0"/>
<feBlend mode="normal" in2="BackgroundImageFix" result="effect1_dropShadow_1_8052"/>
<feBlend mode="normal" in="SourceGraphic" in2="effect1_dropShadow_1_8052" result="shape"/>
</filter>
<filter id="filter2_d_1_8052" x="12" y="12" width="246" height="204" filterUnits="userSpaceOnUse" color-interpolation-filters="sRGB">
<feFlood flood-opacity="0" result="BackgroundImageFix"/>
<feColorMatrix in="SourceAlpha" type="matrix" values="0 0 0 0 0 0 0 0 0 0 0 0 0 0 0 0 0 0 127 0" result="hardAlpha"/>
<feMorphology radius="2" operator="erode" in="SourceAlpha" result="effect1_dropShadow_1_8052"/>
<feOffset dy="8"/>
<feGaussianBlur stdDeviation="20"/>
<feColorMatrix type="matrix" values="0 0 0 0 0.0235294 0 0 0 0 0.0470588 0 0 0 0 0.231373 0 0 0 0.08 0"/>
<feBlend mode="normal" in2="BackgroundImageFix" result="effect1_dropShadow_1_8052"/>
<feBlend mode="normal" in="SourceGraphic" in2="effect1_dropShadow_1_8052" result="shape"/>
</filter>
<filter id="filter3_d_1_8052" x="6.99988" y="0" width="114" height="98" filterUnits="userSpaceOnUse" color-interpolation-filters="sRGB">
<feFlood flood-opacity="0" result="BackgroundImageFix"/>
<feColorMatrix in="SourceAlpha" type="matrix" values="0 0 0 0 0 0 0 0 0 0 0 0 0 0 0 0 0 0 127 0" result="hardAlpha"/>
<feOffset dy="6"/>
<feGaussianBlur stdDeviation="10"/>
<feColorMatrix type="matrix" values="0 0 0 0 0.11 0 0 0 0 0.14137 0 0 0 0 0.4125 0 0 0 0.05 0"/>
<feBlend mode="normal" in2="BackgroundImageFix" result="effect1_dropShadow_1_8052"/>
<feBlend mode="normal" in="SourceGraphic" in2="effect1_dropShadow_1_8052" result="shape"/>
</filter>
</defs>
</svg>
