<svg width="40" height="40" viewBox="0 0 40 40" fill="none" xmlns="http://www.w3.org/2000/svg">
<path d="M20 18.285L34.8554 9.71094C34.8554 9.71094 35.3814 10.1286 35.7952 10.8462C36.2091 11.5638 36.3828 12.2968 36.3828 12.2968L21.4999 20.883V37.918C21.4999 37.918 20.6815 38.1055 19.853 38.1055C19.0246 38.1055 18.4999 37.9258 18.4999 37.9258V20.883L3.61911 12.3004C3.61911 11.7134 4.64203 10.1542 5.14005 9.71436L20 18.285Z" fill="#FFDC60"/>
<path fill-rule="evenodd" clip-rule="evenodd" d="M20 1.83667C19.1528 1.83667 18.3205 2.05936 17.5865 2.4824L5.92245 9.14754L5.91667 9.15088C5.63732 9.31216 5.37598 9.50032 5.13602 9.71199L20 18.2849L34.864 9.71199C34.624 9.50031 34.3627 9.31215 34.0833 9.15087L22.4167 2.48421L22.4134 2.48233C21.6794 2.05934 20.8472 1.83667 20 1.83667ZM36.3868 12.2969L21.4999 20.883V37.9245C21.8164 37.8212 22.1226 37.6851 22.4134 37.5175L22.4167 37.5156L34.0775 30.8523L34.0833 30.849C34.8174 30.4252 35.427 29.8158 35.8512 29.082C36.2754 28.3482 36.4991 27.5157 36.5 26.6681L36.5 26.6666V13.3333L36.5 13.3317C36.4996 12.9822 36.4614 12.6354 36.3868 12.2969ZM18.4999 37.9245V20.883L3.61317 12.2969C3.5386 12.6354 3.50036 12.9822 3.5 13.3317V26.6681C3.50087 27.5157 3.72461 28.3482 4.14878 29.082C4.57295 29.8158 5.18263 30.4252 5.91667 30.849L5.92246 30.8523L17.5833 37.5156L17.5864 37.5174C17.8772 37.685 18.1835 37.8212 18.4999 37.9245Z" fill="#9374FF"/>
</svg>
