<svg width="256" height="221" viewBox="0 0 256 221" fill="none" xmlns="http://www.w3.org/2000/svg">
<g filter="url(#filter0_d_1_4426)">
<rect x="38" y="47" width="170" height="128" rx="8" fill="white"/>
</g>
<rect x="176" y="114" width="50" height="50" rx="6" fill="#9374FF"/>
<path fill-rule="evenodd" clip-rule="evenodd" d="M200.886 129H205.925C208.445 129 210.5 131 210.5 133.44V144.56C210.5 147.01 208.445 149 205.905 149H200.876C198.356 149 196.291 147.01 196.291 144.57V139.77H202.693L201.041 141.37C200.731 141.67 200.731 142.16 201.041 142.46C201.196 142.61 201.402 142.68 201.609 142.68C201.805 142.68 202.012 142.61 202.167 142.46L205.182 139.55C205.337 139.41 205.419 139.21 205.419 139C205.419 138.8 205.337 138.6 205.182 138.46L202.167 135.55C201.857 135.25 201.351 135.25 201.041 135.55C200.731 135.85 200.731 136.34 201.041 136.64L202.693 138.23H196.291V133.45C196.291 131 198.356 129 200.886 129ZM191.5 139C191.5 138.58 191.855 138.23 192.282 138.23H196.291V139.77H192.282C191.855 139.77 191.5 139.43 191.5 139Z" fill="white"/>
<g filter="url(#filter1_d_1_4426)">
<rect x="58" y="67" width="40" height="40" rx="6" fill="#FFDC60"/>
</g>
<path fill-rule="evenodd" clip-rule="evenodd" d="M82.4117 83.0758C82.4117 85.5234 80.4493 87.4859 78 87.4859C75.5516 87.4859 73.5884 85.5234 73.5884 83.0758C73.5884 80.6283 75.5516 78.6666 78 78.6666C80.4493 78.6666 82.4117 80.6283 82.4117 83.0758ZM78 95.3333C74.3854 95.3333 71.3334 94.7458 71.3334 92.4791C71.3334 90.2116 74.4045 89.6449 78 89.6449C81.6156 89.6449 84.6667 90.2324 84.6667 92.4991C84.6667 94.7666 81.5956 95.3333 78 95.3333Z" fill="white"/>
<g filter="url(#filter2_d_1_4426)">
<rect x="123" y="18" width="96" height="30" rx="6" fill="#9374FF"/>
</g>
<rect x="133" y="30" width="76" height="6" rx="3" fill="white"/>
<g filter="url(#filter3_d_1_4426)">
<rect x="123" y="68" width="96" height="30" rx="6" fill="white"/>
</g>
<rect x="132" y="80" width="78" height="6" rx="3" fill="#B4B6C4"/>
<g filter="url(#filter4_d_1_4426)">
<rect x="58" y="125" width="96" height="30" rx="6" fill="white"/>
</g>
<rect x="67" y="137" width="78" height="6" rx="3" fill="#B4B6C4"/>
<defs>
<filter id="filter0_d_1_4426" x="0" y="17" width="246" height="204" filterUnits="userSpaceOnUse" color-interpolation-filters="sRGB">
<feFlood flood-opacity="0" result="BackgroundImageFix"/>
<feColorMatrix in="SourceAlpha" type="matrix" values="0 0 0 0 0 0 0 0 0 0 0 0 0 0 0 0 0 0 127 0" result="hardAlpha"/>
<feMorphology radius="2" operator="erode" in="SourceAlpha" result="effect1_dropShadow_1_4426"/>
<feOffset dy="8"/>
<feGaussianBlur stdDeviation="20"/>
<feColorMatrix type="matrix" values="0 0 0 0 0.0235294 0 0 0 0 0.0470588 0 0 0 0 0.231373 0 0 0 0.08 0"/>
<feBlend mode="normal" in2="BackgroundImageFix" result="effect1_dropShadow_1_4426"/>
<feBlend mode="normal" in="SourceGraphic" in2="effect1_dropShadow_1_4426" result="shape"/>
</filter>
<filter id="filter1_d_1_4426" x="38" y="53" width="80" height="80" filterUnits="userSpaceOnUse" color-interpolation-filters="sRGB">
<feFlood flood-opacity="0" result="BackgroundImageFix"/>
<feColorMatrix in="SourceAlpha" type="matrix" values="0 0 0 0 0 0 0 0 0 0 0 0 0 0 0 0 0 0 127 0" result="hardAlpha"/>
<feOffset dy="6"/>
<feGaussianBlur stdDeviation="10"/>
<feColorMatrix type="matrix" values="0 0 0 0 0.11 0 0 0 0 0.14137 0 0 0 0 0.4125 0 0 0 0.05 0"/>
<feBlend mode="normal" in2="BackgroundImageFix" result="effect1_dropShadow_1_4426"/>
<feBlend mode="normal" in="SourceGraphic" in2="effect1_dropShadow_1_4426" result="shape"/>
</filter>
<filter id="filter2_d_1_4426" x="103" y="4" width="136" height="70" filterUnits="userSpaceOnUse" color-interpolation-filters="sRGB">
<feFlood flood-opacity="0" result="BackgroundImageFix"/>
<feColorMatrix in="SourceAlpha" type="matrix" values="0 0 0 0 0 0 0 0 0 0 0 0 0 0 0 0 0 0 127 0" result="hardAlpha"/>
<feOffset dy="6"/>
<feGaussianBlur stdDeviation="10"/>
<feColorMatrix type="matrix" values="0 0 0 0 0.11 0 0 0 0 0.14137 0 0 0 0 0.4125 0 0 0 0.05 0"/>
<feBlend mode="normal" in2="BackgroundImageFix" result="effect1_dropShadow_1_4426"/>
<feBlend mode="normal" in="SourceGraphic" in2="effect1_dropShadow_1_4426" result="shape"/>
</filter>
<filter id="filter3_d_1_4426" x="103" y="54" width="136" height="70" filterUnits="userSpaceOnUse" color-interpolation-filters="sRGB">
<feFlood flood-opacity="0" result="BackgroundImageFix"/>
<feColorMatrix in="SourceAlpha" type="matrix" values="0 0 0 0 0 0 0 0 0 0 0 0 0 0 0 0 0 0 127 0" result="hardAlpha"/>
<feOffset dy="6"/>
<feGaussianBlur stdDeviation="10"/>
<feColorMatrix type="matrix" values="0 0 0 0 0.11 0 0 0 0 0.14137 0 0 0 0 0.4125 0 0 0 0.05 0"/>
<feBlend mode="normal" in2="BackgroundImageFix" result="effect1_dropShadow_1_4426"/>
<feBlend mode="normal" in="SourceGraphic" in2="effect1_dropShadow_1_4426" result="shape"/>
</filter>
<filter id="filter4_d_1_4426" x="38" y="111" width="136" height="70" filterUnits="userSpaceOnUse" color-interpolation-filters="sRGB">
<feFlood flood-opacity="0" result="BackgroundImageFix"/>
<feColorMatrix in="SourceAlpha" type="matrix" values="0 0 0 0 0 0 0 0 0 0 0 0 0 0 0 0 0 0 127 0" result="hardAlpha"/>
<feOffset dy="6"/>
<feGaussianBlur stdDeviation="10"/>
<feColorMatrix type="matrix" values="0 0 0 0 0.11 0 0 0 0 0.14137 0 0 0 0 0.4125 0 0 0 0.05 0"/>
<feBlend mode="normal" in2="BackgroundImageFix" result="effect1_dropShadow_1_4426"/>
<feBlend mode="normal" in="SourceGraphic" in2="effect1_dropShadow_1_4426" result="shape"/>
</filter>
</defs>
</svg>
