<svg width="137" height="82" viewBox="0 0 137 82" fill="none" xmlns="http://www.w3.org/2000/svg">
<g clip-path="url(#clip0_1_3541)">
<path fill-rule="evenodd" clip-rule="evenodd" d="M65.5771 5.65086C65.5669 5.74268 65.5342 5.81117 65.4518 5.82939C65.5342 5.8753 65.6165 5.97367 65.5771 6.10775C65.5116 6.16094 65.3665 6.2178 65.4132 6.34532C65.4307 6.39196 65.47 6.41745 65.5108 6.44659C65.6813 6.3934 65.7921 6.50782 65.8635 6.59964C66.0151 6.54717 66.2104 6.59307 66.3234 6.65136C66.3306 6.77743 66.4006 6.83938 66.4618 6.91006C66.738 6.90277 66.9267 7.01426 67.103 7.11628C67.1854 7.08567 67.286 7.02737 67.2561 6.91807C67.2481 6.88236 67.2269 6.86342 67.2087 6.83063C67.2809 6.68124 67.4397 6.55736 67.6787 6.54715C67.7494 6.5457 67.8536 6.55446 67.8842 6.59308C67.9097 6.62368 67.9083 6.69072 67.8777 6.71841C68.0198 6.74027 68.1546 6.77014 68.296 6.792C68.2413 6.81532 68.1742 6.82626 68.1116 6.84083C68.3032 6.84375 68.5605 6.82553 68.6829 6.91006C68.7062 6.92682 68.7295 6.94648 68.7252 6.98365C68.8315 6.95159 68.9613 6.94941 69.0487 7.00115C69.0589 7.00625 69.0771 7.02519 69.08 7.02519C69.0895 7.02519 69.1653 6.9771 69.1813 6.96982C69.2644 6.93265 69.3191 6.91515 69.4145 6.88965C69.4531 6.87945 69.5071 6.85614 69.5399 6.8576C69.5741 6.86052 69.6178 6.89549 69.6659 6.91006C69.8037 6.95451 69.9712 6.9669 70.1221 6.91006C70.2328 7.08349 70.2773 7.46825 70.1367 7.64241C69.953 7.54404 69.8503 7.36623 69.7395 7.19571C69.7162 7.21466 69.7038 7.24455 69.6878 7.26932C69.722 7.32543 69.7432 7.3932 69.7811 7.45076C69.808 7.49084 69.8445 7.52217 69.8721 7.56298C69.9508 7.67447 70.0376 7.80418 70.1017 7.93316C70.1877 8.10513 70.2678 8.30116 70.4434 8.38933C70.4507 8.51321 70.4595 8.63637 70.4828 8.74494C70.595 8.76462 70.6686 8.82291 70.7407 8.89505C70.7648 8.9191 70.7932 8.94388 70.8027 8.96793C70.818 9.00582 70.818 9.05973 70.8238 9.10418C70.8428 9.23972 70.8581 9.37672 70.8792 9.51299C70.9674 9.58076 71.0694 9.6347 71.1627 9.69737C71.2377 9.87298 71.3033 10.0165 71.3988 10.1761C71.4257 10.2198 71.4571 10.2847 71.4972 10.3153C71.5292 10.3415 71.5795 10.3576 71.6189 10.378C71.8462 10.5004 72.0816 10.6505 72.2361 10.8589C72.2586 10.8903 72.3009 10.9493 72.3024 10.9748C72.3031 10.9966 72.2565 11.0345 72.2361 11.0542C72.2076 11.0834 72.1807 11.1052 72.1596 11.1307C72.3774 11.0753 72.4969 11.2451 72.5851 11.3646C72.6704 11.2991 72.8387 11.2094 72.9713 11.2881C73.0311 11.2575 73.0835 11.2211 73.1389 11.1868C73.4326 11.2138 73.6395 11.0943 73.829 10.9952C73.8487 11.028 73.8902 11.0527 73.8982 11.0892C73.9106 11.1365 73.9004 11.2196 73.8961 11.2816C73.864 11.6933 73.7139 12.0263 73.5536 12.3069C73.359 12.645 73.1185 12.9299 72.87 13.1828C72.4896 13.2724 72.2237 13.5216 72.0204 13.7898C71.9912 13.8284 71.9694 13.875 71.9358 13.9122C71.9358 13.9122 71.9315 13.9173 71.9293 13.918C71.6473 14.1308 71.4083 14.4194 71.2771 14.8041C71.2618 14.8493 71.2217 14.9418 71.229 14.9717C71.2334 14.9907 71.2734 15.0023 71.2982 15.0278C71.3317 15.0577 71.3609 15.1036 71.3689 15.1524C71.3849 15.2741 71.323 15.3499 71.2676 15.425C71.3441 15.5073 71.4024 15.6086 71.3966 15.774C71.4651 15.8134 71.5926 15.8564 71.5846 15.962C71.581 16.0116 71.5489 16.0305 71.5219 16.0633C71.5227 16.2455 71.5329 16.4269 71.5329 16.6113C71.5329 16.6718 71.5423 16.7359 71.5358 16.7928C71.5168 16.9706 71.3587 17.1025 71.2326 17.1833C71.0891 17.2759 70.9207 17.332 70.7415 17.3823C70.6868 17.4909 70.6096 17.5841 70.4835 17.6439C70.3771 17.6927 70.2314 17.7619 70.1869 17.8639C70.1782 17.8822 70.1724 17.9062 70.176 17.9339C70.1818 17.9791 70.2132 17.9878 70.2278 18.017C70.2474 18.0549 70.2511 18.1124 70.2598 18.1598C70.3232 18.4921 70.2511 18.785 69.9917 18.8754C69.9479 18.89 69.9027 18.8878 69.8452 18.8994C69.7329 18.922 69.671 19.0073 69.6215 19.0991C69.6951 19.1938 69.6769 19.3454 69.6251 19.4686C69.5778 19.583 69.5333 19.6493 69.448 19.7127C69.3956 19.752 69.3446 19.787 69.2914 19.8278C69.2659 19.846 69.2338 19.8635 69.2141 19.8832C69.1952 19.9043 69.1799 19.9371 69.1631 19.9633C68.9773 20.241 68.7485 20.5011 68.4446 20.6717C68.3331 20.7343 68.1939 20.7904 68.0438 20.7904C67.9527 20.7904 67.8718 20.7598 67.7822 20.7489C67.4885 20.7125 67.2204 20.781 67.0156 20.8779C66.8444 20.8597 66.7402 20.7737 66.6775 20.6338C66.66 20.5951 66.6272 20.5288 66.6316 20.488C66.6345 20.4574 66.6753 20.4275 66.687 20.3969C66.7307 20.2854 66.6498 20.1907 66.5791 20.1455C66.542 19.9954 66.4662 19.8541 66.3977 19.72C66.3765 19.6762 66.3539 19.6267 66.3284 19.5866C66.3015 19.5465 66.2599 19.5145 66.2301 19.4795C66.0778 19.2929 65.9823 19.0554 65.9517 18.7399C65.9459 18.6801 65.9379 18.6123 65.9415 18.5482C65.9444 18.4834 65.9553 18.4207 65.9415 18.3587C65.8956 18.162 65.7695 17.9667 65.6763 17.8078C65.6063 17.6883 65.5218 17.5593 65.4394 17.4347C65.4132 17.3961 65.3658 17.3473 65.3593 17.3131C65.3498 17.2715 65.3615 17.2096 65.3615 17.1593C65.368 16.8343 65.4044 16.4721 65.5713 16.2936C65.6282 16.2331 65.6872 16.1967 65.7222 16.1333C65.7593 16.064 65.752 15.9496 65.736 15.868C65.7032 15.6997 65.6406 15.5714 65.5691 15.4213C65.5757 15.3805 65.6442 15.371 65.6558 15.3302C65.6631 15.3025 65.6508 15.237 65.642 15.1947C65.6172 15.0737 65.5691 14.9681 65.5196 14.8734C65.317 14.4893 65.0248 14.168 64.7421 13.883C64.7289 13.7963 64.7034 13.7227 64.6801 13.6455C64.7384 13.5588 64.7865 13.4589 64.7952 13.3212C64.7982 13.2782 64.7814 13.2323 64.785 13.1849C64.7858 13.1594 64.8156 13.1296 64.8295 13.1004C64.8725 13.021 64.9118 12.9015 64.8827 12.7761C64.8492 12.6391 64.7603 12.5539 64.6561 12.473C64.5584 12.4956 64.4433 12.5226 64.3274 12.5393C64.2203 12.5546 64.068 12.5743 63.9893 12.5152C63.9405 12.1677 63.6264 12.062 63.23 12.1247C62.8919 12.1764 62.6055 12.3068 62.3483 12.4315C62.2688 12.3753 62.1683 12.3425 62.048 12.3265C61.7019 12.2821 61.3375 12.363 61.0541 12.4387C61.0249 12.446 60.9892 12.4606 60.9747 12.4599C60.9484 12.4577 60.8661 12.3892 60.842 12.3724C60.5418 12.1611 60.2503 11.9483 59.953 11.7414C59.851 11.2364 59.6564 10.8239 59.2491 10.6243C59.2855 10.5201 59.3241 10.418 59.3635 10.3167C59.3154 10.222 59.2578 10.136 59.2104 10.042C59.3474 9.84893 59.4604 9.65874 59.5384 9.41754C59.6054 9.20767 59.647 8.92566 59.577 8.69102C59.569 8.66478 59.5464 8.62909 59.5464 8.60431C59.5464 8.57662 59.577 8.52341 59.5952 8.49281C59.7264 8.25598 59.9122 8.08035 60.1104 7.91056C60.1826 7.72256 60.2736 7.55277 60.4944 7.51196C60.5243 7.40922 60.587 7.32395 60.662 7.254C60.6861 7.23141 60.713 7.20226 60.7378 7.19133C60.7699 7.17749 60.81 7.17312 60.8428 7.16365C61.0767 7.09442 61.2581 6.96618 61.4075 6.80441C61.3944 6.56685 61.5037 6.4211 61.6101 6.29139C61.8425 6.22872 62.0196 6.11067 62.2032 5.99845C62.2615 5.86218 62.3483 5.75433 62.4787 5.68802C62.5946 5.78494 62.682 5.86363 62.8474 5.89424C62.9793 5.91829 63.1134 5.89571 63.2161 5.85272C63.2475 5.83887 63.2795 5.80971 63.3109 5.80388C63.3823 5.78931 63.4697 5.81773 63.5346 5.80388C63.5659 5.79733 63.6024 5.76454 63.6388 5.74778C63.8763 5.64066 64.2852 5.60713 64.5635 5.72736C64.7056 5.65595 64.9833 5.61661 65.1283 5.71353C65.2128 5.62171 65.4343 5.57799 65.5771 5.65086Z" fill="#4DAF4E"/>
<path d="M32.8806 17.2695H35.8494V38.4726H32.8806V36.7901C32.3516 37.5377 31.7344 38.0945 31.0275 38.4588C30.3207 38.8232 29.5111 39.0061 28.5995 39.0061C26.7668 39.0061 25.3232 38.3794 24.2703 37.1253C23.2173 35.8712 22.6904 34.1543 22.6904 31.9748C22.6904 29.9053 23.2282 28.2336 24.3045 26.9613C25.3808 25.689 26.785 25.0528 28.5179 25.0528C29.5752 25.0528 30.481 25.2743 31.233 25.7167C31.9851 26.159 32.5345 26.7952 32.8814 27.6252V17.2695H32.8806ZM32.9637 31.9471C32.9637 30.607 32.6511 29.5628 32.0266 28.8144C31.4021 28.0667 30.5284 27.6929 29.4069 27.6929C28.2847 27.6929 27.403 28.0784 26.7603 28.8486C26.1175 29.6196 25.7954 30.6879 25.7954 32.0564C25.7954 33.4337 26.1051 34.4961 26.7253 35.2438C27.3454 35.9914 28.2206 36.3652 29.3515 36.3652C30.4278 36.3652 31.2979 35.9615 31.9639 35.1549C32.63 34.3475 32.9637 33.2792 32.9637 31.9471Z" fill="url(#paint0_linear_1_3541)"/>
<path d="M42.8262 25.5049V32.8094C42.8262 34.0686 43.0863 34.9708 43.6059 35.518C44.1255 36.0653 44.9693 36.3385 46.1367 36.3385C47.3041 36.3385 48.1472 36.0653 48.6675 35.518C49.1878 34.9708 49.4472 34.0679 49.4472 32.8094V25.5049H52.4152V31.9204C52.4152 34.4009 51.9182 36.2023 50.9243 37.3237C49.9303 38.4459 48.3432 39.0063 46.1644 39.0063C43.9484 39.0063 42.3431 38.4503 41.3498 37.3376C40.3559 36.2249 39.8589 34.4198 39.8589 31.9204V25.5049H42.8262Z" fill="url(#paint1_linear_1_3541)"/>
<path d="M68.6248 38.473H65.656V36.7905C65.127 37.5381 64.5091 38.0949 63.8029 38.4592C63.0968 38.8236 62.2865 39.0064 61.3749 39.0064C59.5415 39.0064 58.0986 38.3798 57.0457 37.1257C55.9927 35.8716 55.4658 34.1547 55.4658 31.9752C55.4658 29.9057 56.0036 28.234 57.0799 26.9617C58.1562 25.6894 59.5604 25.0532 61.2925 25.0532C62.3506 25.0532 63.2557 25.2747 64.0077 25.7171C64.7605 26.1594 65.3099 26.7956 65.656 27.6255V25.505H68.6248V38.473ZM65.7384 31.9475C65.7384 30.6074 65.4258 29.5632 64.8013 28.8148C64.1768 28.0671 63.3038 27.6933 62.1816 27.6933C61.0601 27.6933 60.1776 28.0788 59.5349 28.849C58.8922 29.6193 58.5708 30.6883 58.5708 32.0568C58.5708 33.4341 58.8805 34.4965 59.5007 35.2441C60.1208 35.9918 60.996 36.3656 62.1269 36.3656C63.1938 36.3656 64.0624 35.9598 64.7328 35.1487C65.4032 34.3369 65.7384 33.2701 65.7384 31.9475Z" fill="url(#paint2_linear_1_3541)"/>
<path d="M72.4692 19.8959C72.4692 19.3945 72.6536 18.9616 73.0231 18.5966C73.3925 18.2322 73.8319 18.0493 74.3435 18.0493C74.8725 18.0493 75.3119 18.2249 75.6639 18.5762C76.0144 18.9274 76.1907 19.3675 76.1907 19.8966C76.1907 20.4256 76.0129 20.8701 75.6573 21.2308C75.3024 21.5915 74.8638 21.7708 74.3442 21.7708C73.8334 21.7708 73.3932 21.5864 73.0238 21.217C72.6536 20.8468 72.4692 20.4067 72.4692 19.8959ZM72.8657 38.4727V25.5047H75.8337V38.4727H72.8657Z" fill="url(#paint3_linear_1_3541)"/>
<path d="M89.3071 17.2695H92.2759V38.4726H89.3071V36.7901C88.7781 37.5377 88.1609 38.0945 87.454 38.4588C86.7465 38.8232 85.9376 39.0061 85.026 39.0061C83.1926 39.0061 81.7498 38.3794 80.6968 37.1253C79.6438 35.8712 79.1162 34.1543 79.1162 31.9748C79.1162 29.9053 79.6547 28.2336 80.731 26.9613C81.8073 25.689 83.2115 25.0528 84.9436 25.0528C86.0017 25.0528 86.9068 25.2743 87.6595 25.7167C88.4123 26.159 88.961 26.7952 89.3079 27.6252V17.2695H89.3071ZM89.3902 31.9471C89.3902 30.607 89.0776 29.5628 88.4531 28.8144C87.8286 28.0667 86.9549 27.6929 85.8334 27.6929C84.7119 27.6929 83.8295 28.0784 83.1868 28.8486C82.5433 29.6196 82.2219 30.6879 82.2219 32.0564C82.2219 33.4337 82.5324 34.4961 83.1518 35.2438C83.7719 35.9914 84.6478 36.3652 85.778 36.3652C86.8543 36.3652 87.7251 35.9615 88.3904 35.1549C89.0572 34.3475 89.3902 33.2792 89.3902 31.9471Z" fill="url(#paint4_linear_1_3541)"/>
<path d="M75.8132 63.1743L73.5425 58.0173H65.6084L63.2831 63.1743H59.8633L69.5616 42.3545L79.2468 63.1743H75.8132ZM66.8122 55.308H72.3934L70.3421 50.739C70.2233 50.4475 70.1001 50.1123 69.9726 49.7341C69.8444 49.3552 69.7168 48.934 69.5901 48.4683C69.4807 48.9063 69.3642 49.3144 69.241 49.6926C69.1178 50.0715 68.9918 50.4205 68.8643 50.739L66.8122 55.308Z" fill="url(#paint5_linear_1_3541)"/>
<path d="M81.2985 63.1743V52.8056H79.0278V50.207H81.2985V46.7318C81.2985 45.0084 81.6563 43.7361 82.3726 42.9149C83.0882 42.0943 84.1987 41.6841 85.7035 41.6841C86.0227 41.6841 86.3513 41.7067 86.6887 41.7526C87.0261 41.7985 87.3679 41.8713 87.7147 41.9712V44.6521C87.4772 44.5151 87.2382 44.4124 86.997 44.3446C86.755 44.2761 86.5109 44.2418 86.2646 44.2418C85.5534 44.2418 85.0426 44.4605 84.7321 44.8984C84.4217 45.3364 84.2665 46.0753 84.2665 47.1144V50.2063H87.3853V52.8048H84.2665V63.1736H81.2985V63.1743Z" fill="url(#paint6_linear_1_3541)"/>
<path d="M92.4329 52.2718C92.752 51.4149 93.1747 50.7809 93.6979 50.3706C94.2226 49.9604 94.8718 49.7549 95.6479 49.7549C96.0669 49.7549 96.4801 49.8052 96.8853 49.9057C97.2904 50.0063 97.6897 50.152 98.0825 50.3437L97.0157 52.8606C96.7599 52.6785 96.4845 52.5436 96.1879 52.4569C95.8913 52.3702 95.5612 52.3272 95.1961 52.3272C94.2109 52.3272 93.5048 52.7222 93.0763 53.5106C92.6471 54.2998 92.4329 55.6239 92.4329 57.4843V63.1755H89.4648V50.179H92.4329V52.2718Z" fill="url(#paint7_linear_1_3541)"/>
<path d="M99.519 44.5975C99.519 44.0962 99.7041 43.6633 100.074 43.2982C100.443 42.9339 100.882 42.751 101.394 42.751C101.923 42.751 102.363 42.9266 102.714 43.2778C103.065 43.6291 103.241 44.0692 103.241 44.5982C103.241 45.1273 103.063 45.5718 102.708 45.9325C102.352 46.2932 101.914 46.4725 101.395 46.4725C100.884 46.4725 100.444 46.2881 100.074 45.9187C99.7041 45.5485 99.519 45.1083 99.519 44.5975ZM99.9162 63.1744V50.2064H102.884V63.1744H99.9162Z" fill="url(#paint8_linear_1_3541)"/>
<path d="M116.81 53.8995C116.354 53.3982 115.823 53.0149 115.216 52.7503C114.609 52.4865 113.956 52.3539 113.253 52.3539C112.04 52.3539 111.069 52.746 110.339 53.53C109.61 54.3149 109.245 55.354 109.245 56.6489C109.245 57.9992 109.612 59.0587 110.346 59.8297C111.08 60.5999 112.095 60.9854 113.39 60.9854C114.11 60.9854 114.754 60.8506 115.319 60.5817C115.884 60.3128 116.381 59.9048 116.81 59.3582V62.7773C116.263 63.0877 115.676 63.3195 115.052 63.4754C114.428 63.6299 113.764 63.7079 113.062 63.7079C111.028 63.7079 109.371 63.0601 108.09 61.7652C106.809 60.4702 106.168 58.7913 106.168 56.7305C106.168 54.6421 106.831 52.9573 108.158 51.6762C109.484 50.3952 111.219 49.7539 113.362 49.7539C114.038 49.7539 114.657 49.8202 115.224 49.9521C115.788 50.0847 116.318 50.2873 116.811 50.5606V53.8995H116.81Z" fill="url(#paint9_linear_1_3541)"/>
<path d="M132.048 63.1747H129.08V61.4922C128.55 62.2398 127.933 62.7965 127.226 63.1609C126.519 63.5259 125.71 63.7081 124.798 63.7081C122.965 63.7081 121.522 63.0814 120.469 61.8273C119.416 60.5732 118.889 58.8564 118.889 56.6769C118.889 54.6073 119.426 52.9357 120.503 51.6634C121.58 50.3911 122.983 49.7549 124.716 49.7549C125.773 49.7549 126.679 49.9764 127.432 50.4187C128.184 50.8611 128.733 51.4972 129.08 52.3272V50.2067H132.048L132.048 63.1747ZM129.162 56.6492C129.162 55.3084 128.849 54.2649 128.224 53.5165C127.6 52.7688 126.727 52.395 125.605 52.395C124.483 52.395 123.6 52.7805 122.958 53.5507C122.314 54.321 121.994 55.3907 121.994 56.7585C121.994 58.1357 122.303 59.1982 122.924 59.9458C123.544 60.6942 124.419 61.068 125.55 61.068C126.617 61.068 127.485 60.6621 128.156 59.8504C128.826 59.0386 129.162 57.9718 129.162 56.6492Z" fill="url(#paint10_linear_1_3541)"/>
<path d="M9.22754 72.4578C9.22754 72.315 9.27782 72.1926 9.37838 72.092C9.47894 71.9922 9.60136 71.9419 9.74491 71.9419C9.88847 71.9419 10.0109 71.9922 10.1115 72.092C10.212 72.1926 10.2623 72.315 10.2623 72.4578C10.2623 72.6014 10.2128 72.7209 10.1136 72.8171C10.0145 72.9125 9.89138 72.9599 9.74491 72.9599C9.59844 72.9599 9.47457 72.9125 9.37619 72.8171C9.27709 72.7216 9.22754 72.6021 9.22754 72.4578Z" fill="black"/>
<path d="M11.8828 72.4578C11.8828 72.315 11.9331 72.1926 12.0337 72.092C12.1342 71.9922 12.2566 71.9419 12.4002 71.9419C12.5437 71.9419 12.6662 71.9922 12.7667 72.092C12.8673 72.1926 12.9176 72.315 12.9176 72.4578C12.9176 72.6014 12.868 72.7209 12.7689 72.8171C12.6698 72.9125 12.5467 72.9599 12.4002 72.9599C12.2537 72.9599 12.1298 72.9125 12.0315 72.8171C11.9324 72.7216 11.8828 72.6021 11.8828 72.4578Z" fill="black"/>
<path d="M14.5386 72.4578C14.5386 72.315 14.5889 72.1926 14.6894 72.092C14.79 71.9922 14.9124 71.9419 15.0559 71.9419C15.1995 71.9419 15.3219 71.9922 15.4225 72.092C15.5231 72.1926 15.5733 72.315 15.5733 72.4578C15.5733 72.6014 15.5238 72.7209 15.4247 72.8171C15.3256 72.9125 15.2024 72.9599 15.0559 72.9599C14.9095 72.9599 14.7856 72.9125 14.6872 72.8171C14.5881 72.7216 14.5386 72.6021 14.5386 72.4578Z" fill="black"/>
<path d="M17.3437 72.8799L17.8028 69.3712H17.0464L17.1229 68.7743H17.888L18.0454 67.5676C18.1329 66.9038 18.2684 66.4498 18.4528 66.2057C18.6372 65.9615 18.9221 65.8398 19.3054 65.8398C19.4227 65.8398 19.5342 65.853 19.6406 65.8777C19.747 65.9032 19.8541 65.9426 19.9619 65.9972L19.8402 66.6203C19.7113 66.5635 19.6122 66.5256 19.5429 66.5059C19.4737 66.4862 19.4125 66.4767 19.3586 66.4767C19.191 66.4767 19.0664 66.5394 18.9847 66.6648C18.9039 66.7908 18.8346 67.067 18.7778 67.4947L18.6065 68.7736H19.516L19.4351 69.3704H18.5315L18.0724 72.8791H17.3437V72.8799Z" fill="black"/>
<path d="M20.4315 68.7739H21.1515L20.9125 70.5913C20.9066 70.6394 20.8972 70.7079 20.8855 70.7975C20.8221 71.2559 20.7908 71.5576 20.7908 71.704C20.7908 71.9256 20.8673 72.0976 21.0203 72.22C21.1733 72.3431 21.389 72.4043 21.6689 72.4043C22.0376 72.4043 22.3065 72.3052 22.4741 72.1078C22.6417 71.9103 22.7699 71.4789 22.8566 70.8114L23.1219 68.7747H23.8331L23.554 70.8617C23.5511 70.8945 23.5453 70.9418 23.5365 71.0045C23.4374 71.7558 23.2574 72.2695 22.9966 72.5479C22.8406 72.7133 22.6461 72.8379 22.4136 72.9254C22.1811 73.0121 21.9195 73.0558 21.628 73.0558C21.1573 73.0558 20.7791 72.9399 20.4956 72.7075C20.2122 72.4765 20.0708 72.169 20.0708 71.7857C20.0708 71.6392 20.1051 71.2916 20.1743 70.7444L20.183 70.681L20.4315 68.7739Z" fill="black"/>
<path d="M24.6489 72.8797L25.1889 68.7742H25.8732L25.7784 69.4424C26.0094 69.164 26.2513 68.9585 26.5035 68.8252C26.7556 68.6918 27.0318 68.6255 27.332 68.6255C27.7255 68.6255 28.0367 68.7333 28.2662 68.949C28.4958 69.164 28.6109 69.457 28.6109 69.8279C28.6109 69.8942 28.608 69.9656 28.6014 70.0436C28.5949 70.1215 28.5861 70.2024 28.5745 70.2862L28.2327 72.8797H27.5127L27.837 70.3627C27.8399 70.3416 27.8428 70.3132 27.8458 70.2775C27.864 70.131 27.8727 70.0334 27.8727 69.986C27.8727 69.7404 27.7977 69.5539 27.6476 69.4249C27.4974 69.2959 27.2788 69.2318 26.9903 69.2318C26.6121 69.2318 26.3075 69.3659 26.0765 69.6333C25.8455 69.9007 25.6953 70.2906 25.6261 70.8021L25.347 72.8797H24.6489Z" fill="black"/>
<path d="M33.6739 65.9258H34.3895L33.4662 72.8805H32.7506L32.8497 72.2655C32.6522 72.5315 32.4307 72.729 32.1859 72.8558C31.9417 72.9833 31.6612 73.0467 31.3464 73.0467C30.821 73.0467 30.3933 72.855 30.0632 72.4725C29.733 72.0899 29.5684 71.5915 29.5684 70.9786C29.5684 70.2987 29.7695 69.7376 30.1717 69.2931C30.574 68.8486 31.0797 68.6264 31.6889 68.6264C32.0547 68.6264 32.3629 68.7072 32.6122 68.869C32.8614 69.0308 33.0545 69.2749 33.1929 69.6006L33.6739 65.9258ZM31.5985 72.3923C31.9979 72.3923 32.3367 72.2254 32.6158 71.8939C32.8949 71.5616 33.0348 71.1491 33.0348 70.6558C33.0348 70.2397 32.9262 69.9031 32.7084 69.6458C32.4905 69.3879 32.2063 69.2603 31.855 69.2603C31.3989 69.2603 31.0272 69.4214 30.7387 69.742C30.4501 70.0634 30.3065 70.4758 30.3065 70.9786C30.3065 71.3998 30.426 71.7409 30.6643 72.001C30.9033 72.2619 31.2145 72.3923 31.5985 72.3923Z" fill="black"/>
<path d="M34.8984 72.88L35.4435 68.7745H36.1591L35.614 72.88H34.8984ZM35.488 66.8318C35.488 66.6999 35.5368 66.5869 35.6344 66.4907C35.7321 66.3945 35.8479 66.3472 35.9835 66.3472C36.1212 66.3472 36.2378 66.3945 36.3325 66.4885C36.4273 66.5825 36.4746 66.6977 36.4746 66.8318C36.4746 66.9724 36.4273 67.0904 36.3325 67.1859C36.2378 67.2814 36.1212 67.3295 35.9835 67.3295C35.8479 67.3295 35.7321 67.2806 35.6344 67.1837C35.5368 67.0868 35.488 66.9695 35.488 66.8318Z" fill="black"/>
<path d="M37.0942 72.8797L37.6342 68.7742H38.3185L38.2237 69.4424C38.4547 69.164 38.6967 68.9585 38.9488 68.8252C39.2009 68.6918 39.4771 68.6255 39.7773 68.6255C40.1708 68.6255 40.482 68.7333 40.7115 68.949C40.9411 69.164 41.0562 69.457 41.0562 69.8279C41.0562 69.8942 41.0533 69.9656 41.0467 70.0436C41.0402 70.1215 41.0314 70.2024 41.0198 70.2862L40.678 72.8797H39.958L40.2823 70.3627C40.2852 70.3416 40.2881 70.3132 40.2911 70.2775C40.3093 70.131 40.318 70.0334 40.318 69.986C40.318 69.7404 40.243 69.5539 40.0929 69.4249C39.9428 69.2959 39.7241 69.2318 39.4356 69.2318C39.0574 69.2318 38.7528 69.3659 38.5218 69.6333C38.2908 69.9007 38.1407 70.2906 38.0714 70.8021L37.7923 72.8797H37.0942Z" fill="black"/>
<path d="M45.7684 68.7746H46.4752L46.0613 72.037C46.0526 72.1026 46.0402 72.1974 46.0256 72.3198C45.9265 73.133 45.7881 73.6854 45.6117 73.9747C45.4259 74.2829 45.189 74.5066 44.9027 74.6458C44.6163 74.785 44.2432 74.8542 43.7841 74.8542C43.2347 74.8542 42.7945 74.7034 42.463 74.401C42.1314 74.0993 41.9609 73.6934 41.9521 73.1855L42.659 73.0908C42.6714 73.4682 42.7887 73.7583 43.0124 73.9616C43.2361 74.1641 43.5487 74.2662 43.951 74.2662C44.3139 74.2662 44.6075 74.1416 44.8313 73.8916C45.055 73.6417 45.192 73.2868 45.243 72.8255L45.3151 72.1981C45.1169 72.4641 44.8954 72.6615 44.6513 72.7905C44.4064 72.9195 44.128 72.9836 43.8162 72.9836C43.2973 72.9836 42.8703 72.7956 42.5358 72.4211C42.2014 72.0451 42.0338 71.5641 42.0338 70.979C42.0338 70.3027 42.2356 69.7416 42.6393 69.2957C43.043 68.8497 43.548 68.6274 44.1543 68.6274C44.5201 68.6274 44.8298 68.7076 45.0812 68.8679C45.3326 69.0282 45.525 69.2665 45.6576 69.5835L45.7684 68.7746ZM44.0625 72.3373C44.4618 72.3373 44.8006 72.1726 45.0797 71.8432C45.3588 71.5146 45.4988 71.1058 45.4988 70.6183C45.4988 70.2058 45.3902 69.8735 45.1723 69.6199C44.9551 69.3671 44.6709 69.2403 44.3197 69.2403C43.8635 69.2403 43.4897 69.3991 43.199 69.7161C42.9082 70.0331 42.7625 70.4383 42.7625 70.9323C42.7625 71.3477 42.8834 71.6858 43.1246 71.9467C43.3651 72.2076 43.6784 72.3373 44.0625 72.3373Z" fill="black"/>
<path d="M50.1435 72.8803L50.6069 69.3716H49.8418L49.9227 68.7748H50.6878L50.8999 67.1191H51.6286L51.4085 68.7748H52.3128L52.2363 69.3716H51.3269L50.8634 72.8803H50.1435Z" fill="black"/>
<path d="M52.6191 72.8805L53.5373 65.9258H54.2485L53.7581 69.4432C53.968 69.1714 54.2012 68.9674 54.4577 68.8311C54.7142 68.6949 54.9954 68.6271 55.3015 68.6271C55.695 68.6271 56.0062 68.7349 56.2357 68.9506C56.4653 69.1656 56.5804 69.4585 56.5804 69.8294C56.5804 69.8958 56.5775 69.9672 56.5709 70.0452C56.5643 70.1231 56.5556 70.204 56.544 70.2878L56.2022 72.8813H55.4822L55.8065 70.3643C55.8094 70.3432 55.8123 70.3148 55.8153 70.2791C55.8335 70.1326 55.8422 70.0349 55.8422 69.9876C55.8422 69.742 55.7672 69.5555 55.617 69.4265C55.4669 69.2975 55.2483 69.2334 54.9597 69.2334C54.5815 69.2334 54.2769 69.3674 54.0459 69.6349C53.815 69.9023 53.6649 70.2922 53.5956 70.8037L53.3165 72.8813H52.6191V72.8805Z" fill="black"/>
<path d="M60.1956 69.4436C60.1176 69.405 60.0382 69.3751 59.9566 69.354C59.8757 69.3336 59.7948 69.3226 59.7139 69.3226C59.3991 69.3226 59.1491 69.4545 58.9648 69.7176C58.7804 69.9806 58.65 70.3895 58.5757 70.9425L58.3148 72.8809H57.6167L58.1567 68.7754H58.8679L58.7557 69.4261C58.9444 69.1477 59.136 68.9452 59.3299 68.8184C59.5237 68.6916 59.7358 68.6274 59.9668 68.6274C60.0323 68.6274 60.1008 68.6347 60.1715 68.65C60.2422 68.6653 60.3114 68.6879 60.3807 68.7171L60.1956 69.4436Z" fill="black"/>
<path d="M60.6187 70.9955C60.6187 70.3222 60.8409 69.7596 61.2847 69.3064C61.7285 68.8531 62.2808 68.6265 62.941 68.6265C63.5386 68.6265 64.0319 68.8145 64.4225 69.1898C64.8123 69.5658 65.0076 70.0321 65.0076 70.5918C65.0076 71.3219 64.7927 71.9144 64.362 72.3705C63.9313 72.8267 63.3753 73.0548 62.694 73.0548C62.0666 73.0548 61.5638 72.8661 61.1863 72.4893C60.8081 72.1133 60.6187 71.6149 60.6187 70.9955ZM62.9053 69.2051C62.4521 69.2051 62.0775 69.3719 61.7824 69.7057C61.4866 70.0394 61.3394 70.4635 61.3394 70.978C61.3394 71.4291 61.4676 71.7934 61.7241 72.0703C61.9813 72.3472 62.3187 72.485 62.7392 72.485C63.1895 72.485 63.5612 72.3188 63.8555 71.9865C64.1492 71.655 64.2964 71.233 64.2964 70.7215C64.2964 70.2792 64.1667 69.9155 63.9073 69.6313C63.6471 69.3479 63.3134 69.2051 62.9053 69.2051Z" fill="black"/>
<path d="M66.3124 68.7739H67.0323L66.7933 70.5913C66.7875 70.6394 66.778 70.7079 66.7664 70.7975C66.703 71.2559 66.6716 71.5576 66.6716 71.704C66.6716 71.9256 66.7481 72.0976 66.9012 72.22C67.0542 72.3431 67.2706 72.4043 67.5497 72.4043C67.9192 72.4043 68.1873 72.3052 68.3549 72.1078C68.5225 71.9103 68.6501 71.4789 68.7375 70.8114L69.0028 68.7747H69.714L69.4349 70.8617C69.432 70.8945 69.4261 70.9418 69.4174 71.0045C69.3183 71.7558 69.1383 72.2695 68.8774 72.5479C68.7215 72.7133 68.5269 72.8379 68.2944 72.9254C68.062 73.0121 67.7997 73.0558 67.5089 73.0558C67.0382 73.0558 66.66 72.9399 66.3765 72.7075C66.093 72.4765 65.9517 72.169 65.9517 71.7857C65.9517 71.6392 65.9859 71.2916 66.0551 70.7444L66.0639 70.681L66.3124 68.7739Z" fill="black"/>
<path d="M74.2073 68.7746H74.9142L74.5003 72.037C74.4915 72.1026 74.4799 72.1974 74.4646 72.3198C74.3655 73.133 74.2277 73.6854 74.0507 73.9747C73.8641 74.2829 73.628 74.5066 73.3416 74.6458C73.0545 74.785 72.6822 74.8542 72.2231 74.8542C71.6736 74.8542 71.2335 74.7034 70.9019 74.401C70.5704 74.0993 70.4006 73.6934 70.3911 73.1855L71.098 73.0908C71.1103 73.4682 71.2284 73.7583 71.4514 73.9616C71.6751 74.1641 71.9877 74.2662 72.39 74.2662C72.7529 74.2662 73.0458 74.1416 73.2695 73.8916C73.4939 73.6417 73.6302 73.2868 73.6812 72.8255L73.7534 72.1981C73.5559 72.4641 73.3344 72.6615 73.0895 72.7905C72.8454 72.9195 72.567 72.9836 72.2544 72.9836C71.7348 72.9836 71.3086 72.7956 70.9741 72.4211C70.6389 72.0451 70.472 71.5641 70.472 70.979C70.472 70.3027 70.6739 69.7416 71.0776 69.2957C71.4813 68.8497 71.9863 68.6274 72.5918 68.6274C72.9584 68.6274 73.2673 68.7076 73.5194 68.8679C73.7716 69.0282 73.9632 69.2665 74.0951 69.5835L74.2073 68.7746ZM72.5015 72.3373C72.9008 72.3373 73.2396 72.1726 73.5187 71.8432C73.7978 71.5146 73.937 71.1058 73.937 70.6183C73.937 70.2058 73.8284 69.8735 73.6105 69.6199C73.3926 69.3671 73.1092 69.2403 72.758 69.2403C72.3011 69.2403 71.9272 69.3991 71.6372 69.7161C71.3457 70.0331 71.2 70.4383 71.2 70.9323C71.2 71.3477 71.321 71.6858 71.5622 71.9467C71.8048 72.2076 72.1174 72.3373 72.5015 72.3373Z" fill="black"/>
<path d="M75.7559 72.8805L76.6748 65.9258H77.386L76.8956 69.4432C77.1054 69.1714 77.3386 68.9674 77.5951 68.8311C77.8524 68.6949 78.1329 68.6271 78.439 68.6271C78.8325 68.6271 79.1436 68.7349 79.3732 68.9506C79.602 69.1656 79.7178 69.4585 79.7178 69.8294C79.7178 69.8958 79.7149 69.9672 79.7084 70.0452C79.7025 70.1224 79.6931 70.204 79.6814 70.2878L79.3389 72.8813H78.619L78.9432 70.3643C78.9461 70.3432 78.9491 70.3148 78.952 70.2791C78.9702 70.1326 78.9789 70.0349 78.9789 69.9876C78.9789 69.742 78.9039 69.5555 78.7538 69.4265C78.6037 69.2975 78.3843 69.2334 78.0972 69.2334C77.7183 69.2334 77.4137 69.3674 77.1834 69.6349C76.9524 69.9023 76.8023 70.2922 76.7331 70.8037L76.454 72.8813H75.7559V72.8805Z" fill="black"/>
<path d="M83.0933 74.8809L83.8948 68.7744H84.6148L84.5201 69.4157C84.7205 69.1468 84.9434 68.9478 85.1883 68.8196C85.4331 68.6913 85.7086 68.6265 86.0146 68.6265C86.5335 68.6265 86.9598 68.8188 87.2928 69.2036C87.6258 69.5883 87.7927 70.0824 87.7927 70.6865C87.7927 71.3533 87.593 71.9122 87.1922 72.3625C86.7914 72.8122 86.2916 73.0381 85.6904 73.0381C85.3217 73.0381 85.0134 72.9579 84.7678 72.7976C84.5215 72.638 84.3321 72.3961 84.2009 72.0732L83.8314 74.8817H83.0933V74.8809ZM85.7669 69.2947C85.3617 69.2947 85.0207 69.4601 84.7431 69.7909C84.4654 70.121 84.327 70.532 84.327 71.0224C84.327 71.4349 84.4363 71.7679 84.6556 72.023C84.8742 72.2773 85.1577 72.4041 85.506 72.4041C85.9651 72.4041 86.3404 72.2445 86.6311 71.9261C86.9219 71.6076 87.0684 71.2003 87.0684 70.7033C87.0684 70.2843 86.9474 69.9447 86.7062 69.6853C86.4635 69.4251 86.1509 69.2947 85.7669 69.2947Z" fill="black"/>
<path d="M92.3123 68.7742H93.0191L92.4791 72.8797H91.7592L91.8583 72.2647C91.6608 72.5306 91.4393 72.7281 91.1944 72.8549C90.9503 72.9824 90.6719 73.0458 90.3593 73.0458C89.831 73.0458 89.4025 72.8542 89.0717 72.4716C88.7409 72.089 88.5762 71.5906 88.5762 70.9777C88.5762 70.2979 88.7773 69.7368 89.1795 69.2923C89.5818 68.8477 90.0868 68.6255 90.696 68.6255C91.0625 68.6255 91.37 68.7064 91.6192 68.8682C91.8685 69.0299 92.0616 69.274 92.2 69.5998L92.3123 68.7742ZM90.6071 72.3914C91.0093 72.3914 91.3496 72.2246 91.6265 71.893C91.9042 71.5607 92.0426 71.1483 92.0426 70.6549C92.0426 70.2388 91.934 69.9022 91.7162 69.645C91.4983 69.387 91.2148 69.2595 90.8636 69.2595C90.4067 69.2595 90.0329 69.4212 89.7428 69.7441C89.4514 70.0669 89.3056 70.4786 89.3056 70.9777C89.3056 71.3989 89.4266 71.74 89.6678 72.0001C89.9104 72.261 90.2223 72.3914 90.6071 72.3914Z" fill="black"/>
<path d="M96.4402 69.4436C96.3622 69.405 96.2828 69.3751 96.2019 69.354C96.121 69.3336 96.0394 69.3226 95.9586 69.3226C95.643 69.3226 95.3938 69.4545 95.2094 69.7176C95.0251 69.9806 94.8946 70.3895 94.8203 70.9425L94.5594 72.8809H93.8613L94.402 68.7754H95.1133L95.001 69.4261C95.1898 69.1477 95.3807 68.9452 95.5745 68.8184C95.7684 68.6916 95.9811 68.6274 96.2114 68.6274C96.2777 68.6274 96.3462 68.6347 96.4162 68.65C96.4861 68.6653 96.5561 68.6879 96.6253 68.7171L96.4402 69.4436Z" fill="black"/>
<path d="M97.1469 72.8803L97.6104 69.3716H96.8452L96.9261 68.7748H97.6912L97.9026 67.1191H98.632L98.4112 68.7748H99.3163L99.2397 69.3716H98.3303L97.8669 72.8803H97.1469Z" fill="black"/>
<path d="M99.6216 72.8797L100.162 68.7742H100.846L100.751 69.4424C100.982 69.164 101.223 68.9585 101.476 68.8252C101.728 68.6918 102.004 68.6255 102.304 68.6255C102.697 68.6255 103.009 68.7333 103.238 68.949C103.467 69.164 103.583 69.457 103.583 69.8279C103.583 69.8942 103.58 69.9656 103.573 70.0436C103.568 70.1208 103.558 70.2024 103.546 70.2862L103.204 72.8797H102.484L102.808 70.3627C102.811 70.3416 102.814 70.3132 102.817 70.2775C102.835 70.131 102.844 70.0334 102.844 69.986C102.844 69.7404 102.769 69.5539 102.619 69.4249C102.469 69.2959 102.249 69.2318 101.962 69.2318C101.583 69.2318 101.279 69.3659 101.048 69.6333C100.817 69.9007 100.667 70.2906 100.598 70.8021L100.319 72.8797H99.6216Z" fill="black"/>
<path d="M108.525 70.9462L105.225 70.9513V71.0234C105.225 71.4636 105.338 71.809 105.563 72.0618C105.789 72.3154 106.095 72.4415 106.486 72.4415C106.729 72.4415 106.953 72.3832 107.157 72.2666C107.361 72.15 107.559 71.9693 107.751 71.7237L108.247 72.1281C108.006 72.4393 107.742 72.6717 107.454 72.8255C107.166 72.98 106.853 73.0565 106.513 73.0565C105.898 73.0565 105.41 72.8714 105.048 72.502C104.686 72.1325 104.505 71.6341 104.505 71.0052C104.505 70.321 104.715 69.7526 105.136 69.303C105.555 68.8526 106.082 68.6274 106.716 68.6274C107.292 68.6274 107.739 68.8023 108.057 69.1521C108.376 69.5019 108.534 69.9945 108.534 70.6285C108.534 70.7152 108.533 70.7808 108.531 70.8259C108.53 70.8711 108.528 70.9105 108.525 70.9462ZM107.841 70.3632C107.835 69.9923 107.734 69.7066 107.537 69.5055C107.34 69.3059 107.064 69.2053 106.706 69.2053C106.353 69.2053 106.047 69.3102 105.79 69.5194C105.534 69.7292 105.367 70.0105 105.289 70.3632H107.841Z" fill="black"/>
<path d="M111.878 69.4436C111.8 69.405 111.721 69.3751 111.64 69.354C111.559 69.3336 111.477 69.3226 111.397 69.3226C111.081 69.3226 110.832 69.4545 110.647 69.7176C110.463 69.9806 110.333 70.3895 110.258 70.9425L109.997 72.8809H109.299L109.84 68.7754H110.551L110.439 69.4261C110.628 69.1477 110.819 68.9452 111.013 68.8184C111.206 68.6916 111.419 68.6274 111.649 68.6274C111.716 68.6274 111.784 68.6347 111.854 68.65C111.924 68.6653 111.994 68.6879 112.063 68.7171L111.878 69.4436Z" fill="black"/>
<path d="M112.1 72.2833L112.559 71.7405C112.709 71.9831 112.879 72.1646 113.07 72.2863C113.261 72.4072 113.472 72.4677 113.703 72.4677C113.96 72.4677 114.165 72.4087 114.317 72.2906C114.468 72.1726 114.544 72.013 114.544 71.8126C114.544 71.5882 114.331 71.379 113.905 71.1852C113.797 71.1342 113.711 71.0919 113.649 71.0591C113.255 70.8704 112.994 70.6955 112.865 70.5337C112.736 70.372 112.671 70.1694 112.671 69.9238C112.671 69.5463 112.811 69.2366 113.09 68.9932C113.369 68.7491 113.727 68.6274 114.166 68.6274C114.442 68.6274 114.697 68.6784 114.931 68.7797C115.165 68.881 115.377 69.0326 115.566 69.233L115.134 69.7489C115.008 69.582 114.859 69.4553 114.688 69.3693C114.517 69.284 114.327 69.241 114.116 69.241C113.909 69.241 113.735 69.3 113.59 69.4188C113.446 69.5369 113.374 69.6768 113.374 69.8378C113.374 70.0594 113.629 70.2787 114.139 70.4973L114.211 70.5286C114.617 70.7021 114.888 70.8748 115.026 71.0445C115.164 71.2151 115.233 71.438 115.233 71.7135C115.233 72.1289 115.097 72.4568 114.828 72.6958C114.557 72.9355 114.189 73.055 113.72 73.055C113.372 73.055 113.066 72.9924 112.801 72.8663C112.537 72.7417 112.303 72.5464 112.1 72.2833Z" fill="black"/>
<path d="M116.195 72.8805L117.114 65.9258H117.825L117.335 69.4432C117.544 69.1714 117.778 68.9674 118.034 68.8311C118.291 68.6949 118.572 68.6271 118.878 68.6271C119.271 68.6271 119.583 68.7349 119.812 68.9506C120.041 69.1656 120.157 69.4585 120.157 69.8294C120.157 69.8958 120.154 69.9672 120.147 70.0452C120.141 70.1224 120.132 70.204 120.12 70.2878L119.778 72.8813H119.058L119.382 70.3643C119.385 70.3432 119.388 70.3148 119.391 70.2791C119.409 70.1326 119.418 70.0349 119.418 69.9876C119.418 69.742 119.343 69.5555 119.193 69.4265C119.043 69.2975 118.823 69.2334 118.536 69.2334C118.157 69.2334 117.853 69.3674 117.622 69.6349C117.391 69.9023 117.241 70.2922 117.172 70.8037L116.893 72.8813H116.195V72.8805Z" fill="black"/>
<path d="M121.218 72.88L121.763 68.7745H122.478L121.933 72.88H121.218ZM121.808 66.8318C121.808 66.6999 121.857 66.5869 121.954 66.4907C122.052 66.3945 122.168 66.3472 122.304 66.3472C122.441 66.3472 122.558 66.3945 122.653 66.4885C122.747 66.5825 122.794 66.6977 122.794 66.8318C122.794 66.9724 122.747 67.0904 122.653 67.1859C122.558 67.2814 122.442 67.3295 122.304 67.3295C122.168 67.3295 122.052 67.2806 121.954 67.1837C121.857 67.0868 121.808 66.9695 121.808 66.8318Z" fill="black"/>
<path d="M123.1 74.8809L123.902 68.7744H124.622L124.527 69.4157C124.727 69.1468 124.95 68.9478 125.195 68.8196C125.44 68.6913 125.715 68.6265 126.021 68.6265C126.54 68.6265 126.967 68.8188 127.3 69.2036C127.633 69.5883 127.8 70.0824 127.8 70.6865C127.8 71.3533 127.6 71.9122 127.199 72.3625C126.798 72.8122 126.298 73.0381 125.697 73.0381C125.328 73.0381 125.02 72.9579 124.775 72.7976C124.528 72.638 124.339 72.3961 124.208 72.0732L123.838 74.8817H123.1V74.8809ZM125.774 69.2947C125.369 69.2947 125.028 69.4601 124.75 69.7909C124.472 70.121 124.334 70.532 124.334 71.0224C124.334 71.4349 124.443 71.7679 124.662 72.023C124.881 72.2773 125.165 72.4041 125.513 72.4041C125.972 72.4041 126.347 72.2445 126.638 71.9261C126.929 71.6076 127.075 71.2003 127.075 70.7033C127.075 70.2843 126.954 69.9447 126.713 69.6853C126.47 69.4251 126.158 69.2947 125.774 69.2947Z" fill="black"/>
<path d="M128.326 72.2833L128.785 71.7405C128.935 71.9831 129.105 72.1646 129.296 72.2863C129.487 72.4072 129.698 72.4677 129.929 72.4677C130.187 72.4677 130.391 72.4087 130.543 72.2906C130.694 72.1726 130.77 72.013 130.77 71.8126C130.77 71.5882 130.557 71.379 130.131 71.1852C130.023 71.1342 129.937 71.0919 129.875 71.0591C129.481 70.8704 129.22 70.6955 129.091 70.5337C128.962 70.372 128.897 70.1694 128.897 69.9238C128.897 69.5463 129.037 69.2366 129.316 68.9932C129.595 68.7491 129.953 68.6274 130.392 68.6274C130.668 68.6274 130.923 68.6784 131.157 68.7797C131.391 68.881 131.603 69.0326 131.792 69.233L131.36 69.7489C131.234 69.582 131.085 69.4553 130.915 69.3693C130.743 69.284 130.553 69.241 130.342 69.241C130.136 69.241 129.961 69.3 129.816 69.4188C129.672 69.5369 129.6 69.6768 129.6 69.8378C129.6 70.0594 129.855 70.2787 130.365 70.4973L130.437 70.5286C130.843 70.7021 131.114 70.8748 131.252 71.0445C131.39 71.2151 131.459 71.438 131.459 71.7135C131.459 72.1289 131.323 72.4568 131.054 72.6958C130.783 72.9355 130.415 73.055 129.946 73.055C129.598 73.055 129.292 72.9924 129.027 72.8663C128.764 72.7417 128.53 72.5464 128.326 72.2833Z" fill="black"/>
<path d="M26.7864 11.8797C26.833 11.492 26.7696 11.9678 26.8337 11.6399C26.8017 11.7543 26.8592 11.2282 26.8592 11.2282C26.9 10.85 26.9328 10.4448 26.8927 10.0812C26.8439 9.6418 26.6246 9.31242 26.355 9.0071C26.1932 8.82346 26.0212 8.68209 25.847 8.53197C25.7538 8.45182 25.6284 8.36511 25.5104 8.31337C25.4164 8.27184 25.286 8.27838 25.1788 8.26818C25.0907 8.26017 24.966 8.25944 24.8597 8.25653C24.5638 8.24924 24.2665 8.25071 23.9692 8.25217C23.5575 8.25363 23.1443 8.25654 22.7318 8.258C22.2429 8.25873 21.7532 8.25799 21.2642 8.25726C20.741 8.25581 20.2185 8.25508 19.6961 8.25508C19.1809 8.25508 18.6657 8.2558 18.1505 8.2558C17.6717 8.25653 17.193 8.25653 16.7135 8.25653C16.3017 8.25653 15.8893 8.2558 15.4776 8.2558C15.197 8.2558 14.9157 8.2558 14.6352 8.2558C14.5091 8.2558 14.3838 8.2558 14.2585 8.2558C14.2417 8.2558 14.2242 8.2558 14.2067 8.2558L12.7289 15.7855C10.2834 15.9946 7.84586 15.9757 5.67796 15.4948C5.84338 15.5312 4.91427 18.2974 5.11831 18.3433C7.23374 18.8126 9.6545 18.9131 12.1481 18.7419L8.13224 39.201H19.3084L19.8804 36.2869H11.9601L13.9757 26.0187H21.896L22.4571 23.16H14.5368L15.4783 18.3615C17.9129 17.976 20.322 17.3726 22.4957 16.6228C24.0639 16.0821 25.8995 15.2842 26.4293 13.6424C26.4271 13.6599 26.43 13.6759 26.4271 13.6941C26.4388 13.6358 26.4504 13.5783 26.4613 13.5207C26.4788 13.4566 26.4992 13.3946 26.5124 13.3276C26.6239 12.7891 26.7208 12.314 26.7864 11.8797ZM25.3559 8.39134L25.3807 8.29516C25.3807 8.32504 25.3712 8.33887 25.3559 8.39134ZM17.7898 15.0889C17.2236 15.1902 16.6472 15.2871 16.0642 15.3774L16.9197 11.0191C16.9802 11.0191 17.0407 11.0191 17.1011 11.0191C17.2724 11.0183 17.4444 11.0183 17.6163 11.0191C17.8677 11.0198 18.1191 11.0198 18.3713 11.0191C18.6839 11.0183 18.9965 11.0183 19.3091 11.0191C19.656 11.0198 20.0021 11.0205 20.349 11.0191C20.7075 11.0183 21.0653 11.0176 21.4238 11.0191C21.767 11.0205 22.1103 11.0212 22.4542 11.0183C22.7646 11.0161 23.0729 11.019 23.3811 11.0205C24.1871 11.0242 24.3365 11.0088 24.8291 11.0861C25.0644 11.1225 25.2379 11.2792 25.4164 11.4104C25.6044 11.5481 25.7487 11.7514 25.882 11.9423C25.9046 11.9744 26.105 12.271 26.0766 12.2972C24.0763 14.1627 19.6319 14.7588 17.7898 15.0889Z" fill="#4DAF4E"/>
</g>
<defs>
<linearGradient id="paint0_linear_1_3541" x1="40.2455" y1="63.675" x2="-22.6391" y2="-155.63" gradientUnits="userSpaceOnUse">
<stop offset="0.1394" stop-color="#39B54A"/>
<stop offset="0.179" stop-color="#42AE48"/>
<stop offset="0.2305" stop-color="#52A445"/>
<stop offset="0.2883" stop-color="#62943F"/>
<stop offset="0.3455" stop-color="#6D7F39"/>
<stop offset="0.3708" stop-color="#6F7937"/>
<stop offset="0.4615" stop-color="#736932"/>
<stop offset="0.5605" stop-color="#755C2E"/>
<stop offset="0.6705" stop-color="#75532B"/>
<stop offset="0.8004" stop-color="#754E29"/>
<stop offset="1" stop-color="#754C29"/>
</linearGradient>
<linearGradient id="paint1_linear_1_3541" x1="59.6428" y1="76.7787" x2="12.5582" y2="-87.425" gradientUnits="userSpaceOnUse">
<stop offset="0.1394" stop-color="#39B54A"/>
<stop offset="0.179" stop-color="#42AE48"/>
<stop offset="0.2305" stop-color="#52A445"/>
<stop offset="0.2883" stop-color="#62943F"/>
<stop offset="0.3455" stop-color="#6D7F39"/>
<stop offset="0.3708" stop-color="#6F7937"/>
<stop offset="0.4615" stop-color="#736932"/>
<stop offset="0.5605" stop-color="#755C2E"/>
<stop offset="0.6705" stop-color="#75532B"/>
<stop offset="0.8004" stop-color="#754E29"/>
<stop offset="1" stop-color="#754C29"/>
</linearGradient>
<linearGradient id="paint2_linear_1_3541" x1="80.335" y1="93.2999" x2="35.2107" y2="-64.0676" gradientUnits="userSpaceOnUse">
<stop offset="0.1394" stop-color="#39B54A"/>
<stop offset="0.179" stop-color="#42AE48"/>
<stop offset="0.2305" stop-color="#52A445"/>
<stop offset="0.2883" stop-color="#62943F"/>
<stop offset="0.3455" stop-color="#6D7F39"/>
<stop offset="0.3708" stop-color="#6F7937"/>
<stop offset="0.4615" stop-color="#736932"/>
<stop offset="0.5605" stop-color="#755C2E"/>
<stop offset="0.6705" stop-color="#75532B"/>
<stop offset="0.8004" stop-color="#754E29"/>
<stop offset="1" stop-color="#754C29"/>
</linearGradient>
<linearGradient id="paint3_linear_1_3541" x1="175.081" y1="379.707" x2="-37.1844" y2="-360.551" gradientUnits="userSpaceOnUse">
<stop offset="0.1394" stop-color="#39B54A"/>
<stop offset="0.179" stop-color="#42AE48"/>
<stop offset="0.2305" stop-color="#52A445"/>
<stop offset="0.2883" stop-color="#62943F"/>
<stop offset="0.3455" stop-color="#6D7F39"/>
<stop offset="0.3708" stop-color="#6F7937"/>
<stop offset="0.4615" stop-color="#736932"/>
<stop offset="0.5605" stop-color="#755C2E"/>
<stop offset="0.6705" stop-color="#75532B"/>
<stop offset="0.8004" stop-color="#754E29"/>
<stop offset="1" stop-color="#754C29"/>
</linearGradient>
<linearGradient id="paint4_linear_1_3541" x1="121.59" y1="150.57" x2="58.704" y2="-68.7378" gradientUnits="userSpaceOnUse">
<stop offset="0.1394" stop-color="#39B54A"/>
<stop offset="0.179" stop-color="#42AE48"/>
<stop offset="0.2305" stop-color="#52A445"/>
<stop offset="0.2883" stop-color="#62943F"/>
<stop offset="0.3455" stop-color="#6D7F39"/>
<stop offset="0.3708" stop-color="#6F7937"/>
<stop offset="0.4615" stop-color="#736932"/>
<stop offset="0.5605" stop-color="#755C2E"/>
<stop offset="0.6705" stop-color="#75532B"/>
<stop offset="0.8004" stop-color="#754E29"/>
<stop offset="1" stop-color="#754C29"/>
</linearGradient>
<linearGradient id="paint5_linear_1_3541" x1="67.4792" y1="53.3208" x2="147.707" y2="69.4614" gradientUnits="userSpaceOnUse">
<stop offset="0.1394" stop-color="#39B54A"/>
<stop offset="0.179" stop-color="#42AE48"/>
<stop offset="0.2305" stop-color="#52A445"/>
<stop offset="0.2883" stop-color="#62943F"/>
<stop offset="0.3455" stop-color="#6D7F39"/>
<stop offset="0.3708" stop-color="#6F7937"/>
<stop offset="0.4615" stop-color="#736932"/>
<stop offset="0.5605" stop-color="#755C2E"/>
<stop offset="0.6705" stop-color="#75532B"/>
<stop offset="0.8004" stop-color="#754E29"/>
<stop offset="1" stop-color="#754C29"/>
</linearGradient>
<linearGradient id="paint6_linear_1_3541" x1="68.2894" y1="49.2966" x2="148.515" y2="65.4366" gradientUnits="userSpaceOnUse">
<stop offset="0.1394" stop-color="#39B54A"/>
<stop offset="0.179" stop-color="#42AE48"/>
<stop offset="0.2305" stop-color="#52A445"/>
<stop offset="0.2883" stop-color="#62943F"/>
<stop offset="0.3455" stop-color="#6D7F39"/>
<stop offset="0.3708" stop-color="#6F7937"/>
<stop offset="0.4615" stop-color="#736932"/>
<stop offset="0.5605" stop-color="#755C2E"/>
<stop offset="0.6705" stop-color="#75532B"/>
<stop offset="0.8004" stop-color="#754E29"/>
<stop offset="1" stop-color="#754C29"/>
</linearGradient>
<linearGradient id="paint7_linear_1_3541" x1="67.8565" y1="51.4436" x2="148.083" y2="67.5839" gradientUnits="userSpaceOnUse">
<stop offset="0.1394" stop-color="#39B54A"/>
<stop offset="0.179" stop-color="#42AE48"/>
<stop offset="0.2305" stop-color="#52A445"/>
<stop offset="0.2883" stop-color="#62943F"/>
<stop offset="0.3455" stop-color="#6D7F39"/>
<stop offset="0.3708" stop-color="#6F7937"/>
<stop offset="0.4615" stop-color="#736932"/>
<stop offset="0.5605" stop-color="#755C2E"/>
<stop offset="0.6705" stop-color="#75532B"/>
<stop offset="0.8004" stop-color="#754E29"/>
<stop offset="1" stop-color="#754C29"/>
</linearGradient>
<linearGradient id="paint8_linear_1_3541" x1="68.8451" y1="46.5409" x2="149.067" y2="62.6803" gradientUnits="userSpaceOnUse">
<stop offset="0.1394" stop-color="#39B54A"/>
<stop offset="0.179" stop-color="#42AE48"/>
<stop offset="0.2305" stop-color="#52A445"/>
<stop offset="0.2883" stop-color="#62943F"/>
<stop offset="0.3455" stop-color="#6D7F39"/>
<stop offset="0.3708" stop-color="#6F7937"/>
<stop offset="0.4615" stop-color="#736932"/>
<stop offset="0.5605" stop-color="#755C2E"/>
<stop offset="0.6705" stop-color="#75532B"/>
<stop offset="0.8004" stop-color="#754E29"/>
<stop offset="1" stop-color="#754C29"/>
</linearGradient>
<linearGradient id="paint9_linear_1_3541" x1="68.5984" y1="47.7536" x2="148.828" y2="63.8945" gradientUnits="userSpaceOnUse">
<stop offset="0.1394" stop-color="#39B54A"/>
<stop offset="0.179" stop-color="#42AE48"/>
<stop offset="0.2305" stop-color="#52A445"/>
<stop offset="0.2883" stop-color="#62943F"/>
<stop offset="0.3455" stop-color="#6D7F39"/>
<stop offset="0.3708" stop-color="#6F7937"/>
<stop offset="0.4615" stop-color="#736932"/>
<stop offset="0.5605" stop-color="#755C2E"/>
<stop offset="0.6705" stop-color="#75532B"/>
<stop offset="0.8004" stop-color="#754E29"/>
<stop offset="1" stop-color="#754C29"/>
</linearGradient>
<linearGradient id="paint10_linear_1_3541" x1="69.1326" y1="45.1016" x2="149.359" y2="61.2418" gradientUnits="userSpaceOnUse">
<stop offset="0.1394" stop-color="#39B54A"/>
<stop offset="0.179" stop-color="#42AE48"/>
<stop offset="0.2305" stop-color="#52A445"/>
<stop offset="0.2883" stop-color="#62943F"/>
<stop offset="0.3455" stop-color="#6D7F39"/>
<stop offset="0.3708" stop-color="#6F7937"/>
<stop offset="0.4615" stop-color="#736932"/>
<stop offset="0.5605" stop-color="#755C2E"/>
<stop offset="0.6705" stop-color="#75532B"/>
<stop offset="0.8004" stop-color="#754E29"/>
<stop offset="1" stop-color="#754C29"/>
</linearGradient>
<clipPath id="clip0_1_3541">
<rect width="136.268" height="81.6149" fill="white"/>
</clipPath>
</defs>
</svg>
