<svg width="130" height="30" viewBox="0 0 130 30" fill="none" xmlns="http://www.w3.org/2000/svg">
<path d="M44.4755 17.0512L43.7245 19.1861H43.6619C43.5367 18.7047 43.3073 17.9721 42.9318 17.0931L38.9056 6.94191H34.9629V23.121H37.5705V13.1373C37.5705 12.5094 37.5705 11.7977 37.5496 10.9187C37.5288 10.4791 37.4871 10.1442 37.4662 9.89308H37.5288C37.6539 10.521 37.8 10.9814 37.9043 11.2745L42.744 23.0791H44.5798L49.3778 11.1698C49.4821 10.8977 49.5864 10.3535 49.6907 9.89308H49.7533C49.6907 11.0861 49.649 12.1535 49.6281 12.8024V23.0582H52.4026V6.90005H48.6059L44.4755 17.0512ZM55.0311 11.4628H57.743V23.0582H55.0311V11.4628ZM56.4079 6.56517C55.949 6.56517 55.5735 6.73261 55.2606 7.02564C54.9477 7.31866 54.7808 7.6954 54.7808 8.15587C54.7808 8.5954 54.9477 8.97215 55.2606 9.26517C55.5735 9.55819 55.949 9.70471 56.4079 9.70471C56.8669 9.70471 57.2632 9.53726 57.5553 9.26517C57.8682 8.97215 58.0351 8.5954 58.0351 8.15587C58.0351 7.71633 57.8682 7.33959 57.5553 7.02564C57.2841 6.73261 56.8877 6.56517 56.4079 6.56517ZM67.3599 11.3582C66.8593 11.2535 66.3377 11.1908 65.8371 11.1908C64.6063 11.1908 63.4798 11.4628 62.541 12.007C61.6023 12.5512 60.8513 13.3047 60.3715 14.2466C59.8708 15.2094 59.6205 16.3187 59.6205 17.5954C59.6205 18.7047 59.8708 19.6884 60.3506 20.5884C60.8304 21.4675 61.498 22.1791 62.395 22.6605C63.2503 23.1419 64.2516 23.3931 65.3781 23.3931C66.6715 23.3931 67.7771 23.121 68.6533 22.6187L68.6742 22.5977V20.0861L68.5699 20.1698C68.1735 20.4628 67.7146 20.714 67.2556 20.8605C66.7758 21.028 66.3377 21.1117 65.9622 21.1117C64.8775 21.1117 64.0222 20.7977 63.4172 20.107C62.7914 19.4373 62.4785 18.5163 62.4785 17.3652C62.4785 16.1721 62.7914 15.2303 63.4381 14.5396C64.0848 13.8489 64.94 13.4931 65.9831 13.4931C66.8593 13.4931 67.7563 13.7861 68.5699 14.3721L68.6742 14.4559V11.7977L68.6533 11.7768C68.2987 11.6303 67.9023 11.4628 67.3599 11.3582ZM76.3093 11.2745C75.6417 11.2745 75.0159 11.4838 74.4735 11.9233C74.0146 12.3001 73.7016 12.8442 73.4305 13.4931H73.4096V11.4628H70.6977V23.0582H73.4096V17.1349C73.4096 16.1303 73.6182 15.2931 74.0771 14.6861C74.5361 14.0582 75.1202 13.7442 75.8295 13.7442C76.0798 13.7442 76.3301 13.807 76.643 13.8489C76.9351 13.9326 77.1437 14.0163 77.2897 14.121L77.394 14.2047V11.4838L77.3314 11.4628C77.1437 11.3373 76.7682 11.2745 76.3093 11.2745ZM83.694 11.2117C81.7957 11.2117 80.2728 11.7768 79.2089 12.8861C78.1242 13.9954 77.6026 15.5233 77.6026 17.4489C77.6026 19.2489 78.145 20.714 79.1881 21.7814C80.2311 22.828 81.6497 23.3721 83.4228 23.3721C85.2795 23.3721 86.7606 22.807 87.8245 21.6768C88.9093 20.5466 89.4308 19.0396 89.4308 17.1768C89.4308 15.3349 88.9301 13.8698 87.9079 12.8024C86.9275 11.7349 85.4881 11.2117 83.694 11.2117ZM85.8636 20.128C85.3629 20.7768 84.5702 21.0908 83.5897 21.0908C82.6093 21.0908 81.8165 20.7768 81.2533 20.0861C80.6901 19.4373 80.4189 18.4954 80.4189 17.3024C80.4189 16.0675 80.7109 15.1256 81.2533 14.4559C81.8165 13.7861 82.5884 13.4512 83.5689 13.4512C84.5285 13.4512 85.2795 13.7652 85.8218 14.414C86.3642 15.0628 86.6563 16.0047 86.6563 17.2396C86.6146 18.4954 86.3851 19.4791 85.8636 20.128ZM95.4805 16.2768C94.6252 15.921 94.0828 15.6489 93.8324 15.4187C93.6238 15.2094 93.5195 14.9163 93.5195 14.5396C93.5195 14.2256 93.6447 13.9117 93.9576 13.7024C94.2705 13.4931 94.6252 13.3884 95.1467 13.3884C95.6056 13.3884 96.0854 13.4721 96.5444 13.5977C97.0033 13.7233 97.4205 13.9117 97.7543 14.1628L97.8586 14.2466V11.6931L97.796 11.6721C97.4831 11.5466 97.0659 11.421 96.5652 11.3163C96.0646 11.2326 95.6056 11.1908 95.2301 11.1908C93.9367 11.1908 92.8728 11.5047 92.0384 12.1954C91.204 12.8442 90.8076 13.7233 90.8076 14.7489C90.8076 15.2931 90.8911 15.7745 91.0788 16.1721C91.2665 16.5698 91.5377 16.9466 91.9132 17.2605C92.2887 17.5535 92.8311 17.8884 93.5821 18.2024C94.2079 18.4745 94.6877 18.6838 94.9798 18.8512C95.2718 19.0187 95.4596 19.207 95.6056 19.3535C95.7099 19.521 95.7725 19.7303 95.7725 20.0024C95.7725 20.7768 95.1884 21.1535 93.9993 21.1535C93.5404 21.1535 93.0606 21.0698 92.4973 20.8814C91.9341 20.6931 91.4126 20.421 90.9745 20.107L90.8702 20.0233V22.6814L90.9328 22.7024C91.3291 22.8908 91.8089 23.0163 92.393 23.1628C92.9771 23.2675 93.4987 23.3512 93.9576 23.3512C95.3553 23.3512 96.5026 23.0373 97.3162 22.3466C98.1507 21.6768 98.5887 20.8187 98.5887 19.7094C98.5887 18.9349 98.3801 18.2442 97.9212 17.721C97.3162 17.2187 96.5652 16.6954 95.4805 16.2768ZM105.744 11.2117C103.846 11.2117 102.323 11.7768 101.259 12.8861C100.195 13.9954 99.6526 15.5233 99.6526 17.4489C99.6526 19.2489 100.195 20.714 101.238 21.7814C102.281 22.828 103.7 23.3721 105.473 23.3721C107.329 23.3721 108.811 22.807 109.875 21.6768C110.959 20.5466 111.481 19.0396 111.481 17.1768C111.481 15.3349 110.98 13.8698 109.958 12.8024C108.977 11.7349 107.538 11.2117 105.744 11.2117ZM107.893 20.128C107.392 20.7768 106.599 21.0908 105.619 21.0908C104.618 21.0908 103.846 20.7768 103.282 20.0861C102.719 19.4373 102.448 18.4954 102.448 17.3024C102.448 16.0675 102.74 15.1256 103.282 14.4559C103.846 13.7861 104.618 13.4512 105.598 13.4512C106.537 13.4512 107.309 13.7652 107.851 14.414C108.393 15.0628 108.685 16.0047 108.685 17.2396C108.685 18.4954 108.414 19.4791 107.893 20.128ZM125.979 13.7024V11.4628H123.246V8.03029L123.163 8.05122L120.576 8.82564L120.514 8.84657V11.4628H116.425V9.99773C116.425 9.32796 116.592 8.80471 116.884 8.46982C117.176 8.13494 117.614 7.9675 118.156 7.9675C118.532 7.9675 118.928 8.05122 119.366 8.23959L119.471 8.30238V5.93726L119.408 5.91633C119.032 5.79075 118.532 5.70703 117.885 5.70703C117.072 5.70703 116.362 5.8954 115.716 6.20936C115.069 6.56517 114.589 7.04657 114.234 7.6954C113.88 8.32331 113.692 9.03494 113.692 9.85122V11.4628H111.794V13.6814H113.692V23.0582H116.425V13.7024H120.514V19.6675C120.514 22.1163 121.661 23.3512 123.956 23.3512C124.331 23.3512 124.727 23.2884 125.103 23.2256C125.499 23.1419 125.791 23.0373 125.958 22.9535L125.979 22.9326V20.6931L125.875 20.7768C125.708 20.8814 125.562 20.9652 125.312 21.028C125.103 21.0908 124.915 21.1117 124.769 21.1117C124.227 21.1117 123.851 20.9861 123.58 20.6721C123.33 20.3791 123.205 19.8977 123.205 19.1861V13.7024H125.979Z" fill="#737373"/>
<path d="M0 1.5H12.7877V14.3302H0V1.5Z" fill="#F25022"/>
<path d="M14.1228 1.5H26.9106V14.3302H14.1228V1.5Z" fill="#7FBA00"/>
<path d="M0 15.6697H12.7877V28.4999H0V15.6697Z" fill="#00A4EF"/>
<path d="M14.1228 15.6697H26.9106V28.4999H14.1228V15.6697Z" fill="#FFB900"/>
</svg>
