<svg width="130" height="30" viewBox="0 0 130 30" fill="none" xmlns="http://www.w3.org/2000/svg">
<path d="M14.1944 27.0096C12.6415 27.2791 11.0613 27.3599 9.42669 27.5751L4.44081 13.1422V28.1946C2.88792 28.3561 1.47123 28.5715 0 28.7869V1.21338H4.1413L9.80806 16.8584V1.21338H14.1944V27.0096ZM22.7765 11.3111C24.4658 11.3111 27.054 11.2303 28.6069 11.2303V15.5386C26.6725 15.5386 24.4113 15.5386 22.7765 15.6194V22.0282C25.3376 21.8667 27.8986 21.6511 30.4867 21.5703V25.7168L18.4173 26.6595V1.21338H30.4867V5.52175H22.7765V11.3111ZM46.6973 5.52185H42.1747V25.3403C40.7035 25.3403 39.2322 25.3403 37.8158 25.394V5.52185H33.2932V1.21338H46.6975L46.6973 5.52185ZM53.7808 11.015H59.7475V15.3233H53.7808V25.098H49.5031V1.21338H61.6818V5.52175H53.7808V11.015ZM68.7654 21.328C71.2447 21.3817 73.7511 21.5706 76.176 21.705V25.9595C72.2801 25.717 68.384 25.475 64.4063 25.394V1.21338H68.7654V21.328ZM79.854 26.2557C81.2434 26.3367 82.7147 26.4175 84.1313 26.5788V1.21338H79.854V26.2557ZM103.23 1.21338L97.6992 14.327L103.23 28.7869C101.595 28.5715 99.9605 28.2753 98.3258 28.006L95.1928 20.0357L92.0055 27.3599C90.4249 27.0904 88.8993 27.0096 87.3194 26.7942L92.9317 14.1653L87.8641 1.21338H92.5499L95.4106 8.45683L98.4622 1.21338L103.23 1.21338Z" fill="#FF1B0C"/>
</svg>
