<svg width="327" height="68" viewBox="0 0 327 68" fill="none" xmlns="http://www.w3.org/2000/svg">
<g clip-path="url(#clip0_1_4558)">
<path d="M35.7295 14.4814L35.1915 16.0233H35.1467C35.057 15.6756 34.8926 15.1465 34.6236 14.5116L31.7394 7.18025H28.9149V18.8651H30.7829V11.6547C30.7829 11.2012 30.7829 10.6872 30.768 10.0523C30.7531 9.7349 30.7232 9.49304 30.7082 9.31165H30.7531C30.8427 9.76513 30.9473 10.0977 31.0221 10.3093L34.4891 18.8349H35.8042L39.2414 10.2337C39.3161 10.0372 39.3908 9.6442 39.4655 9.31165H39.5104C39.4655 10.1733 39.4357 10.9442 39.4207 11.4128V18.8198H41.4083V7.15002H38.6884L35.7295 14.4814ZM43.2913 10.4454H45.234V18.8198H43.2913V10.4454ZM44.2776 6.90816C43.9488 6.90816 43.6798 7.02909 43.4557 7.24072C43.2315 7.45234 43.1119 7.72444 43.1119 8.057C43.1119 8.37444 43.2315 8.64653 43.4557 8.85816C43.6798 9.06979 43.9488 9.1756 44.2776 9.1756C44.6064 9.1756 44.8903 9.05467 45.0995 8.85816C45.3237 8.64653 45.4432 8.37444 45.4432 8.057C45.4432 7.73955 45.3237 7.46746 45.0995 7.24072C44.9052 7.02909 44.6213 6.90816 44.2776 6.90816ZM52.1233 10.3698C51.7646 10.2942 51.391 10.2489 51.0324 10.2489C50.1507 10.2489 49.3437 10.4454 48.6712 10.8384C47.9987 11.2314 47.4607 11.7756 47.117 12.4558C46.7583 13.1512 46.579 13.9523 46.579 14.8744C46.579 15.6756 46.7583 16.3861 47.102 17.0361C47.4458 17.6709 47.924 18.1849 48.5666 18.5326C49.1793 18.8802 49.8966 19.0616 50.7036 19.0616C51.6301 19.0616 52.4222 18.8651 53.0499 18.5023L53.0648 18.4872V16.6733L52.9901 16.7337C52.7061 16.9454 52.3774 17.1268 52.0486 17.2326C51.7049 17.3535 51.391 17.414 51.122 17.414C50.3449 17.414 49.7322 17.1872 49.2988 16.6884C48.8505 16.2047 48.6264 15.5396 48.6264 14.7082C48.6264 13.8465 48.8505 13.1663 49.3138 12.6675C49.7771 12.1686 50.3898 11.9116 51.137 11.9116C51.7646 11.9116 52.4073 12.1233 52.9901 12.5465L53.0648 12.607V10.6872L53.0499 10.6721C52.7958 10.5663 52.5119 10.4454 52.1233 10.3698ZM58.5344 10.3093C58.0562 10.3093 57.6078 10.4605 57.2193 10.7779C56.8905 11.05 56.6664 11.443 56.4721 11.9116H56.4571V10.4454H54.5144V18.8198H56.4571V14.5419C56.4571 13.8163 56.6066 13.2116 56.9354 12.7733C57.2641 12.3198 57.6826 12.093 58.1907 12.093C58.37 12.093 58.5493 12.1384 58.7735 12.1686C58.9827 12.2291 59.1322 12.2896 59.2368 12.3651L59.3115 12.4256V10.4605L59.2667 10.4454C59.1322 10.3547 58.8632 10.3093 58.5344 10.3093ZM63.8246 10.264C62.4647 10.264 61.3738 10.6721 60.6116 11.4733C59.8345 12.2744 59.4609 13.3779 59.4609 14.7686C59.4609 16.0686 59.8495 17.1268 60.5967 17.8977C61.3439 18.6535 62.3601 19.0465 63.6304 19.0465C64.9604 19.0465 66.0214 18.6384 66.7836 17.8221C67.5607 17.0058 67.9343 15.9175 67.9343 14.5721C67.9343 13.2419 67.5756 12.1837 66.8434 11.4128C66.141 10.6419 65.1099 10.264 63.8246 10.264ZM65.3788 16.7035C65.0202 17.1721 64.4523 17.3989 63.7499 17.3989C63.0475 17.3989 62.4797 17.1721 62.0762 16.6733C61.6727 16.2047 61.4784 15.5244 61.4784 14.6628C61.4784 13.7709 61.6876 13.0907 62.0762 12.607C62.4797 12.1233 63.0326 11.8814 63.735 11.8814C64.4224 11.8814 64.9604 12.1082 65.349 12.5768C65.7375 13.0454 65.9467 13.7256 65.9467 14.6175C65.9168 15.5244 65.7525 16.2349 65.3788 16.7035ZM72.2681 13.9221C71.6554 13.6651 71.2669 13.4686 71.0875 13.3023C70.9381 13.1512 70.8634 12.9396 70.8634 12.6675C70.8634 12.4407 70.953 12.214 71.1772 12.0628C71.4014 11.9116 71.6554 11.8361 72.029 11.8361C72.3578 11.8361 72.7015 11.8965 73.0303 11.9872C73.3591 12.0779 73.658 12.214 73.8971 12.3954L73.9718 12.4558V10.6116L73.9269 10.5965C73.7028 10.5058 73.4039 10.4151 73.0452 10.3396C72.6866 10.2791 72.3578 10.2489 72.0888 10.2489C71.1623 10.2489 70.4001 10.4756 69.8023 10.9744C69.2046 11.443 68.9206 12.0779 68.9206 12.8186C68.9206 13.2116 68.9804 13.5593 69.1149 13.8465C69.2494 14.1337 69.4437 14.4058 69.7127 14.6326C69.9817 14.8442 70.3702 15.0861 70.9082 15.3128C71.3565 15.5093 71.7003 15.6605 71.9095 15.7814C72.1187 15.9023 72.2532 16.0384 72.3578 16.1442C72.4325 16.2651 72.4774 16.4163 72.4774 16.6128C72.4774 17.1721 72.0589 17.4442 71.2071 17.4442C70.8783 17.4442 70.5346 17.3837 70.1311 17.2477C69.7276 17.1116 69.354 16.9151 69.0402 16.6884L68.9655 16.6279V18.5477L69.0103 18.5628C69.2942 18.6989 69.638 18.7896 70.0564 18.8954C70.4748 18.9709 70.8484 19.0314 71.1772 19.0314C72.1785 19.0314 73.0004 18.8047 73.5832 18.3058C74.181 17.8221 74.4948 17.2023 74.4948 16.4012C74.4948 15.8419 74.3454 15.343 74.0166 14.9651C73.5832 14.6023 73.0452 14.2244 72.2681 13.9221ZM79.6207 10.264C78.2608 10.264 77.1698 10.6721 76.4077 11.4733C75.6455 12.2744 75.257 13.3779 75.257 14.7686C75.257 16.0686 75.6455 17.1268 76.3927 17.8977C77.14 18.6535 78.1562 19.0465 79.4264 19.0465C80.7565 19.0465 81.8175 18.6384 82.5797 17.8221C83.3568 17.0058 83.7304 15.9175 83.7304 14.5721C83.7304 13.2419 83.3717 12.1837 82.6394 11.4128C81.937 10.6419 80.9059 10.264 79.6207 10.264ZM81.16 16.7035C80.8013 17.1721 80.2334 17.3989 79.531 17.3989C78.8137 17.3989 78.2608 17.1721 77.8573 16.6733C77.4538 16.2047 77.2595 15.5244 77.2595 14.6628C77.2595 13.7709 77.4687 13.0907 77.8573 12.607C78.2608 12.1233 78.8137 11.8814 79.5161 11.8814C80.1886 11.8814 80.7415 12.1082 81.1301 12.5768C81.5186 13.0454 81.7278 13.7256 81.7278 14.6175C81.7278 15.5244 81.5336 16.2349 81.16 16.7035ZM94.1166 12.0628V10.4454H92.1589V7.9663L92.0991 7.98141L90.246 8.54072L90.2012 8.55583V10.4454H87.2721V9.38723C87.2721 8.90351 87.3917 8.5256 87.6009 8.28374C87.8101 8.04188 88.124 7.92095 88.5125 7.92095C88.7815 7.92095 89.0655 7.98141 89.3793 8.11746L89.454 8.16281V6.45467L89.4092 6.43955C89.1402 6.34886 88.7815 6.28839 88.3182 6.28839C87.7354 6.28839 87.2273 6.42444 86.764 6.65118C86.3008 6.90816 85.9571 7.25583 85.703 7.72444C85.4489 8.17793 85.3145 8.69188 85.3145 9.28141V10.4454H83.9545V12.0477H85.3145V18.8198H87.2721V12.0628H90.2012V16.3709C90.2012 18.1396 91.0232 19.0314 92.667 19.0314C92.936 19.0314 93.22 18.9861 93.4889 18.9407C93.7729 18.8802 93.9821 18.8047 94.1017 18.7442L94.1166 18.7291V17.1116L94.0419 17.1721C93.9223 17.2477 93.8177 17.3082 93.6384 17.3535C93.4889 17.3989 93.3544 17.414 93.2498 17.414C92.8613 17.414 92.5923 17.3233 92.398 17.0965C92.2187 16.8849 92.129 16.5372 92.129 16.0233V12.0628H94.1166Z" fill="#B4B6C4"/>
<path d="M3.86841 3.25H13.0292V12.5163H3.86841V3.25Z" fill="#B4B6C4"/>
<path d="M13.9856 3.25H23.1464V12.5163H13.9856V3.25Z" fill="#B4B6C4"/>
<path d="M3.86841 13.4837H13.0292V22.75H3.86841V13.4837Z" fill="#B4B6C4"/>
<path d="M13.9856 13.4837H23.1464V22.75H13.9856V13.4837Z" fill="#B4B6C4"/>
</g>
<g clip-path="url(#clip1_1_4558)">
<path d="M136.356 21.4931C135.251 21.6837 134.126 21.7408 132.962 21.893L129.412 11.6861V22.3311C128.306 22.4453 127.298 22.5977 126.25 22.75V3.25H129.199L133.233 14.3141V3.25H136.356V21.4931ZM142.467 10.3911C143.67 10.3911 145.513 10.334 146.618 10.334V13.3808C145.241 13.3808 143.631 13.3808 142.467 13.4379V17.9702C144.29 17.856 146.114 17.7035 147.957 17.6464V20.5788L139.363 21.2455V3.25H147.957V6.29688H142.467V10.3911ZM159.499 6.29695H156.278V20.3126C155.231 20.3126 154.183 20.3126 153.175 20.3505V6.29695H149.955V3.25H159.499L159.499 6.29695ZM164.542 10.1817H168.79V13.2285H164.542V20.1412H161.496V3.25H170.168V6.29688H164.542V10.1817ZM175.211 17.4751C176.976 17.5131 178.761 17.6466 180.487 17.7416V20.7505C177.714 20.579 174.94 20.4078 172.107 20.3505V3.25H175.211V17.4751ZM183.106 20.96C184.096 21.0172 185.143 21.0743 186.152 21.1884V3.25H183.106V20.96ZM199.75 3.25L195.812 12.524L199.75 22.75C198.586 22.5977 197.422 22.3882 196.258 22.1977L194.027 16.5611L191.758 21.7408C190.633 21.5502 189.546 21.4931 188.422 21.3407L192.418 12.4096L188.809 3.25H192.146L194.183 8.37257L196.355 3.25H199.75V3.25Z" fill="#B4B6C4"/>
</g>
<path d="M261.677 9.45027C261.689 9.51803 261.646 9.56732 261.622 9.62071C261.391 10.1177 261.185 10.6228 261.016 11.1424C260.857 11.6352 260.73 12.1342 260.661 12.6476C260.565 13.3725 260.565 14.0954 260.753 14.808C261.038 15.8943 261.679 16.7034 262.654 17.2476C263.176 17.5392 263.741 17.7096 264.33 17.8061C264.822 17.8862 265.315 17.8944 265.811 17.8636C266.311 17.8328 266.802 17.7343 267.287 17.6028C269.205 17.0771 271.124 16.5555 273.043 16.0298C274.873 15.5308 276.704 15.0297 278.533 14.5307C279.729 14.2042 280.924 13.8798 282.117 13.5553C282.168 13.5409 282.221 13.5245 282.27 13.5081C282.272 13.4608 282.239 13.4732 282.221 13.4711C282.148 13.4691 282.074 13.4691 282.001 13.4691C280.846 13.4711 279.692 13.4711 278.536 13.4732C278.468 13.4732 278.401 13.4732 278.348 13.4732C278.289 13.4259 278.299 13.3746 278.299 13.3274C278.283 12.6148 278.268 11.9001 278.25 11.1876C278.234 10.5181 278.211 9.8466 278.193 9.17715C278.189 9.00465 278.187 8.83215 278.183 8.65965C278.183 8.61037 278.179 8.56314 278.177 8.50974C278.113 8.5159 278.113 8.56519 278.099 8.60215C277.915 9.08474 277.734 9.56732 277.552 10.0499C277.145 11.1301 276.739 12.2102 276.331 13.2904C276.308 13.3479 276.284 13.4033 276.261 13.4588C276.111 13.4793 273.6 13.4814 273.433 13.4608C273.437 13.4382 273.439 13.4136 273.447 13.391C274.93 9.37634 276.41 5.36166 277.891 1.3552C278.044 1.33466 280.54 1.33261 280.748 1.34904C280.771 1.40448 280.738 1.45171 280.72 1.501C280.538 1.98358 280.355 2.46617 280.173 2.94875C279.953 3.52785 279.735 4.109 279.517 4.69015C279.496 4.7456 279.455 4.79694 279.476 4.87497C279.61 4.75587 279.704 4.61212 279.814 4.48275C279.922 4.35748 280.024 4.22605 280.13 4.09873C280.239 3.96525 280.349 3.83383 280.457 3.70035C280.565 3.56687 280.675 3.43544 280.783 3.30196C280.889 3.17464 280.993 3.04526 281.097 2.91794C281.205 2.78446 281.315 2.65304 281.423 2.51956C281.532 2.38608 281.642 2.25465 281.75 2.12117C281.854 1.99385 281.96 1.86448 282.064 1.73716C282.172 1.60573 282.282 1.4743 282.392 1.34082C285.272 1.34082 288.142 1.34082 291.013 1.34082C291.03 1.34082 291.046 1.35109 291.073 1.35931C291.062 1.39216 291.056 1.42091 291.046 1.44761C290.807 2.07805 290.569 2.71054 290.332 3.33276C290.257 3.36972 290.187 3.35535 290.122 3.35535C289.298 3.3574 288.472 3.35535 287.648 3.35535C287.581 3.35535 287.516 3.35946 287.454 3.35946C287.367 3.51758 286.555 5.73335 286.524 5.89558C286.586 5.93049 286.653 5.91406 286.716 5.91406C287.473 5.91612 288.231 5.91406 288.988 5.91406C289.055 5.91406 289.121 5.91406 289.182 5.91406C289.231 5.97156 289.198 6.01674 289.182 6.05987C289.015 6.50959 288.849 6.95727 288.682 7.40699C288.605 7.6144 288.527 7.82181 288.45 8.02716C288.433 8.07234 288.411 8.11752 288.395 8.15654C288.323 8.19555 288.256 8.18118 288.189 8.18118C287.414 8.18323 286.637 8.18118 285.862 8.18118C285.796 8.18118 285.729 8.18323 285.666 8.18529C285.647 8.21814 285.631 8.23662 285.623 8.25921C285.278 9.18536 284.936 10.1136 284.591 11.0397C284.585 11.0561 284.587 11.0746 284.587 11.0993C284.648 11.1383 284.717 11.1198 284.781 11.1198C285.733 11.1219 286.688 11.1198 287.64 11.1219C287.707 11.1219 287.773 11.1239 287.854 11.126C287.848 11.1773 287.85 11.2204 287.836 11.2574C287.766 11.4607 287.693 11.6619 287.622 11.8652C287.603 11.9166 287.585 11.9679 287.569 12.0213C287.618 12.0665 287.667 12.0398 287.709 12.0295C287.94 11.9679 288.168 11.9043 288.399 11.8426C291.005 11.1321 293.614 10.4216 296.22 9.71107C297.544 9.34964 298.868 8.98822 300.193 8.62885C300.259 8.61037 300.324 8.59394 300.389 8.58778C300.43 8.58367 300.475 8.59189 300.514 8.60215C300.571 8.61858 300.581 8.66992 300.544 8.71921C300.499 8.78287 300.436 8.81778 300.369 8.84858C300.275 8.8917 300.179 8.93277 300.083 8.97384C295.578 10.9411 291.073 12.9084 286.565 14.8737C282.651 16.5802 278.737 18.2826 274.822 19.9829C272.682 20.9111 270.538 21.8331 268.395 22.7531C267.481 23.1474 266.559 23.5232 265.623 23.862C264.922 24.1146 264.212 24.3323 263.48 24.4843C263.09 24.5644 262.699 24.6239 262.305 24.6629C261.907 24.7019 261.512 24.7101 261.116 24.6876C259.963 24.6218 258.899 24.281 257.946 23.6156C257.751 23.4801 257.563 23.3302 257.379 23.1782C256.768 22.6648 256.376 22.0118 256.196 21.2314C256.088 20.7612 256.058 20.2848 256.092 19.8022C256.152 18.9725 256.362 18.1799 256.643 17.4036C256.986 16.459 257.43 15.5637 257.926 14.693C258.615 13.4855 259.392 12.3396 260.235 11.2348C260.655 10.6844 261.095 10.1464 261.528 9.60634C261.573 9.55089 261.605 9.48107 261.681 9.45643L261.677 9.45027ZM281.14 12.5491C281.152 12.5511 281.164 12.5532 281.175 12.5552C281.203 12.4813 281.234 12.4094 281.26 12.3355C282.343 9.42562 283.426 6.5137 284.509 3.60383C284.728 3.01651 284.946 2.43125 285.162 1.84394C285.182 1.79055 285.217 1.73716 285.201 1.65912C285.156 1.70225 285.119 1.73305 285.089 1.76796C284.842 2.04108 284.595 2.3142 284.348 2.58527C283.255 3.79481 282.162 5.00434 281.067 6.21183C280.987 6.30013 280.936 6.38638 280.956 6.50549C280.958 6.51781 280.956 6.53013 280.958 6.54245C280.981 7.31048 281.005 8.0785 281.028 8.84653C281.056 9.89178 281.085 10.937 281.111 11.9802C281.116 12.1281 281.12 12.2759 281.126 12.4217C281.126 12.4669 281.134 12.508 281.14 12.5491Z" fill="#B4B6C4"/>
<path d="M269.68 13.4691C268.654 13.4691 267.646 13.4691 266.627 13.4691C266.623 13.4362 266.614 13.4074 266.616 13.3808C266.641 12.9824 266.667 12.584 266.694 12.1835C266.71 11.9186 266.727 11.6558 266.743 11.3909C266.761 11.1034 266.782 10.8138 266.8 10.5263C266.812 10.3477 266.822 10.1711 266.835 9.9924C266.871 9.41536 266.908 8.84036 266.945 8.26537C266.894 8.24689 266.89 8.2818 266.88 8.30644C266.72 8.73153 266.563 9.15866 266.404 9.58375C265.947 10.8159 265.491 12.048 265.034 13.2801C265.011 13.3417 264.983 13.4033 264.954 13.4752C264.034 13.4752 263.119 13.4752 262.203 13.4752C262.18 13.4752 262.158 13.467 262.125 13.4608C262.138 13.4177 262.148 13.3828 262.16 13.3499C263.649 9.3517 265.14 5.35345 266.623 1.36957C266.643 1.3552 266.647 1.35109 266.653 1.34904C266.659 1.34698 266.665 1.34493 266.672 1.34493C267.612 1.34288 268.554 1.34288 269.494 1.34082C269.531 1.34082 269.568 1.34082 269.604 1.34493C269.617 1.34493 269.627 1.35314 269.645 1.35931C269.678 1.40448 269.661 1.46198 269.657 1.51332C269.623 2.07805 269.586 2.64277 269.549 3.20749C269.513 3.77838 269.476 4.34927 269.439 4.92015C269.409 5.38014 269.376 5.84014 269.345 6.30013C269.337 6.40897 269.329 6.51986 269.339 6.64718C269.396 6.61022 269.405 6.56093 269.419 6.51986C269.578 6.09478 269.737 5.66764 269.896 5.24256C270.359 4.00016 270.824 2.75777 271.287 1.51537C271.307 1.45788 271.334 1.40448 271.354 1.3552C271.568 1.33466 274.028 1.33877 274.169 1.35931C274.171 1.37573 274.177 1.39627 274.171 1.4127C272.676 5.42532 271.181 9.44 269.68 13.4691Z" fill="#B4B6C4"/>
<path d="M270.08 13.4588C270.08 13.4403 270.073 13.4198 270.08 13.4054C271.568 9.40714 273.057 5.41095 274.546 1.4127C274.554 1.39011 274.569 1.37163 274.579 1.3552C274.732 1.33672 277.191 1.33261 277.389 1.35109C277.408 1.42296 277.367 1.48046 277.344 1.54207C277.108 2.18072 276.869 2.81937 276.633 3.45803C275.411 6.73754 274.189 10.015 272.968 13.2945C272.947 13.352 272.923 13.4074 272.902 13.4588C272.743 13.4814 270.235 13.4834 270.08 13.4588Z" fill="#B4B6C4"/>
<path d="M292.213 2.5175C291.862 2.51956 291.629 2.29572 291.582 2.0226C291.536 1.74948 291.662 1.48662 291.913 1.36752C292.1 1.27922 292.29 1.27716 292.48 1.36341C292.729 1.47636 292.871 1.74537 292.822 2.01233C292.771 2.29161 292.565 2.48465 292.288 2.51134C292.26 2.51545 292.229 2.51545 292.213 2.5175ZM291.962 2.25465C291.982 2.27519 291.998 2.30393 292.023 2.31215C292.139 2.35733 292.26 2.35733 292.376 2.3142C292.396 2.30599 292.41 2.28751 292.433 2.27108C292.282 2.22385 292.284 2.22385 292.202 2.08626C292.182 2.05135 292.176 2.00206 292.115 2.00206C292.107 2.07805 292.098 2.15403 292.092 2.22795C292.039 2.24028 291.998 2.24849 291.96 2.25876C291.931 2.01028 291.939 1.73305 291.98 1.59752C292.084 1.58519 292.194 1.58725 292.302 1.59752C292.374 1.60368 292.429 1.64269 292.453 1.71251C292.48 1.78849 292.47 1.85832 292.41 1.91581C292.386 1.94046 292.355 1.95894 292.327 1.97947C292.376 2.07599 292.423 2.15813 292.48 2.23617C292.67 2.06778 292.692 1.80698 292.539 1.62627C292.4 1.46404 292.16 1.42502 291.974 1.53386C291.748 1.66734 291.733 1.9076 291.795 2.07805C291.825 2.15813 291.862 2.23822 291.962 2.25465ZM292.111 1.69198C292.111 1.74537 292.107 1.77617 292.113 1.80287C292.115 1.81724 292.129 1.84189 292.139 1.84394C292.178 1.84599 292.223 1.84599 292.258 1.83367C292.302 1.81724 292.3 1.73305 292.255 1.71662C292.219 1.70019 292.176 1.70019 292.111 1.69198Z" fill="#B4B6C4"/>
<path d="M263.565 16.843C263.367 16.8451 263.215 16.7917 263.088 16.6746C262.831 16.4344 262.819 15.8573 263.298 15.6705C263.457 15.6088 263.62 15.6109 263.782 15.6705C264.041 15.767 264.196 16.0278 264.165 16.3173C264.134 16.5884 263.922 16.802 263.649 16.8369C263.612 16.841 263.576 16.843 263.565 16.843ZM263.806 16.574C263.971 16.4631 264.002 16.3029 263.959 16.1222C263.916 15.9436 263.765 15.8163 263.58 15.7998C263.394 15.7834 263.221 15.8779 263.141 16.0401C263.062 16.2044 263.09 16.4097 263.21 16.537C263.229 16.5576 263.263 16.5637 263.29 16.5761C263.298 16.5904 263.304 16.613 263.316 16.6192C263.49 16.6993 263.655 16.7095 263.806 16.574Z" fill="#B4B6C4"/>
<path d="M261.681 9.45437C261.683 9.44411 261.685 9.43589 261.687 9.42562C261.693 9.42973 261.697 9.43589 261.703 9.44C261.695 9.44411 261.687 9.44616 261.677 9.45027L261.681 9.45437Z" fill="#B4B6C4"/>
<path d="M291.96 2.25876C292.001 2.24849 292.041 2.24028 292.092 2.22795C292.1 2.15403 292.109 2.07805 292.115 2.00206C292.176 2.00206 292.182 2.05135 292.202 2.08626C292.282 2.22385 292.282 2.22385 292.433 2.27108C292.41 2.28751 292.396 2.30804 292.376 2.3142C292.258 2.35938 292.139 2.35938 292.023 2.31215C291.998 2.30188 291.982 2.27313 291.962 2.25465L291.96 2.25876Z" fill="#B4B6C4"/>
<path d="M292.111 1.69198C292.178 1.70225 292.219 1.70019 292.255 1.71457C292.3 1.73305 292.3 1.81519 292.258 1.83162C292.221 1.846 292.178 1.84394 292.139 1.84189C292.129 1.84189 292.115 1.81725 292.113 1.80082C292.107 1.77412 292.111 1.74537 292.111 1.69198Z" fill="#B4B6C4"/>
<path d="M263.806 16.574C263.655 16.7075 263.49 16.6972 263.319 16.6171C263.306 16.611 263.3 16.5884 263.292 16.574L263.29 16.5781C263.337 16.5699 263.382 16.5617 263.423 16.5555C263.459 16.4754 263.421 16.3933 263.461 16.3112C263.555 16.3851 263.561 16.5042 263.641 16.5617C263.702 16.5678 263.755 16.574 263.808 16.5781L263.806 16.574Z" fill="#B4B6C4"/>
<path d="M263.808 16.5802C263.755 16.574 263.7 16.5699 263.641 16.5637C263.561 16.5042 263.555 16.3851 263.461 16.3132C263.421 16.3954 263.459 16.4775 263.423 16.5576C263.382 16.5637 263.335 16.572 263.29 16.5802C263.282 16.3687 263.284 16.1551 263.288 15.9374C263.416 15.9025 263.537 15.9128 263.653 15.9271C263.722 15.9354 263.777 15.9805 263.792 16.0545C263.808 16.1284 263.804 16.2003 263.735 16.2516C263.712 16.268 263.688 16.2865 263.661 16.305C263.714 16.3974 263.761 16.4898 263.808 16.5802ZM263.622 16.0955C263.62 16.0462 263.584 16.0196 263.516 16.0216C263.463 16.0216 263.441 16.0463 263.443 16.1017C263.443 16.1592 263.474 16.1818 263.541 16.1756C263.596 16.1695 263.626 16.1407 263.622 16.0955Z" fill="#B4B6C4"/>
<path d="M263.622 16.0955C263.624 16.1407 263.596 16.1695 263.541 16.1736C263.474 16.1797 263.443 16.1571 263.443 16.0996C263.443 16.0421 263.463 16.0196 263.516 16.0196C263.584 16.0196 263.62 16.0462 263.622 16.0955Z" fill="#B4B6C4"/>
<g clip-path="url(#clip2_1_4558)">
<path d="M26.5833 48.077C26.5029 48.0702 24.9274 48.046 24.9274 48.046C24.9274 48.046 23.6098 46.7522 23.4796 46.6206C23.4311 46.5715 23.3654 46.5461 23.2966 46.5355L23.2973 66.3265L29.202 64.8427C29.202 64.8427 26.7927 48.3725 26.7774 48.2595C26.762 48.1465 26.6637 48.0838 26.5833 48.077Z" fill="#B4B6C4"/>
<path fill-rule="evenodd" clip-rule="evenodd" d="M26.5827 48.0763C26.6637 48.0832 26.7614 48.1459 26.7767 48.2589C26.7921 48.3719 29.2013 64.8427 29.2013 64.8427L23.296 66.3271L9.67102 63.9444C9.67102 63.9444 11.2969 51.2325 11.357 50.785C11.4381 50.1927 11.4577 50.1734 12.0791 49.976C12.0923 49.9717 12.5113 49.8405 13.1782 49.6317C13.4719 49.5397 13.8136 49.4327 14.19 49.3149C14.3214 48.3632 14.7849 47.1339 15.394 46.1555C16.2597 44.7649 17.3275 43.9821 18.3995 43.951C18.9551 43.9343 19.4187 44.1249 19.7803 44.516C19.8061 44.5445 19.8307 44.5737 19.8552 44.6035C19.8614 44.603 19.8676 44.6024 19.8737 44.6019C19.9251 44.5974 19.9762 44.593 20.0278 44.593H20.0308C20.861 44.5942 21.548 45.0728 22.0171 45.978C22.1626 46.2586 22.2645 46.538 22.3339 46.7652C22.4396 46.7321 22.5343 46.7024 22.6168 46.6766C22.858 46.6011 22.9949 46.5583 22.9958 46.5578C23.0946 46.528 23.3488 46.4883 23.479 46.6199C23.6091 46.7515 24.9268 48.0453 24.9268 48.0453C24.9268 48.0453 26.5023 48.0695 26.5827 48.0763ZM20.5945 47.3096L21.6518 46.9787C21.4829 46.4237 21.0826 45.4931 20.2691 45.3373C20.522 45.9972 20.5865 46.7608 20.5945 47.3096ZM17.6068 48.2452L19.8816 47.5331C19.889 46.934 19.8245 46.0481 19.528 45.4224C19.2124 45.554 18.9459 45.7843 18.7556 45.991C18.2435 46.5467 17.8266 47.3941 17.6068 48.2452ZM19.0657 44.8431C18.8845 44.7227 18.6727 44.6668 18.4209 44.6724C16.7662 44.7208 15.3228 47.3339 14.9538 49.0753C15.2925 48.9695 15.6482 48.858 16.0137 48.7435C16.2789 48.6605 16.5493 48.5758 16.8221 48.4904C17.0303 47.3841 17.5522 46.2375 18.2331 45.4987C18.4959 45.2138 18.7758 44.9952 19.0657 44.8431ZM19.3376 53.7413L20.0234 51.147C20.0234 51.147 19.4322 50.849 18.2766 50.9241C15.2773 51.1153 13.9179 53.236 14.0487 55.3288C14.136 56.7259 14.95 57.3099 15.6635 57.8218C16.2202 58.2212 16.7156 58.5766 16.757 59.2399C16.7797 59.6056 16.555 60.1227 15.9263 60.1631C14.9636 60.2245 13.7608 59.307 13.7608 59.307L13.3009 61.2849C13.3009 61.2849 14.4957 62.5793 16.6662 62.4408C18.4743 62.3254 19.7294 60.8627 19.5961 58.7246C19.4936 57.0808 18.3487 56.3385 17.4438 55.7518C16.8526 55.3685 16.3639 55.0516 16.3352 54.5931C16.3217 54.3802 16.3358 53.5322 17.6657 53.4471C18.5726 53.3893 19.3376 53.7413 19.3376 53.7413Z" fill="#B4B6C4"/>
<path d="M36.9777 56.5795C36.2987 56.207 35.9498 55.893 35.9498 55.4613C35.9498 54.9121 36.4345 54.5592 37.1915 54.5592C38.0727 54.5592 38.8595 54.9318 38.8595 54.9318L39.48 53.0094C39.48 53.0094 38.9094 52.558 37.2299 52.558C34.8926 52.558 33.2727 53.9114 33.2727 55.8141C33.2727 56.8929 34.029 57.7168 35.0381 58.3048C35.8529 58.7753 36.144 59.109 36.144 59.5992C36.144 60.109 35.7366 60.521 34.9803 60.521C33.853 60.521 32.7885 59.9323 32.7885 59.9323L32.129 61.8547C32.129 61.8547 33.1125 62.5215 34.7671 62.5215C37.1726 62.5215 38.8991 61.3251 38.8991 59.1675C38.8985 58.0111 38.0258 57.1873 36.9777 56.5795Z" fill="#B4B6C4"/>
<path d="M46.5607 52.5389C45.3774 52.5389 44.4463 53.1079 43.7289 53.9706L43.6899 53.9508L44.7179 48.5181H42.0408L39.4417 62.3454H42.1187L43.0109 57.6189C43.3598 55.8338 44.2715 54.7359 45.1253 54.7359C45.7263 54.7359 45.9596 55.1479 45.9596 55.7365C45.9596 56.1091 45.9206 56.5604 45.8432 56.933L44.8348 62.346H47.512L48.5592 56.7562C48.6757 56.1675 48.7535 55.4619 48.7535 54.9909C48.7524 53.4607 47.9572 52.5389 46.5607 52.5389Z" fill="#B4B6C4"/>
<path d="M54.8045 52.5389C51.5841 52.5389 49.451 55.481 49.451 58.7562C49.451 60.8547 50.731 62.5413 53.1366 62.5413C56.2984 62.5413 58.4322 59.678 58.4322 56.324C58.4322 54.3825 57.3068 52.5389 54.8045 52.5389ZM53.4855 60.4631C52.5737 60.4631 52.1857 59.6786 52.1857 58.6977C52.1857 57.1485 52.9813 54.6184 54.436 54.6184C55.3866 54.6184 55.6964 55.4422 55.6964 56.2464C55.6964 57.9132 54.9019 60.4631 53.4855 60.4631Z" fill="#B4B6C4"/>
<path d="M65.2795 52.5389C63.4725 52.5389 62.4471 54.1473 62.4471 54.1473H62.4088L62.564 52.696H60.1975C60.0813 53.6769 59.8674 55.167 59.6546 56.2852L57.7922 66.1896H60.4693L61.2059 62.1884H61.2646C61.2646 62.1884 61.8138 62.5413 62.8359 62.5413C65.9781 62.5413 68.0341 59.2858 68.0341 55.9903C68.0341 54.167 67.2385 52.5389 65.2795 52.5389ZM62.719 60.5019C62.0241 60.5019 61.6128 60.1096 61.6128 60.1096L62.0591 57.5795C62.3697 55.893 63.2424 54.7747 64.1737 54.7747C64.9885 54.7747 65.2404 55.5395 65.2404 56.2655C65.2404 58.0111 64.2124 60.5019 62.719 60.5019Z" fill="#B4B6C4"/>
<path d="M71.8553 48.6554C71.0022 48.6554 70.3231 49.342 70.3231 50.2243C70.3231 51.0285 70.8273 51.5778 71.5839 51.5778H71.6226C72.4569 51.5778 73.1743 51.0088 73.1939 50.0088C73.1939 49.2243 72.6701 48.6554 71.8553 48.6554Z" fill="#B4B6C4"/>
<path d="M68.1118 62.3454H70.7882L72.6121 52.7551H69.9155L68.1118 62.3454Z" fill="#B4B6C4"/>
<path d="M79.4208 52.7354H77.5585L77.6551 52.284C77.8104 51.3622 78.3537 50.5383 79.246 50.5383C79.7222 50.5383 80.0991 50.6757 80.0991 50.6757L80.6229 48.5575C80.6229 48.5575 80.1574 48.3223 79.1678 48.3223C78.2173 48.3223 77.2675 48.5969 76.5493 49.2243C75.6375 50.0088 75.2108 51.1461 74.9976 52.284L74.9205 52.7354H73.6786L73.2906 54.7754H74.5325L73.1165 62.346H75.7936L77.2096 54.7754H79.0524L79.4208 52.7354Z" fill="#B4B6C4"/>
<path d="M85.8606 52.7551C85.8606 52.7551 84.1871 57.0179 83.4358 59.3449H83.3967C83.3458 58.5955 82.7372 52.7551 82.7372 52.7551H79.9243L81.5351 61.5609C81.5742 61.7568 81.5546 61.875 81.4768 62.0123C81.1659 62.62 80.6425 63.2087 80.0217 63.6404C79.5175 64.0129 78.955 64.2481 78.509 64.4051L79.246 66.7C79.7893 66.5824 80.9139 66.1311 81.8645 65.229C83.0868 64.072 84.2115 62.2869 85.3752 59.8547L88.6535 52.7545H85.8606V52.7551Z" fill="#B4B6C4"/>
</g>
<g clip-path="url(#clip3_1_4558)">
<path d="M147.68 61.2646L148.763 58.7588C149.934 59.6289 151.49 60.0813 153.028 60.0813C154.164 60.0813 154.881 59.6463 154.881 58.985C154.863 57.1404 148.082 58.5848 148.029 53.9559C148.012 51.6067 150.109 49.797 153.08 49.797C154.846 49.797 156.611 50.232 157.869 51.2239L156.856 53.7819C155.702 53.0511 154.269 52.529 152.906 52.529C151.979 52.529 151.368 52.964 151.368 53.5209C151.385 55.3307 158.219 54.3388 158.289 58.7588C158.289 61.1602 156.244 62.8481 153.308 62.8481C151.158 62.8481 149.183 62.3435 147.68 61.2646ZM189.259 57.8539C188.718 58.7936 187.704 59.4374 186.533 59.4374C184.803 59.4374 183.404 58.0453 183.404 56.3226C183.404 54.5998 184.803 53.2077 186.533 53.2077C187.704 53.2077 188.718 53.8515 189.259 54.7912L192.248 53.1381C191.13 51.1543 188.98 49.797 186.533 49.797C182.915 49.797 179.979 52.7204 179.979 56.3226C179.979 59.9247 182.915 62.8481 186.533 62.8481C188.997 62.8481 191.13 61.5082 192.248 59.507L189.259 57.8539ZM159.792 44.3851H163.532V62.6045H159.792V44.3851ZM193.716 44.3851V62.6045H197.456V57.1404L201.896 62.6045H206.685L201.039 56.1137L206.265 50.058H201.686L197.456 55.087V44.3851H193.716ZM174.648 57.8887C174.106 58.7762 172.988 59.4374 171.729 59.4374C169.999 59.4374 168.601 58.0453 168.601 56.3226C168.601 54.5998 169.999 53.2077 171.729 53.2077C172.988 53.2077 174.106 53.9037 174.648 54.8086V57.8887ZM174.648 50.058V51.5371C174.036 50.5104 172.516 49.797 170.925 49.797C167.639 49.797 165.053 52.6856 165.053 56.3052C165.053 59.9247 167.639 62.8481 170.925 62.8481C172.516 62.8481 174.036 62.1347 174.648 61.108V62.5871H178.388V50.058H174.648Z" fill="#B4B6C4"/>
<path d="M124.557 57.8713C124.557 59.1416 123.526 60.1683 122.25 60.1683C120.974 60.1683 119.943 59.1416 119.943 57.8713C119.943 56.601 120.974 55.5743 122.25 55.5743H124.557V57.8713ZM125.71 57.8713C125.71 56.601 126.741 55.5743 128.017 55.5743C129.293 55.5743 130.324 56.601 130.324 57.8713V63.6138C130.324 64.8841 129.293 65.9108 128.017 65.9108C126.741 65.9108 125.71 64.8841 125.71 63.6138V57.8713Z" fill="#B4B6C4"/>
<path d="M128.017 48.6485C126.741 48.6485 125.71 47.6218 125.71 46.3515C125.71 45.0811 126.741 44.0544 128.017 44.0544C129.293 44.0544 130.324 45.0811 130.324 46.3515V48.6485H128.017ZM128.017 49.8144C129.293 49.8144 130.324 50.8411 130.324 52.1114C130.324 53.3817 129.293 54.4084 128.017 54.4084H122.232C120.956 54.4084 119.925 53.3817 119.925 52.1114C119.925 50.8411 120.956 49.8144 122.232 49.8144H128.017Z" fill="#B4B6C4"/>
<path d="M137.263 52.1114C137.263 50.8411 138.294 49.8144 139.57 49.8144C140.846 49.8144 141.877 50.8411 141.877 52.1114C141.877 53.3817 140.846 54.4084 139.57 54.4084H137.263V52.1114ZM136.109 52.1114C136.109 53.3817 135.078 54.4084 133.802 54.4084C132.526 54.4084 131.495 53.3817 131.495 52.1114V46.3515C131.495 45.0811 132.526 44.0544 133.802 44.0544C135.078 44.0544 136.109 45.0811 136.109 46.3515V52.1114Z" fill="#B4B6C4"/>
<path d="M133.802 61.3168C135.078 61.3168 136.109 62.3435 136.109 63.6138C136.109 64.8841 135.078 65.9108 133.802 65.9108C132.526 65.9108 131.495 64.8841 131.495 63.6138V61.3168H133.802ZM133.802 60.1683C132.526 60.1683 131.495 59.1416 131.495 57.8713C131.495 56.601 132.526 55.5743 133.802 55.5743H139.587C140.863 55.5743 141.895 56.601 141.895 57.8713C141.895 59.1416 140.863 60.1683 139.587 60.1683H133.802Z" fill="#B4B6C4"/>
</g>
<g clip-path="url(#clip4_1_4558)">
<path d="M258.494 45.5219H254.79V49.1604H258.494V45.5219Z" fill="#B4B6C4"/>
<path d="M258.402 64.4781V51.3745H254.895V64.4781H258.402ZM281.711 64.6076V61.3964C281.196 61.3964 280.761 61.3705 280.445 61.3187C280.076 61.2669 279.799 61.1374 279.614 60.9562C279.43 60.7749 279.311 60.5159 279.245 60.1793C279.193 59.8556 279.166 59.4283 279.166 58.9104V54.3267H281.711V51.3745H279.166V46.26H275.646V58.9363C275.646 60.011 275.738 60.9173 275.923 61.6424C276.108 62.3546 276.424 62.9373 276.859 63.3775C277.294 63.8177 277.874 64.1285 278.573 64.3227C279.285 64.5169 280.181 64.6076 281.249 64.6076H281.711ZM301.855 64.4781V45.25H298.335V64.4781H301.855ZM272.258 52.6564C271.282 51.6205 269.911 51.1026 268.171 51.1026C267.327 51.1026 266.563 51.2709 265.864 51.6076C265.178 51.9442 264.585 52.4104 264.124 53.006L263.926 53.252V53.0319V51.3745H260.459V64.4781H263.952V57.499V57.9781C263.952 57.9004 263.952 57.8227 263.952 57.745C263.992 56.5149 264.295 55.6086 264.875 55.0259C265.495 54.4044 266.246 54.0936 267.103 54.0936C268.118 54.0936 268.896 54.4044 269.41 55C269.911 55.5956 270.175 56.4373 270.175 57.512V57.5378V64.4651H273.721V57.0329C273.735 55.1683 273.234 53.6922 272.258 52.6564ZM296.516 57.9004C296.516 56.9552 296.345 56.0747 296.015 55.246C295.672 54.4303 295.198 53.7052 294.604 53.0837C293.998 52.4622 293.273 51.9831 292.429 51.6335C291.585 51.2839 290.649 51.1155 289.634 51.1155C288.672 51.1155 287.762 51.2968 286.918 51.6464C286.074 52.009 285.336 52.488 284.717 53.0966C284.097 53.7052 283.596 54.4303 283.24 55.259C282.871 56.0876 282.699 56.9811 282.699 57.9263C282.699 58.8715 282.871 59.7649 283.214 60.5936C283.556 61.4223 284.044 62.1474 284.651 62.756C285.257 63.3645 286.009 63.8566 286.879 64.2062C287.749 64.5687 288.711 64.75 289.74 64.75C292.719 64.75 294.565 63.4163 295.672 62.1733L293.141 60.2829C292.614 60.9044 291.348 61.746 289.766 61.746C288.777 61.746 287.96 61.5259 287.34 61.0727C286.72 60.6325 286.299 60.011 286.074 59.247L286.035 59.1305H296.516V57.9004ZM286.061 56.6962C286.061 55.738 287.182 54.0677 289.594 54.0548C292.007 54.0548 293.141 55.7251 293.141 56.6833L286.061 56.6962Z" fill="#B4B6C4"/>
</g>
<defs>
<clipPath id="clip0_1_4558">
<rect width="90.2632" height="19.5" fill="white" transform="translate(3.86841 3.25)"/>
</clipPath>
<clipPath id="clip1_1_4558">
<rect width="73.5" height="19.5" fill="white" transform="translate(126.25 3.25)"/>
</clipPath>
<clipPath id="clip2_1_4558">
<rect width="79.3026" height="22.75" fill="white" transform="translate(9.67102 43.95)"/>
</clipPath>
<clipPath id="clip3_1_4558">
<rect width="87.0395" height="22.1" fill="white" transform="translate(119.803 43.95)"/>
</clipPath>
<clipPath id="clip4_1_4558">
<rect width="47.0658" height="19.5" fill="white" transform="translate(254.79 45.25)"/>
</clipPath>
</defs>
</svg>
