<svg width="1440" height="40" viewBox="0 0 1440 40" fill="none" xmlns="http://www.w3.org/2000/svg">
<rect width="1440" height="40" fill="white"/>
<g clip-path="url(#clip0_1_8093)">
<path d="M228.417 22.2791L227.583 24.6512H227.513C227.374 24.1163 227.119 23.3023 226.702 22.3256L222.228 11.0465H217.848V29.0233H220.745V17.9303C220.745 17.2326 220.745 16.4419 220.722 15.4651C220.699 14.9768 220.652 14.6047 220.629 14.3256H220.699C220.838 15.0233 221 15.5349 221.116 15.8605L226.493 28.9768H228.533L233.864 15.7442C233.98 15.4419 234.096 14.8372 234.212 14.3256H234.281C234.212 15.6512 234.166 16.8372 234.142 17.5582V28.9535H237.225V11H233.007L228.417 22.2791ZM240.146 16.0698H243.159V28.9535H240.146V16.0698ZM241.675 10.6279C241.166 10.6279 240.748 10.814 240.401 11.1396C240.053 11.4651 239.868 11.8837 239.868 12.3954C239.868 12.8837 240.053 13.3023 240.401 13.6279C240.748 13.9535 241.166 14.1163 241.675 14.1163C242.185 14.1163 242.626 13.9303 242.95 13.6279C243.298 13.3023 243.483 12.8837 243.483 12.3954C243.483 11.907 243.298 11.4884 242.95 11.1396C242.649 10.814 242.209 10.6279 241.675 10.6279ZM253.844 15.9535C253.288 15.8372 252.709 15.7675 252.152 15.7675C250.785 15.7675 249.533 16.0698 248.49 16.6744C247.447 17.2791 246.613 18.1163 246.079 19.1628C245.523 20.2326 245.245 21.4651 245.245 22.8837C245.245 24.1163 245.523 25.2093 246.056 26.2093C246.589 27.1861 247.331 27.9768 248.328 28.5116C249.278 29.0465 250.391 29.3256 251.642 29.3256C253.079 29.3256 254.308 29.0233 255.281 28.4651L255.305 28.4419V25.6512L255.189 25.7442C254.748 26.0698 254.238 26.3489 253.728 26.5116C253.195 26.6977 252.709 26.7907 252.291 26.7907C251.086 26.7907 250.136 26.4419 249.464 25.6744C248.768 24.9303 248.421 23.907 248.421 22.6279C248.421 21.3023 248.768 20.2558 249.487 19.4884C250.205 18.7209 251.156 18.3256 252.315 18.3256C253.288 18.3256 254.285 18.6512 255.189 19.3023L255.305 19.3954V16.4419L255.281 16.4186C254.887 16.2558 254.447 16.0698 253.844 15.9535ZM263.788 15.8605C263.046 15.8605 262.351 16.093 261.748 16.5814C261.238 17 260.891 17.6047 260.589 18.3256H260.566V16.0698H257.553V28.9535H260.566V22.3721C260.566 21.2558 260.798 20.3256 261.308 19.6512C261.818 18.9535 262.467 18.6047 263.255 18.6047C263.533 18.6047 263.811 18.6744 264.159 18.7209C264.483 18.814 264.715 18.907 264.877 19.0233L264.993 19.1163V16.093L264.924 16.0698C264.715 15.9303 264.298 15.8605 263.788 15.8605ZM271.993 15.7907C269.884 15.7907 268.192 16.4186 267.01 17.6512C265.805 18.8837 265.225 20.5814 265.225 22.7209C265.225 24.7209 265.828 26.3489 266.987 27.5349C268.146 28.6977 269.722 29.3023 271.692 29.3023C273.755 29.3023 275.401 28.6744 276.583 27.4186C277.788 26.1628 278.368 24.4884 278.368 22.4186C278.368 20.3721 277.811 18.7442 276.675 17.5582C275.586 16.3721 273.987 15.7907 271.993 15.7907ZM274.404 25.6977C273.848 26.4186 272.967 26.7675 271.877 26.7675C270.788 26.7675 269.907 26.4186 269.281 25.6512C268.656 24.9303 268.354 23.8837 268.354 22.5582C268.354 21.1861 268.679 20.1396 269.281 19.3954C269.907 18.6512 270.765 18.2791 271.854 18.2791C272.921 18.2791 273.755 18.6279 274.358 19.3489C274.96 20.0698 275.285 21.1163 275.285 22.4884C275.238 23.8837 274.983 24.9768 274.404 25.6977ZM285.089 21.4186C284.139 21.0233 283.536 20.7209 283.258 20.4651C283.026 20.2326 282.911 19.907 282.911 19.4884C282.911 19.1396 283.05 18.7907 283.397 18.5582C283.745 18.3256 284.139 18.2093 284.719 18.2093C285.228 18.2093 285.762 18.3023 286.272 18.4419C286.781 18.5814 287.245 18.7907 287.616 19.0698L287.732 19.1628V16.3256L287.662 16.3023C287.315 16.1628 286.851 16.0233 286.295 15.907C285.738 15.814 285.228 15.7675 284.811 15.7675C283.374 15.7675 282.192 16.1163 281.265 16.8837C280.338 17.6047 279.897 18.5814 279.897 19.7209C279.897 20.3256 279.99 20.8605 280.199 21.3023C280.407 21.7442 280.709 22.1628 281.126 22.5116C281.543 22.8372 282.146 23.2093 282.98 23.5582C283.675 23.8605 284.209 24.093 284.533 24.2791C284.858 24.4651 285.066 24.6744 285.228 24.8372C285.344 25.0233 285.414 25.2558 285.414 25.5582C285.414 26.4186 284.765 26.8372 283.444 26.8372C282.934 26.8372 282.401 26.7442 281.775 26.5349C281.149 26.3256 280.57 26.0233 280.083 25.6744L279.967 25.5814V28.5349L280.036 28.5582C280.477 28.7675 281.01 28.907 281.659 29.0698C282.308 29.1861 282.887 29.2791 283.397 29.2791C284.95 29.2791 286.225 28.9303 287.129 28.1628C288.056 27.4186 288.543 26.4651 288.543 25.2326C288.543 24.3721 288.311 23.6047 287.801 23.0233C287.129 22.4651 286.295 21.8837 285.089 21.4186ZM296.493 15.7907C294.384 15.7907 292.692 16.4186 291.51 17.6512C290.328 18.8837 289.725 20.5814 289.725 22.7209C289.725 24.7209 290.328 26.3489 291.487 27.5349C292.646 28.6977 294.222 29.3023 296.192 29.3023C298.255 29.3023 299.901 28.6744 301.083 27.4186C302.288 26.1628 302.868 24.4884 302.868 22.4186C302.868 20.3721 302.311 18.7442 301.175 17.5582C300.086 16.3721 298.487 15.7907 296.493 15.7907ZM298.881 25.6977C298.325 26.4186 297.444 26.7675 296.354 26.7675C295.242 26.7675 294.384 26.4186 293.758 25.6512C293.132 24.9303 292.831 23.8837 292.831 22.5582C292.831 21.1861 293.156 20.1396 293.758 19.3954C294.384 18.6512 295.242 18.2791 296.331 18.2791C297.374 18.2791 298.232 18.6279 298.834 19.3489C299.437 20.0698 299.762 21.1163 299.762 22.4884C299.762 23.8837 299.46 24.9768 298.881 25.6977ZM318.977 18.5582V16.0698H315.94V12.2558L315.848 12.2791L312.974 13.1396L312.904 13.1628V16.0698H308.361V14.4419C308.361 13.6977 308.546 13.1163 308.871 12.7442C309.195 12.3721 309.682 12.1861 310.285 12.1861C310.702 12.1861 311.142 12.2791 311.629 12.4884L311.745 12.5582V9.93025L311.676 9.907C311.258 9.76746 310.702 9.67444 309.983 9.67444C309.079 9.67444 308.291 9.88374 307.573 10.2326C306.854 10.6279 306.321 11.1628 305.927 11.8837C305.533 12.5814 305.325 13.3721 305.325 14.2791V16.0698H303.215V18.5349H305.325V28.9535H308.361V18.5582H312.904V25.1861C312.904 27.907 314.179 29.2791 316.728 29.2791C317.146 29.2791 317.586 29.2093 318.003 29.1396C318.444 29.0465 318.768 28.9303 318.954 28.8372L318.977 28.814V26.3256L318.861 26.4186C318.676 26.5349 318.513 26.6279 318.235 26.6977C318.003 26.7675 317.795 26.7907 317.632 26.7907C317.03 26.7907 316.613 26.6512 316.311 26.3023C316.033 25.9768 315.894 25.4419 315.894 24.6512V18.5582H318.977Z" fill="#B4B6C4"/>
<path d="M179 5H193.209V19.2558H179V5Z" fill="#B4B6C4"/>
<path d="M194.692 5H208.901V19.2558H194.692V5Z" fill="#B4B6C4"/>
<path d="M179 20.7442H193.209V35H179V20.7442Z" fill="#B4B6C4"/>
<path d="M194.692 20.7442H208.901V35H194.692V20.7442Z" fill="#B4B6C4"/>
</g>
<g clip-path="url(#clip1_1_8093)">
<path d="M399.675 33.0663C397.96 33.3595 396.215 33.4474 394.41 33.6816L388.904 17.9786V34.3555C387.189 34.5313 385.625 34.7656 384 35V5H388.573L394.831 22.0217V5H399.675V33.0663ZM409.153 15.9863C411.018 15.9863 413.877 15.8984 415.591 15.8984V20.5858C413.455 20.5858 410.958 20.5858 409.153 20.6737V27.6465C411.981 27.4708 414.809 27.2362 417.667 27.1483V31.6597L404.339 32.6854V5H417.667V9.68751H409.153V15.9863ZM435.569 9.68762H430.575V31.2501C428.95 31.2501 427.325 31.2501 425.761 31.3085V9.68762H420.767V5H435.569L435.569 9.68762ZM443.392 15.6642H449.981V20.3516H443.392V30.9864H438.668V5H452.117V9.68751H443.392V15.6642ZM459.94 26.8848C462.678 26.9432 465.446 27.1486 468.123 27.2948V31.9238C463.821 31.66 459.519 31.3966 455.126 31.3085V5H459.94V26.8848ZM472.185 32.2461C473.72 32.3341 475.344 32.422 476.909 32.5975V5H472.185V32.2461ZM498 5L491.892 19.2676L498 35C496.195 34.7656 494.389 34.4433 492.584 34.1503L489.124 25.4786L485.604 33.4474C483.859 33.1542 482.174 33.0663 480.429 32.8319L486.627 19.0917L481.031 5H486.206L489.365 12.8809L492.735 5H498V5Z" fill="#B4B6C4"/>
</g>
<path d="M607.682 14.5389C607.701 14.6432 607.635 14.719 607.597 14.8011C607.24 15.5657 606.92 16.3429 606.657 17.1422C606.411 17.9004 606.215 18.6681 606.107 19.4579C605.958 20.5732 605.958 21.6852 606.249 22.7815C606.692 24.4528 607.686 25.6975 609.198 26.5347C610.007 26.9834 610.884 27.2456 611.798 27.3941C612.56 27.5173 613.326 27.5299 614.095 27.4825C614.87 27.4352 615.632 27.2835 616.385 27.0813C619.358 26.2725 622.335 25.4701 625.312 24.6613C628.149 23.8936 630.99 23.1227 633.828 22.355C635.681 21.8527 637.535 21.3535 639.386 20.8543C639.465 20.8322 639.547 20.8069 639.623 20.7817C639.626 20.709 639.575 20.728 639.547 20.7248C639.433 20.7216 639.319 20.7216 639.205 20.7216C637.415 20.7248 635.624 20.7248 633.831 20.728C633.726 20.728 633.622 20.728 633.54 20.728C633.448 20.6553 633.464 20.5763 633.464 20.5036C633.438 19.4074 633.416 18.3079 633.388 17.2117C633.363 16.1817 633.328 15.1486 633.299 14.1187C633.293 13.8533 633.29 13.5879 633.283 13.3226C633.283 13.2467 633.277 13.1741 633.274 13.0919C633.176 13.1014 633.176 13.1772 633.154 13.2341C632.869 13.9765 632.588 14.719 632.306 15.4614C631.673 17.1232 631.044 18.785 630.411 20.4468C630.376 20.5352 630.338 20.6205 630.304 20.7058C630.069 20.7374 626.175 20.7406 625.916 20.709C625.922 20.6743 625.925 20.6363 625.938 20.6016C628.238 14.4252 630.535 8.24873 632.831 2.08494C633.068 2.05335 636.94 2.05019 637.263 2.07546C637.298 2.16076 637.247 2.23343 637.219 2.30925C636.937 3.05168 636.652 3.79412 636.371 4.53655C636.029 5.42748 635.691 6.32156 635.352 7.21564C635.321 7.30094 635.257 7.37992 635.289 7.49998C635.498 7.31674 635.643 7.09559 635.814 6.89655C635.982 6.70383 636.14 6.50164 636.304 6.30576C636.472 6.10041 636.643 5.89821 636.811 5.69286C636.978 5.4875 637.149 5.28531 637.317 5.07995C637.481 4.88408 637.643 4.68504 637.804 4.48917C637.972 4.28381 638.142 4.08162 638.31 3.87626C638.478 3.67091 638.649 3.46871 638.816 3.26336C638.978 3.06748 639.142 2.86844 639.303 2.67257C639.471 2.47037 639.642 2.26818 639.813 2.06282C644.279 2.06282 648.73 2.06282 653.184 2.06282C653.209 2.06282 653.235 2.07862 653.276 2.09126C653.26 2.14181 653.251 2.18604 653.235 2.22711C652.865 3.19701 652.495 4.17008 652.128 5.12734C652.011 5.18421 651.903 5.1621 651.802 5.1621C650.524 5.16525 649.243 5.1621 647.965 5.1621C647.86 5.1621 647.759 5.16842 647.664 5.16842C647.528 5.41168 646.269 8.82057 646.222 9.07015C646.317 9.12386 646.421 9.09858 646.519 9.09858C647.693 9.10174 648.869 9.09858 650.043 9.09858C650.147 9.09858 650.249 9.09858 650.343 9.09858C650.419 9.18704 650.369 9.25655 650.343 9.32289C650.084 10.0148 649.828 10.7035 649.568 11.3954C649.448 11.7145 649.328 12.0336 649.208 12.3495C649.183 12.419 649.148 12.4885 649.122 12.5485C649.012 12.6086 648.907 12.5864 648.803 12.5864C647.601 12.5896 646.396 12.5864 645.194 12.5864C645.092 12.5864 644.988 12.5896 644.89 12.5928C644.861 12.6433 644.836 12.6717 644.823 12.7065C644.289 14.1313 643.757 15.5593 643.223 16.9842C643.213 17.0095 643.216 17.0379 643.216 17.0758C643.311 17.1358 643.419 17.1074 643.517 17.1074C644.994 17.1106 646.475 17.1074 647.952 17.1106C648.056 17.1106 648.158 17.1137 648.284 17.1169C648.275 17.1959 648.278 17.2622 648.256 17.3191C648.148 17.6318 648.034 17.9415 647.924 18.2542C647.895 18.3332 647.867 18.4122 647.841 18.4943C647.917 18.5638 647.993 18.5228 648.06 18.507C648.417 18.4122 648.771 18.3143 649.129 18.2195C653.172 17.1264 657.217 16.0332 661.26 14.9401C663.313 14.3841 665.366 13.8281 667.422 13.2752C667.524 13.2467 667.625 13.2215 667.726 13.212C667.789 13.2057 667.859 13.2183 667.919 13.2341C668.008 13.2594 668.024 13.3384 667.967 13.4142C667.897 13.5121 667.799 13.5658 667.695 13.6132C667.549 13.6796 667.4 13.7427 667.252 13.8059C660.264 16.8325 653.276 19.8592 646.285 22.8826C640.214 25.508 634.144 28.127 628.07 30.7429C624.752 32.1709 621.427 33.5895 618.102 35.0048C616.685 35.6114 615.255 36.1896 613.803 36.7108C612.715 37.0994 611.614 37.4343 610.479 37.6681C609.875 37.7913 609.267 37.8829 608.657 37.943C608.04 38.003 607.426 38.0156 606.812 37.9809C605.025 37.8798 603.374 37.3553 601.897 36.3317C601.593 36.1232 601.302 35.8926 601.017 35.6588C600.068 34.869 599.461 33.8643 599.182 32.6638C599.015 31.9403 598.967 31.2074 599.021 30.4649C599.113 29.1886 599.439 27.9691 599.875 26.7749C600.407 25.3216 601.096 23.9441 601.865 22.6046C602.934 20.7469 604.139 18.984 605.446 17.2843C606.098 16.4376 606.781 15.6099 607.451 14.779C607.521 14.6937 607.572 14.5863 607.689 14.5484L607.682 14.5389ZM637.87 19.3063C637.889 19.3094 637.908 19.3126 637.924 19.3158C637.968 19.202 638.016 19.0914 638.057 18.9777C639.737 14.501 641.416 10.0211 643.096 5.54437C643.435 4.64081 643.773 3.74041 644.108 2.83685C644.14 2.75471 644.194 2.67257 644.169 2.55252C644.099 2.61886 644.042 2.66625 643.995 2.71996C643.612 3.14014 643.229 3.56033 642.846 3.97736C641.151 5.83819 639.455 7.69901 637.756 9.55668C637.633 9.69253 637.554 9.82522 637.586 10.0085C637.589 10.0274 637.586 10.0464 637.589 10.0653C637.624 11.2469 637.662 12.4285 637.696 13.6101C637.741 15.2181 637.785 16.8262 637.826 18.4312C637.832 18.6586 637.839 18.8861 637.848 19.1104C637.848 19.1799 637.861 19.2431 637.87 19.3063Z" fill="#B4B6C4"/>
<path d="M620.095 20.7216C618.504 20.7216 616.942 20.7216 615.36 20.7216C615.354 20.6711 615.341 20.6269 615.344 20.5858C615.382 19.9729 615.423 19.36 615.464 18.7439C615.49 18.3364 615.515 17.932 615.54 17.5244C615.569 17.0821 615.6 16.6367 615.629 16.1944C615.648 15.9195 615.664 15.6478 615.683 15.373C615.739 14.4852 615.796 13.6006 615.853 12.716C615.774 12.6875 615.768 12.7413 615.752 12.7792C615.505 13.4331 615.262 14.0903 615.015 14.7442C614.306 16.6398 613.598 18.5354 612.889 20.431C612.854 20.5258 612.81 20.6205 612.766 20.7311C611.339 20.7311 609.919 20.7311 608.499 20.7311C608.464 20.7311 608.429 20.7185 608.378 20.709C608.397 20.6427 608.413 20.589 608.432 20.5384C610.741 14.3872 613.054 8.23609 615.354 2.10705C615.385 2.08494 615.391 2.07862 615.401 2.07546C615.41 2.0723 615.42 2.06914 615.429 2.06914C616.888 2.06598 618.349 2.06598 619.808 2.06282C619.864 2.06282 619.921 2.06282 619.978 2.06914C619.997 2.06914 620.013 2.08178 620.042 2.09126C620.092 2.16076 620.067 2.24922 620.061 2.32821C620.007 3.19701 619.95 4.06582 619.893 4.93463C619.836 5.81291 619.779 6.6912 619.722 7.56948C619.675 8.27717 619.624 8.98485 619.577 9.69253C619.564 9.85997 619.551 10.0306 619.567 10.2265C619.656 10.1696 619.668 10.0938 619.69 10.0306C619.937 9.3766 620.184 8.71947 620.431 8.06549C621.149 6.15412 621.87 4.24274 622.588 2.33136C622.62 2.2429 622.661 2.16076 622.693 2.08494C623.025 2.05335 626.84 2.05966 627.058 2.09126C627.061 2.11653 627.071 2.14812 627.061 2.1734C624.742 8.34667 622.424 14.5231 620.095 20.7216Z" fill="#B4B6C4"/>
<path d="M620.715 20.7058C620.715 20.6774 620.706 20.6458 620.715 20.6237C623.025 14.4725 625.334 8.32455 627.643 2.1734C627.656 2.13865 627.678 2.11021 627.694 2.08494C627.931 2.05651 631.746 2.05019 632.053 2.07862C632.081 2.1892 632.018 2.27766 631.983 2.37243C631.616 3.35498 631.246 4.33752 630.879 5.32006C628.984 10.3655 627.09 15.4077 625.195 20.4531C625.163 20.5416 625.125 20.6269 625.094 20.7058C624.847 20.7406 620.956 20.7438 620.715 20.7058Z" fill="#B4B6C4"/>
<path d="M655.044 3.8731C654.5 3.87626 654.14 3.5319 654.067 3.11171C653.994 2.69152 654.19 2.28713 654.579 2.10389C654.87 1.96804 655.164 1.96488 655.459 2.09757C655.845 2.27134 656.066 2.68521 655.99 3.09591C655.911 3.52558 655.592 3.82255 655.161 3.86362C655.117 3.86994 655.07 3.86994 655.044 3.8731ZM654.655 3.46871C654.687 3.5003 654.712 3.54453 654.75 3.55717C654.93 3.62668 655.117 3.62668 655.297 3.56033C655.329 3.54769 655.351 3.51926 655.386 3.49398C655.152 3.42132 655.155 3.42132 655.028 3.20965C654.997 3.15594 654.987 3.08012 654.892 3.08012C654.88 3.19701 654.867 3.31391 654.858 3.42764C654.775 3.4466 654.712 3.45923 654.652 3.47503C654.608 3.09275 654.62 2.66625 654.684 2.45774C654.845 2.43878 655.016 2.44194 655.183 2.45774C655.294 2.46721 655.38 2.52724 655.418 2.63466C655.459 2.75155 655.443 2.85897 655.351 2.94743C655.313 2.98534 655.266 3.01377 655.221 3.04536C655.297 3.19385 655.37 3.32022 655.459 3.44028C655.753 3.18121 655.788 2.77998 655.55 2.50197C655.335 2.25238 654.962 2.19236 654.674 2.3598C654.323 2.56515 654.301 2.93479 654.396 3.19701C654.443 3.32022 654.5 3.44344 654.655 3.46871ZM654.886 2.60306C654.886 2.6852 654.88 2.73259 654.889 2.77367C654.892 2.79578 654.915 2.83369 654.93 2.83685C654.99 2.84001 655.06 2.84001 655.114 2.82105C655.183 2.79578 655.18 2.66625 655.111 2.64097C655.054 2.6157 654.987 2.6157 654.886 2.60306Z" fill="#B4B6C4"/>
<path d="M610.612 25.9124C610.305 25.9155 610.068 25.8334 609.871 25.6533C609.473 25.2837 609.454 24.3959 610.197 24.1084C610.444 24.0136 610.697 24.0168 610.947 24.1084C611.349 24.2569 611.589 24.6581 611.542 25.1036C611.494 25.5206 611.165 25.8492 610.741 25.9029C610.684 25.9092 610.627 25.9124 610.612 25.9124ZM610.985 25.4985C611.241 25.3279 611.289 25.0815 611.222 24.8035C611.156 24.5286 610.922 24.3327 610.634 24.3074C610.346 24.2822 610.077 24.4275 609.954 24.6771C609.83 24.9298 609.875 25.2458 610.061 25.4416C610.09 25.4732 610.143 25.4827 610.185 25.5017C610.197 25.5238 610.207 25.5585 610.226 25.568C610.495 25.6912 610.751 25.707 610.985 25.4985Z" fill="#B4B6C4"/>
<path d="M607.689 14.5452C607.692 14.5294 607.695 14.5168 607.698 14.501C607.708 14.5073 607.714 14.5168 607.723 14.5231C607.711 14.5294 607.698 14.5326 607.682 14.5389L607.689 14.5452Z" fill="#B4B6C4"/>
<path d="M654.652 3.47503C654.715 3.45923 654.779 3.4466 654.858 3.42764C654.87 3.31391 654.883 3.19701 654.892 3.08012C654.987 3.08012 654.997 3.15594 655.028 3.20965C655.152 3.42132 655.152 3.42132 655.386 3.49398C655.351 3.51926 655.329 3.55085 655.297 3.56033C655.114 3.62984 654.93 3.62983 654.75 3.55717C654.712 3.54137 654.687 3.49714 654.655 3.46871L654.652 3.47503Z" fill="#B4B6C4"/>
<path d="M654.886 2.60306C654.99 2.61886 655.054 2.6157 655.111 2.63782C655.18 2.66625 655.18 2.79262 655.114 2.8179C655.057 2.84001 654.99 2.83685 654.93 2.83369C654.915 2.83369 654.892 2.79578 654.889 2.77051C654.88 2.72944 654.886 2.6852 654.886 2.60306Z" fill="#B4B6C4"/>
<path d="M610.985 25.4985C610.751 25.7039 610.495 25.6881 610.229 25.5648C610.21 25.5554 610.2 25.5206 610.188 25.4985L610.185 25.5048C610.257 25.4922 610.327 25.4795 610.39 25.4701C610.447 25.3469 610.387 25.2205 610.45 25.0941C610.596 25.2078 610.605 25.3911 610.729 25.4795C610.824 25.489 610.906 25.4985 610.988 25.5048L610.985 25.4985Z" fill="#B4B6C4"/>
<path d="M610.988 25.508C610.906 25.4985 610.82 25.4922 610.729 25.4827C610.605 25.3911 610.596 25.2078 610.45 25.0973C610.387 25.2236 610.447 25.35 610.39 25.4732C610.327 25.4827 610.254 25.4953 610.185 25.508C610.172 25.1826 610.175 24.854 610.181 24.5191C610.381 24.4654 610.567 24.4812 610.748 24.5033C610.855 24.516 610.941 24.5855 610.963 24.6992C610.988 24.8129 610.982 24.9235 610.874 25.0025C610.839 25.0278 610.801 25.0562 610.76 25.0846C610.843 25.2268 610.915 25.369 610.988 25.508ZM610.7 24.7624C610.697 24.6866 610.64 24.6455 610.536 24.6487C610.453 24.6487 610.419 24.6866 610.422 24.7719C610.422 24.8603 610.469 24.8951 610.574 24.8856C610.659 24.8761 610.707 24.8319 610.7 24.7624Z" fill="#B4B6C4"/>
<path d="M610.7 24.7624C610.703 24.8319 610.659 24.8761 610.574 24.8824C610.469 24.8919 610.422 24.8572 610.422 24.7687C610.422 24.6802 610.453 24.6455 610.536 24.6455C610.64 24.6455 610.697 24.6866 610.7 24.7624Z" fill="#B4B6C4"/>
<g clip-path="url(#clip2_1_8093)">
<path d="M790.231 9.34917C790.107 9.33867 787.663 9.30143 787.663 9.30143C787.663 9.30143 785.619 7.31099 785.417 7.10851C785.342 7.03305 785.24 6.99389 785.134 6.97766L785.135 37.4253L794.293 35.1426C794.293 35.1426 790.556 9.80383 790.532 9.62997C790.508 9.45612 790.356 9.35967 790.231 9.34917Z" fill="#B4B6C4"/>
<path fill-rule="evenodd" clip-rule="evenodd" d="M790.23 9.3482C790.356 9.3587 790.507 9.45515 790.531 9.629C790.555 9.80285 794.292 35.1426 794.292 35.1426L785.133 37.4262L764 33.7606C764 33.7606 766.522 14.2039 766.615 13.5153C766.741 12.6041 766.771 12.5745 767.735 12.2708C767.755 12.2642 768.407 12.0619 769.443 11.74C769.898 11.5988 770.427 11.4345 771.009 11.2536C771.213 9.78948 771.932 7.89836 772.876 6.39312C774.219 4.2537 775.875 3.04932 777.538 3.00156C778.4 2.97578 779.119 3.26899 779.68 3.8707C779.72 3.91464 779.758 3.95953 779.796 4.00537C779.806 4.00456 779.815 4.00373 779.825 4.0029C779.904 3.996 779.984 3.98914 780.064 3.98914H780.068C781.356 3.99105 782.421 4.72743 783.149 6.11996C783.375 6.55167 783.533 6.98147 783.64 7.33103C783.805 7.28003 783.952 7.23433 784.08 7.19453C784.454 7.07857 784.666 7.01274 784.667 7.01203C784.82 6.96618 785.215 6.90506 785.416 7.10754C785.618 7.31002 787.662 9.30046 787.662 9.30046C787.662 9.30046 790.106 9.3377 790.23 9.3482ZM781.53 7.98614C781.907 7.86933 782.259 7.75982 782.582 7.65958C782.32 6.80573 781.7 5.37403 780.438 5.1343C780.83 6.14958 780.93 7.32435 780.942 8.16866C781.144 8.10612 781.34 8.0452 781.53 7.98614ZM776.309 9.608L779.837 8.51249C779.848 7.59082 779.748 6.22789 779.288 5.26515C778.799 5.46763 778.386 5.82198 778.09 6.14002C777.296 6.99484 776.649 8.29855 776.309 9.608ZM778.571 4.37404C778.29 4.18876 777.962 4.10279 777.571 4.11139C775.005 4.18589 772.766 8.20591 772.194 10.885C772.719 10.7222 773.271 10.5508 773.838 10.3746C774.249 10.2468 774.668 10.1165 775.092 9.98526C775.414 8.28327 776.224 6.5192 777.28 5.38263C777.687 4.94424 778.122 4.60804 778.571 4.37404ZM778.993 18.0636L780.057 14.0723C780.057 14.0723 779.14 13.6138 777.347 13.7294C772.696 14.0235 770.587 17.2862 770.79 20.5058C770.925 22.6551 772.188 23.5537 773.295 24.3412C774.158 24.9556 774.926 25.5024 774.991 26.5229C775.026 27.0855 774.677 27.8811 773.702 27.9432C772.209 28.0377 770.343 26.6261 770.343 26.6261L769.63 29.669C769.63 29.669 771.483 31.6604 774.85 31.4474C777.654 31.2698 779.601 29.0195 779.394 25.7302C779.235 23.2011 777.459 22.0592 776.056 21.1566C775.139 20.5669 774.381 20.0794 774.336 19.374C774.315 19.0464 774.337 17.7417 776.4 17.6109C777.807 17.522 778.993 18.0636 778.993 18.0636Z" fill="#B4B6C4"/>
<path d="M806.353 22.43C805.3 21.8569 804.759 21.3738 804.759 20.7097C804.759 19.8647 805.511 19.3218 806.685 19.3218C808.052 19.3218 809.272 19.895 809.272 19.895L810.234 16.9375C810.234 16.9375 809.349 16.2431 806.744 16.2431C803.119 16.2431 800.607 18.3253 800.607 21.2525C800.607 22.9122 801.78 24.1797 803.345 25.0843C804.609 25.8081 805.06 26.3216 805.06 27.0756C805.06 27.86 804.428 28.4937 803.255 28.4937C801.507 28.4937 799.856 27.5881 799.856 27.5881L798.833 30.5456C798.833 30.5456 800.358 31.5716 802.925 31.5716C806.656 31.5716 809.333 29.7309 809.333 26.4115C809.332 24.6325 807.979 23.365 806.353 22.43Z" fill="#B4B6C4"/>
<path d="M821.217 16.2137C819.381 16.2137 817.937 17.089 816.824 18.4162L816.764 18.3859L818.358 10.0278H814.206L810.175 31.3006H814.327L815.711 24.029C816.252 21.2828 817.666 19.5937 818.99 19.5937C819.923 19.5937 820.284 20.2275 820.284 21.1331C820.284 21.7062 820.224 22.4006 820.104 22.9738L818.54 31.3016H822.692L824.316 22.7018C824.497 21.7962 824.618 20.7106 824.618 19.9859C824.616 17.6318 823.383 16.2137 821.217 16.2137Z" fill="#B4B6C4"/>
<path d="M834.003 16.2137C829.008 16.2137 825.7 20.74 825.7 25.7787C825.7 29.0072 827.685 31.6019 831.416 31.6019C836.32 31.6019 839.63 27.1969 839.63 22.0368C839.63 19.0499 837.884 16.2137 834.003 16.2137ZM831.957 28.4046C830.543 28.4046 829.941 27.1978 829.941 25.6887C829.941 23.3053 831.175 19.4128 833.431 19.4128C834.906 19.4128 835.386 20.6803 835.386 21.9175C835.386 24.4818 834.154 28.4046 831.957 28.4046Z" fill="#B4B6C4"/>
<path d="M850.25 16.2137C847.447 16.2137 845.857 18.6881 845.857 18.6881H845.797L846.038 16.4552H842.368C842.187 17.9643 841.856 20.2568 841.525 21.9772L838.637 37.2147H842.789L843.932 31.059H844.023C844.023 31.059 844.874 31.6019 846.46 31.6019C851.333 31.6019 854.522 26.5934 854.522 21.5234C854.522 18.7184 853.288 16.2137 850.25 16.2137ZM846.278 28.4643C845.201 28.4643 844.563 27.8609 844.563 27.8609L845.255 23.9684C845.737 21.3737 847.09 19.6534 848.535 19.6534C849.798 19.6534 850.189 20.83 850.189 21.9469C850.189 24.6324 848.595 28.4643 846.278 28.4643Z" fill="#B4B6C4"/>
<path d="M860.449 10.239C859.126 10.239 858.073 11.2953 858.073 12.6528C858.073 13.89 858.855 14.735 860.028 14.735H860.088C861.382 14.735 862.495 13.8596 862.525 12.3212C862.525 11.1143 861.713 10.239 860.449 10.239Z" fill="#B4B6C4"/>
<path d="M854.643 31.3006H858.794L861.623 16.5462H857.44L854.643 31.3006Z" fill="#B4B6C4"/>
<path d="M872.183 16.5159H869.295L869.445 15.8216C869.686 14.4034 870.528 13.1359 871.912 13.1359C872.651 13.1359 873.235 13.3472 873.235 13.3472L874.048 10.0884C874.048 10.0884 873.326 9.72656 871.791 9.72656C870.317 9.72656 868.843 10.149 867.73 11.1143C866.315 12.3213 865.653 14.0709 865.323 15.8216L865.203 16.5159H863.277L862.675 19.6544H864.601L862.405 31.3016H866.557L868.754 19.6544H871.612L872.183 16.5159Z" fill="#B4B6C4"/>
<path d="M882.172 16.5463C882.172 16.5463 879.576 23.1045 878.411 26.6844H878.35C878.271 25.5315 877.327 16.5463 877.327 16.5463H872.964L875.463 30.0937C875.523 30.395 875.493 30.5769 875.372 30.7881C874.89 31.7231 874.078 32.6288 873.115 33.2928C872.333 33.8659 871.461 34.2278 870.769 34.4694L871.912 38C872.755 37.8191 874.499 37.1247 875.973 35.7369C877.869 33.9569 879.614 31.2106 881.419 27.4687L886.503 16.5453H882.172V16.5463Z" fill="#B4B6C4"/>
</g>
<g clip-path="url(#clip3_1_8093)">
<path d="M993.238 29.6378L994.919 25.7827C996.735 27.1213 999.148 27.8173 1001.53 27.8173C1003.3 27.8173 1004.41 27.1481 1004.41 26.1307C1004.38 23.2929 993.861 25.515 993.78 18.3937C993.753 14.7795 997.006 11.9953 1001.61 11.9953C1004.35 11.9953 1007.09 12.6646 1009.04 14.1906L1007.47 18.126C1005.68 17.0016 1003.46 16.1984 1001.34 16.1984C999.907 16.1984 998.958 16.8677 998.958 17.7244C998.985 20.5087 1009.58 18.9827 1009.69 25.7827C1009.69 29.4772 1006.52 32.074 1001.97 32.074C998.633 32.074 995.569 31.2977 993.238 29.6378ZM1057.73 24.3906C1056.89 25.8362 1055.32 26.8268 1053.5 26.8268C1050.82 26.8268 1048.65 24.6851 1048.65 22.0347C1048.65 19.3843 1050.82 17.2425 1053.5 17.2425C1055.32 17.2425 1056.89 18.2331 1057.73 19.6788L1062.36 17.1355C1060.63 14.0835 1057.3 11.9953 1053.5 11.9953C1047.89 11.9953 1043.33 16.4929 1043.33 22.0347C1043.33 27.5764 1047.89 32.074 1053.5 32.074C1057.32 32.074 1060.63 30.0126 1062.36 26.9339L1057.73 24.3906ZM1012.02 3.66931H1017.83V31.6992H1012.02V3.66931ZM1064.64 3.66931V31.6992H1070.44V23.2929L1077.33 31.6992H1084.76L1076 21.7134L1084.11 12.3969H1077L1070.44 20.1339V3.66931H1064.64ZM1035.07 24.4441C1034.23 25.8095 1032.49 26.8268 1030.54 26.8268C1027.86 26.8268 1025.69 24.6851 1025.69 22.0347C1025.69 19.3843 1027.86 17.2425 1030.54 17.2425C1032.49 17.2425 1034.23 18.3134 1035.07 19.7055V24.4441ZM1035.07 12.3969V14.6725C1034.12 13.0929 1031.76 11.9953 1029.29 11.9953C1024.2 11.9953 1020.18 16.4394 1020.18 22.0079C1020.18 27.5764 1024.2 32.074 1029.29 32.074C1031.76 32.074 1034.12 30.9764 1035.07 29.3969V31.6725H1040.87V12.3969H1035.07Z" fill="#B4B6C4"/>
<path d="M957.374 24.4173C957.374 26.3717 955.775 27.9512 953.796 27.9512C951.817 27.9512 950.217 26.3717 950.217 24.4173C950.217 22.463 951.817 20.8835 953.796 20.8835H957.374V24.4173ZM959.163 24.4173C959.163 22.463 960.763 20.8835 962.741 20.8835C964.72 20.8835 966.32 22.463 966.32 24.4173V33.252C966.32 35.2063 964.72 36.7858 962.741 36.7858C960.763 36.7858 959.163 35.2063 959.163 33.252V24.4173Z" fill="#B4B6C4"/>
<path d="M962.741 10.2284C960.762 10.2284 959.163 8.64883 959.163 6.6945C959.163 4.74017 960.762 3.16064 962.741 3.16064C964.72 3.16064 966.319 4.74017 966.319 6.6945V10.2284H962.741ZM962.741 12.0221C964.72 12.0221 966.319 13.6016 966.319 15.5559C966.319 17.5103 964.72 19.0898 962.741 19.0898H953.768C951.789 19.0898 950.19 17.5103 950.19 15.5559C950.19 13.6016 951.789 12.0221 953.768 12.0221H962.741Z" fill="#B4B6C4"/>
<path d="M977.081 15.5559C977.081 13.6016 978.681 12.0221 980.66 12.0221C982.639 12.0221 984.238 13.6016 984.238 15.5559C984.238 17.5103 982.639 19.0898 980.66 19.0898H977.081V15.5559ZM975.292 15.5559C975.292 17.5103 973.693 19.0898 971.714 19.0898C969.735 19.0898 968.136 17.5103 968.136 15.5559V6.6945C968.136 4.74017 969.735 3.16064 971.714 3.16064C973.693 3.16064 975.292 4.74017 975.292 6.6945V15.5559Z" fill="#B4B6C4"/>
<path d="M971.714 29.7181C973.693 29.7181 975.292 31.2977 975.292 33.252C975.292 35.2063 973.693 36.7858 971.714 36.7858C969.735 36.7858 968.136 35.2063 968.136 33.252V29.7181H971.714ZM971.714 27.9512C969.735 27.9512 968.136 26.3717 968.136 24.4173C968.136 22.463 969.735 20.8835 971.714 20.8835H980.687C982.666 20.8835 984.265 22.463 984.265 24.4173C984.265 26.3717 982.666 27.9512 980.687 27.9512H971.714Z" fill="#B4B6C4"/>
</g>
<g clip-path="url(#clip4_1_8093)">
<path d="M1178.75 5.41827H1173V11.0159H1178.75V5.41827Z" fill="#B4B6C4"/>
<path d="M1178.6 34.5817V14.4223H1173.16V34.5817H1178.6ZM1214.76 34.7809V29.8406C1213.96 29.8406 1213.28 29.8008 1212.79 29.7211C1212.22 29.6414 1211.79 29.4422 1211.5 29.1633C1211.22 28.8845 1211.03 28.4861 1210.93 27.9681C1210.85 27.4701 1210.81 26.8127 1210.81 26.0159V18.9641H1214.76V14.4223H1210.81V6.55378H1205.35V26.0558C1205.35 27.7092 1205.49 29.1036 1205.78 30.2191C1206.06 31.3147 1206.56 32.2111 1207.23 32.8884C1207.91 33.5657 1208.8 34.0438 1209.89 34.3426C1210.99 34.6414 1212.38 34.7809 1214.04 34.7809H1214.76ZM1246 34.5817V5H1240.54V34.5817H1246ZM1200.09 16.3944C1198.58 14.8008 1196.45 14.004 1193.76 14.004C1192.45 14.004 1191.26 14.2629 1190.18 14.7809C1189.11 15.2988 1188.19 16.0159 1187.48 16.9323L1187.17 17.3108V16.9721V14.4223H1181.79V34.5817H1187.21V23.8446V24.5817C1187.21 24.4621 1187.21 24.3426 1187.21 24.2231C1187.27 22.3307 1187.74 20.9363 1188.64 20.0398C1189.6 19.0837 1190.77 18.6056 1192.1 18.6056C1193.67 18.6056 1194.88 19.0837 1195.68 20C1196.45 20.9163 1196.86 22.2112 1196.86 23.8645V23.9044V34.5617H1202.36V23.1275C1202.38 20.259 1201.61 17.988 1200.09 16.3944ZM1237.72 24.4621C1237.72 23.008 1237.45 21.6534 1236.94 20.3785C1236.41 19.1235 1235.67 18.008 1234.75 17.0518C1233.81 16.0956 1232.69 15.3586 1231.38 14.8207C1230.07 14.2829 1228.62 14.0239 1227.04 14.0239C1225.55 14.0239 1224.14 14.3028 1222.83 14.8406C1221.52 15.3984 1220.38 16.1355 1219.42 17.0717C1218.46 18.008 1217.68 19.1235 1217.13 20.3984C1216.55 21.6733 1216.29 23.0478 1216.29 24.502C1216.29 25.9562 1216.55 27.3307 1217.09 28.6056C1217.62 29.8805 1218.37 30.996 1219.32 31.9323C1220.26 32.8685 1221.42 33.6255 1222.77 34.1633C1224.12 34.7211 1225.61 35 1227.21 35C1231.83 35 1234.69 32.9482 1236.41 31.0359L1232.48 28.1275C1231.67 29.0837 1229.7 30.3785 1227.25 30.3785C1225.72 30.3785 1224.45 30.0398 1223.49 29.3426C1222.53 28.6653 1221.87 27.7092 1221.52 26.5339L1221.46 26.3546H1237.72V24.4621ZM1221.5 22.6096C1221.5 21.1355 1223.24 18.5657 1226.98 18.5458C1230.73 18.5458 1232.48 21.1155 1232.48 22.5896L1221.5 22.6096Z" fill="#B4B6C4"/>
</g>
<defs>
<clipPath id="clip0_1_8093">
<rect width="140" height="30" fill="white" transform="translate(179 5)"/>
</clipPath>
<clipPath id="clip1_1_8093">
<rect width="114" height="30" fill="white" transform="translate(384 5)"/>
</clipPath>
<clipPath id="clip2_1_8093">
<rect width="123" height="35" fill="white" transform="translate(764 3)"/>
</clipPath>
<clipPath id="clip3_1_8093">
<rect width="135" height="34" fill="white" transform="translate(950 3)"/>
</clipPath>
<clipPath id="clip4_1_8093">
<rect width="73" height="30" fill="white" transform="translate(1173 5)"/>
</clipPath>
</defs>
</svg>
