<svg width="530" height="281" viewBox="0 0 530 281" fill="none" xmlns="http://www.w3.org/2000/svg">
<g opacity="0.35">
<rect x="312.74" y="112.383" width="93.6527" height="93.6527" transform="rotate(90 312.74 112.383)" fill="#36268C"/>
<rect x="219.087" width="112.383" height="112.383" transform="rotate(90 219.087 0)" fill="#36268C"/>
<rect x="54.0242" width="53.8503" height="53.8503" transform="rotate(90 54.0242 0)" fill="#36268C"/>
<rect x="181.626" y="206.036" width="74.9222" height="74.9222" transform="rotate(90 181.626 206.036)" fill="#36268C"/>
<rect width="84.2874" height="84.2874" transform="matrix(-1 0 0 1 446.195 196.67)" fill="#36268C"/>
<rect width="23.4132" height="23.4132" transform="matrix(-1 0 0 1 336.153 257.545)" fill="#36268C"/>
<rect width="35.1198" height="35.1198" transform="matrix(-1 0 0 1 529.311 141.65)" fill="#36268C"/>
<rect width="49.1677" height="49.1677" transform="matrix(-1 0 0 1 474.29 0)" fill="#36268C"/>
<rect width="23.4132" height="23.4132" transform="matrix(-1 0 0 1 385.32 0)" fill="#36268C"/>
<rect width="63.2156" height="63.2156" transform="matrix(-1 0 0 1 425.123 49.168)" fill="#36268C"/>
</g>
</svg>
