<svg width="40" height="40" viewBox="0 0 40 40" fill="none" xmlns="http://www.w3.org/2000/svg">
<path d="M16.9213 9.25923C17.0061 9.43201 17.0622 9.61703 17.0873 9.80725L17.5514 16.7071L17.7817 20.1751C17.7841 20.5318 17.84 20.8861 17.9478 21.2267C18.226 21.8876 18.8953 22.3076 19.6234 22.2783L30.7189 21.5526C31.1993 21.5447 31.6633 21.7244 32.0087 22.0522C32.2966 22.3253 32.4824 22.6826 32.5409 23.067L32.5606 23.3003C32.1014 29.6582 27.4319 34.9611 21.0873 36.33C14.7426 37.6989 8.23643 34.8072 5.10118 29.2248C4.19731 27.6031 3.63275 25.8204 3.44063 23.9816C3.36038 23.4373 3.32504 22.8875 3.33496 22.3376C3.32505 15.5212 8.17911 9.62828 14.9739 8.20763C15.7917 8.08029 16.5934 8.51322 16.9213 9.25923Z" fill="#9374FF"/>
<path d="M21.45 3.33462C29.0498 3.52796 35.4372 8.9929 36.6667 16.3537L36.6549 16.408L36.6214 16.487L36.626 16.7039C36.6086 16.9911 36.4977 17.2675 36.3066 17.4907C36.1075 17.7233 35.8355 17.8816 35.536 17.9431L35.3533 17.9682L22.552 18.7976C22.1262 18.8396 21.7022 18.7023 21.3856 18.4198C21.1217 18.1845 20.953 17.8667 20.9053 17.5244L20.0461 4.74169C20.0311 4.69847 20.0311 4.65161 20.0461 4.60839C20.0578 4.25604 20.2129 3.92299 20.4767 3.68363C20.7405 3.44428 21.0911 3.31858 21.45 3.33462Z" fill="#FFDC60"/>
</svg>
