<svg width="40" height="40" viewBox="0 0 40 40" fill="none" xmlns="http://www.w3.org/2000/svg">
<path d="M18.4668 9.81802C18.6044 10.2391 18.5238 10.701 18.2519 11.0506L11.6522 19.5359C11.2131 20.1005 10.4068 20.218 9.82476 19.8023L3.2251 15.0882C2.89158 14.85 2.68616 14.4716 2.66805 14.0622C2.64995 13.6527 2.82117 13.2577 3.13236 12.9909L9.73202 7.33407C10.072 7.04268 10.5355 6.94137 10.966 7.06438L17.5657 8.95C17.9916 9.07169 18.3293 9.39696 18.4668 9.81802Z" fill="#FFDC60"/>
<path d="M28.9272 20.2782C28.5061 20.1407 28.0442 20.2212 27.6946 20.4932L19.2093 27.0928C18.6447 27.5319 18.5272 28.3383 18.9429 28.9203L23.6569 35.5199C23.8952 35.8535 24.2735 36.0589 24.683 36.077C25.0925 36.0951 25.4875 35.9239 25.7543 35.6127L31.4111 29.013C31.7025 28.673 31.8038 28.2095 31.6808 27.779L29.7952 21.1793C29.6735 20.7534 29.3482 20.4157 28.9272 20.2782Z" fill="#FFDC60"/>
<path fill-rule="evenodd" clip-rule="evenodd" d="M35.4577 4.2351C35.3351 3.7677 34.9693 3.40317 34.5015 3.2823C31.2804 2.45003 27.9899 2.45723 24.9689 3.33131C21.945 4.20621 19.3106 5.91594 17.3494 8.29333L17.3465 8.29686L14.9335 11.2423C14.9144 11.2656 14.8961 11.2896 14.8786 11.3142C14.8757 11.3183 14.8727 11.3218 14.8698 11.3249C14.8465 11.3493 14.8241 11.3745 14.8027 11.4006L11.9792 14.8434L11.9766 14.8465C9.70184 17.6376 8.3216 21.0846 7.95831 24.8163C7.91967 25.2132 8.0607 25.6066 8.34273 25.8885L13.0856 30.6296C13.3534 30.8974 13.7225 31.0386 14.1006 31.018C17.8582 30.8137 21.3419 29.4789 24.0923 27.1538C24.1041 27.1438 24.1157 27.1336 24.1272 27.1232L30.4505 21.3891C32.8284 19.4424 34.5408 16.8204 35.4186 13.8067C36.3018 10.7745 36.3053 7.46816 35.4577 4.2351Z" fill="#9374FF"/>
<path d="M24.781 13.8858C25.8224 14.9272 27.5109 14.9272 28.5523 13.8858C29.5937 12.8444 29.5937 11.1559 28.5523 10.1145C27.5109 9.07315 25.8224 9.07315 24.781 10.1145C23.7396 11.1559 23.7397 12.8444 24.781 13.8858Z" fill="#FFDC60"/>
</svg>
