<svg width="40" height="40" viewBox="0 0 40 40" fill="none" xmlns="http://www.w3.org/2000/svg">
<path d="M27.0519 14.5229H12.9479C9.01885 14.5229 5.83325 17.6383 5.83325 21.4807V29.7088C5.83325 33.5512 9.01885 36.6666 12.9479 36.6666H27.0519C30.981 36.6666 34.1666 33.5512 34.1666 29.7088V21.4807C34.1666 17.6383 30.981 14.5229 27.0519 14.5229Z" fill="#9374FF"/>
<path fill-rule="evenodd" clip-rule="evenodd" d="M26.1451 22.0311C26.6802 22.6635 26.6013 23.61 25.9689 24.1451L19.4689 29.6451C19.1489 29.9159 18.7302 30.0404 18.3143 29.9885C17.8983 29.9366 17.523 29.713 17.2794 29.3719L14.7794 25.8719C14.2979 25.1978 14.454 24.2609 15.1281 23.7794C15.8023 23.2979 16.7391 23.4541 17.2206 24.1282L18.7741 26.3031L24.0311 21.855C24.6635 21.3198 25.61 21.3987 26.1451 22.0311Z" fill="#FFDC60"/>
<path d="M29.2045 12.3265V14.7777C28.6117 14.6121 27.9851 14.5293 27.3415 14.5293H26.2407V12.3265C26.2407 8.96439 23.4463 6.23163 20.0084 6.23163C16.5705 6.23163 13.7761 8.94782 13.7591 12.2934V14.5293H12.6753C12.0148 14.5293 11.3882 14.6121 10.7954 14.7943V12.3265C10.8123 7.35786 14.9277 3.33325 19.9745 3.33325C25.0891 3.33325 29.2045 7.35786 29.2045 12.3265Z" fill="#FFDC60"/>
</svg>
