<svg width="130" height="30" viewBox="0 0 130 30" fill="none" xmlns="http://www.w3.org/2000/svg">
<g clip-path="url(#clip0_1_4621)">
<path d="M23.0801 5.682C23.0593 5.53298 22.9276 5.45031 22.8183 5.44131C22.7098 5.43231 20.584 5.40039 20.584 5.40039C20.584 5.40039 18.8062 3.6943 18.6305 3.52075C18.455 3.34719 18.112 3.39959 17.9786 3.43888C17.9769 3.4397 17.6447 3.54122 17.0856 3.71231C16.9919 3.41269 16.8544 3.04429 16.6581 2.67425C16.0252 1.48065 15.0981 0.849467 13.9781 0.847835C13.9764 0.847835 13.9756 0.847835 13.974 0.847835C13.8961 0.847835 13.819 0.855202 13.7412 0.861748C13.708 0.822453 13.6749 0.783979 13.6401 0.746317C13.1521 0.230565 12.5267 -0.020763 11.777 0.00134071C10.3305 0.0422736 8.88991 1.0746 7.72182 2.90839C6.90001 4.19859 6.27453 5.81956 6.09726 7.07454C4.43624 7.58292 3.27478 7.9382 3.2491 7.94641C2.41073 8.20672 2.38422 8.2321 2.27487 9.01313C2.19368 9.60335 0 26.3662 0 26.3662L18.3837 29.5082L26.3515 27.5508C26.3515 27.5508 23.1008 5.83102 23.0801 5.682ZM16.1652 3.99393C15.7418 4.12328 15.2605 4.27064 14.7386 4.43028C14.7278 3.70658 14.6408 2.69964 14.2995 1.8294C15.3972 2.03489 15.9373 3.26205 16.1652 3.99393ZM13.7768 4.72499C12.8133 5.01969 11.762 5.34143 10.7075 5.664C11.004 4.54161 11.5666 3.42415 12.2575 2.69145C12.5143 2.41884 12.8738 2.11511 13.2996 1.94156C13.6997 2.76676 13.7867 3.93499 13.7768 4.72499ZM11.8059 0.952618C12.1456 0.945251 12.4314 1.01893 12.6758 1.17775C12.2848 1.37832 11.907 1.66649 11.5525 2.04225C10.6337 3.01646 9.92955 4.52852 9.64871 5.98736C8.77306 6.25505 7.91646 6.51787 7.12779 6.75856C7.62572 4.46221 9.57332 1.01647 11.8059 0.952618Z" fill="#95BF47"/>
<path d="M22.8191 5.44215C22.7106 5.43315 20.5848 5.40123 20.5848 5.40123C20.5848 5.40123 18.807 3.69513 18.6314 3.52158C18.566 3.4569 18.4773 3.42334 18.3845 3.40942L18.3854 29.5074L26.3524 27.5508C26.3524 27.5508 23.1016 5.83185 23.0809 5.68283C23.0602 5.53382 22.9276 5.45114 22.8191 5.44215Z" fill="#5E8E3E"/>
<path d="M13.9682 9.49033L13.0428 12.9115C13.0428 12.9115 12.0106 12.4473 10.787 12.5234C8.99263 12.6356 8.97356 13.7539 8.99183 14.0347C9.08957 15.5647 13.1629 15.8988 13.3916 19.4828C13.5714 22.3023 11.878 24.231 9.43834 24.3833C6.50983 24.5659 4.89771 22.859 4.89771 22.859L5.51821 20.2507C5.51821 20.2507 7.14108 21.4607 8.44006 21.3797C9.28839 21.3265 9.59158 20.6445 9.56092 20.1623C9.43337 18.1664 6.11632 18.2843 5.90674 15.0048C5.73027 12.2451 7.56445 9.44858 11.6113 9.19643C13.1704 9.09738 13.9682 9.49033 13.9682 9.49033Z" fill="white"/>
<path d="M36.8439 16.6544C35.9278 16.1631 35.4569 15.749 35.4569 15.1798C35.4569 14.4555 36.111 13.9902 37.1323 13.9902C38.3213 13.9902 39.3829 14.4815 39.3829 14.4815L40.2202 11.9465C40.2202 11.9465 39.4503 11.3513 37.1841 11.3513C34.0305 11.3513 31.8448 13.136 31.8448 15.6451C31.8448 17.0676 32.8654 18.1541 34.2269 18.9295C35.3263 19.5499 35.719 19.99 35.719 20.6363C35.719 21.3087 35.1694 21.8519 34.1488 21.8519C32.6279 21.8519 31.1916 21.0756 31.1916 21.0756L30.3018 23.6106C30.3018 23.6106 31.6288 24.49 33.8612 24.49C37.1069 24.49 39.4363 22.9123 39.4363 20.0671C39.4355 18.5422 38.258 17.4558 36.8439 16.6544Z" fill="#060C3C"/>
<path d="M49.774 11.3259C48.1773 11.3259 46.921 12.0762 45.9531 13.2138L45.9005 13.1878L47.2874 6.02368H43.6754L40.1685 24.2575H43.7805L44.9843 18.0248C45.4551 15.6708 46.6852 14.2231 47.8372 14.2231C48.6481 14.2231 48.9629 14.7663 48.9629 15.5425C48.9629 16.0338 48.9103 16.629 48.8059 17.1202L47.4452 24.2584H51.0575L52.4704 16.8872C52.6276 16.1109 52.7326 15.1804 52.7326 14.5592C52.7311 12.5415 51.6582 11.3259 49.774 11.3259Z" fill="#060C3C"/>
<path d="M60.8968 11.3259C56.5516 11.3259 53.6736 15.2056 53.6736 19.5245C53.6736 22.2918 55.4005 24.5158 58.6463 24.5158C62.9124 24.5158 65.7915 20.7401 65.7915 16.3172C65.7915 13.757 64.2731 11.3259 60.8968 11.3259ZM59.1171 21.7753C57.8869 21.7753 57.3633 20.7409 57.3633 19.4474C57.3633 17.4044 58.4368 14.068 60.3997 14.068C61.6822 14.068 62.1002 15.1544 62.1002 16.2149C62.1002 18.4129 61.0282 21.7753 59.1171 21.7753Z" fill="#060C3C"/>
<path d="M75.0305 11.3259C72.5924 11.3259 71.2089 13.4468 71.2089 13.4468H71.1571L71.3666 11.533H68.1736C68.0168 12.8265 67.7281 14.7915 67.441 16.266L64.9282 29.3268H68.5403L69.5342 24.0505H69.6133C69.6133 24.0505 70.3544 24.5158 71.7334 24.5158C75.9731 24.5158 78.7471 20.2228 78.7471 15.8771C78.7471 13.4728 77.6737 11.3259 75.0305 11.3259ZM71.5757 21.8265C70.638 21.8265 70.0831 21.3092 70.0831 21.3092L70.6853 17.9728C71.1044 15.7488 72.2819 14.2742 73.5385 14.2742C74.6379 14.2742 74.9778 15.2827 74.9778 16.2401C74.9778 18.542 73.5907 21.8265 71.5757 21.8265Z" fill="#060C3C"/>
<path d="M83.9028 6.20483C82.7517 6.20483 81.8354 7.11019 81.8354 8.27375C81.8354 9.33423 82.5158 10.0585 83.5365 10.0585H83.5888C84.7145 10.0585 85.6825 9.30821 85.7089 7.98959C85.7089 6.95508 85.0022 6.20483 83.9028 6.20483Z" fill="#060C3C"/>
<path d="M78.8521 24.2577H82.4632L84.9242 11.6111H81.2857L78.8521 24.2577Z" fill="#060C3C"/>
<path d="M94.1107 11.5851H91.598L91.7284 10.9899C91.9379 9.77436 92.671 8.68792 93.8748 8.68792C94.5173 8.68792 95.026 8.869 95.026 8.869L95.7327 6.07581C95.7327 6.07581 95.1046 5.76562 93.7693 5.76562C92.4868 5.76562 91.2053 6.12774 90.2363 6.95515C89.0061 7.98966 88.4303 9.48936 88.1426 10.9899L88.0386 11.5851H86.3629L85.8394 14.2752H87.5151L85.6045 24.2585H89.2166L91.1272 14.2752H93.6136L94.1107 11.5851Z" fill="#060C3C"/>
<path d="M102.8 11.6112C102.8 11.6112 100.542 17.2325 99.5278 20.301H99.4751C99.4064 19.3128 98.5852 11.6112 98.5852 11.6112H94.79L96.9633 23.2233C97.016 23.4816 96.9897 23.6375 96.8847 23.8185C96.4651 24.6199 95.7589 25.3962 94.9213 25.9654C94.241 26.4566 93.4821 26.7668 92.8804 26.9738L93.8747 30.0001C94.6078 29.845 96.1252 29.2499 97.4077 28.0603C99.057 26.5346 100.574 24.1807 102.145 20.9733L106.568 11.6104H102.8V11.6112Z" fill="#060C3C"/>
</g>
<defs>
<clipPath id="clip0_1_4621">
<rect width="130" height="30" fill="white"/>
</clipPath>
</defs>
</svg>
