<svg width="20" height="20" viewBox="0 0 20 20" fill="none" xmlns="http://www.w3.org/2000/svg">
<g clip-path="url(#clip0_2001_3493)">
<path d="M7.36913 10.5425C6.20913 10.5425 5.2683 11.4833 5.2683 12.6433V17.8983C5.2683 19.0583 6.20913 19.9991 7.36913 19.9991C8.52913 19.9991 9.46996 19.0583 9.46996 17.8983V12.6433C9.46912 11.4833 8.52829 10.5425 7.36913 10.5425Z" fill="#B4B6C4"/>
<path d="M0.0158691 12.6435C0.0158691 13.8043 0.957536 14.746 2.11837 14.746C3.2792 14.746 4.22087 13.8043 4.22087 12.6435V10.541H2.12004C2.1192 10.541 2.1192 10.541 2.11837 10.541C0.957536 10.541 0.0158691 11.4827 0.0158691 12.6435V12.6435Z" fill="#B4B6C4"/>
<path d="M7.37171 -0.000976562C7.37087 -0.000976562 7.37004 -0.000976562 7.36921 -0.000976562C6.20837 -0.000976562 5.26671 0.94069 5.26671 2.10152C5.26671 3.26236 6.20837 4.20402 7.36921 4.20402H9.47004V2.10152C9.47004 2.10069 9.47004 2.09902 9.47004 2.09736C9.4692 0.93819 8.53004 -0.000976562 7.37171 -0.000976562V-0.000976562Z" fill="#B4B6C4"/>
<path d="M2.10419 9.47501H7.36919C8.53003 9.47501 9.47169 8.53335 9.47169 7.37252C9.47169 6.21169 8.53003 5.27002 7.36919 5.27002H2.10419C0.94336 5.27002 0.00169373 6.21169 0.00169373 7.37252C0.00169373 8.53335 0.94336 9.47501 2.10419 9.47501V9.47501Z" fill="#B4B6C4"/>
<path d="M17.8809 5.26904C16.7217 5.26904 15.7825 6.20821 15.7825 7.36738V7.37154V9.47404H17.8834C19.0442 9.47404 19.9859 8.53238 19.9859 7.37154C19.9859 6.21071 19.0442 5.26904 17.8834 5.26904C17.8825 5.26904 17.8817 5.26904 17.8809 5.26904V5.26904Z" fill="#B4B6C4"/>
<path d="M10.5341 2.10181V7.37264C10.5341 8.53264 11.475 9.47348 12.635 9.47348C13.795 9.47348 14.7358 8.53264 14.7358 7.37264V2.10181C14.7358 0.94181 13.795 0.000976562 12.635 0.000976562C11.475 0.000976562 10.5341 0.94181 10.5341 2.10181V2.10181Z" fill="#B4B6C4"/>
<path d="M14.735 17.8967C14.735 16.7367 13.7941 15.7959 12.6341 15.7959H10.5333V17.8984C10.5341 19.0576 11.4741 19.9976 12.6341 19.9976C13.7941 19.9976 14.735 19.0567 14.735 17.8967Z" fill="#B4B6C4"/>
<path d="M17.8992 10.541H12.6342C11.4733 10.541 10.5317 11.4827 10.5317 12.6435C10.5317 13.8043 11.4733 14.746 12.6342 14.746H17.8992C19.06 14.746 20.0017 13.8043 20.0017 12.6435C20.0017 11.4827 19.06 10.541 17.8992 10.541V10.541Z" fill="#B4B6C4"/>
</g>
<defs>
<clipPath id="clip0_2001_3493">
<rect width="20" height="20" fill="white"/>
</clipPath>
</defs>
</svg>
